<?xml version="1.0" encoding="utf-8"?>
<!-- Generator: Adobe Illustrator 19.2.1, SVG Export Plug-In . SVG Version: 6.00 Build 0)  -->
<svg version="1.1" id="close" xmlns="http://www.w3.org/2000/svg" xmlns:xlink="http://www.w3.org/1999/xlink" x="0px" y="0px"
	 viewBox="0 0 176 176" style="enable-background:new 0 0 176 176;" xml:space="preserve">
<style type="text/css">
	.st0{opacity:0.6;enable-background:new    ;}
	.st1{fill:#BFBFBF;}
	.st2{fill:#F4F4F4;}
</style>
<title>menu-close-up</title>
<g id="close-btn-down">
	<path class="st0" d="M56.2,127.8c-3.4-0.1-6.4-2.1-7.7-5.2c-1.3-3-0.7-6.4,1.6-8.8l24.8-26.1L50.1,61.7c-2.2-2.3-2.9-5.8-1.6-8.7
		c1.3-3.1,4.3-5.1,7.7-5.2c2.2,0,4.2,0.9,5.7,2.5l24.3,25.6l23.9-25.2c1.5-1.6,3.5-2.5,5.7-2.5c3.4,0.1,6.4,2.1,7.7,5.2
		c1.3,3,0.7,6.4-1.6,8.8L97.5,87.8l24.4,25.6c2.3,2.3,2.9,5.8,1.6,8.8c-1.3,3.1-4.3,5.1-7.7,5.2l0,0c-2.2,0-4.2-0.9-5.7-2.5
		L86.2,99.7l-24.3,25.6C60.4,126.9,58.3,127.8,56.2,127.8z"/>
	<path class="st1" d="M119,116.2L92,87.8l19.5-20.5l7.5-7.9c3.7-3.9-2.2-9.9-5.9-5.9L86.2,81.7L66.5,61L59,53c-3.8-3.9-9.7,2-6,6
		l27.4,28.8l-19.9,20.9l-7.6,7.9c-3.7,3.9,2.2,9.9,5.9,5.9l27.3-28.7l19.3,20.3l7.5,7.9C116.8,126.1,122.7,120.1,119,116.2z"/>
	<path class="st2" d="M56.2,121.8c-1-0.1-1.8-0.7-2.2-1.6c-0.4-0.8-0.2-1.7,0.5-2.3l28.7-30.2L54.5,57.6c-0.6-0.6-0.8-1.5-0.5-2.3
		c0.4-0.9,1.2-1.5,2.2-1.6c0.5,0,1,0.3,1.3,0.7l28.7,30.2l28.3-29.8c0.3-0.4,0.8-0.6,1.3-0.7c1,0.1,1.8,0.7,2.2,1.6
		c0.3,0.8,0.2,1.7-0.4,2.3L89.2,87.8l28.3,29.8c0.6,0.6,0.8,1.5,0.4,2.3c-0.4,0.9-1.2,1.5-2.2,1.6l0,0c-0.5,0-1-0.3-1.3-0.7L86.2,91
		l-28.7,30.2C57.2,121.6,56.7,121.8,56.2,121.8z"/>
</g>
</svg>
