<?xml version="1.0" encoding="utf-8"?>
<!-- Generator: Adobe Illustrator 19.2.1, SVG Export Plug-In . SVG Version: 6.00 Build 0)  -->
<svg version="1.1" id="sound" xmlns="http://www.w3.org/2000/svg" xmlns:xlink="http://www.w3.org/1999/xlink" x="0px" y="0px"
	 viewBox="0 0 176 176" style="enable-background:new 0 0 176 176;" xml:space="preserve">
<style type="text/css">
	.st0{display:none;}
	.st1{opacity:0.5;fill:#898989;enable-background:new    ;}
	.st2{display:inline;}
	.st3{opacity:0.6;}
	.st4{fill:#BFBFBF;}
	.st5{fill:#F4F4F4;}
	.st6{opacity:0.6;enable-background:new    ;}
	.st7{display:none;opacity:0.5;enable-background:new    ;}
</style>
<g id="sound-btn-over" class="st0">
	<rect class="st1" width="176" height="176"/>
	<g class="st2">
		<g>
			<g class="st3">
				<path d="M81,122.8c-6.4,0-9.6-4-12.2-7.2c-0.3-0.4-0.6-0.8-0.9-1.1c-0.7-0.8-1.3-1.6-2-2.3c-1.1-1.3-2.2-2.6-3.4-4.1H43
					c-4.5,0-8-3.6-8-8.1V67.7c0-4.7,3.7-8.6,8-8.6h19.5c0.4-0.6,0.9-1.2,1.4-1.8c4.2-5.6,9.5-12.7,17.3-12.7c2.2,0,4.4,0.6,6.5,1.8
					c8.1,4.5,7.7,13.8,7.5,20.6c0,1.2-0.1,2.3-0.1,3.3v31.5c0,5.8,0,12.9-4.5,17.4C88.2,121.6,85,122.8,81,122.8L81,122.8z
					 M63.7,91.5c2.9,0,5.1,0.5,6.8,1.5c3,1.7,5.3,4.8,7.3,7.6c0.4,0.6,0.8,1.1,1.2,1.6c0-0.8-0.1-1.5-0.1-2.2V69c0-1,0-2,0.1-3
					c0-0.4,0-0.7,0-1.1l-6.3,7.8c-0.1,0.1-0.2,0.3-0.3,0.5C70.2,76,67.1,76,66,76H50.8v16h4.7c0.8,0,1.9-0.1,3-0.2
					C60.3,91.7,62,91.5,63.7,91.5z"/>
			</g>
			<path class="st4" d="M85.7,49.9c-9.5-5.2-16.2,7.2-21.2,13.2c-7.1,0-14.3,0-21.4,0c-2.3,0-4,2.4-4,4.6c0,10.8,0,21.5,0,32.3
				c0,2.3,1.7,4.1,4,4.1c7.2,0,14.3,0,21.5,0c2.1,3,4.3,5.2,6.4,7.8c2.8,3.4,5,6.9,10,6.9c10.5,0,10-10.6,10-18
				c0-10.2,0-20.3,0-30.5C91,63.5,92.8,53.8,85.7,49.9z M82.9,108.4c-1.4,4.9-4.8-1-6.2-2.8c-2.3-2.8-4.9-7.3-8-9.2
				c-3.2-1.8-9.5-0.4-12.9-0.4c-2.8,0-5.7,0-8.7,0c0-8,0-16,0-24c6,0,12.4,0,18.6,0c1.3,0,2.7,0.1,3.9-1.3v-0.1c0,0,0-0.1,0.1-0.1
				c2.6-3.2,5.2-6.4,7.7-9.6c1.6-1.9,4.7-6.4,5.6-1.2c0.5,2.9,0.1,6.4,0.1,9.4c0,5.1,0,10.3,0,15.4c0,5.2,0,10.4,0,15.6
				C83,102.5,83.6,106.1,82.9,108.4z"/>
			<path class="st5" d="M81,116.8c-3.3,0-4.9-1.8-7.5-5c-0.3-0.4-0.6-0.8-1-1.2c-0.7-0.8-1.4-1.6-2.1-2.4c-1.5-1.7-2.9-3.3-4.3-5.3
				l-0.6-0.8H43c-1.1,0-2-0.9-2-2.1V67.7c0-1.3,1-2.6,2-2.6h22.4l0.6-0.7c0.9-1,1.8-2.2,2.7-3.5c3.4-4.6,7.7-10.3,12.5-10.3
				c1.2,0,2.4,0.3,3.6,1c4.9,2.7,4.6,9,4.4,15.1C89,68,89,69.2,89,70.3v31.5c0,4.6,0,10.4-2.7,13.2C85.1,116.2,83.3,116.8,81,116.8
				L81,116.8z M63.7,97.5c1.8,0,3.1,0.2,3.9,0.7c1.9,1.1,3.8,3.7,5.4,5.9c0.7,1,1.4,1.9,2.1,2.8c0.2,0.3,0.5,0.6,0.7,1
				c1.5,2.1,3.2,4.4,5.5,4.4c0.9,0,2.7-0.4,3.5-3.3c0.6-2,0.4-4.4,0.3-6.6c-0.1-0.8-0.1-1.6-0.1-2.3v-31c0-0.9,0-1.8,0.1-2.7
				c0.1-2.3,0.2-4.7-0.2-7c-0.6-3.4-2.3-4.1-3.5-4.1c-2.1,0-3.9,2.2-5.3,4l-8.2,10.2l0,0l-0.1,0.1v0.1c-0.3,0.3-0.7,0.4-1.6,0.4H45
				v28h10.7c1,0,2.3-0.1,3.6-0.2C60.8,97.7,62.3,97.5,63.7,97.5z"/>
		</g>
		<g>
			<path class="st6" d="M103.2,113.7c-3.2,0-6.3-2.1-7.6-5.2c-1.3-3-0.7-6.4,1.5-8.8c7.5-8.1,7.4-20.2-0.3-28.1
				c-2.3-2.4-3-5.7-1.7-8.7c1.3-3.1,4.4-5.3,7.7-5.3c2.1,0,4.1,0.9,5.7,2.5c13.9,14.4,14.1,36.3,0.5,51
				C107.3,112.8,105.3,113.7,103.2,113.7L103.2,113.7z"/>
			<path class="st4" d="M105.5,62.9c-3.8-3.9-9.7,2.1-5.9,5.9c9.2,9.5,9.4,23.9,0.4,33.6c-3.7,4,2.3,9.9,5.9,5.9
				C118.1,95.3,118,75.7,105.5,62.9z"/>
			<path class="st5" d="M103.2,107.7c-0.8,0-1.7-0.7-2.1-1.6c-0.4-0.8-0.2-1.6,0.4-2.3c9.7-10.5,9.5-26.1-0.4-36.4
				c-0.6-0.7-0.8-1.4-0.5-2.2c0.4-0.9,1.3-1.6,2.2-1.6c0.5,0,0.9,0.2,1.4,0.7c11.7,12,11.8,30.4,0.4,42.8
				C104.1,107.5,103.6,107.7,103.2,107.7L103.2,107.7z"/>
		</g>
		<g>
			<path class="st6" d="M115.1,129.7c-3.4,0-6.7-2.3-7.9-5.5c-1.2-3-0.4-6.3,2.1-8.6c8.5-7.9,13.2-18.5,13.2-29.9s-4.7-22-13.2-29.9
				c-2.4-2.3-3.2-5.5-2.1-8.6c1.3-3.2,4.5-5.5,7.9-5.5c2,0,3.9,0.8,5.5,2.2c11.6,10.7,18.2,25.9,18.2,41.7s-6.6,31-18.2,41.7
				C119.1,129,117.2,129.7,115.1,129.7L115.1,129.7z"/>
			<path class="st4" d="M117.9,47.1c-4-3.7-9.9,2.3-5.9,5.9c19.3,17.8,19.3,47.7,0,65.6c-4,3.7,2,9.6,5.9,5.9
				C140.5,103.7,140.5,67.9,117.9,47.1z"/>
			<path class="st5" d="M115.1,123.7c-0.9,0-2-0.7-2.3-1.7c-0.3-0.7-0.1-1.4,0.5-2c9.8-9,15.1-21.2,15.1-34.3s-5.4-25.3-15.1-34.3
				c-0.6-0.6-0.8-1.2-0.5-2c0.4-0.9,1.4-1.7,2.3-1.7c0.5,0,1,0.2,1.4,0.6c10.3,9.6,16.3,23.1,16.3,37.3c0,14.1-5.9,27.7-16.3,37.3
				C116.1,123.5,115.7,123.7,115.1,123.7L115.1,123.7z"/>
		</g>
	</g>
</g>
<g id="sound-btn-down" class="st0">
	<rect class="st2" width="176" height="176"/>
	<g class="st2">
		<g>
			<g class="st3">
				<path d="M81,122.8c-6.4,0-9.6-4-12.2-7.2c-0.3-0.4-0.6-0.8-0.9-1.1c-0.7-0.8-1.3-1.6-2-2.3c-1.1-1.3-2.2-2.6-3.4-4.1H43
					c-4.5,0-8-3.6-8-8.1V67.7c0-4.7,3.7-8.6,8-8.6h19.5c0.4-0.6,0.9-1.2,1.4-1.8c4.2-5.6,9.5-12.7,17.3-12.7c2.2,0,4.4,0.6,6.5,1.8
					c8.1,4.5,7.7,13.8,7.5,20.6c0,1.2-0.1,2.3-0.1,3.3v31.5c0,5.8,0,12.9-4.5,17.4C88.2,121.6,85,122.8,81,122.8L81,122.8z
					 M63.7,91.5c2.9,0,5.1,0.5,6.8,1.5c3,1.7,5.3,4.8,7.3,7.6c0.4,0.6,0.8,1.1,1.2,1.6c0-0.8-0.1-1.5-0.1-2.2V69c0-1,0-2,0.1-3
					c0-0.4,0-0.7,0-1.1l-6.3,7.8c-0.1,0.1-0.2,0.3-0.3,0.5C70.2,76,67.1,76,66,76H50.8v16h4.7c0.8,0,1.9-0.1,3-0.2
					C60.3,91.7,62,91.5,63.7,91.5z"/>
			</g>
			<path class="st4" d="M85.7,49.9c-9.5-5.2-16.2,7.2-21.2,13.2c-7.1,0-14.3,0-21.4,0c-2.3,0-4,2.4-4,4.6c0,10.8,0,21.5,0,32.3
				c0,2.3,1.7,4.1,4,4.1c7.2,0,14.3,0,21.5,0c2.1,3,4.3,5.2,6.4,7.8c2.8,3.4,5,6.9,10,6.9c10.5,0,10-10.6,10-18
				c0-10.2,0-20.3,0-30.5C91,63.5,92.8,53.8,85.7,49.9z M82.9,108.4c-1.4,4.9-4.8-1-6.2-2.8c-2.3-2.8-4.9-7.3-8-9.2
				c-3.2-1.8-9.5-0.4-12.9-0.4c-2.8,0-5.7,0-8.7,0c0-8,0-16,0-24c6,0,12.4,0,18.6,0c1.3,0,2.7,0.1,3.9-1.3v-0.1c0,0,0-0.1,0.1-0.1
				c2.6-3.2,5.2-6.4,7.7-9.6c1.6-1.9,4.7-6.4,5.6-1.2c0.5,2.9,0.1,6.4,0.1,9.4c0,5.1,0,10.3,0,15.4c0,5.2,0,10.4,0,15.6
				C83,102.5,83.6,106.1,82.9,108.4z"/>
			<path class="st5" d="M81,116.8c-3.3,0-4.9-1.8-7.5-5c-0.3-0.4-0.6-0.8-1-1.2c-0.7-0.8-1.4-1.6-2.1-2.4c-1.5-1.7-2.9-3.3-4.3-5.3
				l-0.6-0.8H43c-1.1,0-2-0.9-2-2.1V67.7c0-1.3,1-2.6,2-2.6h22.4l0.6-0.7c0.9-1,1.8-2.2,2.7-3.5c3.4-4.6,7.7-10.3,12.5-10.3
				c1.2,0,2.4,0.3,3.6,1c4.9,2.7,4.6,9,4.4,15.1C89,68,89,69.2,89,70.3v31.5c0,4.6,0,10.4-2.7,13.2C85.1,116.2,83.3,116.8,81,116.8
				L81,116.8z M63.7,97.5c1.8,0,3.1,0.2,3.9,0.7c1.9,1.1,3.8,3.7,5.4,5.9c0.7,1,1.4,1.9,2.1,2.8c0.2,0.3,0.5,0.6,0.7,1
				c1.5,2.1,3.2,4.4,5.5,4.4c0.9,0,2.7-0.4,3.5-3.3c0.6-2,0.4-4.4,0.3-6.6c-0.1-0.8-0.1-1.6-0.1-2.3v-31c0-0.9,0-1.8,0.1-2.7
				c0.1-2.3,0.2-4.7-0.2-7c-0.6-3.4-2.3-4.1-3.5-4.1c-2.1,0-3.9,2.2-5.3,4l-8.2,10.2l0,0l-0.1,0.1v0.1c-0.3,0.3-0.7,0.4-1.6,0.4H45
				v28h10.7c1,0,2.3-0.1,3.6-0.2C60.8,97.7,62.3,97.5,63.7,97.5z"/>
		</g>
		<g>
			<path class="st6" d="M103.2,113.7c-3.2,0-6.3-2.1-7.6-5.2c-1.3-3-0.7-6.4,1.5-8.8c7.5-8.1,7.4-20.2-0.3-28.1
				c-2.3-2.4-3-5.7-1.7-8.7c1.3-3.1,4.4-5.3,7.7-5.3c2.1,0,4.1,0.9,5.7,2.5c13.9,14.4,14.1,36.3,0.5,51
				C107.3,112.8,105.3,113.7,103.2,113.7L103.2,113.7z"/>
			<path class="st4" d="M105.5,62.9c-3.8-3.9-9.7,2.1-5.9,5.9c9.2,9.5,9.4,23.9,0.4,33.6c-3.7,4,2.3,9.9,5.9,5.9
				C118.1,95.3,118,75.7,105.5,62.9z"/>
			<path class="st5" d="M103.2,107.7c-0.8,0-1.7-0.7-2.1-1.6c-0.4-0.8-0.2-1.6,0.4-2.3c9.7-10.5,9.5-26.1-0.4-36.4
				c-0.6-0.7-0.8-1.4-0.5-2.2c0.4-0.9,1.3-1.6,2.2-1.6c0.5,0,0.9,0.2,1.4,0.7c11.7,12,11.8,30.4,0.4,42.8
				C104.1,107.5,103.6,107.7,103.2,107.7L103.2,107.7z"/>
		</g>
		<g>
			<path class="st6" d="M115.1,129.7c-3.4,0-6.7-2.3-7.9-5.5c-1.2-3-0.4-6.3,2.1-8.6c8.5-7.9,13.2-18.5,13.2-29.9s-4.7-22-13.2-29.9
				c-2.4-2.3-3.2-5.5-2.1-8.6c1.3-3.2,4.5-5.5,7.9-5.5c2,0,3.9,0.8,5.5,2.2c11.6,10.7,18.2,25.9,18.2,41.7s-6.6,31-18.2,41.7
				C119.1,129,117.2,129.7,115.1,129.7L115.1,129.7z"/>
			<path class="st4" d="M117.9,47.1c-4-3.7-9.9,2.3-5.9,5.9c19.3,17.8,19.3,47.7,0,65.6c-4,3.7,2,9.6,5.9,5.9
				C140.5,103.7,140.5,67.9,117.9,47.1z"/>
			<path class="st5" d="M115.1,123.7c-0.9,0-2-0.7-2.3-1.7c-0.3-0.7-0.1-1.4,0.5-2c9.8-9,15.1-21.2,15.1-34.3s-5.4-25.3-15.1-34.3
				c-0.6-0.6-0.8-1.2-0.5-2c0.4-0.9,1.4-1.7,2.3-1.7c0.5,0,1,0.2,1.4,0.6c10.3,9.6,16.3,23.1,16.3,37.3c0,14.1-5.9,27.7-16.3,37.3
				C116.1,123.5,115.7,123.7,115.1,123.7L115.1,123.7z"/>
		</g>
	</g>
</g>
<g id="sound-btn-up">
	<rect class="st7" width="176" height="176"/>
	<g>
		<g>
			<g class="st3">
				<path d="M81,122.8c-6.4,0-9.6-4-12.2-7.2c-0.3-0.4-0.6-0.8-0.9-1.1c-0.7-0.8-1.3-1.6-2-2.3c-1.1-1.3-2.2-2.6-3.4-4.1H43
					c-4.5,0-8-3.6-8-8.1V67.7c0-4.7,3.7-8.6,8-8.6h19.5c0.4-0.6,0.9-1.2,1.4-1.8c4.2-5.6,9.5-12.7,17.3-12.7c2.2,0,4.4,0.6,6.5,1.8
					c8.1,4.5,7.7,13.8,7.5,20.6c0,1.2-0.1,2.3-0.1,3.3v31.5c0,5.8,0,12.9-4.5,17.4C88.2,121.6,85,122.8,81,122.8L81,122.8z
					 M63.7,91.5c2.9,0,5.1,0.5,6.8,1.5c3,1.7,5.3,4.8,7.3,7.6c0.4,0.6,0.8,1.1,1.2,1.6c0-0.8-0.1-1.5-0.1-2.2V69c0-1,0-2,0.1-3
					c0-0.4,0-0.7,0-1.1l-6.3,7.8c-0.1,0.1-0.2,0.3-0.3,0.5C70.2,76,67.1,76,66,76H50.8v16h4.7c0.8,0,1.9-0.1,3-0.2
					C60.3,91.7,62,91.5,63.7,91.5z"/>
			</g>
			<path class="st4" d="M85.7,49.9c-9.5-5.2-16.2,7.2-21.2,13.2c-7.1,0-14.3,0-21.4,0c-2.3,0-4,2.4-4,4.6c0,10.8,0,21.5,0,32.3
				c0,2.3,1.7,4.1,4,4.1c7.2,0,14.3,0,21.5,0c2.1,3,4.3,5.2,6.4,7.8c2.8,3.4,5,6.9,10,6.9c10.5,0,10-10.6,10-18
				c0-10.2,0-20.3,0-30.5C91,63.5,92.8,53.8,85.7,49.9z M82.9,108.4c-1.4,4.9-4.8-1-6.2-2.8c-2.3-2.8-4.9-7.3-8-9.2
				c-3.2-1.8-9.5-0.4-12.9-0.4c-2.8,0-5.7,0-8.7,0c0-8,0-16,0-24c6,0,12.4,0,18.6,0c1.3,0,2.7,0.1,3.9-1.3v-0.1c0,0,0-0.1,0.1-0.1
				c2.6-3.2,5.2-6.4,7.7-9.6c1.6-1.9,4.7-6.4,5.6-1.2c0.5,2.9,0.1,6.4,0.1,9.4c0,5.1,0,10.3,0,15.4c0,5.2,0,10.4,0,15.6
				C83,102.5,83.6,106.1,82.9,108.4z"/>
			<path class="st5" d="M81,116.8c-3.3,0-4.9-1.8-7.5-5c-0.3-0.4-0.6-0.8-1-1.2c-0.7-0.8-1.4-1.6-2.1-2.4c-1.5-1.7-2.9-3.3-4.3-5.3
				l-0.6-0.8H43c-1.1,0-2-0.9-2-2.1V67.7c0-1.3,1-2.6,2-2.6h22.4l0.6-0.7c0.9-1,1.8-2.2,2.7-3.5c3.4-4.6,7.7-10.3,12.5-10.3
				c1.2,0,2.4,0.3,3.6,1c4.9,2.7,4.6,9,4.4,15.1C89,68,89,69.2,89,70.3v31.5c0,4.6,0,10.4-2.7,13.2C85.1,116.2,83.3,116.8,81,116.8
				L81,116.8z M63.7,97.5c1.8,0,3.1,0.2,3.9,0.7c1.9,1.1,3.8,3.7,5.4,5.9c0.7,1,1.4,1.9,2.1,2.8c0.2,0.3,0.5,0.6,0.7,1
				c1.5,2.1,3.2,4.4,5.5,4.4c0.9,0,2.7-0.4,3.5-3.3c0.6-2,0.4-4.4,0.3-6.6c-0.1-0.8-0.1-1.6-0.1-2.3v-31c0-0.9,0-1.8,0.1-2.7
				c0.1-2.3,0.2-4.7-0.2-7c-0.6-3.4-2.3-4.1-3.5-4.1c-2.1,0-3.9,2.2-5.3,4l-8.2,10.2l0,0l-0.1,0.1v0.1c-0.3,0.3-0.7,0.4-1.6,0.4H45
				v28h10.7c1,0,2.3-0.1,3.6-0.2C60.8,97.7,62.3,97.5,63.7,97.5z"/>
		</g>
		<g>
			<path class="st6" d="M103.2,113.7c-3.2,0-6.3-2.1-7.6-5.2c-1.3-3-0.7-6.4,1.5-8.8c7.5-8.1,7.4-20.2-0.3-28.1
				c-2.3-2.4-3-5.7-1.7-8.7c1.3-3.1,4.4-5.3,7.7-5.3c2.1,0,4.1,0.9,5.7,2.5c13.9,14.4,14.1,36.3,0.5,51
				C107.3,112.8,105.3,113.7,103.2,113.7L103.2,113.7z"/>
			<path class="st4" d="M105.5,62.9c-3.8-3.9-9.7,2.1-5.9,5.9c9.2,9.5,9.4,23.9,0.4,33.6c-3.7,4,2.3,9.9,5.9,5.9
				C118.1,95.3,118,75.7,105.5,62.9z"/>
			<path class="st5" d="M103.2,107.7c-0.8,0-1.7-0.7-2.1-1.6c-0.4-0.8-0.2-1.6,0.4-2.3c9.7-10.5,9.5-26.1-0.4-36.4
				c-0.6-0.7-0.8-1.4-0.5-2.2c0.4-0.9,1.3-1.6,2.2-1.6c0.5,0,0.9,0.2,1.4,0.7c11.7,12,11.8,30.4,0.4,42.8
				C104.1,107.5,103.6,107.7,103.2,107.7L103.2,107.7z"/>
		</g>
		<g>
			<path class="st6" d="M115.1,129.7c-3.4,0-6.7-2.3-7.9-5.5c-1.2-3-0.4-6.3,2.1-8.6c8.5-7.9,13.2-18.5,13.2-29.9s-4.7-22-13.2-29.9
				c-2.4-2.3-3.2-5.5-2.1-8.6c1.3-3.2,4.5-5.5,7.9-5.5c2,0,3.9,0.8,5.5,2.2c11.6,10.7,18.2,25.9,18.2,41.7s-6.6,31-18.2,41.7
				C119.1,129,117.2,129.7,115.1,129.7L115.1,129.7z"/>
			<path class="st4" d="M117.9,47.1c-4-3.7-9.9,2.3-5.9,5.9c19.3,17.8,19.3,47.7,0,65.6c-4,3.7,2,9.6,5.9,5.9
				C140.5,103.7,140.5,67.9,117.9,47.1z"/>
			<path class="st5" d="M115.1,123.7c-0.9,0-2-0.7-2.3-1.7c-0.3-0.7-0.1-1.4,0.5-2c9.8-9,15.1-21.2,15.1-34.3s-5.4-25.3-15.1-34.3
				c-0.6-0.6-0.8-1.2-0.5-2c0.4-0.9,1.4-1.7,2.3-1.7c0.5,0,1,0.2,1.4,0.6c10.3,9.6,16.3,23.1,16.3,37.3c0,14.1-5.9,27.7-16.3,37.3
				C116.1,123.5,115.7,123.7,115.1,123.7L115.1,123.7z"/>
		</g>
	</g>
</g>
</svg>
