<?xml version="1.0" encoding="utf-8"?>
<!-- Generator: Adobe Illustrator 19.2.1, SVG Export Plug-In . SVG Version: 6.00 Build 0)  -->
<svg version="1.1" id="Layer_1" xmlns="http://www.w3.org/2000/svg" xmlns:xlink="http://www.w3.org/1999/xlink" x="0px" y="0px"
	 viewBox="0 0 352 176" style="enable-background:new 0 0 352 176;" xml:space="preserve">
<style type="text/css">
	.st0{opacity:0.6;}
	.st1{fill:#232020;}
	.st2{fill:#BFBFBF;}
	.st3{fill:#F4F4F4;}
</style>
<title>menu-history-btn</title>
<g id="history-btn-up">
	<g class="st0">
		<path class="st1" d="M176.3,137.9c-24,0.2-43.7-19.1-43.9-43.1c-0.1-10.2,3.4-20.1,9.9-28c4-4.9,9.1-8.8,14.8-11.5
			c1.7-10,9-16.5,18.9-16.5s17.3,6.5,19,16.4c1,0.5,1.9,1,2.9,1.5c1.4-1,3-1.5,4.7-1.5c3.7-0.1,6.9,2.4,7.8,6c0.5,1.9,0.3,4-0.5,5.8
			c6.2,7.7,9.6,17.3,9.8,27.2v0.2c-0.4,20.8-15.1,38.8-34.9,42.6C181.9,137.6,179.1,137.9,176.3,137.9L176.3,137.9L176.3,137.9z
			 M175.9,67.1c-10.4,0-19.7,6.2-24.3,16.3c-4.5,9.8-3.2,20.5,3.6,28.5c5.2,6.1,12.9,9.6,20.9,9.6c3.2,0,6.3-0.6,9.3-1.6
			c10.4-3.8,17.5-14,17.7-25.5c-0.3-13.2-9.6-24.4-22.2-26.7C179.3,67.3,177.6,67.1,175.9,67.1L175.9,67.1z"/>
		<path class="st1" d="M175.4,103c-4.5,0-8.3-3.6-8.4-8.1V77c0-4.4,3.6-7.8,8.5-7.8s8.5,3.3,8.5,7.8v10h5c4.4,0,8,3.6,8,8
			s-3.6,8-8,8H175.4z"/>
	</g>
	<path class="st2" d="M204.6,67.1c3.2-1.8,2.6-7.9-2-7.9c-1.8-0.1-3.4,1.1-3.9,2.8c-2.3-1.7-4.8-3-7.5-4.2
		c-0.6-8.5-6-15.1-15.2-15.2s-14.6,6.7-15.2,15.2c-6,2.5-11.3,6.4-15.4,11.3c-13.9,16.9-11.4,41.8,5.4,55.7
		c9.2,7.6,21.4,10.6,33,8.2c18.4-3.6,31.3-20.3,31.6-38.8C215.4,84.2,211.5,74.5,204.6,67.1z M176,48.7c5.1,0,7.9,2.9,8.9,7.1
		c-5.9-1.3-11.9-1.3-17.8,0.1C168.1,51.7,170.9,48.8,176,48.7z M186.8,123.6c-12.3,4.4-26.1,0.8-34.6-9.1
		c-18.6-21.8,1.4-56,29.5-50.8c14.8,2.8,25.2,15.8,25.5,30.7C206.9,107.3,199.1,119.1,186.8,123.6L186.8,123.6z"/>
	<path class="st2" d="M189,91h-9V77c0-5-9-5-9,0v17.9c0.2,2.3,2.1,4.1,4.4,4.1H189C195,99,195,91,189,91z"/>
	<path class="st3" d="M176.3,131.9c-20.7,0.2-37.6-16.4-37.8-37.1c-0.1-8.8,2.9-17.4,8.6-24.2c3.9-4.7,8.9-8.4,14.6-10.8l1.1-0.5
		l0.1-1.2c0.5-6.5,4.2-13.3,13.2-13.3s12.8,6.9,13.3,13.3l0.1,1.2l1.1,0.5c2.5,1.1,4.9,2.4,7.1,3.9l2.3,1.6l0.8-2.7
		c0.3-1.1,1.4-1.7,2.4-1.4c0.7,0.2,1.3,0.8,1.5,1.5c0.3,1-0.1,2.1-0.9,2.7l-2.3,1.2l1.8,1.9c6.6,7,10.3,16.3,10.5,25.9
		c-0.4,18-13,33.4-30,36.8C181.2,131.6,178.8,131.8,176.3,131.9L176.3,131.9L176.3,131.9z M175.9,61.1c-12.8,0-24.2,7.6-29.8,19.7
		c-5.6,12-3.9,25.1,4.5,34.9c6.4,7.4,15.7,11.7,25.5,11.7c3.9,0,7.7-0.7,11.3-2c12.7-4.7,21.4-17.2,21.7-31.1
		c-0.3-16.1-11.7-29.8-27.2-32.7C180,61.3,178,61.1,175.9,61.1L175.9,61.1z M176,46.7c-5.6,0-9.6,3.2-10.8,8.7l-0.7,3.1l3.1-0.7
		c2.8-0.7,5.7-1,8.6-1c2.8,0,5.5,0.3,8.2,0.9l3.1,0.7l-0.7-3.1c-1.3-5.5-5.2-8.6-10.8-8.6H176z"/>
	<path class="st3" d="M175.4,97c-1.2,0-2.3-0.9-2.4-2.1V77c0-1.7,2.4-1.8,2.5-1.8s2.5,0,2.5,1.8v16h11c1.8,0,2.5,1,2.5,2
		s-0.7,2-2.5,2H175.4z"/>
</g>
</svg>
