<?xml version="1.0" standalone="no"?>
<!DOCTYPE svg PUBLIC "-//W3C//DTD SVG 1.1//EN" "http://www.w3.org/Graphics/SVG/1.1/DTD/svg11.dtd" >
<svg>
<metadata>
Created by FontForge 20090622 at Thu Aug 17 11:46:17 2017
 By deploy user
&#194;&#169; Superfried 2014
</metadata>
<defs>
<font id="Neon-Display" horiz-adv-x="856" >
  <font-face 
    font-family="Neon Display"
    font-weight="400"
    font-stretch="normal"
    units-per-em="1000"
    panose-1="0 0 5 0 0 0 0 0 0 0"
    ascent="800"
    descent="-200"
    x-height="754"
    cap-height="756"
    bbox="-161.111 -240 1325 1038"
    underline-thickness="50"
    underline-position="-75"
    unicode-range="U+000D-U+2265"
  />
<missing-glyph horiz-adv-x="378" 
d="M298 0h-265v666h265v-666zM66 633v-600h199v600h-199z" />
    <glyph glyph-name=".notdef" horiz-adv-x="378" 
d="M298 0h-265v666h265v-666zM66 633v-600h199v600h-199z" />
    <glyph glyph-name=".null" horiz-adv-x="0" 
 />
    <glyph glyph-name="nonmarkingreturn" horiz-adv-x="333" 
 />
    <glyph glyph-name="CR" unicode="&#xd;" horiz-adv-x="413" 
 />
    <glyph glyph-name="space" unicode=" " horiz-adv-x="305" 
 />
    <glyph glyph-name="exclam" unicode="!" horiz-adv-x="228" 
d="M31 756q13 0 21.5 -9t8.5 -21v-475q0 -12 13 -12t13 12v222q0 13 9 22t21 9q13 0 22 -9t9 -22v-224q0 -29 -22 -50t-52 -21t-52 21t-22 51v476q0 12 9 21t22 9zM74 148q30 0 51.5 -21.5t21.5 -52.5t-21.5 -52.5t-51.5 -21.5q-31 0 -52.5 21.5t-21.5 52.5t21.5 52.5
t52.5 21.5zM73 90q-6 0 -11 -4.5t-5 -11.5t5 -11.5t11 -4.5q16 0 16 16t-16 16z" />
    <glyph glyph-name="quotedbl" unicode="&#x22;" horiz-adv-x="401" 
d="M74 756q31 0 52 -21.5t21 -52.5v-101q0 -13 -8.5 -22t-21.5 -9t-22 9t-8 22v101q0 5 -4 9t-9 3q-12 0 -12 -12v-23q0 -13 -9.5 -21.5t-22.5 -8.5q-12 0 -21 8.5t-9 20.5v24q0 31 21.5 52.5t52.5 21.5zM245 756q31 0 52 -21.5t21 -52.5v-101q0 -13 -8.5 -22t-21.5 -9
t-22 9t-8 22v101q0 5 -4 9t-9 3q-12 0 -12 -12v-23q0 -13 -9.5 -21.5t-22.5 -8.5q-12 0 -21 8.5t-9 20.5v24q0 31 21.5 52.5t52.5 21.5z" />
    <glyph glyph-name="numbersign" unicode="#" horiz-adv-x="879" 
d="M574 799q12 0 21 -9t9 -21v-165h124q29 0 50 -22t21 -52t-21 -51.5t-51 -21.5h-123v-115h165q12 0 21 -8.5t9 -21.5t-9 -22t-21 -9h-165v-25h165q12 0 21 -9t9 -22q0 -12 -9 -21t-21 -9h-165v-123q0 -30 -22 -51t-52 -21t-51.5 21t-21.5 51v123h-115v-165q0 -12 -8.5 -21
t-21.5 -9t-22 9t-9 21v165h-25v-165q0 -12 -9 -21t-22 -9q-12 0 -21 9t-9 21v165h-123q-30 0 -51 22t-21 52t21 51.5t51 21.5h123v115h-165q-12 0 -21 8.5t-9 21.5t9 22t21 9h165v25h-165q-12 0 -21 9t-9 22q0 12 9 21t21 9h165v123q0 30 22 51t52 21q29 0 51 -21t22 -50
v-124h115v165q0 12 8.5 21t21.5 9t22 -9t9 -21v-165h25v165q0 12 9 21t22 9zM269 738q-13 0 -13 -13v-121h25v121q0 13 -12 13zM256 543v-25h25v25h-25zM342 543v-25h115v25h-115zM518 543v-25h25v25h-25zM604 543v-25h121q13 0 13 12q0 13 -13 13h-121zM256 342h25v115h-25
v-115zM342 457v-115h115v115h-115zM518 457v-115h25v115h-25zM195 281h-121q-13 0 -13 -12q0 -13 13 -13h121v25zM256 281v-25h25v25h-25zM342 281v-25h115v25h-115zM518 281v-25h25v25h-25zM518 195v-121q0 -13 12 -13q13 0 13 13v121h-25z" />
    <glyph glyph-name="dollar" unicode="$" horiz-adv-x="731" 
d="M326 855q30 0 51.5 -20.5t21.5 -49.5v-29h117q13 0 21.5 -9t8.5 -22q0 -12 -8.5 -21t-21.5 -9h-117v-243h26q94 0 160 -66.5t66 -159.5q0 -94 -66 -160t-160 -66h-26v-31q0 -12 -9 -21t-22 -9q-12 0 -21 8.5t-9 21.5v31h-232q-31 0 -52.5 21.5t-21.5 51.5t21 52t50 21
l136 1q13 0 13 11v146h-26q-94 0 -160 66t-66 160q0 93 66 159t158 67h28v26q0 30 21.5 51.5t52.5 21.5zM326 794q-13 0 -13 -12v-26h25v26q0 12 -12 12zM252 695h-26q-68 0 -116.5 -48.5t-48.5 -116.5t48.5 -116.5t116.5 -48.5h26v26l-27 -1q-58 0 -98.5 41t-40.5 99
q0 13 8.5 21.5t21.5 8.5t21.5 -8.5t8.5 -21.5q0 -32 23.5 -55.5t55.5 -23.5h27v244zM313 695v-243h25v243h-25zM313 391v-26h25v26h-25zM399 391v-26h27q58 0 98.5 -41t40.5 -99q0 -13 -8.5 -21.5t-21.5 -8.5t-21.5 8.5t-8.5 21.5q0 33 -23.5 56t-55.5 23h-27v-243h26
q68 0 116.5 48.5t48.5 116.5t-48.5 116.5t-116.5 48.5h-26zM313 304v-146q0 -30 -22 -51t-52 -21h-133q-13 0 -13 -13q0 -12 13 -12h232v243h-25z" />
    <glyph glyph-name="percent" unicode="%" horiz-adv-x="524" 
d="M397 752q29 -10 41 -38.5t2 -55.5l-127 -303q-4 -12 -16 -17t-23 0q-12 5 -17 17t0 23l126 300q4 11 -7 16q-12 5 -17 -6l-280 -669q-5 -12 -17 -16.5t-23 0.5q-12 4 -16.5 16t0.5 24l280 667q11 31 40 41t54 1zM100 756q42 0 71.5 -29.5t29.5 -70.5q0 -42 -29.5 -71.5
t-71.5 -29.5q-41 0 -70.5 29.5t-29.5 71.5q0 41 29.5 70.5t70.5 29.5zM100 706q-21 0 -35.5 -14.5t-14.5 -35.5t14.5 -36t35.5 -15t36 15t15 36t-15 35.5t-36 14.5zM284 201q42 0 71.5 -29.5t29.5 -70.5q0 -42 -29.5 -71.5t-71.5 -29.5q-41 0 -70.5 29.5t-29.5 71.5
q0 41 29.5 70.5t70.5 29.5zM284 151q-21 0 -35.5 -14.5t-14.5 -35.5t14.5 -36t35.5 -15t36 15t15 36t-15 35.5t-36 14.5z" />
    <glyph glyph-name="ampersand" unicode="&#x26;" horiz-adv-x="796" 
d="M290 756h120q74 0 126.5 -52.5t52.5 -126.5t-52.5 -126.5t-126.5 -52.5h-109l77 -78h202q13 0 21.5 -8.5t8.5 -20.5q0 -13 -8.5 -21.5t-21.5 -8.5h-142l197 -198q9 -8 17 0q9 9 0 18l-96 96q-9 8 -9 20.5t9 21.5t21 9t21 -9l97 -96q21 -21 21 -51t-21 -51t-51 -21
q-29 0 -49 19l-242 242h-34l138 -138q21 -23 21 -51t-21 -51q-23 -21 -51 -21h-177q-95 0 -162 67t-67 162q0 77 46.5 138t118.5 81q-54 56 -54 129q0 74 52.5 126.5t126.5 52.5zM410 696h-120q-49 0 -84 -35t-35 -84q0 -50 35 -85l35 -35h169q49 0 84 35t35 85
q0 49 -34.5 84t-84.5 35zM290 671h124q13 0 21.5 -8.5t8.5 -21.5q0 -12 -8.5 -20.5t-21.5 -8.5h-124q-14 0 -24 -10.5t-10 -24.5q0 -13 -9 -21.5t-21 -8.5q-13 0 -21.5 8.5t-8.5 21.5q0 39 27.5 66.5t66.5 27.5zM293 320l-76 77q-66 -5 -111.5 -53t-45.5 -115
q0 -70 49.5 -119.5t119.5 -49.5h177q5 0 8 3q9 9 0 18l-189 188q-14 16 -6 33q7 18 27 18h47z" />
    <glyph glyph-name="quotesingle" unicode="'" horiz-adv-x="230" 
d="M74 756q31 0 52 -21.5t21 -52.5v-101q0 -13 -8.5 -22t-21.5 -9t-22 9t-8 22v101q0 5 -4 9t-9 3q-12 0 -12 -12v-23q0 -13 -9.5 -21.5t-22.5 -8.5q-12 0 -21 8.5t-9 20.5v24q0 31 21.5 52.5t52.5 21.5z" />
    <glyph glyph-name="parenleft" unicode="(" horiz-adv-x="286" 
d="M175 756q13 0 22 -9t9 -21.5t-9 -21.5t-22 -9q-11 0 -19.5 -8t-8.5 -20v-551q0 -13 -8.5 -21.5t-21.5 -8.5t-22 8.5t-9 21.5v551q0 37 26 63t63 26zM30 695q13 0 22 -9t9 -22v-575q0 -12 8.5 -20t19.5 -8h86q13 0 22 -9t9 -21.5t-9 -21.5t-22 -9h-86q-37 0 -63 26t-26 63
v575q0 13 9 22t21 9z" />
    <glyph glyph-name="parenright" unicode=")" horiz-adv-x="286" 
d="M31 756h86q37 0 63 -26t26 -63v-575q0 -13 -9 -22t-21 -9q-13 0 -22 9t-9 22v575q0 12 -8.5 20t-19.5 8h-86q-13 0 -22 9t-9 21.5t9 21.5t22 9zM89 670q13 0 22 -8.5t9 -21.5v-551q0 -37 -26 -63t-63 -26q-13 0 -22 9t-9 21.5t9 21.5t22 9q11 0 19.5 8t8.5 20v551
q0 13 8.5 21.5t21.5 8.5z" />
    <glyph glyph-name="asterisk" unicode="*" horiz-adv-x="338" 
d="M129 756q14 0 24 -9.5t10 -23.5v-12l10 8q10 9 24 9t24 -9q24 -24 0 -49l-9 -8h13q13 0 23 -10.5t10 -24.5t-10 -24t-23 -10h-13l9 -9q10 -10 9.5 -24t-9.5 -24q-10 -10 -24.5 -10t-24.5 9l-9 9v-12q0 -14 -10 -24t-24 -10q-13 0 -23.5 10t-10.5 24v12l-9 -9
q-10 -10 -24 -9.5t-24 10.5t-10 24t9 24l9 9h-12q-14 0 -24 10t-10 24t10 24.5t24 10.5h12l-9 9q-10 9 -9.5 23.5t10.5 24.5t24 10t24 -10l9 -8v12q0 13 10 23t24 10zM129 728q-6 0 -6 -6v-40l12 -12v52q0 6 -6 6zM103 662l-37 36q-4 4 -8 0t0 -8l29 -28h16zM200 698
q-4 4 -8 0l-29 -28v-16l37 36q4 4 0 8zM135 649q-9 -7 -17 -1q0 -12 -12 -14q9 -9 3 -18q10 0 14 -11q9 9 17 2q0 12 11 14q-7 8 -2 18q-10 0 -14 10zM87 633h-52q-6 0 -6 -6t6 -6h39zM183 633l-11 -12h52q6 0 6 6t-6 6h-41zM95 601l-37 -37q-4 -4 0 -8t8 0l29 29v16z
M155 593l37 -37q4 -4 8 0t0 8l-28 29h-17zM123 585v-52q0 -6 6 -6t6 6v40z" />
    <glyph glyph-name="plus" unicode="+" horiz-adv-x="756" 
d="M338 756q30 0 51.5 -21.5t21.5 -51.5v-232h192q31 0 52 -22t21 -51t-22 -51t-51 -22h-277v-232q0 -12 12 -12q5 0 9 3.5t4 8.5v177q0 13 8.5 21.5t21.5 8.5t21.5 -8.5t8.5 -21.5v-177q0 -31 -22 -52t-51 -21t-51 22t-22 51v232h-192q-29 0 -51 22t-22 51q0 31 22.5 52
t50.5 21h133q13 0 22 -8.5t9 -21.5t-9 -22t-22 -9h-133q-12 0 -12 -12t12 -12h192v317q0 29 22 51t51 22zM338 695q-12 0 -12 -12v-317h277q12 0 12 12t-12 12h-222q-13 0 -21.5 9t-8.5 21v263q0 5 -4 8.5t-9 3.5z" />
    <glyph glyph-name="comma" unicode="," horiz-adv-x="231" 
d="M130 126q22 -22 21.5 -52t-22.5 -52l-71 -71q-9 -9 -21.5 -9.5t-21.5 8.5t-9 22t9 21l72 72q9 9 0 18t-18 -1l-16 -16q-9 -9 -22 -9.5t-22 8.5t-9.5 22t8.5 22l17 17q22 22 52.5 22t52.5 -22z" />
    <glyph glyph-name="hyphen" unicode="-" horiz-adv-x="341" 
d="M146 345h43q30 0 51 -21.5t21 -51.5t-21 -52t-51 -22h-159q-13 0 -21.5 9t-8.5 22q0 12 8.5 21t21.5 9h157q13 0 13 13q0 12 -13 12h-41q-12 0 -21 9t-9 22t9 21.5t21 8.5z" />
    <glyph glyph-name="period" unicode="." horiz-adv-x="230" 
d="M74 148q30 0 51.5 -21.5t21.5 -52.5t-21.5 -52.5t-51.5 -21.5q-31 0 -52.5 21.5t-21.5 52.5t21.5 52.5t52.5 21.5zM73 90q-6 0 -11 -4.5t-5 -11.5t5 -11.5t11 -4.5q16 0 16 16t-16 16z" />
    <glyph glyph-name="slash" unicode="/" horiz-adv-x="504" 
d="M377 752q29 -10 41 -38.5t2 -55.5l-127 -303q-4 -12 -16 -17t-23 0q-12 5 -17 17t0 23l126 300q4 11 -7 16q-12 5 -17 -6l-280 -669q-5 -12 -17 -16.5t-23 0.5q-12 4 -16.5 16t0.5 24l280 667q11 31 40 41t54 1z" />
    <glyph glyph-name="zero" unicode="0" horiz-adv-x="685" 
d="M177 756h253q72 0 123.5 -53.5t51.5 -126.5v-393q0 -76 -53.5 -129.5t-128.5 -53.5h-241q-74 0 -128 51.5t-54 124.5v397q0 75 52 129t125 54zM431 695h-248q-51 0 -86.5 -35.5t-35.5 -86.5v-266q8 8 21 16v246q0 40 30.5 70.5t70.5 30.5h248q52 -2 76 -45
q19 -37 7.5 -70t-42.5 -52q-9 -6 -22 -4t-20 13q-7 10 -4 22.5t14 19.5q27 19 15 41q-9 14 -24 14h-248q-15 0 -27.5 -13t-12.5 -27v-206l143 92q10 7 22.5 4t19.5 -13t4 -22.5t-13 -19.5l-201 -130q-57 -35 -57 -90v-21q0 -36 33.5 -69t78.5 -33h250q50 0 85.5 36t35.5 86
v266q-8 -8 -21 -16v-246q0 -40 -30.5 -70.5t-70.5 -30.5h-248q-51 2 -77 45q-18 37 -6.5 69.5t41.5 52.5q10 7 22.5 4t19.5 -13t4 -22.5t-13 -19.5q-28 -18 -15 -41q9 -14 24 -14h248q15 0 28 13t13 27v207l-144 -93q-9 -6 -22 -4t-20 13t-4.5 23t13.5 19l200 129
q58 38 58 98v6q0 27 -15 53q-33 57 -98 57z" />
    <glyph glyph-name="one" unicode="1" horiz-adv-x="411" 
d="M243 733q41 -23 65 -64.5t23 -89.5v-549q0 -12 -9 -21t-21 -9q-13 0 -22 9t-9 21v552q0 65 -57 99q-41 23 -85.5 10.5t-71.5 -54.5q-7 -10 -19.5 -13t-22.5 4t-13 19.5t4 22.5q40 62 108.5 80t129.5 -17zM200 659q43 -26 45 -77v-552q0 -12 -9 -21t-22 -9t-21.5 9
t-8.5 21v552q0 15 -14 24q-24 12 -41 -15q-7 -11 -19 -13.5t-23 4.5t-14 19.5t4 22.5q20 30 53 41.5t70 -6.5z" />
    <glyph glyph-name="two" unicode="2" horiz-adv-x="685" 
d="M183 756h247q47 0 88 -23.5t64 -64.5q35 -60 17 -129t-80 -109l-354 -228q-21 -14 -17.5 -34.5t26.5 -20.5h370q12 0 21 -8.5t9 -21.5t-9 -22t-21 -9h-370q-51 2 -77 45q-18 37 -6.5 69.5t41.5 52.5l354 228q42 27 54 72t-11 85q-33 57 -98 57h-248q-50 0 -86 -35.5
t-36 -86.5q0 -12 -9 -21t-21 -9q-13 0 -22 9t-9 21q0 76 53.5 129.5t129.5 53.5zM178 670h253q52 -2 76 -45q19 -37 7.5 -69.5t-41.5 -52.5l-354 -228q-42 -27 -54.5 -71.5t10.5 -85.5q34 -57 99 -57h370q12 0 21 -9t9 -22q0 -12 -9 -21t-21 -9h-370q-47 0 -87.5 23.5
t-63.5 64.5q-35 60 -17 129t80 109l354 228q13 8 17 21.5t-3.5 23.5t-22.5 10h-253q-14 0 -24.5 -10.5t-10.5 -25.5q0 -12 -9 -21t-22 -9t-21.5 9t-8.5 21q0 40 28 68.5t68 28.5z" />
    <glyph glyph-name="three" unicode="3" horiz-adv-x="696" 
d="M72 756h361q76 0 129.5 -53.5t53.5 -129.5q0 -75 -53.5 -128.5t-129.5 -53.5h-276q-12 0 -21 8.5t-9 21.5t9 22t21 9h276q51 0 86.5 35.5t35.5 85.5t-35.5 86t-86.5 36h-359q-13 0 -13 -13q0 -12 13 -12h364q40 0 68 -28.5t28 -68.5t-28 -68t-68 -28q-13 0 -21.5 9
t-8.5 22q0 12 8.5 21t21.5 9q15 0 25 10.5t10 24.5q0 15 -10 25.5t-25 10.5h-367q-29 0 -50 22t-21 51q0 30 21 51.5t51 22.5zM157 365h276q76 0 129.5 -53.5t53.5 -128.5q0 -76 -53.5 -129.5t-129.5 -53.5h-361q-30 0 -51 22t-21 52t21 51.5t51 21.5h366q15 0 25 10.5
t10 25.5q0 14 -10 24.5t-25 10.5q-13 0 -21.5 9t-8.5 21q0 13 8.5 22t21.5 9q40 0 68 -28t28 -68t-28 -68.5t-68 -28.5h-364q-13 0 -13 -12q0 -13 13 -13h359q51 0 86.5 36t35.5 86t-35.5 85.5t-86.5 35.5h-276q-12 0 -21 9t-9 22t9 21.5t21 8.5z" />
    <glyph glyph-name="four" unicode="4" horiz-adv-x="697" 
d="M469 733q41 -23 64.5 -64.5t22.5 -89.5v-300h31q13 0 21.5 -9t8.5 -21q0 -13 -8.5 -22t-21.5 -9h-31v-188q0 -12 -9 -21t-21 -9q-13 0 -22 9t-9 21v188h-25v-188q0 -12 -9 -21t-22 -9t-21.5 9t-8.5 21v188h-336q-38 0 -61.5 35.5t-1.5 74.5l220 342q40 62 109 80t130 -17
zM438 681q-40 23 -85 10.5t-72 -54.5l-218 -339q-4 -4 -1.5 -11.5t12.5 -7.5h335v303q0 15 -10 22t-23.5 3.5t-21.5 -16.5l-176 -273q-7 -11 -19 -13.5t-23 4.5q-10 7 -13 19.5t4 22.5l176 273q20 30 52.5 41.5t69.5 -7.5q45 -24 45 -76v-303h25v303q0 29 -15.5 56t-41.5 43
z" />
    <glyph glyph-name="five" unicode="5" horiz-adv-x="731" 
d="M107 756h409q31 0 52.5 -21.5t21.5 -52.5q0 -30 -21.5 -51.5t-52.5 -21.5h-380q-13 0 -22 8.5t-9 21.5t9 22t22 9h380q13 0 13 12q0 13 -13 13h-409q-19 0 -32.5 -13.5t-13.5 -32.5v-238q0 -19 13.5 -32.5t32.5 -13.5h319q58 0 98.5 -41t40.5 -99t-40.5 -98.5
t-98.5 -40.5h-320q-13 0 -13 -13q0 -12 13 -12h319q13 0 21.5 -9t8.5 -22q0 -12 -8.5 -21t-21.5 -9h-319q-31 0 -52.5 21.5t-21.5 51.5t21 52t50 22h323q32 0 55.5 23t23.5 55q0 33 -23.5 56t-55.5 23h-319q-44 0 -75.5 31.5t-31.5 75.5v238q0 44 31.5 75.5t75.5 31.5z
M136 452h289q94 0 160 -66t66 -160q0 -13 -9 -21.5t-21 -8.5q-13 0 -22 8.5t-9 21.5q0 68 -48.5 116.5t-116.5 48.5h-289q-13 0 -22 8.5t-9 21.5t9 22t22 9z" />
    <glyph glyph-name="six" unicode="6" horiz-adv-x="696" 
d="M183 756h331q30 0 50.5 -22t20.5 -52t-21 -51.5t-52 -21.5h-329q-15 0 -25.5 -10.5t-10.5 -25.5v-122h243q92 3 159 -64.5t67 -160.5q0 -94 -66 -160t-160 -66h-164q-94 0 -160 66t-66 160v347q0 76 53.5 129.5t129.5 53.5zM511 695h-328q-50 0 -86 -35.5t-36 -86.5v-347
q0 -68 48.5 -116.5t116.5 -48.5h164q68 0 116.5 48.5t48.5 116.5t-48.5 116.5t-116.5 48.5h-273q-13 0 -22 8.5t-9 21.5v152q0 41 28 69t69 28h329q12 0 12 12q0 13 -13 13zM390 365q58 0 99 -40.5t41 -98.5t-41 -99t-99 -41h-164q-13 0 -22 9t-9 22t9 21.5t22 8.5h164
q33 -2 55 20t24 59q1 32 -22.5 55t-56.5 23q-12 0 -21 9t-9 22q0 12 9 21t21 9z" />
    <glyph glyph-name="seven" unicode="7" horiz-adv-x="635" 
d="M30 756h350q72 0 123 -51h1q37 -37 47.5 -90t-9.5 -102l-196 -466q-11 -31 -40.5 -41.5t-53.5 -1.5q-29 11 -41 39.5t-3 55.5l197 468q7 18 -7 32q-7 7 -20 9q-13 0 -21.5 9t-7.5 22q0 13 9.5 21.5t21.5 7.5q35 0 61 -26q40 -40 22 -94l-197 -470q-5 -13 6 -18t18 9
l196 467q13 32 6.5 66.5t-31.5 59.5q-35 33 -82 33h-349q-12 0 -21 9t-9 22q0 12 9 21t21 9z" />
    <glyph glyph-name="eight" unicode="8" horiz-adv-x="696" 
d="M183 756h250q76 0 129.5 -53.5t53.5 -129.5q0 -75 -53.5 -128.5t-129.5 -53.5h-250q-76 0 -129.5 53.5t-53.5 128.5q0 76 53.5 129.5t129.5 53.5zM433 695h-250q-51 0 -86.5 -36t-35.5 -86t35.5 -85.5t86.5 -35.5h250q51 0 86.5 35.5t35.5 85.5t-35.5 86t-86.5 36z
M183 670h255q13 0 22 -9t9 -22t-9 -21.5t-22 -8.5h-255q-15 0 -25.5 -10.5t-10.5 -25.5q0 -14 10.5 -24.5t25.5 -10.5q12 0 21 -9t9 -21q0 -13 -9 -22t-21 -9q-40 0 -68.5 28t-28.5 68t28.5 68.5t68.5 28.5zM183 365h250q76 0 129.5 -53.5t53.5 -128.5q0 -76 -53.5 -129.5
t-129.5 -53.5h-250q-76 0 -129.5 53.5t-53.5 129.5q0 75 53.5 128.5t129.5 53.5zM433 304h-250q-51 0 -86.5 -35.5t-35.5 -85.5q0 -51 35.5 -86.5t86.5 -35.5h250q51 0 86.5 35.5t35.5 86.5q0 50 -35.5 85.5t-86.5 35.5zM183 279h255q13 0 22 -9t9 -22q0 -12 -9 -21t-22 -9
h-255q-15 0 -25.5 -10.5t-10.5 -24.5q0 -15 10.5 -25.5t25.5 -10.5q12 0 21 -8.5t9 -21.5t-9 -22t-21 -9q-41 0 -69 28t-28 69q0 40 28.5 68t68.5 28z" />
    <glyph glyph-name="nine" unicode="9" horiz-adv-x="696" 
d="M226 756h164q94 0 160 -66t66 -160v-347q0 -76 -53.5 -129.5t-129.5 -53.5h-331q-30 0 -50.5 22t-20.5 52t21 51.5t52 21.5h329q15 0 25.5 10.5t10.5 25.5v122h-243q-92 -3 -159 64.5t-67 160.5q0 94 66 160t160 66zM390 695h-164q-68 0 -116.5 -48.5t-48.5 -116.5
t48.5 -116.5t116.5 -48.5h273q13 0 22 -8.5t9 -21.5v-152q0 -41 -28 -69t-69 -28h-329q-12 0 -12 -12q0 -13 13 -13h328q50 0 86 35.5t36 86.5v347q0 68 -48.5 116.5t-116.5 48.5zM226 670h164q13 0 22 -9t9 -22t-9 -21.5t-22 -8.5h-164q-33 2 -55 -20t-24 -59
q-1 -32 22.5 -55t56.5 -23q12 0 21 -9t9 -22q0 -12 -9 -21t-21 -9q-58 0 -99 40.5t-41 98.5t41 99t99 41z" />
    <glyph glyph-name="colon" unicode=":" horiz-adv-x="230" 
d="M74 336q30 0 51.5 -21.5t21.5 -52.5t-21.5 -52.5t-51.5 -21.5q-31 0 -52.5 21.5t-21.5 52.5t21.5 52.5t52.5 21.5zM73 278q-6 0 -11 -4.5t-5 -11.5t5 -11.5t11 -4.5q16 0 16 16t-16 16zM74 148q30 0 51.5 -21.5t21.5 -52.5t-21.5 -52.5t-51.5 -21.5q-31 0 -52.5 21.5
t-21.5 52.5t21.5 52.5t52.5 21.5zM73 90q-6 0 -11 -4.5t-5 -11.5t5 -11.5t11 -4.5q16 0 16 16t-16 16z" />
    <glyph glyph-name="semicolon" unicode=";" horiz-adv-x="231" 
d="M74 336q30 0 51.5 -21.5t21.5 -52.5t-21.5 -52.5t-51.5 -21.5q-31 0 -52.5 21.5t-21.5 52.5t21.5 52.5t52.5 21.5zM73 278q-6 0 -11 -4.5t-5 -11.5t5 -11.5t11 -4.5q16 0 16 16t-16 16zM130 126q22 -22 21.5 -52t-22.5 -52l-71 -71q-9 -9 -21.5 -9.5t-21.5 8.5t-9 22
t9 21l72 72q9 9 0 18t-18 -1l-16 -16q-9 -9 -22 -9.5t-22 8.5t-9.5 22t8.5 22l17 17q22 22 52.5 22t52.5 -22z" />
    <glyph glyph-name="less" unicode="&#x3c;" horiz-adv-x="792" 
d="M113 531l557 233q11 5 23 0t17 -16q10 -28 -17 -40l-561 -235q-32 -13 -51.5 -42t-19.5 -64t19.5 -63.5t51.5 -42.5l501 -210q12 -6 17 5q6 13 -9 18l-498 210q-54 25 -54 83q0 27 15 50t40 33l526 221q11 5 23 0t17 -17q5 -11 0 -23t-17 -17l-525 -220q-19 -7 -19 -27
q0 -19 19 -27l495 -209q27 -10 41 -38t3 -57q-10 -28 -38 -41t-57 -2l-499 210q-51 20 -82 64.5t-31 99.5t31 99.5t82 64.5z" />
    <glyph glyph-name="equal" unicode="=" horiz-adv-x="752" 
d="M72 451h244q12 0 21 -8.5t9 -21.5t-9 -22t-21 -9h-242q-13 0 -13 -12q0 -13 13 -13h568q13 0 21.5 -9t8.5 -21q0 -13 -8.5 -22t-21.5 -9h-570q-30 0 -51 22t-21 52t21 51.5t51 21.5zM30 239h570q30 0 51 -22t21 -52t-21 -51.5t-51 -21.5h-244q-12 0 -21 8.5t-9 21.5t9 22
t21 9h242q13 0 13 12q0 13 -13 13h-568q-13 0 -21.5 9t-8.5 21q0 13 8.5 22t21.5 9z" />
    <glyph glyph-name="greater" unicode="&#x3e;" horiz-adv-x="792" 
d="M100 757l499 -210q51 -20 82 -64.5t31 -99.5t-31 -99.5t-82 -64.5l-557 -233q-11 -5 -23 0t-17 16q-10 28 17 40l561 235q32 13 51.5 42t19.5 64t-19.5 63.5t-51.5 42.5l-501 210q-12 6 -17 -5q-6 -13 9 -18l498 -210q54 -25 54 -83q0 -27 -15 -50t-40 -33l-526 -221
q-11 -5 -23 0t-17 17q-5 11 0 23t17 17l525 220q19 7 19 27q0 19 -19 27l-495 209q-27 10 -41 38t-3 57q10 28 38 41t57 2z" />
    <glyph glyph-name="question" unicode="?" horiz-adv-x="635" 
d="M183 744h189q76 0 129.5 -53.5t53.5 -129.5v-61q0 -75 -53.5 -128.5t-129.5 -53.5h-16q-15 0 -25.5 -10.5t-10.5 -25.5v-44q-1 -30 -22.5 -51t-50.5 -21q-31 0 -52.5 21.5t-21.5 52.5v44q0 74 53.5 127.5t129.5 53.5h16q15 0 25.5 10.5t10.5 24.5v61q0 15 -10.5 25.5
t-25.5 10.5h-199q-13 0 -22 8.5t-9 21.5t9 22t22 9h199q40 0 68.5 -28.5t28.5 -68.5v-61q0 -40 -28.5 -68t-68.5 -28h-16q-51 0 -86.5 -35.5t-35.5 -85.5v-43q0 -13 13 -13q12 0 12 13v42q0 40 28.5 68.5t68.5 28.5h16q51 0 86.5 35.5t35.5 85.5v61q0 50 -35.5 86t-86.5 36
h-189q-51 0 -86.5 -36t-35.5 -86v-1q0 -12 -8.5 -21t-21.5 -9t-22 9t-9 22q0 76 53.5 129.5t129.5 53.5zM247 148q30 0 51.5 -21.5t21.5 -52.5t-21.5 -52.5t-51.5 -21.5q-31 0 -52.5 21.5t-21.5 52.5t21.5 52.5t52.5 21.5zM246 90q-6 0 -11 -4.5t-5 -11.5t5 -11.5t11 -4.5
q16 0 16 16t-16 16z" />
    <glyph glyph-name="at" unicode="@" 
d="M385 681q127 0 215 -88q88 -90 88 -215q0 -15 13 -15q14 0 14 15q0 136 -96 234q-97 96 -233.5 96t-233.5 -96q-97 -99 -97 -234q0 -136 97 -233t233 -97q13 0 22 -8.5t9 -21.5t-9 -21.5t-22 -8.5q-162 0 -276 114t-114 276q0 164 114 276q115 115 276.5 115t276.5 -115
q114 -114 114 -276q0 -31 -22.5 -52.5t-51.5 -21.5q-33 0 -53.5 22t-20.5 52q0 101 -71 172q-73 71 -172 71h-9q73 -14 129 -68q72 -74 72 -175t-72 -175q-74 -72 -175 -72t-175 72q-72 74 -72 175q0 125 88 215q88 88 214 88zM330 565q-77 0 -132 -55t-55 -132t55 -132
t132 -55t132 55t55 132t-55 132t-132 55z" />
    <glyph glyph-name="A" unicode="A" horiz-adv-x="895" 
d="M397 756q55 0 99.5 -31t64.5 -82l251 -601q5 -12 0.5 -23.5t-16.5 -16.5t-24 0t-16 17l-253 605q-13 32 -42 51.5t-64 19.5t-63.5 -19.5t-42.5 -51.5l-228 -545q-6 -13 6 -18t17 8l228 544q10 25 33 39.5t50 14.5t50 -15t33 -40l118 -281q8 -19 -1 -30.5t-28 -11.5h-240
q-13 0 -22 9t-9 22t9 21.5t22 8.5h195l-100 238q-7 19 -27 19t-27 -19l-228 -542q-11 -28 -39 -40t-57 -1q-28 12 -40 40t-1 56l228 542q20 51 64.5 82t99.5 31z" />
    <glyph glyph-name="B" unicode="B" horiz-adv-x="699" 
d="M74 756h369q73 0 124 -51.5t51 -123.5q0 -73 -51 -124t-124 -51h-192q-12 0 -20 -8.5t-8 -19.5t8 -19.5t20 -8.5h193q72 0 123.5 -51t51.5 -124q0 -72 -51.5 -123.5t-123.5 -51.5h-413q-13 0 -22 9t-9 21v406q0 13 9 22t22 9t21.5 -9t8.5 -22v-375h383q47 0 80.5 33.5
t33.5 80.5t-33.5 80.5t-80.5 33.5h-193q-37 0 -63 26t-26 63t26 63t63 26h192q47 0 80.5 33.5t33.5 80.5t-33.5 80.5t-80.5 33.5h-369q-13 0 -13 -13q0 -12 14 -12h368q37 0 63 -26t26 -63t-26 -63t-63 -26q-13 0 -21.5 9t-8.5 22q0 12 8.5 21t21.5 9q12 0 20 8.5t8 19.5
t-8 19.5t-20 8.5h-372q-29 1 -50 22.5t-21 50.5q0 31 21.5 52.5t52.5 21.5zM251 264h193q36 0 62 -26t26 -63t-26 -63t-62 -26q-13 0 -22 9t-9 22t9 21.5t22 8.5q11 0 19 8.5t8 19.5t-8 19.5t-19 8.5h-193q-13 0 -22 9t-9 21q0 13 9 22t22 9z" />
    <glyph glyph-name="C" unicode="C" horiz-adv-x="766" 
d="M385 769q162 0 276 -114q9 -9 9 -21.5t-9 -21.5q-8 -9 -21 -9t-21 9q-97 95 -234 97q-136 0 -233 -97t-97 -233t97 -233.5t233 -97.5q137 0 234 97q9 9 0 19t-19 0q-88 -88 -215 -88q-125 0 -213.5 88.5t-88.5 214.5q0 124 88 214q9 8 21.5 8t21.5 -8q9 -9 9 -21.5
t-9 -21.5q-71 -71 -71 -171t71 -171.5t171 -71.5q101 0 172 71q23 23 52.5 23t52.5 -23q24 -24 23.5 -53t-23.5 -52q-114 -114 -277 -114q-161 0 -275.5 114.5t-114.5 276.5q0 161 114.5 275.5t275.5 114.5z" />
    <glyph glyph-name="D" unicode="D" horiz-adv-x="783" 
d="M325 755q157 0 267.5 -110.5t110.5 -266.5q0 -157 -110.5 -267.5t-267.5 -110.5h-218q-44 0 -75.5 31.5t-31.5 75.5v534q0 12 9 21t21 9q13 0 22 -9t9 -21v-534q0 -19 13.5 -32.5t32.5 -13.5h218q131 0 224 93t93 224t-93 224t-224 93q-12 0 -21 8.5t-9 21.5t9 21.5
t21 8.5zM115 671h210q121 0 207.5 -86t86.5 -207q0 -122 -86.5 -208t-207.5 -86q-12 0 -21 9t-9 22t9 21.5t21 8.5q96 0 164.5 68.5t68.5 164.5t-68.5 164t-164.5 68h-179v-495q0 -13 -9 -22t-22 -9t-21.5 9t-8.5 22v526q0 12 8.5 21t21.5 9z" />
    <glyph glyph-name="E" unicode="E" horiz-adv-x="699" 
d="M175 756h371q30 0 51.5 -21.5t21.5 -51.5t-20.5 -52t-50.5 -22h-373q-11 0 -19.5 -8t-8.5 -20q0 -11 8.5 -19.5t19.5 -8.5q13 0 22 -8.5t9 -21.5t-9 -22t-22 -9q-37 0 -62.5 26t-25.5 63t25.5 63t62.5 26h371q12 0 12 13q0 12 -12 12h-371q-47 0 -80.5 -33.5t-33.5 -80.5
t33.5 -80.5t80.5 -33.5h269q37 0 63 -26.5t26 -63.5t-26 -62.5t-63 -25.5h-269q-47 0 -80.5 -33.5t-33.5 -80.5t33.5 -80.5t80.5 -33.5h413q13 0 22 -9t9 -22t-9 -21.5t-22 -8.5h-413q-73 0 -124 51t-51 124q0 72 51 123.5t124 51.5h269q12 0 20 8t8 19q0 13 -8 21t-20 8
h-269q-72 0 -123.5 51.5t-51.5 123.5q0 73 51.5 124t123.5 51zM175 263h269q13 0 22 -8.5t9 -21.5t-9 -22t-22 -9h-269q-11 0 -19.5 -8t-8.5 -19q0 -12 8.5 -20t19.5 -8q13 0 21.5 -9t8.5 -22q0 -12 -8.5 -21t-21.5 -9q-37 0 -63 26t-26 63t26 62.5t63 25.5z" />
    <glyph glyph-name="F" unicode="F" horiz-adv-x="699" 
d="M175 756h413q13 0 22 -9t9 -21q0 -13 -9 -22t-22 -9h-413q-10 0 -18 -7t-10 -18h441q13 0 22 -9t9 -22t-9 -21.5t-22 -8.5h-441v-129q0 -12 8.5 -20t19.5 -8h177q13 0 22 -9t9 -22q0 -12 -9 -21t-22 -9h-177q-37 0 -63 26t-26 63v129q-11 -2 -18 -10t-7 -18v-551
q0 -12 -9 -21t-22 -9q-12 0 -21 9t-9 21v551q0 36 25.5 61.5t60.5 27.5q2 35 27.5 60.5t61.5 25.5zM175 365h177q13 0 22 -9t9 -21q0 -13 -9 -22t-22 -9h-177q-11 0 -19.5 -8t-8.5 -20v-246q0 -12 -8.5 -21t-21.5 -9t-22 9t-9 21v246q0 37 26 63t63 26z" />
    <glyph glyph-name="G" unicode="G" 
d="M385 769h3q29 -1 50.5 -22.5t21.5 -51.5q0 -31 -21.5 -52.5t-53.5 -21.5q-100 0 -171 -71t-71 -171q0 -101 71 -172t171 -71q13 0 21.5 -9t8.5 -21q0 -13 -8.5 -21.5t-21.5 -8.5q-127 0 -213 89q-89 86 -89 214q0 127 89 213q86 89 213 89q16 0 16 14t-16 14
q-136 0 -232.5 -97t-96.5 -233t96.5 -233t232.5 -97q129 0 228.5 91t99.5 209h-285q-4 0 -8.5 -4.5t-4.5 -8.5q0 -5 4 -9t9 -4h212q12 0 21 -9t9 -21q0 -13 -9 -21.5t-21 -8.5h-214q-29 1 -49.5 22t-20.5 51q0 29 21 50t51 22h318q13 0 21.5 -8.5t8.5 -20.5
q0 -161 -115 -276t-276 -115t-275.5 115t-114.5 276t114.5 275.5t275.5 114.5z" />
    <glyph glyph-name="H" unicode="H" horiz-adv-x="756" 
d="M30 756q13 0 22 -9t9 -22v-695q0 -13 -9 -21.5t-22 -8.5q-12 0 -21 8.5t-9 21.5v695q0 13 9 22t21 9zM646 756q13 0 21.5 -9t8.5 -22v-289q0 -36 -25 -61.5t-61 -27.5v-317q0 -13 -9 -21.5t-21 -8.5q-13 0 -22 8.5t-9 21.5v317h-354q-11 0 -19.5 -8t-8.5 -20v-289
q0 -13 -8.5 -21.5t-21.5 -8.5t-22 8.5t-9 21.5v289q0 37 26 63t63 26h354v317q0 13 9 22t22 9q12 0 21 -9t9 -22v-317q11 2 18 10t7 18v289q0 13 9 22t22 9z" />
    <glyph glyph-name="I" unicode="I" horiz-adv-x="227" 
d="M74 756q30 0 51.5 -21.5t21.5 -52.5v-652q0 -12 -8.5 -21t-21.5 -9t-22 9t-9 21v652q0 13 -12 13q-13 0 -13 -13v-304q0 -13 -9 -21.5t-22 -8.5q-12 0 -21 8.5t-9 21.5v304q0 31 21.5 52.5t52.5 21.5z" />
    <glyph glyph-name="J" unicode="J" horiz-adv-x="539" 
d="M429 756q13 0 21.5 -9t8.5 -21v-340q0 -160 -113 -273t-273 -113q-31 0 -52 21.5t-21 51.5q0 33 21.5 53t51.5 20q100 0 170 70q70 72 70 170q0 12 8.5 21t21.5 9q12 0 21 -9t9 -21q0 -124 -88 -212q-87 -87 -212 -87q-13 0 -13 -14q0 -13 13 -13q135 0 231 95.5
t96 230.5v340q0 12 8.5 21t20.5 9z" />
    <glyph glyph-name="K" unicode="K" horiz-adv-x="634" 
d="M532 734q22 -21 22 -51.5t-22 -51.5l-253 -253l253 -253q22 -22 22 -52t-22 -52q-24 -21 -52.5 -21t-49.5 20l-126 126q-9 9 -9 21.5t9 21.5t21.5 9t21.5 -9l124 -125q9 -10 19 0q8 8 -1 18l-275 274q-9 9 -9 21.5t9 21.5l274 274q10 9 1 18t-19 -1l-315 -314
q-8 -8 -8 -20v-326q0 -12 -8.5 -21t-21.5 -9t-22 9t-9 21v326q0 37 26 63l316 315q22 22 52 22t52 -22zM30 755q13 0 22 -9t9 -22v-694q0 -12 -9 -21t-22 -9q-12 0 -21 9t-9 21v694q0 13 9 22t21 9z" />
    <glyph glyph-name="L" unicode="L" horiz-adv-x="630" 
d="M74 756q30 0 51.5 -21.5t21.5 -51.5v-508q0 -11 8.5 -19.5t19.5 -8.5h301q31 0 52.5 -21.5t21.5 -51.5q0 -31 -21.5 -52.5t-52.5 -21.5h-301q-13 0 -21.5 9t-8.5 22q0 12 8.5 21t21.5 9h301q13 0 13 13q0 12 -13 12h-301q-37 0 -63 26t-26 63v507q0 13 -12 13
q-13 0 -13 -13v-303q0 -13 -9 -22t-22 -9q-12 0 -21 9t-9 22v304q0 30 21.5 51.5t52.5 21.5z" />
    <glyph glyph-name="M" unicode="M" horiz-adv-x="1170" 
d="M918 756q71 0 121.5 -50.5t50.5 -121.5v-555q0 -12 -8.5 -20.5t-21.5 -8.5q-12 0 -21 8.5t-9 20.5v555q0 46 -33 79t-79 33t-79 -33t-33 -79v-412q0 -36 -25.5 -61.5t-61.5 -25.5t-61.5 25.5t-25.5 61.5v413q0 64 -56 96q-39 23 -83.5 11t-70.5 -53l-361 -562
q-7 -10 3 -17t18 5l361 561q20 30 52 41t69 -7q43 -26 43 -75v-413q0 -46 33 -79t79 -33q47 0 79.5 33t32.5 79v412q0 13 9 21.5t21 8.5q13 0 21.5 -8.5t8.5 -21.5v-412q0 -71 -50.5 -121.5t-121.5 -50.5t-121 50.5t-50 121.5v413q-2 17 -15 23q-24 12 -39 -15l-360 -558
q-15 -27 -44.5 -33.5t-53.5 8.5q-26 15 -33.5 44t7.5 54l362 563q39 61 107 79t127 -17q40 -23 63 -63.5t23 -86.5v-411q0 -11 8 -19.5t19 -8.5t19.5 8.5t8.5 19.5v412q-1 71 49.5 121.5t121.5 50.5z" />
    <glyph glyph-name="N" unicode="N" horiz-adv-x="776" 
d="M87 732q61 35 130 17t109 -79l359 -559q16 -26 8 -56.5t-34 -45.5q-22 -15 -52 -8.5t-48 35.5l-357 554q-18 28 -41 15q-14 -9 -14 -24v-551q0 -12 -9 -21t-21 -9q-13 0 -22 9t-9 21v551q0 51 45 77q37 18 69.5 6.5t52.5 -41.5l357 -554q8 -14 19 -8q13 7 3 19l-357 557
q-26 41 -71 53.5t-86 -10.5q-57 -34 -57 -98v-552q0 -12 -9 -21t-22 -9q-12 0 -21 9t-9 21v548q-1 48 22.5 89.5t64.5 64.5zM622 755q31 0 52.5 -21.5t21.5 -51.5v-429q0 -13 -9 -21.5t-21 -8.5q-13 0 -22 8.5t-9 21.5v429q0 13 -13 13q-12 0 -12 -13v-287q0 -13 -9 -22
t-22 -9t-21.5 9t-8.5 22v287q0 30 21.5 51.5t51.5 21.5z" />
    <glyph glyph-name="O" unicode="O" 
d="M386 681q126 0 214 -88q88 -90 88 -215q0 -12 -8.5 -21t-21.5 -9q-12 0 -21 9t-9 21q0 101 -71 172q-73 71 -171 71q-99 0 -172 -71q-71 -71 -71 -172q0 -30 -21.5 -52t-52.5 -22t-52.5 22t-21.5 52q0 162 114 276q115 115 276.5 115t276.5 -115q114 -112 114 -276
q0 -162 -114 -276t-276 -114q-13 0 -22 8.5t-9 21.5t9 21.5t22 8.5q136 0 233 97t97 233q0 135 -97 234q-97 96 -233.5 96t-233.5 -96q-96 -98 -96 -234q0 -15 14 -15q13 0 13 15q0 125 88 215q88 88 215 88z" />
    <glyph glyph-name="P" unicode="P" horiz-adv-x="699" 
d="M30 756h364q93 -1 159 -67t66 -159t-66.5 -159.5t-159.5 -66.5h-168q-32 0 -55 -23t-23 -56v-195q0 -12 -9 -21t-22 -9t-21.5 9t-8.5 21v195q0 58 40.5 99t98.5 41h168q68 0 116.5 48.5t48.5 116.5t-48.5 116.5t-117.5 48.5h-331v-165q0 -13 -9 -21.5t-22 -8.5
q-12 0 -21 8.5t-9 21.5v196q0 12 9 21t21 9zM393 670q58 0 99 -41t41 -99t-41 -98.5t-99 -40.5h-167q-68 0 -116.5 -48.5t-48.5 -116.5v-196q0 -12 -9 -21t-22 -9q-12 0 -21 9t-9 21v196q0 94 66 160t160 66h168q32 0 55 23t23 55q0 33 -23 56t-56 23q-12 0 -21 8.5t-9 21.5
t9 22t21 9z" />
    <glyph glyph-name="Q" unicode="Q" 
d="M662 654q114 -112 114 -276q0 -150 -100 -261l70 -108q17 -30 8.5 -57.5t-34.5 -43.5q-23 -16 -53 -8.5t-47 35.5l-76 118q-7 11 -3.5 23t14.5 19q19 12 44 31l-37 59q-9 18 5 33q61 73 61 160q0 101 -71 172q-71 70 -171.5 70t-171.5 -70q-71 -71 -71 -172
q0 -100 71 -171t172 -71q12 0 21 -9t9 -21q0 -13 -9 -22t-21 -9q-125 0 -214 89q-89 87 -89 214q0 125 88 215q89 89 215 89t214 -89q89 -89 89 -215q0 -101 -62 -183l15 -24q74 89 74 207q0 135 -97 234q-97 96 -233.5 96t-233.5 -96q-97 -99 -97 -234q0 -12 -8.5 -21
t-21.5 -9q-12 0 -21 9t-9 21q0 162 114 276q115 115 276.5 115t276.5 -115zM632 75l-20 -15l60 -94q7 -11 18 -5q11 7 4 17z" />
    <glyph glyph-name="R" unicode="R" horiz-adv-x="698" 
d="M30 756h364q93 -1 158.5 -67.5t65.5 -159.5q0 -87 -58.5 -151t-143.5 -73l181 -180q20 -20 20 -52t-20 -52q-21 -21 -51 -21.5t-51 20.5l-126 126q-9 9 -9 21.5t9 21.5t21.5 9t21.5 -9l124 -124q10 -9 18 -1q9 9 0 18l-232 231q-9 9 -9 21q0 13 9 22t22 9h48
q68 0 117 48.5t49 116.5t-49 116.5t-117 48.5h-331v-165q0 -13 -9 -21.5t-22 -8.5t-21.5 8.5t-8.5 21.5v196q0 12 8.5 21t21.5 9zM393 670q58 0 99 -41t41 -99t-41 -98.5t-99 -40.5h-167q-68 0 -116.5 -48.5t-48.5 -116.5v-196q0 -12 -9 -21t-22 -9t-21.5 9t-8.5 21v196
q0 94 66 160t160 66h167q33 0 56 23t23 55q0 33 -23 56t-56 23q-13 0 -21.5 8.5t-8.5 21.5t8.5 22t21.5 9z" />
    <glyph glyph-name="S" unicode="S" horiz-adv-x="731" 
d="M226 756h290q31 0 52.5 -21.5t21.5 -52.5q0 -30 -21.5 -51.5t-52.5 -21.5h-291q-32 0 -55 -23t-23 -56q0 -32 23 -55t55 -23h200q94 0 160 -66t66 -160q0 -13 -9 -21.5t-21 -8.5q-13 0 -22 8.5t-9 21.5q0 68 -48.5 116.5t-116.5 48.5h-200q-58 0 -98.5 40.5t-40.5 98.5
t40.5 99t98.5 41h291q13 0 13 12q0 13 -13 13h-290q-68 0 -116.5 -48.5t-48.5 -116.5q0 -13 -9 -21.5t-22 -8.5q-12 0 -21 8.5t-9 21.5q0 94 66 160t160 66zM226 365h200q58 0 98.5 -41t40.5 -99t-40.5 -98.5t-98.5 -40.5h-320q-13 0 -13 -13q0 -12 13 -12h319q13 0 21.5 -9
t8.5 -22q0 -12 -8.5 -21t-21.5 -9h-319q-31 0 -52.5 21.5t-21.5 51.5t20.5 52t50.5 22h323q32 0 55 23t23 55q0 33 -23 56t-55 23h-200q-13 0 -21.5 9t-8.5 21q0 13 8.5 22t21.5 9z" />
    <glyph glyph-name="T" unicode="T" horiz-adv-x="783" 
d="M30 756h643q12 0 21 -9t9 -21q0 -13 -9 -22t-21 -9h-643q-12 0 -21 9t-9 22q0 12 9 21t21 9zM30 670h220q37 0 63 -26t26 -63v-551q0 -12 -9 -21t-22 -9q-12 0 -21 9t-9 21v551q0 11 -8.5 19.5t-19.5 8.5h-220q-12 0 -21 8.5t-9 21.5t9 22t21 9zM453 670h220q12 0 21 -9
t9 -22t-9 -21.5t-21 -8.5h-220q-11 0 -19.5 -8.5t-8.5 -19.5v-551q0 -12 -8.5 -21t-21.5 -9t-22 9t-9 21v551q0 37 26 63t63 26z" />
    <glyph glyph-name="U" unicode="U" horiz-adv-x="740" 
d="M587 756q30 0 51 -21t22 -51v-366q0 -137 -97 -234q-96 -96 -233 -96t-233 96q-97 97 -97 234q0 12 8.5 21t21.5 9q12 0 21 -9t9 -21q0 -112 79 -191t191 -79t191 79t79 191v365q0 13 -13 13q-14 0 -14 -13v-365q0 -101 -71 -172t-172 -71t-172 71t-71 172v408
q0 13 8.5 21.5t20.5 8.5q13 0 21.5 -8.5t8.5 -21.5v-408q0 -76 54 -130t130 -54t130 54q54 56 54 130v366q0 30 21.5 51t51.5 21z" />
    <glyph glyph-name="V" unicode="V" horiz-adv-x="894" 
d="M796 754q12 -5 16.5 -16.5t-0.5 -23.5l-251 -601q-20 -51 -64.5 -82t-99.5 -31t-99.5 31t-64.5 82l-228 543q-11 29 2 57.5t41 38.5q30 10 57.5 -3.5t37.5 -40.5l227 -540q6 -17 27 -19q21 2 27 19l93 222q5 11 17 16t23 0q27 -12 17 -40l-94 -222q-10 -25 -33 -40
t-50 -15t-50 14.5t-33 39.5l-228 542q-2 7 -7 9q-4 2 -10 0q-5 -1 -7 -6t0 -10l229 -546q13 -32 42 -51.5t64 -19.5t64 19.5t42 51.5l253 605q4 12 16 17t24 0z" />
    <glyph glyph-name="W" unicode="W" horiz-adv-x="1170" 
d="M1060 756q13 0 21.5 -8.5t8.5 -20.5v-556q0 -71 -50.5 -121t-121.5 -50t-121.5 50.5t-49.5 120.5v413q0 11 -8.5 19.5t-19.5 8.5t-19 -8.5t-8 -19.5v-412q0 -46 -23 -86t-63 -63q-59 -34 -127 -16.5t-107 77.5l-362 563q-15 26 -7.5 55t33.5 44q24 15 53.5 8.5
t44.5 -33.5l360 -558q15 -27 39 -15q13 6 15 23v413q0 71 50 121.5t121 50.5t121.5 -50.5t50.5 -121.5v-413q0 -12 -8.5 -20.5t-21.5 -8.5q-12 0 -21 8.5t-9 20.5v413q0 46 -32.5 79t-79.5 33q-46 0 -79 -33t-33 -79v-413q0 -50 -43 -75q-37 -18 -69 -7t-52 41l-361 561
q-8 12 -18 5t-3 -17l361 -562q26 -41 70.5 -53t83.5 10q56 32 56 97v413q0 36 25.5 61.5t61.5 25.5t61.5 -25.5t25.5 -61.5v-413q0 -46 33 -79t79 -33t79 33t33 79v556q0 12 9 20.5t21 8.5z" />
    <glyph glyph-name="X" unicode="X" horiz-adv-x="838" 
d="M735 735q22 -22 22 -52t-22 -52l-253 -253l253 -253q23 -22 22.5 -52t-22.5 -51q-21 -21 -51 -22t-51 20l-315 315l-253 -253q-9 -8 0 -17t17 0l215 214q9 9 21.5 9t21.5 -9t9 -21.5t-9 -21.5l-216 -216q-22 -20 -52 -20t-50 22q-22 20 -22 50.5t22 52.5l253 253
l-253 253q-22 22 -22 52t22 52q20 21 51.5 21t51.5 -21l212 -212q9 -9 9 -21.5t-9 -21.5t-21.5 -9t-21.5 9l-212 212q-9 9 -17 0q-9 -9 0 -18l253 -253l314 314q20 21 51.5 21t51.5 -21zM693 692q-9 9 -19 -1l-313 -313l313 -313q9 -9 18 0q8 9 0 17l-275 274q-9 9 -9 21.5
t9 21.5l274 274q11 11 2 19z" />
    <glyph glyph-name="Y" unicode="Y" horiz-adv-x="837" 
d="M22 735q20 21 51.5 21t51.5 -21l212 -212q9 -9 9 -21.5t-9 -21.5t-21.5 -9t-21.5 9l-210 210q-10 10 -19 2q-9 -9 0 -18l253 -253l314 314q20 21 51.5 21t52.5 -21q22 -23 21 -53.5t-21 -50.5l-302 -301v-300q0 -12 -8.5 -21t-21.5 -9t-22 9t-9 21v311q0 14 10 24
l309 309q9 9 0 18q-8 9 -17 0l-327 -327v-335q0 -12 -9 -21t-22 -9q-12 0 -21 9t-9 21v336l-265 265q-22 24 -21 54t21 50z" />
    <glyph glyph-name="Z" unicode="Z" horiz-adv-x="685" 
d="M61 756h369q47 0 88 -23.5t65 -64.5q35 -60 16.5 -129t-79.5 -109l-354 -228q-29 -17 -15 -41q7 -14 24 -14h369q13 0 22 -8.5t9 -21.5t-9 -22t-22 -9h-370q-50 2 -76 45q-18 37 -6.5 69.5t41.5 52.5l354 228q41 27 53.5 71.5t-10.5 85.5q-33 57 -99 57h-370q-12 0 -21 9
t-9 22q0 12 9 21t21 9zM61 670h370q51 -2 77 -45q18 -37 6.5 -69.5t-41.5 -52.5q-8 -7 -21.5 -4t-20.5 13t-4 22.5t13 19.5q28 18 15 41q-9 14 -24 14h-370q-12 0 -21 8.5t-9 21.5t9 22t21 9zM86 326q10 7 22.5 4t19.5 -13t4 -22.5t-13 -19.5q-42 -27 -54 -72t11 -85
q33 -57 99 -57h369q13 0 22 -9t9 -22q0 -12 -9 -21t-22 -9h-369q-47 0 -88 23.5t-64 64.5q-35 60 -17 129t80 109z" />
    <glyph glyph-name="bracketleft" unicode="[" horiz-adv-x="341" 
d="M175 756h55q13 0 22 -9t9 -21.5t-9 -21.5t-22 -9h-55q-11 0 -19.5 -8t-8.5 -20v-551q0 -13 -8.5 -21.5t-21.5 -8.5t-22 8.5t-9 21.5v551q0 37 26 63t63 26zM30 695q13 0 22 -9t9 -22v-575q0 -12 8.5 -20t19.5 -8h141q13 0 22 -9t9 -21.5t-9 -21.5t-22 -9h-141
q-37 0 -63 26t-26 63v575q0 13 9 22t21 9z" />
    <glyph glyph-name="backslash" unicode="\" horiz-adv-x="504" 
d="M19 754q11 5 23 0t17 -17l280 -668q5 -10 17 -7q11 5 6 17l-125 299q-10 28 16 40q12 5 24 0t16 -16l127 -304q10 -27 -2 -55t-42 -39q-24 -9 -53 1.5t-40 41.5l-281 667q-5 11 0 23t17 17z" />
    <glyph glyph-name="bracketright" unicode="]" horiz-adv-x="341" 
d="M31 756h55q37 0 63 -26t26 -63v-551q0 -13 -9 -21.5t-22 -8.5t-21.5 8.5t-8.5 21.5v551q0 12 -8.5 20t-19.5 8h-55q-13 0 -22 9t-9 21.5t9 21.5t22 9zM231 695q12 0 21 -9t9 -22v-575q0 -37 -26 -63t-63 -26h-141q-13 0 -22 9t-9 21.5t9 21.5t22 9h141q11 0 19.5 8
t8.5 20v575q0 13 9 22t22 9z" />
    <glyph glyph-name="asciicircum" unicode="^" horiz-adv-x="747" 
d="M319 756q55 0 99.5 -31t64.5 -82l181 -431q3 -6 3 -11q0 -20 -19 -29q-28 -10 -40 17l-183 435q-13 32 -42 51.5t-64 19.5t-63.5 -19.5t-42.5 -51.5l-151 -364q-6 -12 5 -17q13 -6 18 9l151 361q25 54 83 54q27 0 50 -15t33 -40l169 -400q5 -11 0 -23t-17 -17
q-11 -5 -23 0t-17 17l-168 399q-7 19 -27 19q-19 0 -27 -19l-150 -358q-10 -27 -38 -41t-57 -3q-28 10 -41 38t-2 57l151 362q20 51 64.5 82t99.5 31z" />
    <glyph glyph-name="underscore" unicode="_" horiz-adv-x="602" 
d="M30 0h420q30 0 51 -22t21 -52t-21 -51.5t-51 -21.5h-224q-12 0 -21 8.5t-9 21.5t9 22t21 9h222q13 0 13 12q0 13 -13 13h-418q-13 0 -21.5 9t-8.5 21q0 13 8.5 22t21.5 9z" />
    <glyph glyph-name="grave" unicode="`" horiz-adv-x="430" 
d="M89 756l78 -14q13 -2 20 -12.5t5 -22.5q-2 -13 -12.5 -20t-23.5 -4l-78 13q-13 2 -15 -11q-1 -10 11 -14l253 -44q11 -2 18 -12.5t5 -23.5t-12 -20t-22 -5l-253 45q-30 5 -47.5 30t-12.5 55t30.5 47.5t55.5 12.5z" />
    <glyph glyph-name="a" unicode="a" horiz-adv-x="896" 
d="M397 756q55 0 99.5 -31t64.5 -82l252 -601q5 -11 0 -23t-16 -17q-12 -5 -24 0t-16 17l-254 605q-13 32 -42 51.5t-64 19.5t-63.5 -19.5t-42.5 -51.5l-228 -545q-6 -12 5 -17q13 -6 18 9l228 542q10 25 33 39.5t50 14.5t50 -15t33 -40l240 -570q5 -11 0 -23t-17 -17
q-11 -5 -23 0t-17 17l-239 569q-7 19 -27 19q-19 0 -27 -19l-227 -539q-10 -27 -38 -41t-57 -3q-28 10 -41 38t-2 57l228 543q20 51 64.5 82t99.5 31z" />
    <glyph glyph-name="b" unicode="b" horiz-adv-x="697" 
d="M72 756h361q76 0 129.5 -53.5t53.5 -129.5q0 -75 -53.5 -128.5t-129.5 -53.5h-359q-13 0 -22 8.5t-9 21.5t9 22t22 9h359q51 0 86.5 35.5t35.5 85.5q0 51 -35.5 86.5t-86.5 35.5h-359q-13 0 -13 -13q0 -12 13 -12h364q40 0 68 -28.5t28 -68.5t-28 -68t-68 -28
q-13 0 -21.5 9t-8.5 22q0 12 8.5 21t21.5 9q15 0 25.5 10.5t10.5 24.5q0 15 -10.5 25.5t-25.5 10.5h-366q-30 0 -51 21.5t-21 51.5t21 52t51 22zM74 365h359q76 0 129.5 -53.5t53.5 -128.5q0 -76 -53.5 -129.5t-129.5 -53.5h-361q-30 0 -51 22t-21 52t21 51.5t51 21.5h366
q15 0 25.5 10.5t10.5 25.5q0 14 -10.5 24.5t-25.5 10.5q-13 0 -21.5 9t-8.5 21q0 13 8.5 22t21.5 9q40 0 68 -28t28 -68t-28 -68.5t-68 -28.5h-364q-13 0 -13 -12q0 -13 13 -13h359q51 0 86.5 36t35.5 86t-35.5 85.5t-86.5 35.5h-359q-13 0 -22 9t-9 22t9 21.5t22 8.5z" />
    <glyph glyph-name="c" unicode="c" horiz-adv-x="750" 
d="M385 769q13 0 21.5 -9t8.5 -21q0 -13 -8.5 -21.5t-21.5 -8.5q-136 0 -233 -97t-97 -233.5t97 -233.5q96 -97 233 -97t233 97q9 9 21.5 9t21.5 -9t9 -21.5t-9 -21.5q-114 -114 -276 -114t-276 114t-114 276t114 277q116 114 276 114zM599 593q9 -9 9 -21.5t-9 -21.5
q-21 -22 -43 0q-70 70 -171 70t-171 -70q-71 -71 -71 -172q0 -100 71 -171q69 -71 171 -71q13 0 21.5 -9t8.5 -21q0 -13 -8.5 -21.5t-21.5 -8.5q-126 0 -214 88l-1 1q-88 88 -88 213q0 126 89 215t214 89t214 -89z" />
    <glyph glyph-name="d" unicode="d" horiz-adv-x="783" 
d="M191 755h134q157 0 267.5 -110.5t110.5 -266.5q0 -157 -110.5 -267.5t-267.5 -110.5h-134q-39 0 -68 24.5t-36 61.5q-38 8 -62.5 37t-24.5 68v450q0 12 9 21t21 9q13 0 22 -9t9 -21v-450q0 -27 24 -40v499q0 43 31 74t75 31zM325 695h-134q-19 0 -32 -13.5t-13 -32.5
v-504h179q96 0 164.5 68.5t68.5 164.5t-68.5 164t-164.5 68h-126q-13 0 -22 9t-9 22q0 12 9 21t22 9h129q120 0 205.5 -86t85.5 -207q0 -122 -86.5 -208t-207.5 -86h-174q13 -23 40 -23h134q131 0 224 93t93 224t-93 224t-224 93z" />
    <glyph glyph-name="e" unicode="e" horiz-adv-x="696" 
d="M183 756h361q30 -1 51 -22.5t21 -51.5q0 -29 -21 -51t-50 -22h-367q-15 0 -25 -10.5t-10 -25.5q0 -14 10 -24.5t25 -10.5q13 0 21.5 -9t8.5 -21q0 -13 -8.5 -22t-21.5 -9q-40 0 -68 28t-28 68t28 68.5t68 28.5h365q12 0 12 12q0 13 -12 13h-360q-50 0 -86 -36t-36 -86
t36 -85.5t86 -35.5h276q13 0 21.5 -9t8.5 -22t-8.5 -21.5t-21.5 -8.5h-276q-76 0 -129.5 53.5t-53.5 128.5q0 76 53.5 129.5t129.5 53.5zM183 365h276q13 0 21.5 -8.5t8.5 -21.5t-8.5 -22t-21.5 -9h-276q-50 0 -86 -35.5t-36 -85.5t36 -86t86 -36h360q12 0 12 13
q0 12 -12 12h-365q-40 0 -68 28.5t-28 68.5t28 68t68 28q13 0 21.5 -9t8.5 -22q0 -12 -8.5 -21t-21.5 -9q-15 0 -25 -10.5t-10 -24.5q0 -15 10 -25.5t25 -10.5h367q29 0 50 -22t21 -51q0 -30 -21 -52t-51 -22h-361q-76 0 -129.5 53.5t-53.5 129.5q0 75 53.5 128.5
t129.5 53.5z" />
    <glyph glyph-name="f" unicode="f" horiz-adv-x="699" 
d="M30 756h558q13 0 22 -9t9 -21q0 -13 -9 -22t-22 -9h-558q-12 0 -21 9t-9 22q0 12 9 21t21 9zM89 670h499q13 0 22 -9t9 -22t-9 -21.5t-22 -8.5h-499q-12 0 -20 -8.5t-8 -19.5v-551q0 -12 -9 -21t-22 -9q-12 0 -21 9t-9 21v551q0 37 26 63t63 26zM175 408h177
q13 0 22 -8.5t9 -21.5t-9 -21.5t-22 -8.5h-177q-11 0 -19.5 -8.5t-8.5 -19.5v-290q0 -12 -8.5 -21t-21.5 -9t-22 9t-9 21v290q0 37 26 62.5t63 25.5z" />
    <glyph glyph-name="g" unicode="g" 
d="M386 769q12 0 21 -8.5t9 -21.5t-9 -21.5t-21 -8.5q-135 0 -234 -97q-96 -96 -96 -233q0 -136 96 -234q97 -97 233.5 -96.5t233.5 96.5q84 84 95 203h-328q-13 0 -13 -12q0 -13 14 -13h253q12 0 21 -9t9 -21q0 -13 -9 -22t-21 -9h-257q-29 0 -50 22t-21 52t21.5 51.5
t52.5 21.5h360q12 0 21 -9t9 -22q0 -160 -114 -276q-114 -114 -276 -114t-277 114q-114 116 -114 277q0 160 114 276q114 114 277 114zM386 682q125 0 214 -89q9 -9 9 -21.5t-9 -21.5q-22 -22 -43 0q-71 71 -171 71q-101 0 -172 -71q-70 -70 -70 -171t70 -172q9 -9 9 -21.5
t-9 -21.5q-22 -22 -43 0q-89 89 -89 214.5t89 214.5t215 89z" />
    <glyph glyph-name="h" unicode="h" horiz-adv-x="755" 
d="M30 756q13 0 22 -9t9 -21v-694q0 -13 -9 -22t-22 -9q-12 0 -21 9t-9 22v694q0 12 9 21t21 9zM559 756q12 0 21 -9t9 -21v-246q0 -37 -26 -63t-63 -26h-325q-37 0 -63 26t-26 63v246q0 12 9 21t22 9q12 0 21 -9t9 -21v-246q0 -12 8 -20t20 -8h325q12 0 20 8t8 20v246
q0 12 9 21t22 9zM645 756q12 0 21 -9t9 -21v-694q0 -13 -9 -22t-21 -9q-13 0 -22 9t-9 22v694q0 12 9 21t22 9zM175 365h325q37 0 63 -26t26 -63v-246q0 -12 -9 -21t-21 -9q-13 0 -22 9t-9 21v246q0 12 -8 20t-20 8h-325q-12 0 -20 -8t-8 -20v-246q0 -12 -9 -21t-21 -9
q-13 0 -22 9t-9 21v246q0 37 26 63t63 26z" />
    <glyph glyph-name="i" unicode="i" horiz-adv-x="227" 
d="M117 756q13 0 21.5 -9t8.5 -21v-652q0 -31 -21.5 -52.5t-51.5 -21.5q-31 0 -52.5 21.5t-21.5 52.5v304q0 13 9 21.5t21 8.5q13 0 22 -8.5t9 -21.5v-304q0 -13 13 -13q12 0 12 13v652q0 12 9 21t22 9z" />
    <glyph glyph-name="j" unicode="j" horiz-adv-x="538" 
d="M73 756h269q12 0 21 -8.5t9 -21.5v-341q0 -125 -88 -211q-87 -87 -211 -87q-5 0 -9 -4.5t-4 -9.5q0 -13 13 -13q135 0 230.5 95.5t95.5 229.5q0 13 8.5 21.5t21.5 8.5q12 0 20.5 -8.5t8.5 -21.5q0 -159 -113 -272t-272 -113q-31 0 -52 21.5t-21 51.5t21.5 51.5t51.5 21.5
q99 0 169 70t70 169v311h-239q-12 0 -21 9t-9 21q0 13 9 21.5t21 8.5z" />
    <glyph glyph-name="k" unicode="k" horiz-adv-x="633" 
d="M120 756q12 0 21 -9t9 -22v-269l280 280q22 21 51 20.5t51 -21.5q22 -22 22 -52.5t-22 -51.5l-253 -253l253 -253q22 -23 21 -53.5t-21 -50.5q-22 -22 -52 -22t-52 22q-9 9 -9 22t9 21q9 9 20 9q15 0 23 -9q9 -7 18 0q9 9 0 18l-275 275q-9 9 -9 21.5t9 21.5l275 274
q9 9 0 17q-9 9 -18 0l-330 -330q-16 -14 -33 -6q-19 9 -19 28v342q0 13 9 22t22 9zM30 756q13 0 22 -9t9 -22v-694q0 -12 -9 -21t-22 -9q-12 0 -21 9t-9 21v694q0 13 9 22t21 9z" />
    <glyph glyph-name="l" unicode="l" horiz-adv-x="630" 
d="M117 756q13 0 21.5 -9t8.5 -21v-579h329q31 0 52.5 -21.5t21.5 -51.5q0 -31 -21.5 -52.5t-52.5 -21.5h-301q-36 0 -61.5 25.5t-27.5 60.5q-35 2 -60.5 27.5t-25.5 61.5v551q0 12 9 21t21 9q13 0 22 -9t9 -21v-551q0 -10 7 -18t18 -10v579q0 12 9 21t22 9zM476 86h-329
q2 -11 10 -18t18 -7h301q13 0 13 13q0 12 -13 12z" />
    <glyph glyph-name="m" unicode="m" horiz-adv-x="1036" 
d="M87 734q61 35 130 16.5t109 -79.5l362 -562q15 -25 6 -55t-34 -44q-27 -15 -55.5 -7.5t-43.5 31.5l-356 554q-18 29 -43 17q-15 -7 -15 -25v-550q0 -12 -9 -21t-21 -9q-13 0 -22 9t-9 21v552q0 51 45 77q37 18 69.5 6.5t52.5 -41.5l359 -556q7 -12 18 -6t4 18l-359 558
q-27 41 -72 53.5t-85 -10.5q-57 -33 -57 -99v-552q0 -12 -9 -21t-22 -9q-12 0 -21 9t-9 21v551q0 47 23 88t64 65zM868 734q41 -24 64.5 -65t23.5 -88v-551q0 -12 -9 -21t-22 -9t-21.5 9t-8.5 21v552q0 66 -57 99q-41 23 -85.5 10.5t-71.5 -53.5l-110 -172q-7 -10 -19.5 -13
t-22.5 4q-11 7 -14 19.5t4 22.5l111 172q40 61 108.5 79.5t129.5 -16.5zM825 659q44 -26 44 -76v-553q0 -12 -8.5 -21t-21.5 -9t-21.5 9t-8.5 21v552q0 15 -14 24q-23 13 -41 -15l-131 -203q-7 -10 -19.5 -13t-22.5 4q-11 7 -13.5 19t4.5 23l130 203q20 30 53 41.5t70 -6.5z
" />
    <glyph glyph-name="n" unicode="n" horiz-adv-x="776" 
d="M88 733q61 35 129.5 17t108.5 -80l279 -434q7 -10 4 -22.5t-13 -19.5t-22.5 -4t-19.5 13l-279 434q-27 42 -72 54t-85 -11q-57 -33 -57 -98v-552q0 -12 -9 -21t-22 -9q-12 0 -21 9t-9 21v551q0 47 23.5 88t64.5 64zM666 756q12 0 21 -9t9 -21v-652q0 -43 -37 -64
q-26 -15 -55.5 -7t-44.5 34l-357 553q-18 28 -41 15q-14 -7 -14 -24v-551q0 -12 -8.5 -21t-21.5 -9t-22 9t-9 21v552q2 52 45 76q37 19 70 7.5t52 -42.5l358 -554q6 -12 18 -6q6 4 6 12v651q0 12 9 21t22 9z" />
    <glyph glyph-name="o" unicode="o" 
d="M386 769q162 0 276 -114t114 -276q0 -164 -114 -276q-115 -115 -276.5 -115t-276.5 115q-114 114 -114 276q0 31 22.5 52.5t51.5 21.5q33 0 53.5 -22t20.5 -52q0 -101 71 -172q73 -71 172 -71q98 0 171 71q71 71 71 172q0 12 9 21t21 9q13 0 21.5 -9t8.5 -21
q0 -125 -88 -215q-88 -88 -214 -88q-127 0 -215 88q-88 90 -88 215q0 15 -13 15q-14 0 -14 -15q0 -136 96 -234q97 -96 233.5 -96t233.5 96q97 99 97 234q0 136 -97 233t-233 97q-13 0 -22 8.5t-9 21.5t9 21.5t22 8.5z" />
    <glyph glyph-name="p" unicode="p" horiz-adv-x="699" 
d="M31 756h363q93 -1 159 -67t66 -159t-65.5 -159.5t-158.5 -66.5h-169q-13 0 -22 9t-9 22q0 12 9 21t22 9h167q68 0 116.5 48.5t48.5 116.5t-48.5 116.5t-116.5 48.5h-332v-664q0 -13 -8.5 -22t-21.5 -9t-22 9t-9 22v695q0 12 9 21t22 9zM116 670h278q58 0 98.5 -41
t40.5 -99q0 -13 -8.5 -21.5t-21.5 -8.5t-21.5 8.5t-8.5 21.5q0 33 -23.5 56t-55.5 23h-247v-578q0 -13 -9 -22t-22 -9q-12 0 -21 9t-9 22v608q0 13 9 22t21 9z" />
    <glyph glyph-name="q" unicode="q" horiz-adv-x="859" 
d="M665 654q114 -114 114 -276q0 -149 -98 -259l69 -111q15 -29 6.5 -57.5t-33.5 -43.5q-22 -14 -53 -7t-47 34l-75 118l-33 51q-61 -28 -126 -28q-124 0 -215 89q-88 88 -88 214t88 214t214 88t215 -88q88 -88 88 -214q3 -109 -76 -201q-19 -22 -43 -2q-9 8 -9.5 21t7.5 22
q61 71 61 160q0 101 -71 172q-70 71 -171 70.5t-172 -71.5q-71 -69 -71 -171t71 -171q71 -71 172 -71q65 0 121 32q25 14 41 -10l124 -192q8 -12 19 -6q10 6 4 17l-80 129q-7 17 -4 25t16 22q89 95 89 225q0 136 -97 233t-233.5 97t-233.5 -97q-97 -96 -97 -232.5t97 -233.5
q67 -67 157.5 -88.5t179.5 7.5q12 4 23 -1.5t15 -17.5t-1.5 -23t-17.5 -15q-63 -20 -123 -20q-159 0 -275 114l-1 1q-114 114 -114 276t114 276q115 115 277 115t276 -115z" />
    <glyph glyph-name="r" unicode="r" horiz-adv-x="697" 
d="M30 756h363q93 -1 158.5 -67t65.5 -158v-15q0 -87 -58.5 -151t-143.5 -73l168 -167q22 -22 22 -52t-22 -52q-20 -20 -50.5 -20.5t-51.5 19.5l-280 280q-9 9 -9 21.5t9 21.5t21.5 9t21.5 -9l279 -279q9 -7 17 0q9 9 0 18l-218 218q-9 8 -9 21t8.5 22t21.5 9h49
q68 0 116 48t48 116v15q0 68 -48.5 116t-116.5 48h-330v-665q0 -12 -9 -21t-22 -9q-12 0 -21 9t-9 21v696q0 12 9 21t21 9zM116 670h276q58 0 99 -40.5t41 -98.5q0 -13 -9 -22t-22 -9t-21.5 9t-8.5 22q0 32 -23 55t-56 23h-246v-579q0 -12 -8.5 -21t-21.5 -9t-22 9t-9 21
v610q0 12 9 21t22 9z" />
    <glyph glyph-name="s" unicode="s" horiz-adv-x="731" 
d="M224 756h292q13 0 21.5 -9t8.5 -21q0 -13 -8.5 -22t-21.5 -9h-290q-68 0 -116.5 -48.5t-48.5 -116.5t48.5 -116.5t116.5 -48.5h200q58 0 98.5 -41t40.5 -99t-40.5 -98.5t-98.5 -40.5h-320q-13 0 -13 -13q0 -12 13 -12h319q68 0 116.5 48.5t48.5 116.5t-48.5 116.5
t-116.5 48.5h-200q-58 0 -98.5 40.5t-40.5 98.5q0 13 8.5 22t21.5 9t21.5 -9t8.5 -22q0 -32 23.5 -55t55.5 -23h200q94 0 160 -66t66 -160t-66 -160t-160 -66h-319q-31 0 -52.5 21.5t-21.5 51.5t21 52t50 22h323q32 0 55.5 23t23.5 55q0 33 -23.5 56t-55.5 23h-200
q-94 0 -160 66t-66 160q0 93 66 159t158 67z" />
    <glyph glyph-name="t" unicode="t" horiz-adv-x="783" 
d="M453 756h177q30 0 51.5 -21.5t21.5 -52.5q0 -30 -21.5 -51.5t-52.5 -21.5h-204v-579q0 -12 -8.5 -21t-21.5 -9t-22 9t-9 21v579h-25v-579q0 -12 -9 -21t-22 -9q-12 0 -21 9t-9 21v579h-248q-12 0 -21 8.5t-9 21.5t9 22t21 9h248q-1 11 -9 18t-19 7h-220q-12 0 -21 9
t-9 22q0 12 9 21t21 9h220q36 0 62 -25.5t27 -60.5h25q2 36 27.5 61t61.5 25zM629 695h-176q-11 0 -19 -7t-9 -18h204q13 0 13 12q0 13 -13 13z" />
    <glyph glyph-name="u" unicode="u" horiz-adv-x="740" 
d="M630 756q13 0 21.5 -8.5t8.5 -21.5v-408q0 -137 -97 -234q-96 -96 -233 -96t-233 96q-97 97 -97 234v365q0 30 21.5 51.5t51.5 21.5q31 0 52 -21.5t21 -51.5v-365q0 -76 54 -130t130 -54t130 54q54 56 54 130q0 12 8.5 21t20.5 9q13 0 21.5 -9t8.5 -21q0 -101 -71 -172
t-172 -71t-172 71t-71 172v365q0 13 -14 13q-13 0 -13 -13v-365q0 -112 79 -191t191 -79t191 79t79 191v408q0 13 9 21.5t21 8.5z" />
    <glyph glyph-name="v" unicode="v" horiz-adv-x="896" 
d="M797 754q12 -5 16.5 -17t-0.5 -23l-252 -601q-20 -51 -64.5 -82t-99.5 -31t-99.5 31t-64.5 82l-228 543q-11 29 2 57t42 38q28 11 56 -3t38 -41l227 -540q8 -18 27 -18q20 0 28 18l239 570q4 12 16 17t24 0q11 -5 16 -17t0 -23l-239 -570q-11 -25 -34 -40t-50 -15
q-58 0 -83 54l-228 542q-5 15 -18 9q-11 -5 -5 -17l228 -545q14 -32 42.5 -51.5t63.5 -19.5t64 19.5t42 51.5l254 605q5 12 17 17t23 0z" />
    <glyph glyph-name="w" unicode="w" horiz-adv-x="1037" 
d="M86 22q-41 24 -64 65t-23 88v551q0 12 9 21t21 9q13 0 22 -9t9 -21v-552q0 -66 57 -99q40 -23 85 -10.5t72 53.5l359 558q7 12 -4 18t-18 -6l-359 -556q-20 -30 -52.5 -41.5t-69.5 6.5q-45 26 -45 77v552q0 12 9 21t22 9q12 0 21 -9t9 -21v-550q0 -18 15 -25
q25 -12 43 17l356 554q15 24 43.5 31.5t55.5 -7.5q25 -14 34 -44t-6 -55l-362 -562q-40 -61 -109 -79.5t-130 16.5zM867 22q-61 -35 -129.5 -16.5t-108.5 79.5l-111 172q-7 10 -4 22.5t14 19.5q10 7 22.5 4t19.5 -13l110 -172q27 -41 71.5 -53.5t85.5 10.5q57 33 57 99v552
q0 12 8.5 21t21.5 9t22 -9t9 -21v-551q0 -47 -23.5 -88t-64.5 -65zM824 97q-37 -18 -70 -6.5t-53 41.5l-130 203q-7 11 -4.5 23t13.5 19q10 7 22.5 4t19.5 -13l131 -203q18 -28 41 -15q14 9 14 24v552q0 12 8.5 21t21.5 9t21.5 -9t8.5 -21v-553q0 -50 -44 -76z" />
    <glyph glyph-name="x" unicode="x" horiz-adv-x="836" 
d="M21 735q20 20 50.5 21t53.5 -21l195 -195q9 -9 9 -21.5t-9 -21.5t-21.5 -9t-21.5 9l-195 195q-10 10 -18 1q-10 -10 1 -19l192 -193q9 -8 9 -21t-9 -22q-8 -8 -21 -9t-17 4l-193 193q-23 24 -25 54.5t20 54.5zM735 735q21 -22 21 -52t-21 -52l-611 -611
q-23 -21 -52 -20.5t-51 22.5q-21 22 -21 52t21 52l610 609q21 21 52 21t52 -21zM692 692q-9 9 -18 0l-609 -609q-10 -10 -1 -19q8 -8 18 1l610 609q9 9 0 18zM541 319l194 -193q21 -22 21 -52t-21 -52q-21 -21 -51 -21.5t-51 19.5l-195 195q-9 9 -9 21.5t9 21.5q8 9 21 9
t22 -9l193 -193q10 -10 19 -1q8 8 -1 19l-194 193q-9 8 -9 21t9 22q9 8 21.5 8.5t21.5 -8.5z" />
    <glyph glyph-name="y" unicode="y" horiz-adv-x="872" 
d="M125 734l212 -211q9 -9 9 -22t-9 -21q-9 -9 -21.5 -9t-21.5 9l-211 210q-9 10 -18 1t-1 -17l212 -212q9 -9 9 -21.5t-9 -21.5q-22 -21 -43 0l-212 212q-21 21 -20.5 51t20.5 52q22 22 52 22t52 -22zM770 734q22 -22 22 -52.5t-22 -51.5l-301 -301v-299q0 -13 -8.5 -21.5
t-21.5 -8.5t-22 8.5t-9 21.5v310q0 14 9 23l310 310q9 9 0 17q-9 9 -18 0l-326 -326v-334q0 -13 -9 -21.5t-21 -8.5q-13 0 -22 8.5t-9 21.5v347q0 13 9 21l335 335q22 21 52 21t52 -20z" />
    <glyph glyph-name="z" unicode="z" horiz-adv-x="685" 
d="M61 756h367q47 1 88.5 -23t65.5 -65q35 -60 17 -128.5t-80 -107.5l-356 -232q-21 -14 -16.5 -33.5t29.5 -19.5h325q31 0 52 -21.5t21 -51.5t-21 -52t-51 -22h-328q-47 0 -87.5 23.5t-63.5 64.5q-35 60 -17 129t80 109l354 228q27 17 15 41q-9 14 -24 14q-13 0 -22 9
t-9 21q1 13 9.5 22t21.5 9q52 -2 76 -45q19 -37 7.5 -69.5t-41.5 -52.5l-356 -229q-40 -27 -52.5 -71.5t10.5 -84.5q34 -57 98 -57h328q12 0 12 13q0 12 -13 12h-326q-51 2 -77 45q-18 37 -6.5 69.5t41.5 52.5l354 228q42 27 54 72t-11 85q-33 57 -97 57h-371q-13 0 -22 9
t-9 22q0 12 9 21t22 9z" />
    <glyph glyph-name="braceleft" unicode="{" horiz-adv-x="344" 
d="M234 756q12 0 21 -9t9 -21.5t-9 -21.5t-21 -9q-11 0 -19.5 -8t-8.5 -20v-551q0 -13 -8.5 -21.5t-21.5 -8.5t-22 8.5t-9 21.5v240q-16 -4 -25 -4v-263q0 -12 8.5 -20t19.5 -8h86q12 0 21 -9t9 -21.5t-9 -21.5t-21 -9h-86q-37 0 -63 26t-26 63v263h-28q-13 0 -22 9t-9 21.5
t9 21.5t22 9h28v251q0 13 9 22t21 9q13 0 22 -9t9 -22v-251q10 1 17.5 9t7.5 19v226q0 37 26 63t63 26z" />
    <glyph glyph-name="bar" unicode="|" horiz-adv-x="228" 
d="M74 756q30 0 52 -20.5t22 -50.5v-224q0 -13 -9 -22t-22 -9t-21.5 9t-8.5 22v222q0 13 -13 13t-13 -13v-753q0 -12 -8.5 -21t-21.5 -9t-22 9t-9 21v754q0 30 22 51t52 21z" />
    <glyph glyph-name="braceright" unicode="}" horiz-adv-x="320" 
d="M31 756h86q37 0 63 -26t26 -63v-263h28q12 0 21 -9t9 -21.5t-9 -21.5t-21 -9h-28v-251q0 -13 -9 -22t-21 -9q-13 0 -22 9t-9 22v251q-11 -1 -18 -9t-7 -19v-226q0 -37 -26 -63t-63 -26q-13 0 -22 9t-9 21.5t9 21.5t22 9q11 0 19.5 8t8.5 20v551q0 13 8.5 21.5t21.5 8.5
t22 -8.5t9 -21.5v-240q16 4 25 4v263q0 12 -8.5 20t-19.5 8h-86q-13 0 -22 9t-9 21.5t9 21.5t22 9z" />
    <glyph glyph-name="asciitilde" unicode="~" horiz-adv-x="672" 
d="M398 388h120q31 0 52.5 -21.5t21.5 -52.5q0 -30 -21.5 -51.5t-52.5 -21.5h-444q-13 0 -13 -12q0 -13 13 -13h120q13 0 21.5 -9t8.5 -22q0 -12 -8.5 -21t-21.5 -9h-120q-31 0 -52.5 21.5t-21.5 52.5q0 30 21.5 51.5t52.5 21.5h444q13 0 13 12q0 13 -13 13h-120
q-13 0 -21.5 9t-8.5 22q0 12 8.5 21t21.5 9z" />
    <glyph glyph-name="exclamdown" unicode="&#xa1;" horiz-adv-x="228" 
d="M74 756q30 0 51.5 -21.5t21.5 -52.5t-21.5 -52.5t-51.5 -21.5q-31 0 -52.5 21.5t-21.5 52.5t21.5 52.5t52.5 21.5zM73 698q-6 0 -11 -4.5t-5 -11.5t5 -11.5t11 -4.5q16 0 16 16t-16 16zM74 578q30 0 52 -20.5t22 -50.5v-224q0 -13 -9 -22t-22 -9t-21.5 9t-8.5 22v222
q0 13 -13 13t-13 -13v-475q0 -12 -8.5 -21t-21.5 -9t-22 9t-9 21v476q0 30 22 51t52 21z" />
    <glyph glyph-name="cent" unicode="&#xa2;" horiz-adv-x="623" 
d="M535 133q8 -8 8 -20.5t-8 -21.5q-80 -80 -191 -91v-32q0 -13 -8.5 -21.5t-21.5 -8.5q-12 0 -21 8.5t-9 21.5v31q-117 11 -196 92q-93 93 -93 223q0 131 93 224q80 80 193 91v31q0 13 8.5 21.5t21.5 8.5t21.5 -8.5t8.5 -21.5v-60q0 -12 -8.5 -21t-21.5 -9q-108 0 -181 -75
q-75 -75 -75 -181q0 -104 75 -181q64 -64 154 -73v28q-77 11 -131 65q-67 67 -67 161q0 93 67 162q66 66 161 66q96 0 162 -66q8 -9 8 -21.5t-8 -21.5q-9 -9 -21.5 -9t-21.5 9q-49 49 -119 49q-69 0 -118.5 -49t-49.5 -119q0 -69 49.5 -118.5t118.5 -49.5q13 0 21.5 -8.5
t8.5 -21.5v-56q88 12 148 73q9 9 21.5 9t21.5 -9z" />
    <glyph glyph-name="sterling" unicode="&#xa3;" horiz-adv-x="665" 
d="M179 756h154q74 0 127 -52.5t53 -126.5v-47q0 -30 -21.5 -51t-51.5 -21t-51.5 21t-21.5 51v47q0 14 -10.5 24.5t-24.5 10.5h-153q-14 0 -24.5 -10.5t-10.5 -24.5q0 -13 -8.5 -21.5t-20.5 -8.5q-13 0 -21.5 8.5t-8.5 21.5q0 39 27.5 66.5t66.5 27.5h154q39 0 66.5 -27.5
t27.5 -66.5v-47q0 -13 13 -13t13 13v47q0 49 -35 83.5t-85 34.5h-154q-49 0 -83.5 -34.5t-34.5 -83.5v-394q0 -51 36 -86.5t86 -35.5h328q13 0 13 13q0 12 -12 12h-329q-41 0 -69 28t-28 69v196q0 12 8.5 20.5t21.5 8.5h226q30 -1 51 -22t21 -50q0 -30 -20.5 -51t-49.5 -22
h-122q-12 0 -21 8.5t-9 21.5q0 12 9 21t21 9h120q5 0 9 4t4 9q0 4 -4.5 8.5t-8.5 4.5h-195v-166q0 -15 10.5 -25.5t25.5 -10.5h329q31 0 52 -21.5t21 -51.5t-20.5 -52t-50.5 -22h-331q-76 0 -129.5 53.5t-53.5 129.5v394q0 74 52.5 126.5t126.5 52.5z" />
    <glyph glyph-name="yen" unicode="&#xa5;" horiz-adv-x="836" 
d="M21 735q21 21 52 21t52 -21l212 -212q9 -9 9 -21.5t-9 -21.5t-21.5 -9t-21.5 9l-210 210q-10 10 -19 2q-9 -9 -1 -18l253 -253l314 314q21 21 52 21t52 -21q22 -23 21 -53.5t-21 -50.5l-301 -301v-33h32q13 0 21.5 -8.5t8.5 -21.5t-8.5 -22t-21.5 -9h-32v-25h32
q13 0 21.5 -9t8.5 -21q0 -13 -8.5 -22t-21.5 -9h-32v-120q0 -12 -9 -21t-22 -9t-21.5 9t-8.5 21v120h-26v-120q0 -12 -8.5 -21t-21.5 -9t-22 9t-9 21v120h-32q-13 0 -21.5 9t-8.5 22q0 12 8.5 21t21.5 9h32v25h-32q-13 0 -21.5 9t-8.5 22t8.5 21.5t21.5 8.5h32v69l-265 265
q-22 24 -21 54t21 50zM692 692q-9 9 -18 0l-327 -327v-68h26v44q0 14 10 24l309 309q9 9 0 18zM347 236v-25h26v25h-26z" />
    <glyph glyph-name="section" unicode="&#xa7;" horiz-adv-x="475" 
d="M32 111h227q10 0 17 7.5t7 17.5t-7 17.5t-17 7.5h-122q-57 0 -97 40q-40 42 -40 96q0 57 40 97t97 40h121q10 0 17.5 7t7.5 18q0 10 -7.5 17.5t-17.5 7.5h-122q-55 0 -96 39q-40 40 -40 97q0 56 40 96t96 40h192q9 0 15.5 -6.5t6.5 -15.5t-6.5 -15.5t-16.5 -6.5h-191
q-38 0 -65 -27t-27 -65t27 -65t65 -27h122q28 0 48.5 -20t20.5 -49t-20 -49.5t-49 -20.5h-121q-38 0 -65 -27t-27 -65t27 -65t65 -27h122q29 0 49 -20.5t20 -48.5t-20 -48.5t-49 -20.5h-227q-9 0 -15.5 6.5t-6.5 15.5t6.5 15.5t15.5 6.5zM136 595h122q56 0 96 -40t40 -96
q0 -57 -40 -97t-96 -40h-19q-9 0 -15.5 6.5t-6.5 16.5q0 9 6.5 15.5t15.5 6.5h19q40 0 65 27q27 27 27 65t-27 65t-65 27h-122q-28 0 -48.5 20.5t-20.5 48.5t20.5 48.5t48.5 20.5h59q9 0 15.5 -6.5t6.5 -15.5t-6.5 -15.5t-15.5 -6.5h-59q-10 0 -17.5 -7.5t-7.5 -17.5
t7.5 -17.5t17.5 -7.5zM136 272h122q57 0 97 -40t40 -96t-40 -96t-97 -40h-226q-9 0 -15.5 6.5t-6.5 15.5t6.5 15.5t15.5 6.5h226q38 0 65 27t27 65t-27 65t-65 27h-122q-28 0 -48 20t-21 48v1q0 10 6.5 16.5t15.5 6.5q10 0 16.5 -6.5t6.5 -16.5t7 -17.5t17 -7.5z" />
    <glyph glyph-name="dieresis" unicode="&#xa8;" horiz-adv-x="455" 
d="M74 756q30 0 51.5 -21.5t21.5 -52.5t-21.5 -52.5t-51.5 -21.5q-31 0 -52.5 21.5t-21.5 52.5t21.5 52.5t52.5 21.5zM301 756q30 0 51.5 -21.5t21.5 -52.5t-21.5 -52.5t-51.5 -21.5q-31 0 -52.5 21.5t-21.5 52.5t21.5 52.5t52.5 21.5zM73 698q-6 0 -11 -4.5t-5 -11.5
t5 -11.5t11 -4.5q16 0 16 16t-16 16zM300 698q-6 0 -11 -4.5t-5 -11.5t5 -11.5t11 -4.5q16 0 16 16t-16 16z" />
    <glyph glyph-name="copyright" unicode="&#xa9;" 
d="M386 681q126 0 214 -88.5t88 -214.5q0 -12 -8.5 -21t-21.5 -9q-12 0 -21 9t-9 21q0 101 -71 172t-171 71q-101 0 -172 -71t-71 -172q0 -30 -21.5 -52t-52.5 -22t-52.5 22t-21.5 52q0 162 114 276q115 115 276.5 115t276.5 -115q114 -112 114 -276q0 -162 -114 -276
t-276 -114q-19 0 -27 15t0 30t27 15q136 0 233 97t97 233q0 135 -97 234q-97 96 -233.5 96t-233.5 -96q-96 -98 -96 -233q0 -14 14 -14q13 0 13 14q0 126 88.5 214t214.5 88zM385 185q79 0 137 56q14 15 0 29q-14 13 -29 0q-43 -45 -108 -45q-64 0 -108.5 44.5t-44.5 108.5
t44.5 108.5t108.5 44.5q8 0 14 6t6 14t-6 14t-14 6q-80 0 -136.5 -56.5t-56.5 -136.5t56.5 -136.5t136.5 -56.5zM386 245q8 0 14 6t6 14t-6 14t-14 6q-38 0 -65.5 27.5t-27.5 65.5t27.5 65.5t65.5 27.5q37 0 66 -27q14 -14 28 0t0 28q-39 39 -94 39t-94 -39t-39 -94t39 -94
t94 -39z" />
    <glyph glyph-name="ordfeminine" unicode="&#xaa;" horiz-adv-x="609" 
d="M368 691l159 -374q8 -19 -9 -27q-21 -9 -29 12l-158 373q-20 41 -65 41t-65 -41l-158 -373q-9 -21 -29 -11q-16 8 -8 26l159 375q13 30 40.5 47t60.5 17t61 -17.5t41 -47.5zM316 664l70 -166q4 -10 -2 -19t-16 -9h-138q-9 0 -15 6t-6 14t6 14t15 6h108l-59 138
q-4 10 -13 10q-8 0 -13 -10l-147 -347q-8 -20 -28 -11q-17 9 -9 27l148 349q13 31 49 31q37 0 50 -33z" />
    <glyph glyph-name="guillemotleft" unicode="&#xab;" horiz-adv-x="1120" 
d="M458 60l-345 145q-51 22 -82 66t-31 98t31 98.5t82 65.5l403 170q12 6 23.5 1t16.5 -17q10 -27 -17 -40l-407 -172q-32 -14 -51.5 -42.5t-19.5 -63.5t19.5 -63.5t51.5 -42.5l346 -147q8 -3 14 1.5t5 12t-10 11.5l-344 145q-25 10 -39.5 33t-14.5 50t15 49.5t40 33.5
l372 158q11 5 23 0t17 -17q5 -11 0 -23t-17 -17l-371 -157q-20 -7 -20 -27q0 -17 20 -27l341 -144q27 -10 41 -38t3 -57q-10 -28 -38 -41t-57 -2zM940 60l-345 145q-51 22 -82 66t-31 98t31 98.5t82 65.5l403 170q12 6 23.5 1t16.5 -17q10 -27 -17 -40l-407 -172
q-32 -14 -51.5 -42.5t-19.5 -63.5t19.5 -63.5t51.5 -42.5l346 -147q8 -3 14 1.5t5 12t-10 11.5l-344 145q-25 10 -39.5 33t-14.5 50t15 49.5t40 33.5l372 158q11 5 23 0t17 -17q5 -11 0 -23t-17 -17l-371 -157q-20 -7 -20 -27q0 -17 20 -27l341 -144q27 -10 41 -38t3 -57
q-10 -28 -38 -41t-57 -2z" />
    <glyph glyph-name="registered" unicode="&#xae;" 
d="M386 681q126 0 214 -88.5t88 -214.5q0 -12 -8.5 -21t-21.5 -9q-12 0 -21 9t-9 21q0 101 -71 172t-171 71q-101 0 -172 -71t-71 -172q0 -30 -21.5 -52t-52.5 -22t-52.5 22t-21.5 52q0 162 114 276q115 115 276.5 115t276.5 -115q114 -112 114 -276q0 -162 -114 -276
t-276 -114q-19 0 -27 15t0 30t27 15q136 0 233 97t97 233q0 135 -97 234q-97 96 -233.5 96t-233.5 -96q-96 -98 -96 -233q0 -14 14 -14q13 0 13 14q0 126 88.5 214t214.5 88zM478 290l107 -107q6 -5 6 -13.5t-6 -14.5q-14 -14 -28 0l-134 134q-9 9 -6 20q3 14 20 14
q35 0 60 25t25 61q0 35 -25 60t-60 25h-169v-325q0 -8 -6 -14t-14 -6t-14 6t-6 14v345q0 8 6 14t14 6h193q50 0 85.5 -37t35.5 -88q0 -41 -23.5 -73.5t-60.5 -45.5zM330 434v-265q0 -8 -6 -14t-14 -6t-14 6t-6 14v285q0 8 6 14t14 6h133q24 0 41.5 -20t17.5 -45
q0 -9 -6 -14.5t-14 -5.5t-14 5.5t-6 14.5q0 10 -7.5 17.5t-17.5 7.5h-107z" />
    <glyph glyph-name="degree" unicode="&#xb0;" horiz-adv-x="281" 
d="M100 756q42 0 71.5 -29.5t29.5 -70.5q0 -42 -29.5 -71.5t-71.5 -29.5q-41 0 -70.5 29.5t-29.5 71.5q0 41 29.5 70.5t70.5 29.5zM100 706q-21 0 -35.5 -14.5t-14.5 -35.5t14.5 -36t35.5 -15t36 15t15 36t-15 35.5t-36 14.5z" />
    <glyph glyph-name="plusminus" unicode="&#xb1;" horiz-adv-x="576" 
d="M248 756q30 0 51.5 -21.5t21.5 -51.5v-142h102q31 0 52 -22t21 -51t-22 -51t-51 -22h-187v-142q0 -12 12 -12q5 0 9 3.5t4 8.5v87q0 13 8.5 21.5t21.5 8.5t21.5 -8.5t8.5 -21.5v-87q0 -31 -22 -52t-51 -21t-51 22t-22 51v142h-102q-29 0 -51 22t-22 51q0 31 22.5 52
t50.5 21h43q13 0 22 -8.5t9 -21.5t-9 -22t-22 -9h-43q-12 0 -12 -12t12 -12h102v227q0 29 22 51t51 22zM248 695q-11 0 -13 -12l1 -227h187q12 0 12 12t-12 12h-132q-13 0 -21.5 9t-8.5 21l-1 173q0 12 -12 12zM30 147h394q30 0 51 -22t21 -52t-21 -51.5t-51 -21.5h-176
q-12 0 -21 8.5t-9 21.5t9 22t21 9h174q13 0 13 12q0 13 -13 13h-392q-13 0 -21.5 9t-8.5 21q0 13 8.5 22t21.5 9z" />
    <glyph glyph-name="twosuperior" unicode="&#xb2;" horiz-adv-x="446" 
d="M137 387h177q22 0 37 -15t15 -37t-15 -37t-37 -15h-252q-36 0 -54 31q-13 27 -5 50t29 37l250 161q30 19 39 50.5t-8 59.5q-22 41 -70 41h-114q-35 0 -61 -25.5t-26 -60.5q0 -9 -6 -15t-15 -6t-15 6t-6 15q0 54 38 91.5t91 37.5h114q72 0 107 -62q25 -43 12 -91.5
t-56 -76.5l-250 -161q-10 -6 -12.5 -15.5t2.5 -16.5t16 -7h252q9 0 9 9q0 10 -9 10h-177q-9 0 -15 6t-6 15t6 15t15 6z" />
    <glyph glyph-name="threesuperior" unicode="&#xb3;" horiz-adv-x="439" 
d="M229 652h-176q-22 0 -37.5 15t-15.5 37t15.5 37t37.5 15h176q53 0 91.5 -38t38.5 -91t-38.5 -91t-91.5 -38h-104q-9 0 -15 6t-6 16q0 9 6 15t15 6h104q36 0 61 25t25 61q0 35 -25 60.5t-61 25.5h-176q-10 0 -10 -9t10 -9h176q29 -1 48.5 -20.5t19.5 -47.5
q0 -29 -19.5 -48.5t-48.5 -19.5q-9 0 -15 6.5t-6 14.5q0 9 6 15.5t15 6.5q11 0 18.5 7t7.5 18t-7.5 18t-18.5 7zM313 481q19 11 30 -8q16 -29 16 -61q0 -53 -38.5 -91t-91.5 -38h-176q-23 0 -38 15.5t-15 37.5q0 21 15.5 36t37.5 15h176q11 0 18.5 7t7.5 18t-7.5 18t-18.5 7
q-9 0 -15 6.5t-6 15.5t6 15t15 6q29 0 48.5 -20t19.5 -48t-19.5 -47.5t-48.5 -20.5h-176q-10 0 -10 -9t10 -9h176q36 0 61 25.5t25 60.5q0 17 -10 41q-7 19 8 28z" />
    <glyph glyph-name="acute" unicode="&#xb4;" horiz-adv-x="431" 
d="M186 742l78 14q30 5 55.5 -12.5t30.5 -47.5t-12.5 -55t-47.5 -30l-253 -45q-12 -2 -22 5t-12 20t5 23.5t18 12.5l253 44q12 4 11 14q-2 13 -15 11l-78 -13q-13 -3 -23.5 4t-12.5 20q-2 12 5 22.5t20 12.5z" />
    <glyph glyph-name="periodcentered" unicode="&#xb7;" horiz-adv-x="230" 
d="M74 346q30 0 51.5 -21.5t21.5 -52.5t-21.5 -52.5t-51.5 -21.5q-31 0 -52.5 21.5t-21.5 52.5t21.5 52.5t52.5 21.5zM73 288q-6 0 -11 -4.5t-5 -11.5t5 -11.5t11 -4.5q16 0 16 16t-16 16z" />
    <glyph glyph-name="cedilla" unicode="&#xb8;" horiz-adv-x="212" 
d="M31 0h92q9 -20 9 -41q0 -42 -29.5 -71.5t-71.5 -29.5q-13 0 -22 8.5t-9 21.5t9 21.5t22 8.5q16 0 28 12t12 29t-12 29t-28 12z" />
    <glyph glyph-name="onesuperior" unicode="&#xb9;" horiz-adv-x="253" 
d="M111 756q25 0 43.5 -18t18.5 -44v-361q0 -21 -14.5 -35.5t-35.5 -14.5t-36 14.5t-15 35.5v298q0 9 6.5 15t14.5 6t14 -6t6 -15v-298q0 -10 10 -10t10 10v361q0 9 -6 15.5t-16 6.5q-12 0 -19 -10q-46 -68 -56 -84q-11 -17 -27 -6t-6 27l56 87q16 26 52 26z" />
    <glyph glyph-name="ordmasculine" unicode="&#xba;" horiz-adv-x="567" 
d="M487 521q0 -100 -72 -172t-172 -72q-20 0 -35 15t-15 36q0 20 15 35t35 15h3q58 1 99 43t41 100q0 59 -42 101t-101 42q-8 0 -14 6t-6 14t6 14t14 6q76 0 129.5 -53.5t53.5 -129.5t-53.5 -129.5t-129.5 -53.5h-1q-10 0 -10 -10q0 -11 11 -11q84 0 144 60t60 144
t-60 143.5t-144 59.5t-143.5 -59.5t-59.5 -143.5q0 -8 -6 -14t-14 -6t-14 6t-6 14q0 101 71 172t172 71t172 -71q72 -72 72 -172z" />
    <glyph glyph-name="guillemotright" unicode="&#xbb;" horiz-adv-x="1119" 
d="M99 678l345 -145q51 -22 82 -66t31 -98t-31 -98.5t-82 -65.5l-403 -170q-12 -6 -23.5 -1t-16.5 17q-10 27 17 40l407 172q32 14 51.5 42.5t19.5 63.5t-19.5 63.5t-51.5 42.5l-347 146q-8 3 -13.5 -1.5t-4.5 -12t10 -11.5l344 -144q25 -10 39.5 -33t14.5 -50t-15 -49.5
t-40 -33.5l-372 -158q-11 -5 -23 0t-17 17q-5 11 0 23t17 17l371 157q20 7 20 27q0 17 -20 27l-341 144q-27 10 -41 38t-3 57q10 28 38 41t57 2zM581 678l345 -145q51 -22 82 -66t31 -98t-31 -98.5t-82 -65.5l-403 -170q-12 -6 -23.5 -1t-16.5 17q-10 27 17 40l407 172
q32 14 51.5 42.5t19.5 63.5t-19.5 63.5t-51.5 42.5l-347 146q-8 3 -13.5 -1.5t-4.5 -12t10 -11.5l344 -144q25 -10 39.5 -33t14.5 -50t-15 -49.5t-40 -33.5l-372 -158q-11 -5 -23 0t-17 17q-5 11 0 23t17 17l371 157q20 7 20 27q0 17 -20 27l-341 144q-27 10 -41 38t-3 57
q10 28 38 41t57 2z" />
    <glyph glyph-name="questiondown" unicode="&#xbf;" horiz-adv-x="635" 
d="M308 744q31 0 52.5 -21.5t21.5 -52.5t-21.5 -52.5t-52.5 -21.5q-30 0 -51.5 21.5t-21.5 52.5t21.5 52.5t51.5 21.5zM309 686q-16 0 -16 -16t16 -16q6 0 11 4.5t5 11.5t-5 11.5t-11 4.5zM308 578q31 0 52.5 -21.5t21.5 -52.5v-44q0 -74 -53.5 -127.5t-129.5 -53.5h-16
q-15 0 -25.5 -10.5t-10.5 -24.5v-61q0 -15 10.5 -25.5t25.5 -10.5h199q13 0 22 -8.5t9 -21.5t-9 -22t-22 -9h-199q-40 0 -68.5 28.5t-28.5 68.5v61q0 40 28.5 68t68.5 28h16q51 0 86.5 35.5t35.5 85.5v43q0 13 -13 13q-12 0 -12 -13v-42q0 -40 -28.5 -68.5t-68.5 -28.5h-16
q-51 0 -86.5 -35.5t-35.5 -85.5v-61q0 -50 35.5 -86t86.5 -36h189q51 0 86.5 36t35.5 86v1q0 12 8.5 21t21.5 9t22 -9t9 -22q0 -76 -53.5 -129.5t-129.5 -53.5h-189q-76 0 -129.5 53.5t-53.5 129.5v61q0 75 53.5 128.5t129.5 53.5h16q15 0 25.5 10.5t10.5 25.5v44
q1 30 22.5 51t50.5 21z" />
    <glyph glyph-name="Agrave" unicode="&#xc0;" horiz-adv-x="895" 
d="M320 981l78 -14q13 -2 20 -12.5t5 -22.5q-2 -13 -12.5 -20t-23.5 -4l-78 13q-13 2 -15 -11q-1 -10 11 -14l253 -44q11 -2 18 -12.5t5 -23.5t-12 -20t-22 -5l-253 45q-30 5 -47.5 30t-12.5 55t30.5 47.5t55.5 12.5zM397 756q55 0 99.5 -31t64.5 -82l251 -601
q5 -12 0.5 -23.5t-16.5 -16.5t-24 0t-16 17l-253 605q-13 32 -42 51.5t-64 19.5t-63.5 -19.5t-42.5 -51.5l-228 -545q-6 -13 6 -18t17 8l228 544q10 25 33 39.5t50 14.5t50 -15t33 -40l118 -281q8 -19 -1 -30.5t-28 -11.5h-240q-13 0 -22 9t-9 22t9 21.5t22 8.5h195
l-100 238q-7 19 -27 19t-27 -19l-228 -542q-11 -28 -39 -40t-57 -1q-28 12 -40 40t-1 56l228 542q20 51 64.5 82t99.5 31z" />
    <glyph glyph-name="Aacute" unicode="&#xc1;" horiz-adv-x="895" 
d="M417 967l78 14q30 5 55.5 -12.5t30.5 -47.5t-12.5 -55t-47.5 -30l-253 -45q-12 -2 -22 5t-12 20t5 23.5t18 12.5l253 44q12 4 11 14q-2 13 -15 11l-78 -13q-13 -3 -23.5 4t-12.5 20q-2 12 5 22.5t20 12.5zM397 756q55 0 99.5 -31t64.5 -82l251 -601q5 -12 0.5 -23.5
t-16.5 -16.5t-24 0t-16 17l-253 605q-13 32 -42 51.5t-64 19.5t-63.5 -19.5t-42.5 -51.5l-228 -545q-6 -13 6 -18t17 8l228 544q10 25 33 39.5t50 14.5t50 -15t33 -40l118 -281q8 -19 -1 -30.5t-28 -11.5h-240q-13 0 -22 9t-9 22t9 21.5t22 8.5h195l-100 238q-7 19 -27 19
t-27 -19l-228 -542q-11 -28 -39 -40t-57 -1q-28 12 -40 40t-1 56l228 542q20 51 64.5 82t99.5 31z" />
    <glyph glyph-name="Acircumflex" unicode="&#xc2;" horiz-adv-x="895" 
d="M466 967l78 14q30 5 55.5 -12.5t30.5 -47.5t-12.5 -55t-47.5 -30l-173 -32l-173 32q-30 5 -47.5 30t-12.5 55t30.5 47.5t55.5 12.5l78 -14q13 -2 20 -12.5t5 -22.5q-2 -13 -12.5 -20t-23.5 -4l-78 13q-13 2 -15 -11q-1 -10 11 -14l162 -29l162 29q12 4 11 14
q-2 13 -15 11l-78 -13q-13 -3 -23.5 4t-12.5 20q-2 12 5 22.5t20 12.5zM397 756q55 0 99.5 -31t64.5 -82l251 -601q5 -12 0.5 -23.5t-16.5 -16.5t-24 0t-16 17l-253 605q-13 32 -42 51.5t-64 19.5t-63.5 -19.5t-42.5 -51.5l-228 -545q-6 -13 6 -18t17 8l228 544
q10 25 33 39.5t50 14.5t50 -15t33 -40l118 -281q8 -19 -1 -30.5t-28 -11.5h-240q-13 0 -22 9t-9 22t9 21.5t22 8.5h195l-100 238q-7 19 -27 19t-27 -19l-228 -542q-11 -28 -39 -40t-57 -1q-28 12 -40 40t-1 56l228 542q20 51 64.5 82t99.5 31z" />
    <glyph glyph-name="Atilde" unicode="&#xc3;" horiz-adv-x="895" 
d="M477 1038h80q31 0 52.5 -21.5t21.5 -52.5q0 -30 -21.5 -51.5t-52.5 -21.5h-320q-13 0 -13 -12q0 -13 13 -13h80q13 0 21.5 -9t8.5 -22q0 -12 -8.5 -21t-21.5 -9h-80q-31 0 -52.5 21.5t-21.5 52.5q0 30 21.5 51.5t52.5 21.5h320q13 0 13 12q0 13 -13 13h-80q-13 0 -21.5 9
t-8.5 22q0 12 8.5 21t21.5 9zM397 756q55 0 99.5 -31t64.5 -82l251 -601q5 -12 0.5 -23.5t-16.5 -16.5t-24 0t-16 17l-253 605q-13 32 -42 51.5t-64 19.5t-63.5 -19.5t-42.5 -51.5l-228 -545q-6 -13 6 -18t17 8l228 544q10 25 33 39.5t50 14.5t50 -15t33 -40l118 -281
q8 -19 -1 -30.5t-28 -11.5h-240q-13 0 -22 9t-9 22t9 21.5t22 8.5h195l-100 238q-7 19 -27 19t-27 -19l-228 -542q-11 -28 -39 -40t-57 -1q-28 12 -40 40t-1 56l228 542q20 51 64.5 82t99.5 31z" />
    <glyph glyph-name="Adieresis" unicode="&#xc4;" horiz-adv-x="895" 
d="M284 953q30 0 51.5 -21.5t21.5 -52.5t-21.5 -52.5t-51.5 -21.5q-31 0 -52.5 21.5t-21.5 52.5t21.5 52.5t52.5 21.5zM511 953q30 0 51.5 -21.5t21.5 -52.5t-21.5 -52.5t-51.5 -21.5q-31 0 -52.5 21.5t-21.5 52.5t21.5 52.5t52.5 21.5zM283 895q-6 0 -11 -4.5t-5 -11.5
t5 -11.5t11 -4.5q16 0 16 16t-16 16zM510 895q-6 0 -11 -4.5t-5 -11.5t5 -11.5t11 -4.5q16 0 16 16t-16 16zM397 756q55 0 99.5 -31t64.5 -82l251 -601q5 -12 0.5 -23.5t-16.5 -16.5t-24 0t-16 17l-253 605q-13 32 -42 51.5t-64 19.5t-63.5 -19.5t-42.5 -51.5l-228 -545
q-6 -13 6 -18t17 8l228 544q10 25 33 39.5t50 14.5t50 -15t33 -40l118 -281q8 -19 -1 -30.5t-28 -11.5h-240q-13 0 -22 9t-9 22t9 21.5t22 8.5h195l-100 238q-7 19 -27 19t-27 -19l-228 -542q-11 -28 -39 -40t-57 -1q-28 12 -40 40t-1 56l228 542q20 51 64.5 82t99.5 31z
" />
    <glyph glyph-name="Aring" unicode="&#xc5;" horiz-adv-x="895" 
d="M397 1008q42 0 71.5 -30t29.5 -72t-29.5 -71.5t-71.5 -29.5t-71.5 29.5t-29.5 71.5t29.5 72t71.5 30zM397 947q-17 0 -29 -12.5t-12 -28.5t12 -28t29 -12t28.5 12t11.5 28q0 17 -12 29t-28 12zM397 756q55 0 99.5 -31t64.5 -82l251 -601q5 -12 0.5 -23.5t-16.5 -16.5
t-24 0t-16 17l-253 605q-13 32 -42 51.5t-64 19.5t-63.5 -19.5t-42.5 -51.5l-228 -545q-6 -13 6 -18t17 8l228 544q10 25 33 39.5t50 14.5t50 -15t33 -40l118 -281q8 -19 -1 -30.5t-28 -11.5h-240q-13 0 -22 9t-9 22t9 21.5t22 8.5h195l-100 238q-7 19 -27 19t-27 -19
l-228 -542q-11 -28 -39 -40t-57 -1q-28 12 -40 40t-1 56l228 542q20 51 64.5 82t99.5 31z" />
    <glyph glyph-name="AE" unicode="&#xc6;" horiz-adv-x="1405" 
d="M397 756q55 0 99.5 -31t64.5 -82l163 -390q22 44 64 70.5t93 26.5h269q12 0 20 8t8 19q0 13 -8 21t-20 8h-269q-72 0 -123.5 51.5t-51.5 123.5q0 73 51.5 124t123.5 51h371q30 0 51.5 -21.5t21.5 -51.5t-20.5 -52t-50.5 -22h-373q-11 0 -19.5 -8t-8.5 -20
q0 -11 8.5 -19.5t19.5 -8.5q13 0 22 -8.5t9 -21.5t-9 -22t-22 -9q-37 0 -62.5 26t-25.5 63t25.5 63t62.5 26h371q12 0 12 13q0 12 -12 12h-371q-47 0 -80.5 -33.5t-33.5 -80.5t33.5 -80.5t80.5 -33.5h269q37 0 63 -26.5t26 -63.5t-26 -62.5t-63 -25.5h-269
q-47 0 -80.5 -33.5t-33.5 -80.5t33.5 -80.5t80.5 -33.5h413q13 0 22 -9t9 -22t-9 -21.5t-22 -8.5h-413q-55 0 -99 30.5t-64 80.5l-215 513q-13 32 -42 51.5t-64 19.5t-64 -19.5t-42 -51.5l-229 -546q-5 -12 6 -17q12 -5 17 7l229 545q10 25 33 39.5t50 14.5t50 -15t33 -40
l118 -281q9 -19 -0.5 -30.5t-28.5 -11.5h-240q-13 0 -22 9t-9 22t9 21.5t22 8.5h195l-100 238q-7 19 -27 19t-27 -19l-228 -542q-11 -28 -39 -40t-57 -1q-28 12 -40 40t-1 56l228 542q20 51 64.5 82t99.5 31zM881 263h269q13 0 22 -8.5t9 -21.5t-9 -22t-22 -9h-269
q-11 0 -19.5 -8t-8.5 -19q0 -12 8.5 -20t19.5 -8q13 0 21.5 -9t8.5 -22q0 -12 -8.5 -21t-21.5 -9q-37 0 -63 26t-26 63t26 62.5t63 25.5z" />
    <glyph glyph-name="Ccedilla" unicode="&#xc7;" horiz-adv-x="766" 
d="M385 769q162 0 276 -114q9 -9 9 -21.5t-9 -21.5q-8 -9 -21 -9t-21 9q-97 95 -234 97q-136 0 -233 -97t-97 -233t97 -233.5t233 -97.5q137 0 234 97q9 9 0 19t-19 0q-88 -88 -215 -88q-125 0 -213.5 88.5t-88.5 214.5q0 124 88 214q9 8 21.5 8t21.5 -8q9 -9 9 -21.5
t-9 -21.5q-71 -71 -71 -171t71 -171.5t171 -71.5q101 0 172 71q23 23 52.5 23t52.5 -23q24 -24 23.5 -53t-23.5 -52q-94 -94 -225 -111q9 -18 9 -41q0 -42 -29.5 -71.5t-71.5 -29.5q-13 0 -22 8.5t-9 21.5t9 21.5t22 8.5q16 0 28 12t12 29q0 16 -10.5 27t-25.5 13
q-149 14 -251.5 125.5t-102.5 263.5q0 161 114.5 275.5t275.5 114.5z" />
    <glyph glyph-name="Egrave" unicode="&#xc8;" horiz-adv-x="699" 
d="M231 981l78 -14q13 -2 20 -12.5t5 -22.5q-2 -13 -12.5 -20t-23.5 -4l-78 13q-13 2 -15 -11q-1 -10 11 -14l253 -44q11 -2 18 -12.5t5 -23.5t-12 -20t-22 -5l-253 45q-30 5 -47.5 30t-12.5 55t30.5 47.5t55.5 12.5zM175 756h371q30 0 51.5 -21.5t21.5 -51.5t-20.5 -52
t-50.5 -22h-373q-11 0 -19.5 -8t-8.5 -20q0 -11 8.5 -19.5t19.5 -8.5q13 0 22 -8.5t9 -21.5t-9 -22t-22 -9q-37 0 -62.5 26t-25.5 63t25.5 63t62.5 26h371q12 0 12 13q0 12 -12 12h-371q-47 0 -80.5 -33.5t-33.5 -80.5t33.5 -80.5t80.5 -33.5h269q37 0 63 -26.5t26 -63.5
t-26 -62.5t-63 -25.5h-269q-47 0 -80.5 -33.5t-33.5 -80.5t33.5 -80.5t80.5 -33.5h413q13 0 22 -9t9 -22t-9 -21.5t-22 -8.5h-413q-73 0 -124 51t-51 124q0 72 51 123.5t124 51.5h269q12 0 20 8t8 19q0 13 -8 21t-20 8h-269q-72 0 -123.5 51.5t-51.5 123.5q0 73 51.5 124
t123.5 51zM175 263h269q13 0 22 -8.5t9 -21.5t-9 -22t-22 -9h-269q-11 0 -19.5 -8t-8.5 -19q0 -12 8.5 -20t19.5 -8q13 0 21.5 -9t8.5 -22q0 -12 -8.5 -21t-21.5 -9q-37 0 -63 26t-26 63t26 62.5t63 25.5z" />
    <glyph glyph-name="Eacute" unicode="&#xc9;" horiz-adv-x="699" 
d="M328 967l78 14q30 5 55.5 -12.5t30.5 -47.5t-12.5 -55t-47.5 -30l-253 -45q-12 -2 -22 5t-12 20t5 23.5t18 12.5l253 44q12 4 11 14q-2 13 -15 11l-78 -13q-13 -3 -23.5 4t-12.5 20q-2 12 5 22.5t20 12.5zM175 756h371q30 0 51.5 -21.5t21.5 -51.5t-20.5 -52t-50.5 -22
h-373q-11 0 -19.5 -8t-8.5 -20q0 -11 8.5 -19.5t19.5 -8.5q13 0 22 -8.5t9 -21.5t-9 -22t-22 -9q-37 0 -62.5 26t-25.5 63t25.5 63t62.5 26h371q12 0 12 13q0 12 -12 12h-371q-47 0 -80.5 -33.5t-33.5 -80.5t33.5 -80.5t80.5 -33.5h269q37 0 63 -26.5t26 -63.5t-26 -62.5
t-63 -25.5h-269q-47 0 -80.5 -33.5t-33.5 -80.5t33.5 -80.5t80.5 -33.5h413q13 0 22 -9t9 -22t-9 -21.5t-22 -8.5h-413q-73 0 -124 51t-51 124q0 72 51 123.5t124 51.5h269q12 0 20 8t8 19q0 13 -8 21t-20 8h-269q-72 0 -123.5 51.5t-51.5 123.5q0 73 51.5 124t123.5 51z
M175 263h269q13 0 22 -8.5t9 -21.5t-9 -22t-22 -9h-269q-11 0 -19.5 -8t-8.5 -19q0 -12 8.5 -20t19.5 -8q13 0 21.5 -9t8.5 -22q0 -12 -8.5 -21t-21.5 -9q-37 0 -63 26t-26 63t26 62.5t63 25.5z" />
    <glyph glyph-name="Ecircumflex" unicode="&#xca;" horiz-adv-x="699" 
d="M378 967l78 14q30 5 55.5 -12.5t30.5 -47.5t-12.5 -55t-47.5 -30l-173 -32l-173 32q-30 5 -47.5 30t-12.5 55t30.5 47.5t55.5 12.5l78 -14q13 -2 20 -12.5t5 -22.5q-2 -13 -12.5 -20t-23.5 -4l-78 13q-13 2 -15 -11q-1 -10 11 -14l162 -29l162 29q12 4 11 14
q-2 13 -15 11l-78 -13q-13 -3 -23.5 4t-12.5 20q-2 12 5 22.5t20 12.5zM175 756h371q30 0 51.5 -21.5t21.5 -51.5t-20.5 -52t-50.5 -22h-373q-11 0 -19.5 -8t-8.5 -20q0 -11 8.5 -19.5t19.5 -8.5q13 0 22 -8.5t9 -21.5t-9 -22t-22 -9q-37 0 -62.5 26t-25.5 63t25.5 63
t62.5 26h371q12 0 12 13q0 12 -12 12h-371q-47 0 -80.5 -33.5t-33.5 -80.5t33.5 -80.5t80.5 -33.5h269q37 0 63 -26.5t26 -63.5t-26 -62.5t-63 -25.5h-269q-47 0 -80.5 -33.5t-33.5 -80.5t33.5 -80.5t80.5 -33.5h413q13 0 22 -9t9 -22t-9 -21.5t-22 -8.5h-413q-73 0 -124 51
t-51 124q0 72 51 123.5t124 51.5h269q12 0 20 8t8 19q0 13 -8 21t-20 8h-269q-72 0 -123.5 51.5t-51.5 123.5q0 73 51.5 124t123.5 51zM175 263h269q13 0 22 -8.5t9 -21.5t-9 -22t-22 -9h-269q-11 0 -19.5 -8t-8.5 -19q0 -12 8.5 -20t19.5 -8q13 0 21.5 -9t8.5 -22
q0 -12 -8.5 -21t-21.5 -9q-37 0 -63 26t-26 63t26 62.5t63 25.5z" />
    <glyph glyph-name="Edieresis" unicode="&#xcb;" horiz-adv-x="699" 
d="M216 953q30 0 51.5 -21.5t21.5 -52.5t-21.5 -52.5t-51.5 -21.5q-31 0 -52.5 21.5t-21.5 52.5t21.5 52.5t52.5 21.5zM443 953q30 0 51.5 -21.5t21.5 -52.5t-21.5 -52.5t-51.5 -21.5q-31 0 -52.5 21.5t-21.5 52.5t21.5 52.5t52.5 21.5zM215 895q-6 0 -11 -4.5t-5 -11.5
t5 -11.5t11 -4.5q16 0 16 16t-16 16zM442 895q-6 0 -11 -4.5t-5 -11.5t5 -11.5t11 -4.5q16 0 16 16t-16 16zM175 756h371q30 0 51.5 -21.5t21.5 -51.5t-20.5 -52t-50.5 -22h-373q-11 0 -19.5 -8t-8.5 -20q0 -11 8.5 -19.5t19.5 -8.5q13 0 22 -8.5t9 -21.5t-9 -22t-22 -9
q-37 0 -62.5 26t-25.5 63t25.5 63t62.5 26h371q12 0 12 13q0 12 -12 12h-371q-47 0 -80.5 -33.5t-33.5 -80.5t33.5 -80.5t80.5 -33.5h269q37 0 63 -26.5t26 -63.5t-26 -62.5t-63 -25.5h-269q-47 0 -80.5 -33.5t-33.5 -80.5t33.5 -80.5t80.5 -33.5h413q13 0 22 -9t9 -22
t-9 -21.5t-22 -8.5h-413q-73 0 -124 51t-51 124q0 72 51 123.5t124 51.5h269q12 0 20 8t8 19q0 13 -8 21t-20 8h-269q-72 0 -123.5 51.5t-51.5 123.5q0 73 51.5 124t123.5 51zM175 263h269q13 0 22 -8.5t9 -21.5t-9 -22t-22 -9h-269q-11 0 -19.5 -8t-8.5 -19q0 -12 8.5 -20
t19.5 -8q13 0 21.5 -9t8.5 -22q0 -12 -8.5 -21t-21.5 -9q-37 0 -63 26t-26 63t26 62.5t63 25.5z" />
    <glyph glyph-name="Igrave" unicode="&#xcc;" horiz-adv-x="227" 
d="M-14 981l78 -14q13 -2 20 -12.5t5 -22.5q-2 -13 -12.5 -20t-23.5 -4l-78 13q-13 2 -15 -11q-1 -10 11 -14l253 -44q11 -2 18 -12.5t5 -23.5t-12 -20t-22 -5l-253 45q-30 5 -47.5 30t-12.5 55t30.5 47.5t55.5 12.5zM74 756q30 0 51.5 -21.5t21.5 -52.5v-652
q0 -12 -8.5 -21t-21.5 -9t-22 9t-9 21v652q0 13 -12 13q-13 0 -13 -13v-304q0 -13 -9 -21.5t-22 -8.5q-12 0 -21 8.5t-9 21.5v304q0 31 21.5 52.5t52.5 21.5z" />
    <glyph glyph-name="Iacute" unicode="&#xcd;" horiz-adv-x="227" 
d="M83 967l78 14q30 5 55.5 -12.5t30.5 -47.5t-12.5 -55t-47.5 -30l-253 -45q-12 -2 -22 5t-12 20t5 23.5t18 12.5l253 44q12 4 11 14q-2 13 -15 11l-78 -13q-13 -3 -23.5 4t-12.5 20q-2 12 5 22.5t20 12.5zM74 756q30 0 51.5 -21.5t21.5 -52.5v-652q0 -12 -8.5 -21
t-21.5 -9t-22 9t-9 21v652q0 13 -12 13q-13 0 -13 -13v-304q0 -13 -9 -21.5t-22 -8.5q-12 0 -21 8.5t-9 21.5v304q0 31 21.5 52.5t52.5 21.5z" />
    <glyph glyph-name="Icircumflex" unicode="&#xce;" horiz-adv-x="227" 
d="M142 967l78 14q30 5 55.5 -12.5t30.5 -47.5t-12.5 -55t-47.5 -30l-173 -32l-173 32q-30 5 -47.5 30t-12.5 55t30.5 47.5t55.5 12.5l78 -14q13 -2 20 -12.5t5 -22.5q-2 -13 -12.5 -20t-23.5 -4l-78 13q-13 2 -15 -11q-1 -10 11 -14l162 -29l162 29q12 4 11 14
q-2 13 -15 11l-78 -13q-13 -3 -23.5 4t-12.5 20q-2 12 5 22.5t20 12.5zM74 756q30 0 51.5 -21.5t21.5 -52.5v-652q0 -12 -8.5 -21t-21.5 -9t-22 9t-9 21v652q0 13 -12 13q-13 0 -13 -13v-304q0 -13 -9 -21.5t-22 -8.5q-12 0 -21 8.5t-9 21.5v304q0 31 21.5 52.5t52.5 21.5z
" />
    <glyph glyph-name="Idieresis" unicode="&#xcf;" horiz-adv-x="227" 
d="M-40 953q30 0 51.5 -21.5t21.5 -52.5t-21.5 -52.5t-51.5 -21.5q-31 0 -52.5 21.5t-21.5 52.5t21.5 52.5t52.5 21.5zM187 953q30 0 51.5 -21.5t21.5 -52.5t-21.5 -52.5t-51.5 -21.5q-31 0 -52.5 21.5t-21.5 52.5t21.5 52.5t52.5 21.5zM-41 895q-6 0 -11 -4.5t-5 -11.5
t5 -11.5t11 -4.5q16 0 16 16t-16 16zM186 895q-6 0 -11 -4.5t-5 -11.5t5 -11.5t11 -4.5q16 0 16 16t-16 16zM74 756q30 0 51.5 -21.5t21.5 -52.5v-652q0 -12 -8.5 -21t-21.5 -9t-22 9t-9 21v652q0 13 -12 13q-13 0 -13 -13v-304q0 -13 -9 -21.5t-22 -8.5q-12 0 -21 8.5
t-9 21.5v304q0 31 21.5 52.5t52.5 21.5z" />
    <glyph glyph-name="Eth" unicode="&#xd0;" horiz-adv-x="783" 
d="M325 755q156 0 267 -110.5t111 -266.5q0 -157 -111 -267.5t-267 -110.5h-219q-44 0 -75 31.5t-31 75.5v229q0 13 8 21.5t22 8.5h54v24h-54q-14 0 -22 9t-8 21v221q0 12 8.5 21t21.5 9t22 -9t9 -21v-190h23v190q0 12 9 21t22 9h210q121 0 207 -86t86 -207q0 -122 -86 -208
t-207 -86q-13 0 -21.5 9t-8.5 22t8.5 21.5t21.5 8.5q96 0 164 68.5t68 164.5t-68 164t-164 68h-180v-159h127q12 0 21 -9t9 -22t-9 -21.5t-21 -8.5h-127v-24h127q12 0 21 -9t9 -22q0 -12 -9 -21t-21 -9h-127v-190q0 -13 -8.5 -22t-21.5 -9t-22 9t-9 22v190h-23v-198
q0 -19 13 -32.5t32 -13.5h219q131 0 224 93t93 224t-93 224t-224 93q-13 0 -21.5 8.5t-8.5 21.5t8.5 21.5t21.5 8.5z" />
    <glyph glyph-name="Ntilde" unicode="&#xd1;" horiz-adv-x="776" 
d="M87 732q61 35 130 17t109 -79l359 -559q16 -26 8 -56.5t-34 -45.5q-22 -15 -52 -8.5t-48 35.5l-357 554q-18 28 -41 15q-14 -9 -14 -24v-551q0 -12 -9 -21t-21 -9q-13 0 -22 9t-9 21v551q0 51 45 77q37 18 69.5 6.5t52.5 -41.5l357 -554q8 -14 19 -8q13 7 3 19l-357 557
q-26 41 -71 53.5t-86 -10.5q-57 -34 -57 -98v-552q0 -12 -9 -21t-22 -9q-12 0 -21 9t-9 21v548q-1 48 22.5 89.5t64.5 64.5zM622 755q31 0 52.5 -21.5t21.5 -51.5v-429q0 -13 -9 -21.5t-21 -8.5q-13 0 -22 8.5t-9 21.5v429q0 13 -13 13q-12 0 -12 -13v-287q0 -13 -9 -22
t-22 -9t-21.5 9t-8.5 22v287q0 30 21.5 51.5t51.5 21.5z" />
    <glyph glyph-name="Ograve" unicode="&#xd2;" 
d="M298 981l78 -14q13 -2 20 -12.5t5 -22.5q-2 -13 -12.5 -20t-23.5 -4l-78 13q-13 2 -15 -11q-1 -10 11 -14l253 -44q11 -2 18 -12.5t5 -23.5t-12 -20t-22 -5l-253 45q-30 5 -47.5 30t-12.5 55t30.5 47.5t55.5 12.5zM386 681q126 0 214 -88q88 -90 88 -215q0 -12 -8.5 -21
t-21.5 -9q-12 0 -21 9t-9 21q0 101 -71 172q-73 71 -171 71q-99 0 -172 -71q-71 -71 -71 -172q0 -30 -21.5 -52t-52.5 -22t-52.5 22t-21.5 52q0 162 114 276q115 115 276.5 115t276.5 -115q114 -112 114 -276q0 -162 -114 -276t-276 -114q-13 0 -22 8.5t-9 21.5t9 21.5
t22 8.5q136 0 233 97t97 233q0 135 -97 234q-97 96 -233.5 96t-233.5 -96q-96 -98 -96 -234q0 -15 14 -15q13 0 13 15q0 125 88 215q88 88 215 88z" />
    <glyph glyph-name="Oacute" unicode="&#xd3;" 
d="M395 967l78 14q30 5 55.5 -12.5t30.5 -47.5t-12.5 -55t-47.5 -30l-253 -45q-12 -2 -22 5t-12 20t5 23.5t18 12.5l253 44q12 4 11 14q-2 13 -15 11l-78 -13q-13 -3 -23.5 4t-12.5 20q-2 12 5 22.5t20 12.5zM386 681q126 0 214 -88q88 -90 88 -215q0 -12 -8.5 -21t-21.5 -9
q-12 0 -21 9t-9 21q0 101 -71 172q-73 71 -171 71q-99 0 -172 -71q-71 -71 -71 -172q0 -30 -21.5 -52t-52.5 -22t-52.5 22t-21.5 52q0 162 114 276q115 115 276.5 115t276.5 -115q114 -112 114 -276q0 -162 -114 -276t-276 -114q-13 0 -22 8.5t-9 21.5t9 21.5t22 8.5
q136 0 233 97t97 233q0 135 -97 234q-97 96 -233.5 96t-233.5 -96q-96 -98 -96 -234q0 -15 14 -15q13 0 13 15q0 125 88 215q88 88 215 88z" />
    <glyph glyph-name="Ocircumflex" unicode="&#xd4;" 
d="M455 967l78 14q30 5 55.5 -12.5t30.5 -47.5t-12.5 -55t-47.5 -30l-173 -32l-173 32q-30 5 -47.5 30t-12.5 55t30.5 47.5t55.5 12.5l78 -14q13 -2 20 -12.5t5 -22.5q-2 -13 -12.5 -20t-23.5 -4l-78 13q-13 2 -15 -11q-1 -10 11 -14l162 -29l162 29q12 4 11 14
q-2 13 -15 11l-78 -13q-13 -3 -23.5 4t-12.5 20q-2 12 5 22.5t20 12.5zM386 681q126 0 214 -88q88 -90 88 -215q0 -12 -8.5 -21t-21.5 -9q-12 0 -21 9t-9 21q0 101 -71 172q-73 71 -171 71q-99 0 -172 -71q-71 -71 -71 -172q0 -30 -21.5 -52t-52.5 -22t-52.5 22t-21.5 52
q0 162 114 276q115 115 276.5 115t276.5 -115q114 -112 114 -276q0 -162 -114 -276t-276 -114q-13 0 -22 8.5t-9 21.5t9 21.5t22 8.5q136 0 233 97t97 233q0 135 -97 234q-97 96 -233.5 96t-233.5 -96q-96 -98 -96 -234q0 -15 14 -15q13 0 13 15q0 125 88 215q88 88 215 88z
" />
    <glyph glyph-name="Otilde" unicode="&#xd5;" 
d="M466 1038h80q31 0 52.5 -21.5t21.5 -52.5q0 -30 -21.5 -51.5t-52.5 -21.5h-320q-13 0 -13 -12q0 -13 13 -13h80q13 0 21.5 -9t8.5 -22q0 -12 -8.5 -21t-21.5 -9h-80q-31 0 -52.5 21.5t-21.5 52.5q0 30 21.5 51.5t52.5 21.5h320q13 0 13 12q0 13 -13 13h-80q-13 0 -21.5 9
t-8.5 22q0 12 8.5 21t21.5 9zM386 681q126 0 214 -88q88 -90 88 -215q0 -12 -8.5 -21t-21.5 -9q-12 0 -21 9t-9 21q0 101 -71 172q-73 71 -171 71q-99 0 -172 -71q-71 -71 -71 -172q0 -30 -21.5 -52t-52.5 -22t-52.5 22t-21.5 52q0 162 114 276q115 115 276.5 115
t276.5 -115q114 -112 114 -276q0 -162 -114 -276t-276 -114q-13 0 -22 8.5t-9 21.5t9 21.5t22 8.5q136 0 233 97t97 233q0 135 -97 234q-97 96 -233.5 96t-233.5 -96q-96 -98 -96 -234q0 -15 14 -15q13 0 13 15q0 125 88 215q88 88 215 88z" />
    <glyph glyph-name="Odieresis" unicode="&#xd6;" 
d="M273 953q30 0 51.5 -21.5t21.5 -52.5t-21.5 -52.5t-51.5 -21.5q-31 0 -52.5 21.5t-21.5 52.5t21.5 52.5t52.5 21.5zM500 953q30 0 51.5 -21.5t21.5 -52.5t-21.5 -52.5t-51.5 -21.5q-31 0 -52.5 21.5t-21.5 52.5t21.5 52.5t52.5 21.5zM272 895q-6 0 -11 -4.5t-5 -11.5
t5 -11.5t11 -4.5q16 0 16 16t-16 16zM499 895q-6 0 -11 -4.5t-5 -11.5t5 -11.5t11 -4.5q16 0 16 16t-16 16zM386 681q126 0 214 -88q88 -90 88 -215q0 -12 -8.5 -21t-21.5 -9q-12 0 -21 9t-9 21q0 101 -71 172q-73 71 -171 71q-99 0 -172 -71q-71 -71 -71 -172
q0 -30 -21.5 -52t-52.5 -22t-52.5 22t-21.5 52q0 162 114 276q115 115 276.5 115t276.5 -115q114 -114 114 -276t-114 -276t-276 -114q-13 0 -22 8.5t-9 21.5t9 21.5t22 8.5q136 0 233 97t97 233q0 135 -97 234q-97 96 -233.5 96t-233.5 -96q-96 -98 -96 -234q0 -15 14 -15
q13 0 13 15q0 125 88 215q88 88 215 88z" />
    <glyph glyph-name="multiply" unicode="&#xd7;" horiz-adv-x="658" 
d="M125 646l432 -432q21 -23 20.5 -52t-21.5 -50q-22 -22 -52 -22t-52 22l-431 430q-20 21 -20 52t20 52q22 22 52 22t52 -22zM555 646q20 -21 20.5 -51t-18.5 -51l-126 -126q-9 -9 -21.5 -9t-21.5 9t-9 21.5t9 21.5l124 124q9 9 0 18q-9 7 -18 0l-123 -124q-9 -9 -21.5 -9
t-21.5 9q-9 8 -9 21t9 22l123 124q22 21 52 21t52 -21zM513 172l-431 431q-9 9 -18 0q-8 -9 0 -17l431 -431q9 -10 18 -1t0 18zM187 338q8 -9 8 -21.5t-8 -21.5l-123 -123q-10 -10 -1 -18q10 -10 19 1l122 122q9 9 21.5 9t21.5 -9q8 -8 8 -21.5t-8 -21.5l-122 -122
q-20 -20 -50 -21t-54 21q-20 20 -21 50t21 53l123 123q8 9 21 9t22 -9z" />
    <glyph glyph-name="Oslash" unicode="&#xd8;" 
d="M386 768q162 0 276 -114q114 -112 114 -276q0 -162 -114 -276t-276 -114q-13 0 -22 8.5t-9 21.5t9 21.5t22 8.5q136 0 233 97t97 233q0 135 -97 234q-96 96 -234 96q-136 -1 -232.5 -97.5t-97.5 -232.5q2 -138 98 -234q4 -4 9 -4t10 5l385 386q9 9 0 18q-71 71 -172 71
t-171 -70q-71 -71 -71 -172q0 -13 -9 -22t-22 -9q-12 0 -21 9t-9 22q0 124 90 214q89 89 213 89q127 -2 215 -90q21 -21 21 -51.5t-21 -51.5l-388 -388q-20 -20 -51 -20q-30 0 -51 21q-115 115 -115 276q0 162 114.5 276.5t276.5 114.5z" />
    <glyph glyph-name="Ugrave" unicode="&#xd9;" horiz-adv-x="740" 
d="M233 981l78 -14q13 -2 20 -12.5t5 -22.5q-2 -13 -12.5 -20t-23.5 -4l-78 13q-13 2 -15 -11q-1 -10 11 -14l253 -44q11 -2 18 -12.5t5 -23.5t-12 -20t-22 -5l-253 45q-30 5 -47.5 30t-12.5 55t30.5 47.5t55.5 12.5zM587 756q30 0 51 -21t22 -51v-366q0 -137 -97 -234
q-96 -96 -233 -96t-233 96q-97 97 -97 234q0 12 8.5 21t21.5 9q12 0 21 -9t9 -21q0 -112 79 -191t191 -79t191 79t79 191v365q0 13 -13 13q-14 0 -14 -13v-365q0 -101 -71 -172t-172 -71t-172 71t-71 172v408q0 13 8.5 21.5t20.5 8.5q13 0 21.5 -8.5t8.5 -21.5v-408
q0 -76 54 -130t130 -54t130 54q54 56 54 130v366q0 30 21.5 51t51.5 21z" />
    <glyph glyph-name="Uacute" unicode="&#xda;" horiz-adv-x="740" 
d="M359 967l78 14q30 5 55.5 -12.5t30.5 -47.5t-12.5 -55t-47.5 -30l-253 -45q-12 -2 -22 5t-12 20t5 23.5t18 12.5l253 44q12 4 11 14q-2 13 -15 11l-78 -13q-13 -3 -23.5 4t-12.5 20q-2 12 5 22.5t20 12.5zM587 756q30 0 51 -21t22 -51v-366q0 -137 -97 -234
q-96 -96 -233 -96t-233 96q-97 97 -97 234q0 12 8.5 21t21.5 9q12 0 21 -9t9 -21q0 -112 79 -191t191 -79t191 79t79 191v365q0 13 -13 13q-14 0 -14 -13v-365q0 -101 -71 -172t-172 -71t-172 71t-71 172v408q0 13 8.5 21.5t20.5 8.5q13 0 21.5 -8.5t8.5 -21.5v-408
q0 -76 54 -130t130 -54t130 54q54 56 54 130v366q0 30 21.5 51t51.5 21z" />
    <glyph glyph-name="Ucircumflex" unicode="&#xdb;" horiz-adv-x="740" 
d="M399 967l78 14q30 5 55.5 -12.5t30.5 -47.5t-12.5 -55t-47.5 -30l-173 -32l-173 32q-30 5 -47.5 30t-12.5 55t30.5 47.5t55.5 12.5l78 -14q13 -2 20 -12.5t5 -22.5q-2 -13 -12.5 -20t-23.5 -4l-78 13q-13 2 -15 -11q-1 -10 11 -14l162 -29l162 29q12 4 11 14
q-2 13 -15 11l-78 -13q-13 -3 -23.5 4t-12.5 20q-2 12 5 22.5t20 12.5zM587 756q30 0 51 -21t22 -51v-366q0 -137 -97 -234q-96 -96 -233 -96t-233 96q-97 97 -97 234q0 12 8.5 21t21.5 9q12 0 21 -9t9 -21q0 -112 79 -191t191 -79t191 79t79 191v365q0 13 -13 13
q-14 0 -14 -13v-365q0 -101 -71 -172t-172 -71t-172 71t-71 172v408q0 13 8.5 21.5t20.5 8.5q13 0 21.5 -8.5t8.5 -21.5v-408q0 -76 54 -130t130 -54t130 54q54 56 54 130v366q0 30 21.5 51t51.5 21z" />
    <glyph glyph-name="Udieresis" unicode="&#xdc;" horiz-adv-x="740" 
d="M217 953q30 0 51.5 -21.5t21.5 -52.5t-21.5 -52.5t-51.5 -21.5q-31 0 -52.5 21.5t-21.5 52.5t21.5 52.5t52.5 21.5zM444 953q30 0 51.5 -21.5t21.5 -52.5t-21.5 -52.5t-51.5 -21.5q-31 0 -52.5 21.5t-21.5 52.5t21.5 52.5t52.5 21.5zM216 895q-6 0 -11 -4.5t-5 -11.5
t5 -11.5t11 -4.5q16 0 16 16t-16 16zM443 895q-6 0 -11 -4.5t-5 -11.5t5 -11.5t11 -4.5q16 0 16 16t-16 16zM587 756q30 0 51 -21t22 -51v-366q0 -137 -97 -234q-96 -96 -233 -96t-233 96q-97 97 -97 234q0 12 8.5 21t21.5 9q12 0 21 -9t9 -21q0 -112 79 -191t191 -79
t191 79t79 191v365q0 13 -13 13q-14 0 -14 -13v-365q0 -101 -71 -172t-172 -71t-172 71t-71 172v408q0 13 8.5 21.5t20.5 8.5q13 0 21.5 -8.5t8.5 -21.5v-408q0 -76 54 -130t130 -54t130 54q54 56 54 130v366q0 30 21.5 51t51.5 21z" />
    <glyph glyph-name="Yacute" unicode="&#xdd;" horiz-adv-x="837" 
d="M388 967l78 14q30 5 55.5 -12.5t30.5 -47.5t-12.5 -55t-47.5 -30l-253 -45q-12 -2 -22 5t-12 20t5 23.5t18 12.5l253 44q12 4 11 14q-2 13 -15 11l-78 -13q-13 -3 -23.5 4t-12.5 20q-2 12 5 22.5t20 12.5zM22 735q20 21 51.5 21t51.5 -21l212 -212q9 -9 9 -21.5t-9 -21.5
t-21.5 -9t-21.5 9l-210 210q-10 10 -19 2q-9 -9 0 -18l253 -253l314 314q20 21 51.5 21t52.5 -21q22 -23 21 -53.5t-21 -50.5l-302 -301v-300q0 -12 -8.5 -21t-21.5 -9t-22 9t-9 21v311q0 14 10 24l309 309q9 9 0 18q-8 9 -17 0l-327 -327v-335q0 -12 -9 -21t-22 -9
q-12 0 -21 9t-9 21v336l-265 265q-22 24 -21 54t21 50z" />
    <glyph glyph-name="Thorn" unicode="&#xde;" horiz-adv-x="699" 
d="M116 756q13 0 22 -9t9 -22v-122h247q93 -1 159 -67t66 -159t-66 -159t-159 -67h-169q-32 0 -55 -23t-23 -56v-42q0 -12 -9 -21t-22 -9t-21.5 9t-8.5 21v42q0 58 40.5 99t98.5 41h168q68 0 116.5 48.5t48.5 116.5t-48.5 116.5t-117.5 48.5h-245v-124q-1 -29 -22.5 -50
t-50.5 -21q-31 0 -52.5 21.5t-21.5 52.5v152q0 12 9 21t21 9h56v122q0 13 9 22t21 9zM61 542v-121q0 -13 13 -13q12 0 12 14v120h-25zM393 517q58 0 99 -41t41 -99t-41 -98.5t-99 -40.5h-167q-68 0 -116.5 -48.5t-48.5 -116.5v-43q0 -12 -9 -21t-22 -9q-12 0 -21 9t-9 21v43
q0 94 66 160t160 66h168q32 0 55 23t23 55q0 33 -23 56t-56 23q-12 0 -21 8.5t-9 21.5t9 22t21 9z" />
    <glyph glyph-name="germandbls" unicode="&#xdf;" horiz-adv-x="1368" 
d="M224 756h292q13 0 21.5 -9t8.5 -21q0 -13 -8.5 -22t-21.5 -9h-290q-68 0 -116.5 -48.5t-48.5 -116.5t48.5 -116.5t116.5 -48.5h200q58 0 98.5 -41t40.5 -99t-40.5 -98.5t-98.5 -40.5h-320q-13 0 -13 -13q0 -12 13 -12h319q68 0 116.5 48.5t48.5 116.5t-48.5 116.5
t-116.5 48.5h-200q-58 0 -98.5 40.5t-40.5 98.5q0 13 8.5 22t21.5 9t21.5 -9t8.5 -22q0 -32 23.5 -55t55.5 -23h200q94 0 160 -66t66 -160t-66 -160t-160 -66h-319q-31 0 -52.5 21.5t-21.5 51.5t21 52t50 22h323q32 0 55.5 23t23.5 55q0 33 -23.5 56t-55.5 23h-200
q-94 0 -160 66t-66 160q0 93 66 159t158 67zM861 756h292q13 0 21.5 -9t8.5 -21q0 -13 -8.5 -22t-21.5 -9h-290q-68 0 -116.5 -48.5t-48.5 -116.5t48.5 -116.5t116.5 -48.5h200q58 0 98.5 -41t40.5 -99t-40.5 -98.5t-98.5 -40.5h-320q-13 0 -13 -13q0 -12 13 -12h319
q68 0 116.5 48.5t48.5 116.5t-48.5 116.5t-116.5 48.5h-200q-58 0 -98.5 40.5t-40.5 98.5q0 13 8.5 22t21.5 9t21.5 -9t8.5 -22q0 -32 23.5 -55t55.5 -23h200q94 0 160 -66t66 -160t-66 -160t-160 -66h-319q-31 0 -52.5 21.5t-21.5 51.5t21 52t50 22h323q32 0 55.5 23
t23.5 55q0 33 -23.5 56t-55.5 23h-200q-94 0 -160 66t-66 160q0 93 66 159t158 67z" />
    <glyph glyph-name="agrave" unicode="&#xe0;" horiz-adv-x="896" 
d="M320 981l78 -14q13 -2 20 -12.5t5 -22.5q-2 -13 -12.5 -20t-23.5 -4l-78 13q-13 2 -15 -11q-1 -10 11 -14l253 -44q11 -2 18 -12.5t5 -23.5t-12 -20t-22 -5l-253 45q-30 5 -47.5 30t-12.5 55t30.5 47.5t55.5 12.5zM397 756q55 0 99.5 -31t64.5 -82l252 -601q5 -11 0 -23
t-16 -17q-12 -5 -24 0t-16 17l-254 605q-13 32 -42 51.5t-64 19.5t-63.5 -19.5t-42.5 -51.5l-228 -545q-6 -12 5 -17q13 -6 18 9l228 542q10 25 33 39.5t50 14.5t50 -15t33 -40l240 -570q5 -11 0 -23t-17 -17q-11 -5 -23 0t-17 17l-239 569q-7 19 -27 19q-19 0 -27 -19
l-227 -539q-10 -27 -38 -41t-57 -3q-28 10 -41 38t-2 57l228 543q20 51 64.5 82t99.5 31z" />
    <glyph glyph-name="aacute" unicode="&#xe1;" horiz-adv-x="896" 
d="M417 967l78 14q30 5 55.5 -12.5t30.5 -47.5t-12.5 -55t-47.5 -30l-253 -45q-12 -2 -22 5t-12 20t5 23.5t18 12.5l253 44q12 4 11 14q-2 13 -15 11l-78 -13q-13 -3 -23.5 4t-12.5 20q-2 12 5 22.5t20 12.5zM397 756q55 0 99.5 -31t64.5 -82l252 -601q5 -11 0 -23t-16 -17
q-12 -5 -24 0t-16 17l-254 605q-13 32 -42 51.5t-64 19.5t-63.5 -19.5t-42.5 -51.5l-228 -545q-6 -12 5 -17q13 -6 18 9l228 542q10 25 33 39.5t50 14.5t50 -15t33 -40l240 -570q5 -11 0 -23t-17 -17q-11 -5 -23 0t-17 17l-239 569q-7 19 -27 19q-19 0 -27 -19l-227 -539
q-10 -27 -38 -41t-57 -3q-28 10 -41 38t-2 57l228 543q20 51 64.5 82t99.5 31z" />
    <glyph glyph-name="acircumflex" unicode="&#xe2;" horiz-adv-x="896" 
d="M466 967l78 14q30 5 55.5 -12.5t30.5 -47.5t-12.5 -55t-47.5 -30l-173 -32l-173 32q-30 5 -47.5 30t-12.5 55t30.5 47.5t55.5 12.5l78 -14q13 -2 20 -12.5t5 -22.5q-2 -13 -12.5 -20t-23.5 -4l-78 13q-13 2 -15 -11q-1 -10 11 -14l162 -29l162 29q12 4 11 14
q-2 13 -15 11l-78 -13q-13 -3 -23.5 4t-12.5 20q-2 12 5 22.5t20 12.5zM397 756q55 0 99.5 -31t64.5 -82l252 -601q5 -11 0 -23t-16 -17q-12 -5 -24 0t-16 17l-254 605q-13 32 -42 51.5t-64 19.5t-63.5 -19.5t-42.5 -51.5l-228 -545q-6 -12 5 -17q13 -6 18 9l228 542
q10 25 33 39.5t50 14.5t50 -15t33 -40l240 -570q5 -11 0 -23t-17 -17q-11 -5 -23 0t-17 17l-239 569q-7 19 -27 19q-19 0 -27 -19l-227 -539q-10 -27 -38 -41t-57 -3q-28 10 -41 38t-2 57l228 543q20 51 64.5 82t99.5 31z" />
    <glyph glyph-name="atilde" unicode="&#xe3;" horiz-adv-x="896" 
d="M477 1038h80q31 0 52.5 -21.5t21.5 -52.5q0 -30 -21.5 -51.5t-52.5 -21.5h-320q-13 0 -13 -12q0 -13 13 -13h80q13 0 21.5 -9t8.5 -22q0 -12 -8.5 -21t-21.5 -9h-80q-31 0 -52.5 21.5t-21.5 52.5q0 30 21.5 51.5t52.5 21.5h320q13 0 13 12q0 13 -13 13h-80q-13 0 -21.5 9
t-8.5 22q0 12 8.5 21t21.5 9zM397 756q55 0 99.5 -31t64.5 -82l252 -601q5 -11 0 -23t-16 -17q-12 -5 -24 0t-16 17l-254 605q-13 32 -42 51.5t-64 19.5t-63.5 -19.5t-42.5 -51.5l-228 -545q-6 -12 5 -17q13 -6 18 9l228 542q10 25 33 39.5t50 14.5t50 -15t33 -40l240 -570
q5 -11 0 -23t-17 -17q-11 -5 -23 0t-17 17l-239 569q-7 19 -27 19q-19 0 -27 -19l-227 -539q-10 -27 -38 -41t-57 -3q-28 10 -41 38t-2 57l228 543q20 51 64.5 82t99.5 31z" />
    <glyph glyph-name="adieresis" unicode="&#xe4;" horiz-adv-x="896" 
d="M284 953q30 0 51.5 -21.5t21.5 -52.5t-21.5 -52.5t-51.5 -21.5q-31 0 -52.5 21.5t-21.5 52.5t21.5 52.5t52.5 21.5zM511 953q30 0 51.5 -21.5t21.5 -52.5t-21.5 -52.5t-51.5 -21.5q-31 0 -52.5 21.5t-21.5 52.5t21.5 52.5t52.5 21.5zM283 895q-6 0 -11 -4.5t-5 -11.5
t5 -11.5t11 -4.5q16 0 16 16t-16 16zM510 895q-6 0 -11 -4.5t-5 -11.5t5 -11.5t11 -4.5q16 0 16 16t-16 16zM397 756q55 0 99.5 -31t64.5 -82l252 -601q5 -11 0 -23t-16 -17q-12 -5 -24 0t-16 17l-254 605q-13 32 -42 51.5t-64 19.5t-63.5 -19.5t-42.5 -51.5l-228 -545
q-6 -12 5 -17q13 -6 18 9l228 542q10 25 33 39.5t50 14.5t50 -15t33 -40l240 -570q5 -11 0 -23t-17 -17q-11 -5 -23 0t-17 17l-239 569q-7 19 -27 19q-19 0 -27 -19l-227 -539q-10 -27 -38 -41t-57 -3q-28 10 -41 38t-2 57l228 543q20 51 64.5 82t99.5 31z" />
    <glyph glyph-name="aring" unicode="&#xe5;" horiz-adv-x="896" 
d="M397 1008q42 0 71.5 -30t29.5 -72t-29.5 -71.5t-71.5 -29.5t-71.5 29.5t-29.5 71.5t29.5 72t71.5 30zM397 947q-17 0 -29 -12.5t-12 -28.5t12 -28t29 -12t28.5 12t11.5 28q0 17 -12 29t-28 12zM397 756q55 0 99.5 -31t64.5 -82l252 -601q5 -11 0 -23t-16 -17
q-12 -5 -24 0t-16 17l-254 605q-13 32 -42 51.5t-64 19.5t-63.5 -19.5t-42.5 -51.5l-228 -545q-6 -12 5 -17q13 -6 18 9l228 542q10 25 33 39.5t50 14.5t50 -15t33 -40l240 -570q5 -11 0 -23t-17 -17q-11 -5 -23 0t-17 17l-239 569q-7 19 -27 19q-19 0 -27 -19l-227 -539
q-10 -27 -38 -41t-57 -3q-28 10 -41 38t-2 57l228 543q20 51 64.5 82t99.5 31z" />
    <glyph glyph-name="ae" unicode="&#xe6;" horiz-adv-x="1399" 
d="M397 756q55 0 99.5 -31t64.5 -82l160 -382q22 47 66.5 75.5t98.5 28.5h276q13 0 21.5 -8.5t8.5 -21.5t-8.5 -22t-21.5 -9h-276q-50 0 -86 -35.5t-36 -85.5t36 -86t86 -36h360q12 0 12 13q0 12 -12 12h-365q-40 0 -68 28.5t-28 68.5t28 68t68 28q13 0 22 -9t9 -22
q0 -12 -9 -21t-22 -9q-14 0 -24.5 -10.5t-10.5 -24.5q0 -15 10.5 -25.5t24.5 -10.5h367q29 0 50 -22t21 -51q0 -30 -21 -52t-51 -22h-361q-57 0 -103 32t-67 83l-213 509q-14 32 -42.5 51.5t-63.5 19.5t-64 -19.5t-43 -51.5l-227 -545q-6 -12 5 -17q13 -6 18 9l228 542
q10 25 33 39.5t50 14.5t50 -15t33 -40l239 -570q5 -11 0 -23t-16 -17q-28 -10 -40 17l-239 569q-9 19 -27 19q-19 0 -28 -19l-227 -539q-9 -27 -37 -41t-57 -3q-28 10 -41 38t-2 57l227 543q19 51 64.5 82t100.5 31zM886 756h361q30 -1 51 -22.5t21 -51.5q0 -29 -21 -51
t-50 -22h-367q-14 0 -24.5 -10.5t-10.5 -25.5q0 -14 10.5 -24.5t24.5 -10.5q13 0 22 -9t9 -21q0 -13 -9 -22t-22 -9q-40 0 -68 28t-28 68t28 68.5t68 28.5h365q12 0 12 12q0 13 -12 13h-360q-50 0 -86 -36t-36 -86t36 -85.5t86 -35.5h276q13 0 21.5 -9t8.5 -22t-8.5 -21.5
t-21.5 -8.5h-276q-76 0 -129.5 53.5t-53.5 128.5q0 76 53.5 129.5t129.5 53.5z" />
    <glyph glyph-name="ccedilla" unicode="&#xe7;" horiz-adv-x="748" 
d="M383 769q13 0 21.5 -9t8.5 -21q0 -13 -8.5 -21.5t-21.5 -8.5q-136 0 -233 -97t-97 -233.5t97 -233.5q96 -97 233 -97t233 97q9 9 21.5 9t21.5 -9t9 -21.5t-9 -21.5q-79 -79 -188 -104q13 -24 13 -50q0 -42 -29.5 -71.5t-71.5 -29.5q-13 0 -22 8.5t-9 21.5t9 21.5t22 8.5
q16 0 28 12t12 29q0 16 -11.5 28t-28.5 12q-162 0 -276 114t-114 276t114 277q116 114 276 114zM597 593q9 -9 9 -21.5t-9 -21.5q-21 -22 -43 0q-70 70 -171 70t-171 -70q-71 -71 -71 -172q0 -100 71 -171q69 -71 171 -71q13 0 21.5 -9t8.5 -21q0 -13 -8.5 -21.5t-21.5 -8.5
q-126 0 -214 88l-1 1q-88 88 -88 213q0 126 89 215t214 89t214 -89z" />
    <glyph glyph-name="egrave" unicode="&#xe8;" horiz-adv-x="696" 
d="M231 981l78 -14q13 -2 20 -12.5t5 -22.5q-2 -13 -12.5 -20t-23.5 -4l-78 13q-13 2 -15 -11q-1 -10 11 -14l253 -44q11 -2 18 -12.5t5 -23.5t-12 -20t-22 -5l-253 45q-30 5 -47.5 30t-12.5 55t30.5 47.5t55.5 12.5zM183 756h361q30 -1 51 -22.5t21 -51.5q0 -29 -21 -51
t-50 -22h-367q-15 0 -25 -10.5t-10 -25.5q0 -14 10 -24.5t25 -10.5q13 0 21.5 -9t8.5 -21q0 -13 -8.5 -22t-21.5 -9q-40 0 -68 28t-28 68t28 68.5t68 28.5h365q12 0 12 12q0 13 -12 13h-360q-50 0 -86 -36t-36 -86t36 -85.5t86 -35.5h276q13 0 21.5 -9t8.5 -22t-8.5 -21.5
t-21.5 -8.5h-276q-76 0 -129.5 53.5t-53.5 128.5q0 76 53.5 129.5t129.5 53.5zM183 365h276q13 0 21.5 -8.5t8.5 -21.5t-8.5 -22t-21.5 -9h-276q-50 0 -86 -35.5t-36 -85.5t36 -86t86 -36h360q12 0 12 13q0 12 -12 12h-365q-40 0 -68 28.5t-28 68.5t28 68t68 28
q13 0 21.5 -9t8.5 -22q0 -12 -8.5 -21t-21.5 -9q-15 0 -25 -10.5t-10 -24.5q0 -15 10 -25.5t25 -10.5h367q29 0 50 -22t21 -51q0 -30 -21 -52t-51 -22h-361q-76 0 -129.5 53.5t-53.5 129.5q0 75 53.5 128.5t129.5 53.5z" />
    <glyph glyph-name="eacute" unicode="&#xe9;" horiz-adv-x="696" 
d="M328 967l78 14q30 5 55.5 -12.5t30.5 -47.5t-12.5 -55t-47.5 -30l-253 -45q-12 -2 -22 5t-12 20t5 23.5t18 12.5l253 44q12 4 11 14q-2 13 -15 11l-78 -13q-13 -3 -23.5 4t-12.5 20q-2 12 5 22.5t20 12.5zM183 756h361q30 -1 51 -22.5t21 -51.5q0 -29 -21 -51t-50 -22
h-367q-15 0 -25 -10.5t-10 -25.5q0 -14 10 -24.5t25 -10.5q13 0 21.5 -9t8.5 -21q0 -13 -8.5 -22t-21.5 -9q-40 0 -68 28t-28 68t28 68.5t68 28.5h365q12 0 12 12q0 13 -12 13h-360q-50 0 -86 -36t-36 -86t36 -85.5t86 -35.5h276q13 0 21.5 -9t8.5 -22t-8.5 -21.5
t-21.5 -8.5h-276q-76 0 -129.5 53.5t-53.5 128.5q0 76 53.5 129.5t129.5 53.5zM183 365h276q13 0 21.5 -8.5t8.5 -21.5t-8.5 -22t-21.5 -9h-276q-50 0 -86 -35.5t-36 -85.5t36 -86t86 -36h360q12 0 12 13q0 12 -12 12h-365q-40 0 -68 28.5t-28 68.5t28 68t68 28
q13 0 21.5 -9t8.5 -22q0 -12 -8.5 -21t-21.5 -9q-15 0 -25 -10.5t-10 -24.5q0 -15 10 -25.5t25 -10.5h367q29 0 50 -22t21 -51q0 -30 -21 -52t-51 -22h-361q-76 0 -129.5 53.5t-53.5 129.5q0 75 53.5 128.5t129.5 53.5z" />
    <glyph glyph-name="ecircumflex" unicode="&#xea;" horiz-adv-x="696" 
d="M378 967l78 14q30 5 55.5 -12.5t30.5 -47.5t-12.5 -55t-47.5 -30l-173 -32l-173 32q-30 5 -47.5 30t-12.5 55t30.5 47.5t55.5 12.5l78 -14q13 -2 20 -12.5t5 -22.5q-2 -13 -12.5 -20t-23.5 -4l-78 13q-13 2 -15 -11q-1 -10 11 -14l162 -29l162 29q12 4 11 14
q-2 13 -15 11l-78 -13q-13 -3 -23.5 4t-12.5 20q-2 12 5 22.5t20 12.5zM183 756h361q30 -1 51 -22.5t21 -51.5q0 -29 -21 -51t-50 -22h-367q-15 0 -25 -10.5t-10 -25.5q0 -14 10 -24.5t25 -10.5q13 0 21.5 -9t8.5 -21q0 -13 -8.5 -22t-21.5 -9q-40 0 -68 28t-28 68t28 68.5
t68 28.5h365q12 0 12 12q0 13 -12 13h-360q-50 0 -86 -36t-36 -86t36 -85.5t86 -35.5h276q13 0 21.5 -9t8.5 -22t-8.5 -21.5t-21.5 -8.5h-276q-76 0 -129.5 53.5t-53.5 128.5q0 76 53.5 129.5t129.5 53.5zM183 365h276q13 0 21.5 -8.5t8.5 -21.5t-8.5 -22t-21.5 -9h-276
q-50 0 -86 -35.5t-36 -85.5t36 -86t86 -36h360q12 0 12 13q0 12 -12 12h-365q-40 0 -68 28.5t-28 68.5t28 68t68 28q13 0 21.5 -9t8.5 -22q0 -12 -8.5 -21t-21.5 -9q-15 0 -25 -10.5t-10 -24.5q0 -15 10 -25.5t25 -10.5h367q29 0 50 -22t21 -51q0 -30 -21 -52t-51 -22h-361
q-76 0 -129.5 53.5t-53.5 129.5q0 75 53.5 128.5t129.5 53.5z" />
    <glyph glyph-name="edieresis" unicode="&#xeb;" horiz-adv-x="696" 
d="M216 953q30 0 51.5 -21.5t21.5 -52.5t-21.5 -52.5t-51.5 -21.5q-31 0 -52.5 21.5t-21.5 52.5t21.5 52.5t52.5 21.5zM443 953q30 0 51.5 -21.5t21.5 -52.5t-21.5 -52.5t-51.5 -21.5q-31 0 -52.5 21.5t-21.5 52.5t21.5 52.5t52.5 21.5zM215 895q-6 0 -11 -4.5t-5 -11.5
t5 -11.5t11 -4.5q16 0 16 16t-16 16zM442 895q-6 0 -11 -4.5t-5 -11.5t5 -11.5t11 -4.5q16 0 16 16t-16 16zM183 756h361q30 -1 51 -22.5t21 -51.5q0 -29 -21 -51t-50 -22h-367q-15 0 -25 -10.5t-10 -25.5q0 -14 10 -24.5t25 -10.5q13 0 21.5 -9t8.5 -21q0 -13 -8.5 -22
t-21.5 -9q-40 0 -68 28t-28 68t28 68.5t68 28.5h365q12 0 12 12q0 13 -12 13h-360q-50 0 -86 -36t-36 -86t36 -85.5t86 -35.5h276q13 0 21.5 -9t8.5 -22t-8.5 -21.5t-21.5 -8.5h-276q-76 0 -129.5 53.5t-53.5 128.5q0 76 53.5 129.5t129.5 53.5zM183 365h276q13 0 21.5 -8.5
t8.5 -21.5t-8.5 -22t-21.5 -9h-276q-50 0 -86 -35.5t-36 -85.5t36 -86t86 -36h360q12 0 12 13q0 12 -12 12h-365q-40 0 -68 28.5t-28 68.5t28 68t68 28q13 0 21.5 -9t8.5 -22q0 -12 -8.5 -21t-21.5 -9q-15 0 -25 -10.5t-10 -24.5q0 -15 10 -25.5t25 -10.5h367q29 0 50 -22
t21 -51q0 -30 -21 -52t-51 -22h-361q-76 0 -129.5 53.5t-53.5 129.5q0 75 53.5 128.5t129.5 53.5z" />
    <glyph glyph-name="igrave" unicode="&#xec;" horiz-adv-x="227" 
d="M-14 981l78 -14q13 -2 20 -12.5t5 -22.5q-2 -13 -12.5 -20t-23.5 -4l-78 13q-13 2 -15 -11q-1 -10 11 -14l253 -44q11 -2 18 -12.5t5 -23.5t-12 -20t-22 -5l-253 45q-30 5 -47.5 30t-12.5 55t30.5 47.5t55.5 12.5zM117 756q13 0 21.5 -9t8.5 -21v-652q0 -31 -21.5 -52.5
t-51.5 -21.5q-31 0 -52.5 21.5t-21.5 52.5v304q0 13 9 21.5t21 8.5q13 0 22 -8.5t9 -21.5v-304q0 -13 13 -13q12 0 12 13v652q0 12 9 21t22 9z" />
    <glyph glyph-name="iacute" unicode="&#xed;" horiz-adv-x="227" 
d="M83 967l78 14q30 5 55.5 -12.5t30.5 -47.5t-12.5 -55t-47.5 -30l-253 -45q-12 -2 -22 5t-12 20t5 23.5t18 12.5l253 44q12 4 11 14q-2 13 -15 11l-78 -13q-13 -3 -23.5 4t-12.5 20q-2 12 5 22.5t20 12.5zM117 756q13 0 21.5 -9t8.5 -21v-652q0 -31 -21.5 -52.5
t-51.5 -21.5q-31 0 -52.5 21.5t-21.5 52.5v304q0 13 9 21.5t21 8.5q13 0 22 -8.5t9 -21.5v-304q0 -13 13 -13q12 0 12 13v652q0 12 9 21t22 9z" />
    <glyph glyph-name="icircumflex" unicode="&#xee;" horiz-adv-x="227" 
d="M142 967l78 14q30 5 55.5 -12.5t30.5 -47.5t-12.5 -55t-47.5 -30l-173 -32l-173 32q-30 5 -47.5 30t-12.5 55t30.5 47.5t55.5 12.5l78 -14q13 -2 20 -12.5t5 -22.5q-2 -13 -12.5 -20t-23.5 -4l-78 13q-13 2 -15 -11q-1 -10 11 -14l162 -29l162 29q12 4 11 14
q-2 13 -15 11l-78 -13q-13 -3 -23.5 4t-12.5 20q-2 12 5 22.5t20 12.5zM117 756q13 0 21.5 -9t8.5 -21v-652q0 -31 -21.5 -52.5t-51.5 -21.5q-31 0 -52.5 21.5t-21.5 52.5v304q0 13 9 21.5t21 8.5q13 0 22 -8.5t9 -21.5v-304q0 -13 13 -13q12 0 12 13v652q0 12 9 21t22 9z
" />
    <glyph glyph-name="idieresis" unicode="&#xef;" horiz-adv-x="227" 
d="M-40 953q30 0 51.5 -21.5t21.5 -52.5t-21.5 -52.5t-51.5 -21.5q-31 0 -52.5 21.5t-21.5 52.5t21.5 52.5t52.5 21.5zM187 953q30 0 51.5 -21.5t21.5 -52.5t-21.5 -52.5t-51.5 -21.5q-31 0 -52.5 21.5t-21.5 52.5t21.5 52.5t52.5 21.5zM-41 895q-6 0 -11 -4.5t-5 -11.5
t5 -11.5t11 -4.5q16 0 16 16t-16 16zM186 895q-6 0 -11 -4.5t-5 -11.5t5 -11.5t11 -4.5q16 0 16 16t-16 16zM117 756q13 0 21.5 -9t8.5 -21v-652q0 -31 -21.5 -52.5t-51.5 -21.5q-31 0 -52.5 21.5t-21.5 52.5v304q0 13 9 21.5t21 8.5q13 0 22 -8.5t9 -21.5v-304
q0 -13 13 -13q12 0 12 13v652q0 12 9 21t22 9z" />
    <glyph glyph-name="eth" unicode="&#xf0;" horiz-adv-x="783" 
d="M191 755h134q157 0 267.5 -110.5t110.5 -266.5q0 -157 -110.5 -267.5t-267.5 -110.5h-134q-39 0 -68 24.5t-36 61.5q-38 8 -62.5 37t-24.5 68v144q0 13 8 21.5t22 8.5h55v24h-55q-14 0 -22 8.5t-8 21.5v222q0 12 9 21t21 9q13 0 22 -9t9 -21v-191h24v200q0 43 31 74
t75 31zM325 695h-134q-19 0 -32 -13.5t-13 -32.5v-199h126q13 0 21.5 -9t8.5 -22t-8.5 -21.5t-21.5 -8.5h-126v-24h126q13 0 21.5 -9t8.5 -22q0 -12 -8.5 -21t-21.5 -9h-126v-159h179q96 0 164.5 68.5t68.5 164.5t-68.5 164t-164.5 68h-126q-13 0 -22 9t-9 22q0 12 9 21
t22 9h129q120 0 205.5 -86t85.5 -207q0 -122 -86.5 -208t-207.5 -86h-174q13 -23 40 -23h134q131 0 224 93t93 224t-93 224t-224 93zM61 304v-113q0 -27 24 -40v153h-24z" />
    <glyph glyph-name="ntilde" unicode="&#xf1;" horiz-adv-x="776" 
d="M428 1038h80q31 0 52.5 -21.5t21.5 -52.5q0 -30 -21.5 -51.5t-52.5 -21.5h-320q-13 0 -13 -12q0 -13 13 -13h80q13 0 21.5 -9t8.5 -22q0 -12 -8.5 -21t-21.5 -9h-80q-31 0 -52.5 21.5t-21.5 52.5q0 30 21.5 51.5t52.5 21.5h320q13 0 13 12q0 13 -13 13h-80q-13 0 -21.5 9
t-8.5 22q0 12 8.5 21t21.5 9zM88 733q61 35 129.5 17t108.5 -80l279 -434q7 -10 4 -22.5t-13 -19.5t-22.5 -4t-19.5 13l-279 434q-27 42 -72 54t-85 -11q-57 -33 -57 -98v-552q0 -12 -9 -21t-22 -9q-12 0 -21 9t-9 21v551q0 47 23.5 88t64.5 64zM666 756q12 0 21 -9t9 -21
v-652q0 -43 -37 -64q-26 -15 -55.5 -7t-44.5 34l-357 553q-18 28 -41 15q-14 -7 -14 -24v-551q0 -12 -8.5 -21t-21.5 -9t-22 9t-9 21v552q2 52 45 76q37 19 70 7.5t52 -42.5l358 -554q6 -12 18 -6q6 4 6 12v651q0 12 9 21t22 9z" />
    <glyph glyph-name="ograve" unicode="&#xf2;" 
d="M298 981l78 -14q13 -2 20 -12.5t5 -22.5q-2 -13 -12.5 -20t-23.5 -4l-78 13q-13 2 -15 -11q-1 -10 11 -14l253 -44q11 -2 18 -12.5t5 -23.5t-12 -20t-22 -5l-253 45q-30 5 -47.5 30t-12.5 55t30.5 47.5t55.5 12.5zM386 769q162 0 276 -114t114 -276q0 -164 -114 -276
q-115 -115 -276.5 -115t-276.5 115q-114 114 -114 276q0 31 22.5 52.5t51.5 21.5q33 0 53.5 -22t20.5 -52q0 -101 71 -172q73 -71 172 -71q98 0 171 71q71 71 71 172q0 12 9 21t21 9q13 0 21.5 -9t8.5 -21q0 -125 -88 -215q-88 -88 -214 -88q-127 0 -215 88q-88 90 -88 215
q0 15 -13 15q-14 0 -14 -15q0 -136 96 -234q97 -96 233.5 -96t233.5 96q97 99 97 234q0 136 -97 233t-233 97q-13 0 -22 8.5t-9 21.5t9 21.5t22 8.5z" />
    <glyph glyph-name="oacute" unicode="&#xf3;" 
d="M395 967l78 14q30 5 55.5 -12.5t30.5 -47.5t-12.5 -55t-47.5 -30l-253 -45q-12 -2 -22 5t-12 20t5 23.5t18 12.5l253 44q12 4 11 14q-2 13 -15 11l-78 -13q-13 -3 -23.5 4t-12.5 20q-2 12 5 22.5t20 12.5zM386 769q162 0 276 -114t114 -276q0 -164 -114 -276
q-115 -115 -276.5 -115t-276.5 115q-114 114 -114 276q0 31 22.5 52.5t51.5 21.5q33 0 53.5 -22t20.5 -52q0 -101 71 -172q73 -71 172 -71q98 0 171 71q71 71 71 172q0 12 9 21t21 9q13 0 21.5 -9t8.5 -21q0 -125 -88 -215q-88 -88 -214 -88q-127 0 -215 88q-88 90 -88 215
q0 15 -13 15q-14 0 -14 -15q0 -136 96 -234q97 -96 233.5 -96t233.5 96q97 99 97 234q0 136 -97 233t-233 97q-13 0 -22 8.5t-9 21.5t9 21.5t22 8.5z" />
    <glyph glyph-name="ocircumflex" unicode="&#xf4;" 
d="M455 967l78 14q30 5 55.5 -12.5t30.5 -47.5t-12.5 -55t-47.5 -30l-173 -32l-173 32q-30 5 -47.5 30t-12.5 55t30.5 47.5t55.5 12.5l78 -14q13 -2 20 -12.5t5 -22.5q-2 -13 -12.5 -20t-23.5 -4l-78 13q-13 2 -15 -11q-1 -10 11 -14l162 -29l162 29q12 4 11 14
q-2 13 -15 11l-78 -13q-13 -3 -23.5 4t-12.5 20q-2 12 5 22.5t20 12.5zM386 769q162 0 276 -114t114 -276q0 -164 -114 -276q-115 -115 -276.5 -115t-276.5 115q-114 114 -114 276q0 31 22.5 52.5t51.5 21.5q33 0 53.5 -22t20.5 -52q0 -101 71 -172q73 -71 172 -71
q98 0 171 71q71 71 71 172q0 12 9 21t21 9q13 0 21.5 -9t8.5 -21q0 -125 -88 -215q-88 -88 -214 -88q-127 0 -215 88q-88 90 -88 215q0 15 -13 15q-14 0 -14 -15q0 -136 96 -234q97 -96 233.5 -96t233.5 96q97 99 97 234q0 136 -97 233t-233 97q-13 0 -22 8.5t-9 21.5
t9 21.5t22 8.5z" />
    <glyph glyph-name="otilde" unicode="&#xf5;" 
d="M466 1038h80q31 0 52.5 -21.5t21.5 -52.5q0 -30 -21.5 -51.5t-52.5 -21.5h-320q-13 0 -13 -12q0 -13 13 -13h80q13 0 21.5 -9t8.5 -22q0 -12 -8.5 -21t-21.5 -9h-80q-31 0 -52.5 21.5t-21.5 52.5q0 30 21.5 51.5t52.5 21.5h320q13 0 13 12q0 13 -13 13h-80q-13 0 -21.5 9
t-8.5 22q0 12 8.5 21t21.5 9zM386 769q162 0 276 -114t114 -276q0 -164 -114 -276q-115 -115 -276.5 -115t-276.5 115q-114 114 -114 276q0 31 22.5 52.5t51.5 21.5q33 0 53.5 -22t20.5 -52q0 -101 71 -172q73 -71 172 -71q98 0 171 71q71 71 71 172q0 12 9 21t21 9
q13 0 21.5 -9t8.5 -21q0 -125 -88 -215q-88 -88 -214 -88q-127 0 -215 88q-88 90 -88 215q0 15 -13 15q-14 0 -14 -15q0 -136 96 -234q97 -96 233.5 -96t233.5 96q97 99 97 234q0 136 -97 233t-233 97q-13 0 -22 8.5t-9 21.5t9 21.5t22 8.5z" />
    <glyph glyph-name="odieresis" unicode="&#xf6;" 
d="M273 953q30 0 51.5 -21.5t21.5 -52.5t-21.5 -52.5t-51.5 -21.5q-31 0 -52.5 21.5t-21.5 52.5t21.5 52.5t52.5 21.5zM500 953q30 0 51.5 -21.5t21.5 -52.5t-21.5 -52.5t-51.5 -21.5q-31 0 -52.5 21.5t-21.5 52.5t21.5 52.5t52.5 21.5zM272 895q-6 0 -11 -4.5t-5 -11.5
t5 -11.5t11 -4.5q16 0 16 16t-16 16zM499 895q-6 0 -11 -4.5t-5 -11.5t5 -11.5t11 -4.5q16 0 16 16t-16 16zM386 769q162 0 276 -114t114 -276q0 -164 -114 -276q-115 -115 -276.5 -115t-276.5 115q-114 114 -114 276q0 31 22.5 52.5t51.5 21.5q33 0 53.5 -22t20.5 -52
q0 -101 71 -172q73 -71 172 -71q98 0 171 71q71 71 71 172q0 12 9 21t21 9q13 0 21.5 -9t8.5 -21q0 -125 -88 -215q-88 -88 -214 -88q-127 0 -215 88q-88 90 -88 215q0 15 -13 15q-14 0 -14 -15q0 -136 96 -234q97 -96 233.5 -96t233.5 96q97 99 97 234q0 136 -97 233
t-233 97q-13 0 -22 8.5t-9 21.5t9 21.5t22 8.5z" />
    <glyph glyph-name="divide" unicode="&#xf7;" horiz-adv-x="752" 
d="M336 596q42 0 71.5 -29.5t29.5 -70.5q0 -42 -29.5 -71.5t-71.5 -29.5q-41 0 -70.5 29.5t-29.5 71.5q0 41 29.5 70.5t70.5 29.5zM336 546q-21 0 -35.5 -14.5t-14.5 -35.5t14.5 -36t35.5 -15t36 15t15 36t-15 35.5t-36 14.5zM336 345h264q30 0 51 -21.5t21 -51.5t-21 -52
t-51 -22h-570q-13 0 -21.5 9t-8.5 22q0 12 8.5 21t21.5 9h568q13 0 13 13q0 12 -13 12h-262q-12 0 -21 9t-9 22t9 21.5t21 8.5zM336 148q42 0 71.5 -29.5t29.5 -70.5q0 -42 -29.5 -71.5t-71.5 -29.5q-41 0 -70.5 29.5t-29.5 71.5q0 41 29.5 70.5t70.5 29.5zM336 98
q-21 0 -35.5 -14.5t-14.5 -35.5t14.5 -36t35.5 -15t36 15t15 36t-15 35.5t-36 14.5z" />
    <glyph glyph-name="oslash" unicode="&#xf8;" 
d="M385 768q13 0 22 -8.5t9 -21.5t-9 -21.5t-22 -8.5q-136 0 -233 -97t-97 -233q0 -135 97 -234q96 -96 234 -96q136 1 232.5 97.5t97.5 232.5q-2 138 -98 234q-4 4 -9 4t-10 -5l-385 -386q-9 -9 0 -18q71 -71 172 -71t171 70q71 71 71 172q0 13 9 22t22 9q12 0 21 -9t9 -22
q0 -124 -90 -214q-89 -89 -213 -89q-127 2 -215 90q-22 22 -23 49.5t23 53.5l388 388q22 22 51 22q28 0 51 -23q115 -115 115 -276q0 -162 -114.5 -276.5t-276.5 -114.5t-276 114q-114 112 -114 276q0 162 114 276t276 114z" />
    <glyph glyph-name="ugrave" unicode="&#xf9;" horiz-adv-x="740" 
d="M242 981l78 -14q13 -2 20 -12.5t5 -22.5q-2 -13 -12.5 -20t-23.5 -4l-78 13q-13 2 -15 -11q-1 -10 11 -14l253 -44q11 -2 18 -12.5t5 -23.5t-12 -20t-22 -5l-253 45q-30 5 -47.5 30t-12.5 55t30.5 47.5t55.5 12.5zM630 756q13 0 21.5 -8.5t8.5 -21.5v-408
q0 -137 -97 -234q-96 -96 -233 -96t-233 96q-97 97 -97 234v365q0 30 21.5 51.5t51.5 21.5q31 0 52 -21.5t21 -51.5v-365q0 -76 54 -130t130 -54t130 54q54 56 54 130q0 12 8.5 21t20.5 9q13 0 21.5 -9t8.5 -21q0 -101 -71 -172t-172 -71t-172 71t-71 172v365q0 13 -14 13
q-13 0 -13 -13v-365q0 -112 79 -191t191 -79t191 79t79 191v408q0 13 9 21.5t21 8.5z" />
    <glyph glyph-name="uacute" unicode="&#xfa;" horiz-adv-x="740" 
d="M339 967l78 14q30 5 55.5 -12.5t30.5 -47.5t-12.5 -55t-47.5 -30l-253 -45q-12 -2 -22 5t-12 20t5 23.5t18 12.5l253 44q12 4 11 14q-2 13 -15 11l-78 -13q-13 -3 -23.5 4t-12.5 20q-2 12 5 22.5t20 12.5zM630 756q13 0 21.5 -8.5t8.5 -21.5v-408q0 -137 -97 -234
q-96 -96 -233 -96t-233 96q-97 97 -97 234v365q0 30 21.5 51.5t51.5 21.5q31 0 52 -21.5t21 -51.5v-365q0 -76 54 -130t130 -54t130 54q54 56 54 130q0 12 8.5 21t20.5 9q13 0 21.5 -9t8.5 -21q0 -101 -71 -172t-172 -71t-172 71t-71 172v365q0 13 -14 13q-13 0 -13 -13
v-365q0 -112 79 -191t191 -79t191 79t79 191v408q0 13 9 21.5t21 8.5z" />
    <glyph glyph-name="ucircumflex" unicode="&#xfb;" horiz-adv-x="740" 
d="M399 967l78 14q30 5 55.5 -12.5t30.5 -47.5t-12.5 -55t-47.5 -30l-173 -32l-173 32q-30 5 -47.5 30t-12.5 55t30.5 47.5t55.5 12.5l78 -14q13 -2 20 -12.5t5 -22.5q-2 -13 -12.5 -20t-23.5 -4l-78 13q-13 2 -15 -11q-1 -10 11 -14l162 -29l162 29q12 4 11 14
q-2 13 -15 11l-78 -13q-13 -3 -23.5 4t-12.5 20q-2 12 5 22.5t20 12.5zM630 756q13 0 21.5 -8.5t8.5 -21.5v-408q0 -137 -97 -234q-96 -96 -233 -96t-233 96q-97 97 -97 234v365q0 30 21.5 51.5t51.5 21.5q31 0 52 -21.5t21 -51.5v-365q0 -76 54 -130t130 -54t130 54
q54 56 54 130q0 12 8.5 21t20.5 9q13 0 21.5 -9t8.5 -21q0 -101 -71 -172t-172 -71t-172 71t-71 172v365q0 13 -14 13q-13 0 -13 -13v-365q0 -112 79 -191t191 -79t191 79t79 191v408q0 13 9 21.5t21 8.5z" />
    <glyph glyph-name="udieresis" unicode="&#xfc;" horiz-adv-x="740" 
d="M216 953q30 0 51.5 -21.5t21.5 -52.5t-21.5 -52.5t-51.5 -21.5q-31 0 -52.5 21.5t-21.5 52.5t21.5 52.5t52.5 21.5zM443 953q30 0 51.5 -21.5t21.5 -52.5t-21.5 -52.5t-51.5 -21.5q-31 0 -52.5 21.5t-21.5 52.5t21.5 52.5t52.5 21.5zM215 895q-6 0 -11 -4.5t-5 -11.5
t5 -11.5t11 -4.5q16 0 16 16t-16 16zM442 895q-6 0 -11 -4.5t-5 -11.5t5 -11.5t11 -4.5q16 0 16 16t-16 16zM630 756q13 0 21.5 -8.5t8.5 -21.5v-408q0 -137 -97 -234q-96 -96 -233 -96t-233 96q-97 97 -97 234v365q0 30 21.5 51.5t51.5 21.5q31 0 52 -21.5t21 -51.5v-365
q0 -76 54 -130t130 -54t130 54q54 56 54 130q0 12 8.5 21t20.5 9q13 0 21.5 -9t8.5 -21q0 -101 -71 -172t-172 -71t-172 71t-71 172v365q0 13 -14 13q-13 0 -13 -13v-365q0 -112 79 -191t191 -79t191 79t79 191v408q0 13 9 21.5t21 8.5z" />
    <glyph glyph-name="yacute" unicode="&#xfd;" horiz-adv-x="872" 
d="M407 967l78 14q30 5 55.5 -12.5t30.5 -47.5t-12.5 -55t-47.5 -30l-253 -45q-12 -2 -22 5t-12 20t5 23.5t18 12.5l253 44q12 4 11 14q-2 13 -15 11l-78 -13q-13 -3 -23.5 4t-12.5 20q-2 12 5 22.5t20 12.5zM125 734l212 -211q9 -9 9 -22t-9 -21q-9 -9 -21.5 -9t-21.5 9
l-211 210q-9 10 -18 1t-1 -17l212 -212q9 -9 9 -21.5t-9 -21.5q-22 -21 -43 0l-212 212q-21 21 -20.5 51t20.5 52q22 22 52 22t52 -22zM770 734q22 -22 22 -52.5t-22 -51.5l-301 -301v-299q0 -13 -8.5 -21.5t-21.5 -8.5t-22 8.5t-9 21.5v310q0 14 9 23l310 310q9 9 0 17
q-9 9 -18 0l-326 -326v-334q0 -13 -9 -21.5t-21 -8.5q-13 0 -22 8.5t-9 21.5v347q0 13 9 21l335 335q22 21 52 21t52 -20z" />
    <glyph glyph-name="thorn" unicode="&#xfe;" horiz-adv-x="699" 
d="M30 756q13 0 22 -9t9 -22v-694q0 -13 -8.5 -22t-21.5 -9t-22 9t-9 22v694q0 13 9 22t21 9zM117 603h277q93 -1 159 -67t66 -159t-65.5 -159.5t-158.5 -66.5h-169q-13 0 -22 9t-9 22q0 12 9 21t22 9h167q68 0 116.5 48.5t48.5 116.5t-48.5 116.5t-116.5 48.5h-276
q-13 0 -22 9t-9 21q0 13 9 22t22 9zM116 517h278q58 0 98.5 -41t40.5 -99q0 -13 -8.5 -21.5t-21.5 -8.5t-21.5 8.5t-8.5 21.5q0 33 -23.5 56t-55.5 23h-247v-425q0 -13 -9 -22t-22 -9q-12 0 -21 9t-9 22v455q0 13 9 22t21 9z" />
    <glyph glyph-name="ydieresis" unicode="&#xff;" horiz-adv-x="872" 
d="M282 953q30 0 51.5 -21.5t21.5 -52.5t-21.5 -52.5t-51.5 -21.5q-31 0 -52.5 21.5t-21.5 52.5t21.5 52.5t52.5 21.5zM509 953q30 0 51.5 -21.5t21.5 -52.5t-21.5 -52.5t-51.5 -21.5q-31 0 -52.5 21.5t-21.5 52.5t21.5 52.5t52.5 21.5zM281 895q-6 0 -11 -4.5t-5 -11.5
t5 -11.5t11 -4.5q16 0 16 16t-16 16zM508 895q-6 0 -11 -4.5t-5 -11.5t5 -11.5t11 -4.5q16 0 16 16t-16 16zM125 734l212 -211q9 -9 9 -22t-9 -21q-9 -9 -21.5 -9t-21.5 9l-211 210q-9 10 -18 1t-1 -17l212 -212q9 -9 9 -21.5t-9 -21.5q-22 -21 -43 0l-212 212
q-21 21 -20.5 51t20.5 52q22 22 52 22t52 -22zM770 734q22 -22 22 -52.5t-22 -51.5l-301 -301v-299q0 -13 -8.5 -21.5t-21.5 -8.5t-22 8.5t-9 21.5v310q0 14 9 23l310 310q9 9 0 17q-9 9 -18 0l-326 -326v-334q0 -13 -9 -21.5t-21 -8.5q-13 0 -22 8.5t-9 21.5v347q0 13 9 21
l335 335q22 21 52 21t52 -20z" />
    <glyph glyph-name="Abreve" unicode="&#x102;" horiz-adv-x="895" 
d="M468 937q13 0 21.5 -9t8.5 -22q0 -42 -29.5 -71.5t-71.5 -29.5t-71.5 29.5t-29.5 71.5q0 13 8.5 22t21.5 9t22 -9t9 -22q0 -16 11.5 -28t28.5 -12t29 12t12 28q0 13 8.5 22t21.5 9zM397 756q55 0 99.5 -31t64.5 -82l251 -601q5 -12 0.5 -23.5t-16.5 -16.5t-24 0t-16 17
l-253 605q-13 32 -42 51.5t-64 19.5t-63.5 -19.5t-42.5 -51.5l-228 -545q-6 -13 6 -18t17 8l228 544q10 25 33 39.5t50 14.5t50 -15t33 -40l118 -281q8 -19 -1 -30.5t-28 -11.5h-240q-13 0 -22 9t-9 22t9 21.5t22 8.5h195l-100 238q-7 19 -27 19t-27 -19l-228 -542
q-11 -28 -39 -40t-57 -1q-28 12 -40 40t-1 56l228 542q20 51 64.5 82t99.5 31z" />
    <glyph glyph-name="abreve" unicode="&#x103;" horiz-adv-x="896" 
d="M468 937q13 0 21.5 -9t8.5 -22q0 -42 -29.5 -71.5t-71.5 -29.5t-71.5 29.5t-29.5 71.5q0 13 8.5 22t21.5 9t22 -9t9 -22q0 -16 11.5 -28t28.5 -12t29 12t12 28q0 13 8.5 22t21.5 9zM397 756q55 0 99.5 -31t64.5 -82l252 -601q5 -11 0 -23t-16 -17q-12 -5 -24 0t-16 17
l-254 605q-13 32 -42 51.5t-64 19.5t-63.5 -19.5t-42.5 -51.5l-228 -545q-6 -12 5 -17q13 -6 18 9l228 542q10 25 33 39.5t50 14.5t50 -15t33 -40l240 -570q5 -11 0 -23t-17 -17q-11 -5 -23 0t-17 17l-239 569q-7 19 -27 19q-19 0 -27 -19l-227 -539q-10 -27 -38 -41t-57 -3
q-28 10 -41 38t-2 57l228 543q20 51 64.5 82t99.5 31z" />
    <glyph glyph-name="Aogonek" unicode="&#x104;" horiz-adv-x="897" 
d="M397 756q55 0 99.5 -31t64.5 -82l251 -601q8 -18 -2 -30t-24 -12q-15 0 -27.5 -12t-12.5 -28q0 -17 12 -29t28 -12q13 0 22 -8.5t9 -21.5t-9 -21.5t-22 -8.5q-42 0 -71.5 29.5t-29.5 71.5q0 30 16 54.5t42 36.5l-240 573q-13 32 -42 51.5t-64 19.5t-63.5 -19.5
t-42.5 -51.5l-228 -545q-6 -13 6 -18t17 8l228 544q10 25 33 39.5t50 14.5t50 -15t33 -40l118 -281q8 -19 -1 -30.5t-28 -11.5h-240q-13 0 -22 9t-9 22t9 21.5t22 8.5h195l-100 238q-7 19 -27 19t-27 -19l-228 -542q-11 -28 -39 -40t-57 -1q-28 12 -40 40t-1 56l228 542
q20 51 64.5 82t99.5 31z" />
    <glyph glyph-name="aogonek" unicode="&#x105;" horiz-adv-x="895" 
d="M397 756q55 0 99.5 -31t64.5 -82l252 -601q5 -11 0 -23t-17 -17q-11 -5 -23 0t-16 17l-254 605q-14 32 -42.5 51.5t-63.5 19.5t-64 -19.5t-43 -51.5l-227 -545q-6 -12 5 -17q13 -6 18 9l228 542q10 25 33 39.5t50 14.5t50 -15t33 -40l239 -570q7 -15 -3 -28.5t-23 -13.5
q-17 0 -28.5 -12t-11.5 -28q0 -17 12 -29t28 -12q13 0 22 -8.5t9 -21.5t-9 -21.5t-22 -8.5q-42 0 -71.5 29.5t-29.5 71.5q0 64 57 91l-225 537q-9 19 -27 19q-19 0 -28 -19l-227 -540q-9 -26 -37 -40t-57 -4q-28 10 -41 38.5t-2 57.5l227 543q19 51 64.5 82t100.5 31z" />
    <glyph glyph-name="Cacute" unicode="&#x106;" horiz-adv-x="766" 
d="M348 967l78 14q30 5 55.5 -12.5t30.5 -47.5t-12.5 -55t-47.5 -30l-253 -45q-12 -2 -22 5t-12 20t5 23.5t18 12.5l253 44q12 4 11 14q-2 13 -15 11l-78 -13q-13 -3 -23.5 4t-12.5 20q-2 12 5 22.5t20 12.5zM385 769q162 0 276 -114q9 -9 9 -21.5t-9 -21.5q-8 -9 -21 -9
t-21 9q-97 95 -234 97q-136 0 -233 -97t-97 -233t97 -233.5t233 -97.5q137 0 234 97q9 9 0 19t-19 0q-88 -88 -215 -88q-125 0 -213.5 88.5t-88.5 214.5q0 124 88 214q9 8 21.5 8t21.5 -8q9 -9 9 -21.5t-9 -21.5q-71 -71 -71 -171t71 -171.5t171 -71.5q101 0 172 71
q23 23 52.5 23t52.5 -23q24 -24 23.5 -53t-23.5 -52q-114 -114 -277 -114q-161 0 -275.5 114.5t-114.5 276.5q0 161 114.5 275.5t275.5 114.5z" />
    <glyph glyph-name="cacute" unicode="&#x107;" horiz-adv-x="750" 
d="M323 967l78 14q30 5 55.5 -12.5t30.5 -47.5t-12.5 -55t-47.5 -30l-253 -45q-12 -2 -22 5t-12 20t5 23.5t18 12.5l253 44q12 4 11 14q-2 13 -15 11l-78 -13q-13 -3 -23.5 4t-12.5 20q-2 12 5 22.5t20 12.5zM385 769q13 0 21.5 -9t8.5 -21q0 -13 -8.5 -21.5t-21.5 -8.5
q-136 0 -233 -97t-97 -233.5t97 -233.5q96 -97 233 -97t233 97q9 9 21.5 9t21.5 -9t9 -21.5t-9 -21.5q-114 -114 -276 -114t-276 114t-114 276t114 277q116 114 276 114zM599 593q9 -9 9 -21.5t-9 -21.5q-21 -22 -43 0q-70 70 -171 70t-171 -70q-71 -71 -71 -172
q0 -100 71 -171q69 -71 171 -71q13 0 21.5 -9t8.5 -21q0 -13 -8.5 -21.5t-21.5 -8.5q-126 0 -214 88l-1 1q-88 88 -88 213q0 126 89 215t214 89t214 -89z" />
    <glyph glyph-name="Ccaron" unicode="&#x10c;" horiz-adv-x="766" 
d="M454 967l78 14q30 5 55.5 -12.5t30.5 -47.5t-12.5 -55t-47.5 -30l-173 -32l-173 32q-30 5 -47.5 30t-12.5 55t30.5 47.5t55.5 12.5l78 -14q13 -2 20 -12.5t5 -22.5q-2 -13 -12.5 -20t-23.5 -4l-78 13q-13 2 -15 -11q-1 -10 11 -14l162 -29l162 29q12 4 11 14
q-2 13 -15 11l-78 -13q-13 -3 -23.5 4t-12.5 20q-2 12 5 22.5t20 12.5zM385 769q162 0 276 -114q9 -9 9 -21.5t-9 -21.5q-8 -9 -21 -9t-21 9q-97 95 -234 97q-136 0 -233 -97t-97 -233t97 -233.5t233 -97.5q137 0 234 97q9 9 0 19t-19 0q-88 -88 -215 -88
q-125 0 -213.5 88.5t-88.5 214.5q0 124 88 214q9 8 21.5 8t21.5 -8q9 -9 9 -21.5t-9 -21.5q-71 -71 -71 -171t71 -171.5t171 -71.5q101 0 172 71q23 23 52.5 23t52.5 -23q24 -24 23.5 -53t-23.5 -52q-114 -114 -277 -114q-161 0 -275.5 114.5t-114.5 276.5
q0 161 114.5 275.5t275.5 114.5z" />
    <glyph glyph-name="ccaron" unicode="&#x10d;" horiz-adv-x="750" 
d="M315 988l173 -32q30 -5 47.5 -30t12.5 -55t-30.5 -47.5t-55.5 -12.5l-78 14q-13 2 -20 12.5t-5 22.5q2 13 12.5 20t23.5 4l78 -13q13 -2 15 11q1 10 -11 14l-162 29l-162 -29q-12 -4 -11 -14q2 -13 15 -11l78 13q13 3 23.5 -4t12.5 -20q2 -12 -5 -22.5t-20 -12.5l-78 -14
q-30 -5 -55.5 12.5t-30.5 47.5t12.5 55t47.5 30zM385 769q13 0 21.5 -9t8.5 -21q0 -13 -8.5 -21.5t-21.5 -8.5q-136 0 -233 -97t-97 -233.5t97 -233.5q96 -97 233 -97t233 97q9 9 21.5 9t21.5 -9t9 -21.5t-9 -21.5q-114 -114 -276 -114t-276 114t-114 276t114 277
q116 114 276 114zM599 593q9 -9 9 -21.5t-9 -21.5q-21 -22 -43 0q-70 70 -171 70t-171 -70q-71 -71 -71 -172q0 -100 71 -171q69 -71 171 -71q13 0 21.5 -9t8.5 -21q0 -13 -8.5 -21.5t-21.5 -8.5q-126 0 -214 88l-1 1q-88 88 -88 213q0 126 89 215t214 89t214 -89z" />
    <glyph glyph-name="Dcaron" unicode="&#x10e;" horiz-adv-x="783" 
d="M324 988l173 -32q30 -5 47.5 -30t12.5 -55t-30.5 -47.5t-55.5 -12.5l-78 14q-13 2 -20 12.5t-5 22.5q2 13 12.5 20t23.5 4l78 -13q13 -2 15 11q1 10 -11 14l-162 29l-162 -29q-12 -4 -11 -14q2 -13 15 -11l78 13q13 3 23.5 -4t12.5 -20q2 -12 -5 -22.5t-20 -12.5l-78 -14
q-30 -5 -55.5 12.5t-30.5 47.5t12.5 55t47.5 30zM325 755q157 0 267.5 -110.5t110.5 -266.5q0 -157 -110.5 -267.5t-267.5 -110.5h-218q-44 0 -75.5 31.5t-31.5 75.5v534q0 12 9 21t21 9q13 0 22 -9t9 -21v-534q0 -19 13.5 -32.5t32.5 -13.5h218q131 0 224 93t93 224
t-93 224t-224 93q-12 0 -21 8.5t-9 21.5t9 21.5t21 8.5zM115 671h210q121 0 207.5 -86t86.5 -207q0 -122 -86.5 -208t-207.5 -86q-12 0 -21 9t-9 22t9 21.5t21 8.5q96 0 164.5 68.5t68.5 164.5t-68.5 164t-164.5 68h-179v-495q0 -13 -9 -22t-22 -9t-21.5 9t-8.5 22v526
q0 12 8.5 21t21.5 9z" />
    <glyph glyph-name="dcaron" unicode="&#x10f;" horiz-adv-x="783" 
d="M324 988l173 -32q30 -5 47.5 -30t12.5 -55t-30.5 -47.5t-55.5 -12.5l-78 14q-13 2 -20 12.5t-5 22.5q2 13 12.5 20t23.5 4l78 -13q13 -2 15 11q1 10 -11 14l-162 29l-162 -29q-12 -4 -11 -14q2 -13 15 -11l78 13q13 3 23.5 -4t12.5 -20q2 -12 -5 -22.5t-20 -12.5l-78 -14
q-30 -5 -55.5 12.5t-30.5 47.5t12.5 55t47.5 30zM191 755h134q157 0 267.5 -110.5t110.5 -266.5q0 -157 -110.5 -267.5t-267.5 -110.5h-134q-39 0 -68 24.5t-36 61.5q-38 8 -62.5 37t-24.5 68v450q0 12 9 21t21 9q13 0 22 -9t9 -21v-450q0 -27 24 -40v499q0 43 31 74t75 31z
M325 695h-134q-19 0 -32 -13.5t-13 -32.5v-504h179q96 0 164.5 68.5t68.5 164.5t-68.5 164t-164.5 68h-126q-13 0 -22 9t-9 22q0 12 9 21t22 9h129q120 0 205.5 -86t85.5 -207q0 -122 -86.5 -208t-207.5 -86h-174q13 -23 40 -23h134q131 0 224 93t93 224t-93 224t-224 93z
" />
    <glyph glyph-name="Eogonek" unicode="&#x118;" horiz-adv-x="699" 
d="M175 756h371q30 0 51.5 -21.5t21.5 -51.5t-20.5 -52t-50.5 -22h-373q-11 0 -19.5 -8t-8.5 -20q0 -11 8.5 -19.5t19.5 -8.5q13 0 22 -8.5t9 -21.5t-9 -22t-22 -9q-37 0 -62.5 26t-25.5 63t25.5 63t62.5 26h371q12 0 12 13q0 12 -12 12h-371q-47 0 -80.5 -33.5t-33.5 -80.5
t33.5 -80.5t80.5 -33.5h269q37 0 63 -26.5t26 -63.5t-26 -62.5t-63 -25.5h-269q-47 0 -80.5 -33.5t-33.5 -80.5t33.5 -80.5t80.5 -33.5h413q13 0 22 -9t9 -22t-9 -21.5t-22 -8.5q-16 0 -28 -12t-12 -28q0 -17 12 -29t28 -12q13 0 22 -8.5t9 -21.5t-9 -21.5t-22 -8.5
q-42 0 -71.5 29.5t-29.5 71.5q0 21 8 40h-320q-73 0 -124 51t-51 124q0 72 51 123.5t124 51.5h269q12 0 20 8t8 19q0 13 -8 21t-20 8h-269q-72 0 -123.5 51.5t-51.5 123.5q0 73 51.5 124t123.5 51zM175 263h269q13 0 22 -8.5t9 -21.5t-9 -22t-22 -9h-269q-11 0 -19.5 -8
t-8.5 -19q0 -12 8.5 -20t19.5 -8q13 0 21.5 -9t8.5 -22q0 -12 -8.5 -21t-21.5 -9q-37 0 -63 26t-26 63t26 62.5t63 25.5z" />
    <glyph glyph-name="eogonek" unicode="&#x119;" horiz-adv-x="696" 
d="M183 756h361q30 -1 51 -22.5t21 -51.5t-21 -51.5t-50 -21.5h-367q-15 0 -25 -10.5t-10 -25.5q0 -14 10 -24.5t25 -10.5q13 0 21.5 -9t8.5 -22q0 -12 -8.5 -21t-21.5 -9q-40 0 -68 28t-28 68t28 68.5t68 28.5h365q12 0 12 12q0 13 -12 13h-360q-50 0 -86 -36t-36 -86
t36 -85.5t86 -35.5h276q13 0 21.5 -9t8.5 -22t-8.5 -21.5t-21.5 -8.5h-276q-76 0 -129.5 53.5t-53.5 128.5q0 76 53.5 129.5t129.5 53.5zM183 365h276q13 0 21.5 -9t8.5 -21q0 -13 -8.5 -22t-21.5 -9h-276q-50 0 -86 -35.5t-36 -86.5q0 -50 36 -85.5t86 -35.5h360
q12 0 12 12q0 13 -12 13h-365q-40 0 -68 28t-28 68t28 68.5t68 28.5q13 0 21.5 -9t8.5 -22t-8.5 -21.5t-21.5 -8.5q-15 0 -25 -10.5t-10 -25.5q0 -14 10 -24.5t25 -10.5h367q29 0 50 -22t21 -52t-21 -51.5t-51 -21.5q-16 0 -28 -12t-12 -28q0 -17 12 -29t28 -12
q13 0 22 -8.5t9 -21.5t-9 -21.5t-22 -8.5q-42 0 -71.5 29.5t-29.5 71.5q0 21 8 40h-268q-76 0 -129.5 53.5t-53.5 128.5q0 76 53.5 129.5t129.5 53.5z" />
    <glyph glyph-name="Ecaron" unicode="&#x11a;" horiz-adv-x="699" 
d="M309 988l173 -32q30 -5 47.5 -30t12.5 -55t-30.5 -47.5t-55.5 -12.5l-78 14q-13 2 -20 12.5t-5 22.5q2 13 12.5 20t23.5 4l78 -13q13 -2 15 11q1 10 -11 14l-162 29l-162 -29q-12 -4 -11 -14q2 -13 15 -11l78 13q13 3 23.5 -4t12.5 -20q2 -12 -5 -22.5t-20 -12.5l-78 -14
q-30 -5 -55.5 12.5t-30.5 47.5t12.5 55t47.5 30zM175 756h371q30 0 51.5 -21.5t21.5 -51.5t-20.5 -52t-50.5 -22h-373q-11 0 -19.5 -8t-8.5 -20q0 -11 8.5 -19.5t19.5 -8.5q13 0 22 -8.5t9 -21.5t-9 -22t-22 -9q-37 0 -62.5 26t-25.5 63t25.5 63t62.5 26h371q12 0 12 13
q0 12 -12 12h-371q-47 0 -80.5 -33.5t-33.5 -80.5t33.5 -80.5t80.5 -33.5h269q37 0 63 -26.5t26 -63.5t-26 -62.5t-63 -25.5h-269q-47 0 -80.5 -33.5t-33.5 -80.5t33.5 -80.5t80.5 -33.5h413q13 0 22 -9t9 -22t-9 -21.5t-22 -8.5h-413q-73 0 -124 51t-51 124q0 72 51 123.5
t124 51.5h269q12 0 20 8t8 19q0 13 -8 21t-20 8h-269q-72 0 -123.5 51.5t-51.5 123.5q0 73 51.5 124t123.5 51zM175 263h269q13 0 22 -8.5t9 -21.5t-9 -22t-22 -9h-269q-11 0 -19.5 -8t-8.5 -19q0 -12 8.5 -20t19.5 -8q13 0 21.5 -9t8.5 -22q0 -12 -8.5 -21t-21.5 -9
q-37 0 -63 26t-26 63t26 62.5t63 25.5z" />
    <glyph glyph-name="ecaron" unicode="&#x11b;" horiz-adv-x="696" 
d="M309 988l173 -32q30 -5 47.5 -30t12.5 -55t-30.5 -47.5t-55.5 -12.5l-78 14q-13 2 -20 12.5t-5 22.5q2 13 12.5 20t23.5 4l78 -13q13 -2 15 11q1 10 -11 14l-162 29l-162 -29q-12 -4 -11 -14q2 -13 15 -11l78 13q13 3 23.5 -4t12.5 -20q2 -12 -5 -22.5t-20 -12.5l-78 -14
q-30 -5 -55.5 12.5t-30.5 47.5t12.5 55t47.5 30zM183 756h361q30 -1 51 -22.5t21 -51.5q0 -29 -21 -51t-50 -22h-367q-15 0 -25 -10.5t-10 -25.5q0 -14 10 -24.5t25 -10.5q13 0 21.5 -9t8.5 -21q0 -13 -8.5 -22t-21.5 -9q-40 0 -68 28t-28 68t28 68.5t68 28.5h365
q12 0 12 12q0 13 -12 13h-360q-50 0 -86 -36t-36 -86t36 -85.5t86 -35.5h276q13 0 21.5 -9t8.5 -22t-8.5 -21.5t-21.5 -8.5h-276q-76 0 -129.5 53.5t-53.5 128.5q0 76 53.5 129.5t129.5 53.5zM183 365h276q13 0 21.5 -8.5t8.5 -21.5t-8.5 -22t-21.5 -9h-276q-50 0 -86 -35.5
t-36 -85.5t36 -86t86 -36h360q12 0 12 13q0 12 -12 12h-365q-40 0 -68 28.5t-28 68.5t28 68t68 28q13 0 21.5 -9t8.5 -22q0 -12 -8.5 -21t-21.5 -9q-15 0 -25 -10.5t-10 -24.5q0 -15 10 -25.5t25 -10.5h367q29 0 50 -22t21 -51q0 -30 -21 -52t-51 -22h-361
q-76 0 -129.5 53.5t-53.5 129.5q0 75 53.5 128.5t129.5 53.5z" />
    <glyph glyph-name="Gbreve" unicode="&#x11e;" 
d="M458 937q13 0 21.5 -9t8.5 -22q0 -42 -29.5 -71.5t-71.5 -29.5t-71.5 29.5t-29.5 71.5q0 13 8.5 22t21.5 9t22 -9t9 -22q0 -16 11.5 -28t28.5 -12t29 12t12 28q0 13 8.5 22t21.5 9zM385 769h3q29 -1 50.5 -22.5t21.5 -51.5q0 -31 -21.5 -52.5t-53.5 -21.5
q-100 0 -171 -71t-71 -171q0 -101 71 -172t171 -71q13 0 21.5 -9t8.5 -21q0 -13 -8.5 -21.5t-21.5 -8.5q-127 0 -213 89q-89 86 -89 214q0 127 89 213q86 89 213 89q16 0 16 14t-16 14q-136 0 -232.5 -97t-96.5 -233t96.5 -233t232.5 -97q129 0 228.5 91t99.5 209h-285
q-4 0 -8.5 -4.5t-4.5 -8.5q0 -5 4 -9t9 -4h212q12 0 21 -9t9 -21q0 -13 -9 -21.5t-21 -8.5h-214q-29 1 -49.5 22t-20.5 51q0 29 21 50t51 22h318q13 0 21.5 -8.5t8.5 -20.5q0 -161 -115 -276t-276 -115t-275.5 115t-114.5 276t114.5 275.5t275.5 114.5z" />
    <glyph glyph-name="gbreve" unicode="&#x11f;" 
d="M457 937q13 0 21.5 -9t8.5 -22q0 -42 -29.5 -71.5t-71.5 -29.5t-71.5 29.5t-29.5 71.5q0 13 8.5 22t21.5 9t22 -9t9 -22q0 -16 12 -28t28 -12q17 0 29 12t12 28q0 13 8.5 22t21.5 9zM386 769q12 0 21 -8.5t9 -21.5t-9 -21.5t-21 -8.5q-135 0 -234 -97q-96 -96 -96 -233
q0 -136 96 -234q97 -97 233.5 -96.5t233.5 96.5q84 84 95 203h-328q-13 0 -13 -12q0 -13 14 -13h253q12 0 21 -9t9 -21q0 -13 -9 -22t-21 -9h-257q-29 0 -50 22t-21 52t21.5 51.5t52.5 21.5h360q12 0 21 -9t9 -22q0 -160 -114 -276q-114 -114 -276 -114t-277 114
q-114 116 -114 277q0 160 114 276q114 114 277 114zM386 682q125 0 214 -89q9 -9 9 -21.5t-9 -21.5q-22 -22 -43 0q-71 71 -171 71q-101 0 -172 -71q-70 -70 -70 -171t70 -172q9 -9 9 -21.5t-9 -21.5q-22 -22 -43 0q-89 89 -89 214.5t89 214.5t215 89z" />
    <glyph glyph-name="Idotaccent" unicode="&#x130;" horiz-adv-x="227" 
d="M74 953q30 0 51.5 -21.5t21.5 -52.5t-21.5 -52.5t-51.5 -21.5q-31 0 -52.5 21.5t-21.5 52.5t21.5 52.5t52.5 21.5zM73 895q-6 0 -11 -4.5t-5 -11.5t5 -11.5t11 -4.5q16 0 16 16t-16 16zM74 756q30 0 51.5 -21.5t21.5 -52.5v-652q0 -12 -8.5 -21t-21.5 -9t-22 9t-9 21v652
q0 13 -12 13q-13 0 -13 -13v-304q0 -13 -9 -21.5t-22 -8.5q-12 0 -21 8.5t-9 21.5v304q0 31 21.5 52.5t52.5 21.5z" />
    <glyph glyph-name="dotlessi" unicode="&#x131;" horiz-adv-x="227" 
d="M117 756q13 0 21.5 -9t8.5 -21v-652q0 -31 -21.5 -52.5t-51.5 -21.5q-31 0 -52.5 21.5t-21.5 52.5v304q0 13 9 21.5t21 8.5q13 0 22 -8.5t9 -21.5v-304q0 -13 13 -13q12 0 12 13v652q0 12 9 21t22 9z" />
    <glyph glyph-name="Lslash" unicode="&#x141;" horiz-adv-x="630" 
d="M74 756q30 0 51.5 -21.5t21.5 -51.5v-303l126 126q22 22 52 22t52 -21q22 -22 22 -51t-20 -51l-126 -126q-9 -9 -21.5 -9t-21.5 9t-9 21.5t9 21.5l124 124q9 9 0 17q-9 9 -18 0l-169 -169v-119q0 -11 8.5 -19.5t19.5 -8.5h301q31 0 52.5 -21.5t21.5 -51.5
q0 -31 -21.5 -52.5t-52.5 -21.5h-301q-13 0 -21.5 9t-8.5 22q0 12 8.5 21t21.5 9h301q13 0 13 13q0 12 -13 12h-301q-37 0 -63 26t-26 63v57l-34 -34q-16 -14 -33 -6q-19 6 -19 28v463q0 30 21.5 51.5t52.5 21.5zM74 695q-13 0 -13 -12v-390l25 26v364q0 12 -12 12z" />
    <glyph glyph-name="lslash" unicode="&#x142;" horiz-adv-x="630" 
d="M117 756q13 0 21.5 -9t8.5 -21v-229l74 74q22 22 52 22t52 -22q22 -21 22 -50.5t-20 -51.5l-180 -179v-143h329q31 0 52.5 -21.5t21.5 -51.5q0 -31 -21.5 -52.5t-52.5 -21.5h-301q-36 0 -61.5 25.5t-27.5 60.5q-35 2 -60.5 27.5t-25.5 61.5v17q0 37 26 63l60 60v35
l-34 -35q-16 -14 -33 -6q-19 6 -19 28v389q0 12 9 21t21 9q13 0 22 -9t9 -21v-316l25 26v290q0 12 9 21t22 9zM282 528q-9 9 -18 0l-117 -117v-35l135 135q8 9 0 17zM86 229l-17 -17q-8 -8 -8 -19v-18q0 -10 7 -18t18 -10v82zM476 86h-329q2 -11 10 -18t18 -7h301
q13 0 13 13q0 12 -13 12z" />
    <glyph glyph-name="Nacute" unicode="&#x143;" horiz-adv-x="776" 
d="M358 967l78 14q30 5 55.5 -12.5t30.5 -47.5t-12.5 -55t-47.5 -30l-253 -45q-12 -2 -22 5t-12 20t5 23.5t18 12.5l253 44q12 4 11 14q-2 13 -15 11l-78 -13q-13 -3 -23.5 4t-12.5 20q-2 12 5 22.5t20 12.5zM87 732q61 35 130 17t109 -79l359 -559q16 -26 8 -56.5
t-34 -45.5q-22 -15 -52 -8.5t-48 35.5l-357 554q-18 28 -41 15q-14 -9 -14 -24v-551q0 -12 -9 -21t-21 -9q-13 0 -22 9t-9 21v551q0 51 45 77q37 18 69.5 6.5t52.5 -41.5l357 -554q8 -14 19 -8q13 7 3 19l-357 557q-26 41 -71 53.5t-86 -10.5q-57 -34 -57 -98v-552
q0 -12 -9 -21t-22 -9q-12 0 -21 9t-9 21v548q-1 48 22.5 89.5t64.5 64.5zM622 755q31 0 52.5 -21.5t21.5 -51.5v-429q0 -13 -9 -21.5t-21 -8.5q-13 0 -22 8.5t-9 21.5v429q0 13 -13 13q-12 0 -12 -13v-287q0 -13 -9 -22t-22 -9t-21.5 9t-8.5 22v287q0 30 21.5 51.5
t51.5 21.5z" />
    <glyph glyph-name="nacute" unicode="&#x144;" horiz-adv-x="776" 
d="M358 967l78 14q30 5 55.5 -12.5t30.5 -47.5t-12.5 -55t-47.5 -30l-253 -45q-12 -2 -22 5t-12 20t5 23.5t18 12.5l253 44q12 4 11 14q-2 13 -15 11l-78 -13q-13 -3 -23.5 4t-12.5 20q-2 12 5 22.5t20 12.5zM88 733q61 35 129.5 17t108.5 -80l279 -434q7 -10 4 -22.5
t-13 -19.5t-22.5 -4t-19.5 13l-279 434q-27 42 -72 54t-85 -11q-57 -33 -57 -98v-552q0 -12 -9 -21t-22 -9q-12 0 -21 9t-9 21v551q0 47 23.5 88t64.5 64zM666 756q12 0 21 -9t9 -21v-652q0 -43 -37 -64q-26 -15 -55.5 -7t-44.5 34l-357 553q-18 28 -41 15q-14 -7 -14 -24
v-551q0 -12 -8.5 -21t-21.5 -9t-22 9t-9 21v552q2 52 45 76q37 19 70 7.5t52 -42.5l358 -554q6 -12 18 -6q6 4 6 12v651q0 12 9 21t22 9z" />
    <glyph glyph-name="Ncaron" unicode="&#x147;" horiz-adv-x="776" 
d="M350 988l173 -32q30 -5 47.5 -30t12.5 -55t-30.5 -47.5t-55.5 -12.5l-78 14q-13 2 -20 12.5t-5 22.5q2 13 12.5 20t23.5 4l78 -13q13 -2 15 11q1 10 -11 14l-162 29l-162 -29q-12 -4 -11 -14q2 -13 15 -11l78 13q13 3 23.5 -4t12.5 -20q2 -12 -5 -22.5t-20 -12.5l-78 -14
q-30 -5 -55.5 12.5t-30.5 47.5t12.5 55t47.5 30zM87 732q61 35 130 17t109 -79l359 -559q16 -26 8 -56.5t-34 -45.5q-22 -15 -52 -8.5t-48 35.5l-357 554q-18 28 -41 15q-14 -9 -14 -24v-551q0 -12 -9 -21t-21 -9q-13 0 -22 9t-9 21v551q0 51 45 77q37 18 69.5 6.5
t52.5 -41.5l357 -554q8 -14 19 -8q13 7 3 19l-357 557q-26 41 -71 53.5t-86 -10.5q-57 -34 -57 -98v-552q0 -12 -9 -21t-22 -9q-12 0 -21 9t-9 21v548q-1 48 22.5 89.5t64.5 64.5zM622 755q31 0 52.5 -21.5t21.5 -51.5v-429q0 -13 -9 -21.5t-21 -8.5q-13 0 -22 8.5t-9 21.5
v429q0 13 -13 13q-12 0 -12 -13v-287q0 -13 -9 -22t-22 -9t-21.5 9t-8.5 22v287q0 30 21.5 51.5t51.5 21.5z" />
    <glyph glyph-name="ncaron" unicode="&#x148;" horiz-adv-x="776" 
d="M348 988l173 -32q30 -5 47.5 -30t12.5 -55t-30.5 -47.5t-55.5 -12.5l-78 14q-13 2 -20 12.5t-5 22.5q2 13 12.5 20t23.5 4l78 -13q13 -2 15 11q1 10 -11 14l-162 29l-162 -29q-12 -4 -11 -14q2 -13 15 -11l78 13q13 3 23.5 -4t12.5 -20q2 -12 -5 -22.5t-20 -12.5l-78 -14
q-30 -5 -55.5 12.5t-30.5 47.5t12.5 55t47.5 30zM88 733q61 35 129.5 17t108.5 -80l279 -434q7 -10 4 -22.5t-13 -19.5t-22.5 -4t-19.5 13l-279 434q-27 42 -72 54t-85 -11q-57 -33 -57 -98v-552q0 -12 -9 -21t-22 -9q-12 0 -21 9t-9 21v551q0 47 23.5 88t64.5 64zM666 756
q12 0 21 -9t9 -21v-652q0 -43 -37 -64q-26 -15 -55.5 -7t-44.5 34l-357 553q-18 28 -41 15q-14 -7 -14 -24v-551q0 -12 -8.5 -21t-21.5 -9t-22 9t-9 21v552q2 52 45 76q37 19 70 7.5t52 -42.5l358 -554q6 -12 18 -6q6 4 6 12v651q0 12 9 21t22 9z" />
    <glyph glyph-name="Ohungarumlaut" unicode="&#x150;" 
d="M212 967l78 14q30 5 55.5 -12.5t30.5 -47.5t-12.5 -55t-47.5 -30l-253 -45q-12 -2 -22 5t-12 20t5 23.5t18 12.5l253 44q12 4 11 14q-2 13 -15 11l-78 -13q-13 -3 -23.5 4t-12.5 20q-2 12 5 22.5t20 12.5zM576 967l78 14q30 5 55.5 -12.5t30.5 -47.5t-12.5 -55t-47.5 -30
l-253 -45q-12 -2 -22 5t-12 20t5 23.5t18 12.5l253 44q12 4 11 14q-2 13 -15 11l-78 -13q-13 -3 -23.5 4t-12.5 20q-2 12 5 22.5t20 12.5zM386 681q126 0 214 -88q88 -90 88 -215q0 -12 -8.5 -21t-21.5 -9q-12 0 -21 9t-9 21q0 101 -71 172q-73 71 -171 71q-99 0 -172 -71
q-71 -71 -71 -172q0 -30 -21.5 -52t-52.5 -22t-52.5 22t-21.5 52q0 162 114 276q115 115 276.5 115t276.5 -115q114 -112 114 -276q0 -162 -114 -276t-276 -114q-13 0 -22 8.5t-9 21.5t9 21.5t22 8.5q136 0 233 97t97 233q0 135 -97 234q-97 96 -233.5 96t-233.5 -96
q-96 -98 -96 -234q0 -15 14 -15q13 0 13 15q0 125 88 215q88 88 215 88z" />
    <glyph glyph-name="ohungarumlaut" unicode="&#x151;" 
d="M212 967l78 14q30 5 55.5 -12.5t30.5 -47.5t-12.5 -55t-47.5 -30l-253 -45q-12 -2 -22 5t-12 20t5 23.5t18 12.5l253 44q12 4 11 14q-2 13 -15 11l-78 -13q-13 -3 -23.5 4t-12.5 20q-2 12 5 22.5t20 12.5zM576 967l78 14q30 5 55.5 -12.5t30.5 -47.5t-12.5 -55t-47.5 -30
l-253 -45q-12 -2 -22 5t-12 20t5 23.5t18 12.5l253 44q12 4 11 14q-2 13 -15 11l-78 -13q-13 -3 -23.5 4t-12.5 20q-2 12 5 22.5t20 12.5zM386 769q162 0 276 -114t114 -276q0 -164 -114 -276q-115 -115 -276.5 -115t-276.5 115q-114 114 -114 276q0 31 22.5 52.5t51.5 21.5
q33 0 53.5 -22t20.5 -52q0 -101 71 -172q73 -71 172 -71q98 0 171 71q71 71 71 172q0 12 9 21t21 9q13 0 21.5 -9t8.5 -21q0 -125 -88 -215q-88 -88 -214 -88q-127 0 -215 88q-88 90 -88 215q0 15 -13 15q-14 0 -14 -15q0 -136 96 -234q97 -96 233.5 -96t233.5 96
q97 99 97 234q0 136 -97 233t-233 97q-13 0 -22 8.5t-9 21.5t9 21.5t22 8.5z" />
    <glyph glyph-name="OE" unicode="&#x152;" horiz-adv-x="1372" 
d="M848 756h371q30 0 51.5 -21.5t21.5 -51.5t-20.5 -52t-50.5 -22h-373q-11 0 -19.5 -8t-8.5 -20q0 -11 8.5 -19.5t19.5 -8.5q13 0 22 -8.5t9 -21.5t-9 -22t-22 -9q-37 0 -62.5 26t-25.5 63t25.5 63t62.5 26h371q12 0 12 13q0 12 -12 12h-371q-47 0 -80.5 -33.5t-33.5 -80.5
t33.5 -80.5t80.5 -33.5h269q37 0 63 -26.5t26 -63.5t-26 -62.5t-63 -25.5h-269q-47 0 -80.5 -33.5t-33.5 -80.5t33.5 -80.5t80.5 -33.5h413q13 0 22 -9t9 -22t-9 -21.5t-22 -8.5h-413q-58 0 -104 34.5t-63 88.5q-12 -14 -19 -21q-114 -114 -276 -114q-13 0 -22 8.5t-9 21.5
t9 21.5t22 8.5q136 0 233 97q41 41 72 107q22 44 64 71t93 27h269q12 0 20 8t8 19q0 13 -8 21t-20 8h-269q-52 0 -95.5 29.5t-64.5 76.5q-26 57 -69 100q-97 96 -233.5 96t-233.5 -96q-96 -98 -96 -234q0 -15 14 -15q13 0 13 15q0 125 88 215q88 88 215 88q126 0 214 -88
q88 -90 88 -215q0 -12 -8.5 -21t-21.5 -9q-12 0 -21 9t-9 21q0 101 -71 172q-73 71 -171 71q-99 0 -172 -71q-71 -71 -71 -172q0 -30 -21.5 -52t-52.5 -22t-52.5 22t-21.5 52q0 162 114 276q115 115 276 114.5t277 -114.5q13 -13 19 -20q17 54 63 88t104 34zM848 263h269
q13 0 22 -8.5t9 -21.5t-9 -22t-22 -9h-269q-11 0 -19.5 -8t-8.5 -19q0 -12 8.5 -20t19.5 -8q13 0 21.5 -9t8.5 -22q0 -12 -8.5 -21t-21.5 -9q-37 0 -63 26t-26 63t26 62.5t63 25.5z" />
    <glyph glyph-name="oe" unicode="&#x153;" horiz-adv-x="1374" 
d="M386 769q162 0 276 -114l24 -26q17 56 65.5 91.5t108.5 35.5h362q30 -1 51 -22t21 -51t-21 -52t-51 -22h-366q-15 0 -25.5 -10.5t-10.5 -24.5q0 -15 10.5 -25.5t25.5 -10.5q12 0 21 -8.5t9 -21.5t-9 -22t-21 -9q-40 0 -68.5 28.5t-28.5 68.5t28.5 68t68.5 28h364
q13 0 13 13q0 12 -13 12h-360q-50 0 -86 -35.5t-36 -85.5t36 -86t86 -36h276q13 0 22 -9t9 -21q0 -13 -9 -22t-22 -9h-276q-56 0 -102 31.5t-67 81.5q-24 60 -72 108q-97 97 -233 97q-13 0 -22 8.5t-9 21.5t9 21.5t22 8.5zM69 453q33 0 53.5 -22t20.5 -52q0 -101 71 -172
q73 -71 172 -71q98 0 171 71q71 71 71 172q0 12 9 21t21 9q13 0 21.5 -9t8.5 -21q0 -125 -88 -215q-88 -88 -214 -88q-127 0 -215 88q-88 90 -88 215q0 15 -13 15q-14 0 -14 -15q0 -136 96 -234q97 -96 234 -96.5t233 96.5q49 50 73 109q21 50 67 81t101 31h276q13 0 22 -9
t9 -22t-9 -21.5t-22 -8.5h-276q-50 0 -86 -36t-36 -86t36 -86t86 -36h360q13 0 13 13t-13 13h-364q-40 0 -68.5 28t-28.5 68t28.5 68t68.5 28q12 0 21 -8.5t9 -21.5t-9 -22t-21 -9q-15 0 -25.5 -10t-10.5 -25t10.5 -25t25.5 -10h366q30 0 51 -22t21 -52t-21.5 -52t-50.5 -22
h-362q-61 0 -109 36t-65 93q-16 -18 -24 -26q-115 -115 -276.5 -115t-276.5 115q-114 114 -114 276q0 31 22.5 52.5t51.5 21.5z" />
    <glyph glyph-name="Racute" unicode="&#x154;" horiz-adv-x="698" 
d="M287 967l78 14q30 5 55.5 -12.5t30.5 -47.5t-12.5 -55t-47.5 -30l-253 -45q-12 -2 -22 5t-12 20t5 23.5t18 12.5l253 44q12 4 11 14q-2 13 -15 11l-78 -13q-13 -3 -23.5 4t-12.5 20q-2 12 5 22.5t20 12.5zM30 756h364q93 -1 158.5 -67.5t65.5 -159.5q0 -87 -58.5 -151
t-143.5 -73l181 -180q20 -20 20 -52t-20 -52q-21 -21 -51 -21.5t-51 20.5l-126 126q-9 9 -9 21.5t9 21.5t21.5 9t21.5 -9l124 -124q10 -9 18 -1q9 9 0 18l-232 231q-9 9 -9 21q0 13 9 22t22 9h48q68 0 117 48.5t49 116.5t-49 116.5t-117 48.5h-331v-165q0 -13 -9 -21.5
t-22 -8.5t-21.5 8.5t-8.5 21.5v196q0 12 8.5 21t21.5 9zM393 670q58 0 99 -41t41 -99t-41 -98.5t-99 -40.5h-167q-68 0 -116.5 -48.5t-48.5 -116.5v-196q0 -12 -9 -21t-22 -9t-21.5 9t-8.5 21v196q0 94 66 160t160 66h167q33 0 56 23t23 55q0 33 -23 56t-56 23
q-13 0 -21.5 8.5t-8.5 21.5t8.5 22t21.5 9z" />
    <glyph glyph-name="racute" unicode="&#x155;" horiz-adv-x="697" 
d="M287 967l78 14q30 5 55.5 -12.5t30.5 -47.5t-12.5 -55t-47.5 -30l-253 -45q-12 -2 -22 5t-12 20t5 23.5t18 12.5l253 44q12 4 11 14q-2 13 -15 11l-78 -13q-13 -3 -23.5 4t-12.5 20q-2 12 5 22.5t20 12.5zM30 756h363q93 -1 158.5 -67t65.5 -158v-15q0 -87 -58.5 -151
t-143.5 -73l168 -167q22 -22 22 -52t-22 -52q-20 -20 -50.5 -20.5t-51.5 19.5l-280 280q-9 9 -9 21.5t9 21.5t21.5 9t21.5 -9l279 -279q9 -7 17 0q9 9 0 18l-218 218q-9 8 -9 21t8.5 22t21.5 9h49q68 0 116 48t48 116v15q0 68 -48.5 116t-116.5 48h-330v-665q0 -12 -9 -21
t-22 -9q-12 0 -21 9t-9 21v696q0 12 9 21t21 9zM116 670h276q58 0 99 -40.5t41 -98.5q0 -13 -9 -22t-22 -9t-21.5 9t-8.5 22q0 32 -23 55t-56 23h-246v-579q0 -12 -8.5 -21t-21.5 -9t-22 9t-9 21v610q0 12 9 21t22 9z" />
    <glyph glyph-name="Rcaron" unicode="&#x158;" horiz-adv-x="698" 
d="M279 988l173 -32q30 -5 47.5 -30t12.5 -55t-30.5 -47.5t-55.5 -12.5l-78 14q-13 2 -20 12.5t-5 22.5q2 13 12.5 20t23.5 4l78 -13q13 -2 15 11q1 10 -11 14l-162 29l-162 -29q-12 -4 -11 -14q2 -13 15 -11l78 13q13 3 23.5 -4t12.5 -20q2 -12 -5 -22.5t-20 -12.5l-78 -14
q-30 -5 -55.5 12.5t-30.5 47.5t12.5 55t47.5 30zM30 756h364q93 -1 158.5 -67.5t65.5 -159.5q0 -87 -58.5 -151t-143.5 -73l181 -180q20 -20 20 -52t-20 -52q-21 -21 -51 -21.5t-51 20.5l-126 126q-9 9 -9 21.5t9 21.5t21.5 9t21.5 -9l124 -124q10 -9 18 -1q9 9 0 18
l-232 231q-9 9 -9 21q0 13 9 22t22 9h48q68 0 117 48.5t49 116.5t-49 116.5t-117 48.5h-331v-165q0 -13 -9 -21.5t-22 -8.5t-21.5 8.5t-8.5 21.5v196q0 12 8.5 21t21.5 9zM393 670q58 0 99 -41t41 -99t-41 -98.5t-99 -40.5h-167q-68 0 -116.5 -48.5t-48.5 -116.5v-196
q0 -12 -9 -21t-22 -9t-21.5 9t-8.5 21v196q0 94 66 160t160 66h167q33 0 56 23t23 55q0 33 -23 56t-56 23q-13 0 -21.5 8.5t-8.5 21.5t8.5 22t21.5 9z" />
    <glyph glyph-name="rcaron" unicode="&#x159;" horiz-adv-x="697" 
d="M279 988l173 -32q30 -5 47.5 -30t12.5 -55t-30.5 -47.5t-55.5 -12.5l-78 14q-13 2 -20 12.5t-5 22.5q2 13 12.5 20t23.5 4l78 -13q13 -2 15 11q1 10 -11 14l-162 29l-162 -29q-12 -4 -11 -14q2 -13 15 -11l78 13q13 3 23.5 -4t12.5 -20q2 -12 -5 -22.5t-20 -12.5l-78 -14
q-30 -5 -55.5 12.5t-30.5 47.5t12.5 55t47.5 30zM30 756h363q93 -1 158.5 -67t65.5 -158v-15q0 -87 -58.5 -151t-143.5 -73l168 -167q22 -22 22 -52t-22 -52q-20 -20 -50.5 -20.5t-51.5 19.5l-280 280q-9 9 -9 21.5t9 21.5t21.5 9t21.5 -9l279 -279q9 -7 17 0q9 9 0 18
l-218 218q-9 8 -9 21t8.5 22t21.5 9h49q68 0 116 48t48 116v15q0 68 -48.5 116t-116.5 48h-330v-665q0 -12 -9 -21t-22 -9q-12 0 -21 9t-9 21v696q0 12 9 21t21 9zM116 670h276q58 0 99 -40.5t41 -98.5q0 -13 -9 -22t-22 -9t-21.5 9t-8.5 22q0 32 -23 55t-56 23h-246v-579
q0 -12 -8.5 -21t-21.5 -9t-22 9t-9 21v610q0 12 9 21t22 9z" />
    <glyph glyph-name="Sacute" unicode="&#x15a;" horiz-adv-x="731" 
d="M333 967l78 14q30 5 55.5 -12.5t30.5 -47.5t-12.5 -55t-47.5 -30l-253 -45q-12 -2 -22 5t-12 20t5 23.5t18 12.5l253 44q12 4 11 14q-2 13 -15 11l-78 -13q-13 -3 -23.5 4t-12.5 20q-2 12 5 22.5t20 12.5zM226 756h290q31 0 52.5 -21.5t21.5 -52.5q0 -30 -21.5 -51.5
t-52.5 -21.5h-291q-32 0 -55 -23t-23 -56q0 -32 23 -55t55 -23h200q94 0 160 -66t66 -160q0 -13 -9 -21.5t-21 -8.5q-13 0 -22 8.5t-9 21.5q0 68 -48.5 116.5t-116.5 48.5h-200q-58 0 -98.5 40.5t-40.5 98.5t40.5 99t98.5 41h291q13 0 13 12q0 13 -13 13h-290
q-68 0 -116.5 -48.5t-48.5 -116.5q0 -13 -9 -21.5t-22 -8.5q-12 0 -21 8.5t-9 21.5q0 94 66 160t160 66zM226 365h200q58 0 98.5 -41t40.5 -99t-40.5 -98.5t-98.5 -40.5h-320q-13 0 -13 -13q0 -12 13 -12h319q13 0 21.5 -9t8.5 -22q0 -12 -8.5 -21t-21.5 -9h-319
q-31 0 -52.5 21.5t-21.5 51.5t20.5 52t50.5 22h323q32 0 55 23t23 55q0 33 -23 56t-55 23h-200q-13 0 -21.5 9t-8.5 21q0 13 8.5 22t21.5 9z" />
    <glyph glyph-name="sacute" unicode="&#x15b;" horiz-adv-x="731" 
d="M333 967l78 14q30 5 55.5 -12.5t30.5 -47.5t-12.5 -55t-47.5 -30l-253 -45q-12 -2 -22 5t-12 20t5 23.5t18 12.5l253 44q12 4 11 14q-2 13 -15 11l-78 -13q-13 -3 -23.5 4t-12.5 20q-2 12 5 22.5t20 12.5zM224 756h292q13 0 21.5 -9t8.5 -21q0 -13 -8.5 -22t-21.5 -9
h-290q-68 0 -116.5 -48.5t-48.5 -116.5t48.5 -116.5t116.5 -48.5h200q58 0 98.5 -41t40.5 -99t-40.5 -98.5t-98.5 -40.5h-320q-13 0 -13 -13q0 -12 13 -12h319q68 0 116.5 48.5t48.5 116.5t-48.5 116.5t-116.5 48.5h-200q-58 0 -98.5 40.5t-40.5 98.5q0 13 8.5 22t21.5 9
t21.5 -9t8.5 -22q0 -32 23.5 -55t55.5 -23h200q94 0 160 -66t66 -160t-66 -160t-160 -66h-319q-31 0 -52.5 21.5t-21.5 51.5t21 52t50 22h323q32 0 55.5 23t23.5 55q0 33 -23.5 56t-55.5 23h-200q-94 0 -160 66t-66 160q0 93 66 159t158 67z" />
    <glyph glyph-name="Scedilla" unicode="&#x15e;" horiz-adv-x="731" 
d="M226 756h290q31 0 52.5 -21.5t21.5 -52.5q0 -30 -21.5 -51.5t-52.5 -21.5h-291q-32 0 -55 -23t-23 -56q0 -32 23 -55t55 -23h200q94 0 160 -66t66 -160q0 -13 -9 -21.5t-21 -8.5q-13 0 -22 8.5t-9 21.5q0 68 -48.5 116.5t-116.5 48.5h-200q-58 0 -98.5 40.5t-40.5 98.5
t40.5 99t98.5 41h291q13 0 13 12q0 13 -13 13h-290q-68 0 -116.5 -48.5t-48.5 -116.5q0 -13 -9 -21.5t-22 -8.5q-12 0 -21 8.5t-9 21.5q0 94 66 160t160 66zM226 365h200q58 0 98.5 -41t40.5 -99t-40.5 -98.5t-98.5 -40.5h-320q-13 0 -13 -13q0 -12 13 -12h319q13 0 21.5 -9
t8.5 -22q0 -12 -8.5 -21t-21.5 -9h-42q9 -18 9 -40q0 -42 -29.5 -71.5t-71.5 -29.5q-13 0 -22 8.5t-9 21.5t9 21.5t22 8.5q16 0 28 12t12 29q0 16 -11.5 28t-28.5 12h-185q-31 0 -52.5 21.5t-21.5 51.5t21 52t50 22h323q32 0 55 23t23 55q0 33 -23 56t-55 23h-200
q-13 0 -21.5 9t-8.5 21q0 13 8.5 22t21.5 9z" />
    <glyph glyph-name="scedilla" unicode="&#x15f;" horiz-adv-x="731" 
d="M224 756h292q13 0 21.5 -9t8.5 -21q0 -13 -8.5 -22t-21.5 -9h-290q-68 0 -116.5 -48.5t-48.5 -116.5t48.5 -116.5t116.5 -48.5h200q58 0 98.5 -41t40.5 -99t-40.5 -98.5t-98.5 -40.5h-320q-13 0 -13 -13q0 -5 4 -8.5t9 -3.5h319q68 0 116.5 48.5t48.5 116.5t-48.5 116.5
t-116.5 48.5h-200q-58 0 -98.5 40.5t-40.5 98.5q0 13 8.5 22t21.5 9t21.5 -9t8.5 -22q0 -32 23.5 -55t55.5 -23h200q94 0 160 -66t66 -160t-66 -160t-160 -66h-42q9 -18 9 -40q0 -42 -29.5 -71.5t-71.5 -29.5q-13 0 -22 8.5t-9 21.5t9 21.5t22 8.5q16 0 28 12t12 29
q0 16 -11.5 28t-28.5 12h-185q-31 0 -52.5 21.5t-21.5 51.5t21 52t50 22h323q32 0 55.5 23t23.5 55q0 33 -23.5 56t-55.5 23h-200q-94 0 -160 66t-66 160q0 93 66 159t158 67z" />
    <glyph glyph-name="Scaron" unicode="&#x160;" horiz-adv-x="731" 
d="M309 988l173 -32q30 -5 47.5 -30t12.5 -55t-30.5 -47.5t-55.5 -12.5l-78 14q-13 2 -20 12.5t-5 22.5q2 13 12.5 20t23.5 4l78 -13q13 -2 15 11q1 10 -11 14l-162 29l-162 -29q-12 -4 -11 -14q2 -13 15 -11l78 13q13 3 23.5 -4t12.5 -20q2 -12 -5 -22.5t-20 -12.5l-78 -14
q-30 -5 -55.5 12.5t-30.5 47.5t12.5 55t47.5 30zM226 756h290q31 0 52.5 -21.5t21.5 -52.5q0 -30 -21.5 -51.5t-52.5 -21.5h-291q-32 0 -55 -23t-23 -56q0 -32 23 -55t55 -23h200q94 0 160 -66t66 -160q0 -13 -9 -21.5t-21 -8.5q-13 0 -22 8.5t-9 21.5q0 68 -48.5 116.5
t-116.5 48.5h-200q-58 0 -98.5 40.5t-40.5 98.5t40.5 99t98.5 41h291q13 0 13 12q0 13 -13 13h-290q-68 0 -116.5 -48.5t-48.5 -116.5q0 -13 -9 -21.5t-22 -8.5q-12 0 -21 8.5t-9 21.5q0 94 66 160t160 66zM226 365h200q58 0 98.5 -41t40.5 -99t-40.5 -98.5t-98.5 -40.5
h-320q-13 0 -13 -13q0 -12 13 -12h319q13 0 21.5 -9t8.5 -22q0 -12 -8.5 -21t-21.5 -9h-319q-31 0 -52.5 21.5t-21.5 51.5t20.5 52t50.5 22h323q32 0 55 23t23 55q0 33 -23 56t-55 23h-200q-13 0 -21.5 9t-8.5 21q0 13 8.5 22t21.5 9z" />
    <glyph glyph-name="scaron" unicode="&#x161;" horiz-adv-x="731" 
d="M309 988l173 -32q30 -5 47.5 -30t12.5 -55t-30.5 -47.5t-55.5 -12.5l-78 14q-13 2 -20 12.5t-5 22.5q2 13 12.5 20t23.5 4l78 -13q13 -2 15 11q1 10 -11 14l-162 29l-162 -29q-12 -4 -11 -14q2 -13 15 -11l78 13q13 3 23.5 -4t12.5 -20q2 -12 -5 -22.5t-20 -12.5l-78 -14
q-30 -5 -55.5 12.5t-30.5 47.5t12.5 55t47.5 30zM224 756h292q13 0 21.5 -9t8.5 -21q0 -13 -8.5 -22t-21.5 -9h-290q-68 0 -116.5 -48.5t-48.5 -116.5t48.5 -116.5t116.5 -48.5h200q58 0 98.5 -41t40.5 -99t-40.5 -98.5t-98.5 -40.5h-320q-13 0 -13 -13q0 -12 13 -12h319
q68 0 116.5 48.5t48.5 116.5t-48.5 116.5t-116.5 48.5h-200q-58 0 -98.5 40.5t-40.5 98.5q0 13 8.5 22t21.5 9t21.5 -9t8.5 -22q0 -32 23.5 -55t55.5 -23h200q94 0 160 -66t66 -160t-66 -160t-160 -66h-319q-31 0 -52.5 21.5t-21.5 51.5t21 52t50 22h323q32 0 55.5 23
t23.5 55q0 33 -23.5 56t-55.5 23h-200q-94 0 -160 66t-66 160q0 93 66 159t158 67z" />
    <glyph glyph-name="Tcedilla" unicode="&#x162;" horiz-adv-x="783" 
d="M30 756h643q12 0 21 -9t9 -22t-9 -21.5t-21 -8.5h-643q-12 0 -21 8.5t-9 21.5t9 22t21 9zM30 669h220q37 0 63 -25.5t26 -62.5v-562q31 -10 50.5 -36t19.5 -60q0 -42 -29.5 -71.5t-71.5 -29.5q-13 0 -22 8.5t-9 21.5t9 21.5t22 8.5q16 0 28 12t12 29t-12 28.5t-28 11.5
q-12 0 -21 9t-9 22v587q0 11 -8.5 19t-19.5 8h-220q-12 0 -21 9t-9 22t9 21.5t21 8.5zM453 669h220q12 0 21 -8.5t9 -21.5t-9 -22t-21 -9h-220q-11 0 -19.5 -8t-8.5 -19v-551q0 -13 -8.5 -21.5t-21.5 -8.5t-22 8.5t-9 21.5v551q0 37 26 62.5t63 25.5z" />
    <glyph glyph-name="tcedilla" unicode="&#x163;" horiz-adv-x="783" 
d="M453 756h177q30 0 51.5 -21.5t21.5 -51.5q0 -31 -21.5 -52.5t-52.5 -21.5h-204v-578q0 -13 -8.5 -22t-21.5 -9t-22 9t-9 22v578h-25v-590q30 -10 49 -36t19 -59q0 -42 -29.5 -71.5t-71.5 -29.5q-13 0 -22 8.5t-9 21.5t9 21.5t22 8.5q16 0 28 12t12 29t-12 28.5t-29 11.5
q-12 1 -19.5 10t-7.5 21v614h-248q-12 0 -21 9t-9 22q0 12 9 21t21 9h248q-1 11 -9 18.5t-19 7.5h-220q-12 0 -21 8.5t-9 21.5t9 21.5t21 8.5h220q36 0 62 -25t27 -61h25q2 36 27.5 61t61.5 25zM629 695l-176 1q-11 0 -19 -7.5t-9 -18.5h204q13 0 13 13q0 12 -13 12z" />
    <glyph glyph-name="Tcaron" unicode="&#x164;" horiz-adv-x="783" 
d="M352 988l173 -32q30 -5 47.5 -30t12.5 -55t-30.5 -47.5t-55.5 -12.5l-78 14q-13 2 -20 12.5t-5 22.5q2 13 12.5 20t23.5 4l78 -13q13 -2 15 11q1 10 -11 14l-162 29l-162 -29q-12 -4 -11 -14q2 -13 15 -11l78 13q13 3 23.5 -4t12.5 -20q2 -12 -5 -22.5t-20 -12.5l-78 -14
q-30 -5 -55.5 12.5t-30.5 47.5t12.5 55t47.5 30zM30 756h643q12 0 21 -9t9 -21q0 -13 -9 -22t-21 -9h-643q-12 0 -21 9t-9 22q0 12 9 21t21 9zM30 670h220q37 0 63 -26t26 -63v-551q0 -12 -9 -21t-22 -9q-12 0 -21 9t-9 21v551q0 11 -8.5 19.5t-19.5 8.5h-220q-12 0 -21 8.5
t-9 21.5t9 22t21 9zM453 670h220q12 0 21 -9t9 -22t-9 -21.5t-21 -8.5h-220q-11 0 -19.5 -8.5t-8.5 -19.5v-551q0 -12 -8.5 -21t-21.5 -9t-22 9t-9 21v551q0 37 26 63t63 26z" />
    <glyph glyph-name="tcaron" unicode="&#x165;" horiz-adv-x="783" 
d="M352 988l173 -32q30 -5 47.5 -30t12.5 -55t-30.5 -47.5t-55.5 -12.5l-78 14q-13 2 -20 12.5t-5 22.5q2 13 12.5 20t23.5 4l78 -13q13 -2 15 11q1 10 -11 14l-162 29l-162 -29q-12 -4 -11 -14q2 -13 15 -11l78 13q13 3 23.5 -4t12.5 -20q2 -12 -5 -22.5t-20 -12.5l-78 -14
q-30 -5 -55.5 12.5t-30.5 47.5t12.5 55t47.5 30zM453 756h177q30 0 51.5 -21.5t21.5 -52.5q0 -30 -21.5 -51.5t-52.5 -21.5h-204v-579q0 -12 -8.5 -21t-21.5 -9t-22 9t-9 21v579h-25v-579q0 -12 -9 -21t-22 -9q-12 0 -21 9t-9 21v579h-248q-12 0 -21 8.5t-9 21.5t9 22t21 9
h248q-1 11 -9 18t-19 7h-220q-12 0 -21 9t-9 22q0 12 9 21t21 9h220q36 0 62 -25.5t27 -60.5h25q2 36 27.5 61t61.5 25zM629 695h-176q-11 0 -19 -7t-9 -18h204q13 0 13 12q0 13 -13 13z" />
    <glyph glyph-name="Uring" unicode="&#x16e;" horiz-adv-x="740" 
d="M330 1008q42 0 71.5 -30t29.5 -72t-29.5 -71.5t-71.5 -29.5t-71.5 29.5t-29.5 71.5t29.5 72t71.5 30zM330 947q-16 0 -28.5 -12.5t-12.5 -28.5t12 -28t29 -12q16 0 28 12t12 28q0 17 -12 29t-28 12zM587 756q30 0 51 -21t22 -51v-366q0 -137 -97 -234q-96 -96 -233 -96
t-233 96q-97 97 -97 234q0 12 8.5 21t21.5 9q12 0 21 -9t9 -21q0 -112 79 -191t191 -79t191 79t79 191v365q0 13 -13 13q-14 0 -14 -13v-365q0 -101 -71 -172t-172 -71t-172 71t-71 172v408q0 13 8.5 21.5t20.5 8.5q13 0 21.5 -8.5t8.5 -21.5v-408q0 -76 54 -130t130 -54
t130 54q54 56 54 130v366q0 30 21.5 51t51.5 21z" />
    <glyph glyph-name="uring" unicode="&#x16f;" horiz-adv-x="740" 
d="M330 1008q42 0 71.5 -30t29.5 -72t-29.5 -71.5t-71.5 -29.5t-71.5 29.5t-29.5 71.5t29.5 72t71.5 30zM330 947q-16 0 -28.5 -12.5t-12.5 -28.5t12 -28t29 -12q16 0 28 12t12 28q0 17 -12 29t-28 12zM630 756q13 0 21.5 -8.5t8.5 -21.5v-408q0 -137 -97 -234
q-96 -96 -233 -96t-233 96q-97 97 -97 234v365q0 30 21.5 51.5t51.5 21.5q31 0 52 -21.5t21 -51.5v-365q0 -76 54 -130t130 -54t130 54q54 56 54 130q0 12 8.5 21t20.5 9q13 0 21.5 -9t8.5 -21q0 -101 -71 -172t-172 -71t-172 71t-71 172v365q0 13 -14 13q-13 0 -13 -13
v-365q0 -112 79 -191t191 -79t191 79t79 191v408q0 13 9 21.5t21 8.5z" />
    <glyph glyph-name="Uhungarumlaut" unicode="&#x170;" horiz-adv-x="765" 
d="M156 967l78 14q30 5 55.5 -12.5t30.5 -47.5t-12.5 -55t-47.5 -30l-253 -45q-12 -2 -22 5t-12 20t5 23.5t18 12.5l253 44q12 4 11 14q-2 13 -15 11l-78 -13q-13 -3 -23.5 4t-12.5 20q-2 12 5 22.5t20 12.5zM520 967l78 14q30 5 55.5 -12.5t30.5 -47.5t-12.5 -55t-47.5 -30
l-253 -45q-12 -2 -22 5t-12 20t5 23.5t18 12.5l253 44q12 4 11 14q-2 13 -15 11l-78 -13q-13 -3 -23.5 4t-12.5 20q-2 12 5 22.5t20 12.5zM587 756q30 0 51 -21t22 -51v-366q0 -137 -97 -234q-96 -96 -233 -96t-233 96q-97 97 -97 234q0 12 8.5 21t21.5 9q12 0 21 -9t9 -21
q0 -112 79 -191t191 -79t191 79t79 191v365q0 13 -13 13q-14 0 -14 -13v-365q0 -101 -71 -172t-172 -71t-172 71t-71 172v408q0 13 8.5 21.5t20.5 8.5q13 0 21.5 -8.5t8.5 -21.5v-408q0 -76 54 -130t130 -54t130 54q54 56 54 130v366q0 30 21.5 51t51.5 21z" />
    <glyph glyph-name="uhungarumlaut" unicode="&#x171;" horiz-adv-x="765" 
d="M156 967l78 14q30 5 55.5 -12.5t30.5 -47.5t-12.5 -55t-47.5 -30l-253 -45q-12 -2 -22 5t-12 20t5 23.5t18 12.5l253 44q12 4 11 14q-2 13 -15 11l-78 -13q-13 -3 -23.5 4t-12.5 20q-2 12 5 22.5t20 12.5zM520 967l78 14q30 5 55.5 -12.5t30.5 -47.5t-12.5 -55t-47.5 -30
l-253 -45q-12 -2 -22 5t-12 20t5 23.5t18 12.5l253 44q12 4 11 14q-2 13 -15 11l-78 -13q-13 -3 -23.5 4t-12.5 20q-2 12 5 22.5t20 12.5zM630 756q13 0 21.5 -8.5t8.5 -21.5v-408q0 -137 -97 -234q-96 -96 -233 -96t-233 96q-97 97 -97 234v365q0 30 21.5 51.5t51.5 21.5
q31 0 52 -21.5t21 -51.5v-365q0 -76 54 -130t130 -54t130 54q54 56 54 130q0 12 8.5 21t20.5 9q13 0 21.5 -9t8.5 -21q0 -101 -71 -172t-172 -71t-172 71t-71 172v365q0 13 -14 13q-13 0 -13 -13v-365q0 -112 79 -191t191 -79t191 79t79 191v408q0 13 9 21.5t21 8.5z" />
    <glyph glyph-name="Wcircumflex" unicode="&#x174;" horiz-adv-x="1170" 
d="M788 967l78 14q30 5 55.5 -12.5t30.5 -47.5t-12.5 -55t-47.5 -30l-173 -32l-173 32q-30 5 -47.5 30t-12.5 55t30.5 47.5t55.5 12.5l78 -14q13 -2 20 -12.5t5 -22.5q-2 -13 -12.5 -20t-23.5 -4l-78 13q-13 2 -15 -11q-1 -10 11 -14l162 -29l162 29q12 4 11 14
q-2 13 -15 11l-78 -13q-13 -3 -23.5 4t-12.5 20q-2 12 5 22.5t20 12.5zM1060 756q13 0 21.5 -8.5t8.5 -20.5v-556q0 -71 -50.5 -121t-121.5 -50t-121.5 50.5t-49.5 120.5v413q0 11 -8.5 19.5t-19.5 8.5t-19 -8.5t-8 -19.5v-412q0 -46 -23 -86t-63 -63q-59 -34 -127 -16.5
t-107 77.5l-362 563q-15 26 -7.5 55t33.5 44q24 15 53.5 8.5t44.5 -33.5l360 -558q15 -27 39 -15q13 6 15 23v413q0 71 50 121.5t121 50.5t121.5 -50.5t50.5 -121.5v-413q0 -12 -8.5 -20.5t-21.5 -8.5q-12 0 -21 8.5t-9 20.5v413q0 46 -32.5 79t-79.5 33q-46 0 -79 -33
t-33 -79v-413q0 -50 -43 -75q-37 -18 -69 -7t-52 41l-361 561q-8 12 -18 5t-3 -17l361 -562q26 -41 70.5 -53t83.5 10q56 32 56 97v413q0 36 25.5 61.5t61.5 25.5t61.5 -25.5t25.5 -61.5v-413q0 -46 33 -79t79 -33t79 33t33 79v556q0 12 9 20.5t21 8.5z" />
    <glyph glyph-name="wcircumflex" unicode="&#x175;" horiz-adv-x="1037" 
d="M548 967l78 14q30 5 55.5 -12.5t30.5 -47.5t-12.5 -55t-47.5 -30l-173 -32l-173 32q-30 5 -47.5 30t-12.5 55t30.5 47.5t55.5 12.5l78 -14q13 -2 20 -12.5t5 -22.5q-2 -13 -12.5 -20t-23.5 -4l-78 13q-13 2 -15 -11q-1 -10 11 -14l162 -29l162 29q12 4 11 14
q-2 13 -15 11l-78 -13q-13 -3 -23.5 4t-12.5 20q-2 12 5 22.5t20 12.5zM86 22q-41 24 -64 65t-23 88v551q0 12 9 21t21 9q13 0 22 -9t9 -21v-552q0 -66 57 -99q40 -23 85 -10.5t72 53.5l359 558q7 12 -4 18t-18 -6l-359 -556q-20 -30 -52.5 -41.5t-69.5 6.5q-45 26 -45 77
v552q0 12 9 21t22 9q12 0 21 -9t9 -21v-550q0 -18 15 -25q25 -12 43 17l356 554q15 24 43.5 31.5t55.5 -7.5q25 -14 34 -44t-6 -55l-362 -562q-40 -61 -109 -79.5t-130 16.5zM867 22q-61 -35 -129.5 -16.5t-108.5 79.5l-111 172q-7 10 -4 22.5t14 19.5q10 7 22.5 4t19.5 -13
l110 -172q27 -41 71.5 -53.5t85.5 10.5q57 33 57 99v552q0 12 8.5 21t21.5 9t22 -9t9 -21v-551q0 -47 -23.5 -88t-64.5 -65zM824 97q-37 -18 -70 -6.5t-53 41.5l-130 203q-7 11 -4.5 23t13.5 19q10 7 22.5 4t19.5 -13l131 -203q18 -28 41 -15q14 9 14 24v552q0 12 8.5 21
t21.5 9t21.5 -9t8.5 -21v-553q0 -50 -44 -76z" />
    <glyph glyph-name="Ydieresis" unicode="&#x178;" horiz-adv-x="837" 
d="M265 953q30 0 51.5 -21.5t21.5 -52.5t-21.5 -52.5t-51.5 -21.5q-31 0 -52.5 21.5t-21.5 52.5t21.5 52.5t52.5 21.5zM492 953q30 0 51.5 -21.5t21.5 -52.5t-21.5 -52.5t-51.5 -21.5q-31 0 -52.5 21.5t-21.5 52.5t21.5 52.5t52.5 21.5zM264 895q-6 0 -11 -4.5t-5 -11.5
t5 -11.5t11 -4.5q16 0 16 16t-16 16zM491 895q-6 0 -11 -4.5t-5 -11.5t5 -11.5t11 -4.5q16 0 16 16t-16 16zM22 735q20 21 51.5 21t51.5 -21l212 -212q9 -9 9 -21.5t-9 -21.5t-21.5 -9t-21.5 9l-210 210q-10 10 -19 2q-9 -9 0 -18l253 -253l314 314q20 21 51.5 21t52.5 -21
q22 -23 21 -53.5t-21 -50.5l-302 -301v-300q0 -12 -8.5 -21t-21.5 -9t-22 9t-9 21v311q0 14 10 24l309 309q9 9 0 18q-8 9 -17 0l-327 -327v-335q0 -12 -9 -21t-22 -9q-12 0 -21 9t-9 21v336l-265 265q-22 24 -21 54t21 50z" />
    <glyph glyph-name="Zacute" unicode="&#x179;" horiz-adv-x="685" 
d="M339 967l78 14q30 5 55.5 -12.5t30.5 -47.5t-12.5 -55t-47.5 -30l-253 -45q-12 -2 -22 5t-12 20t5 23.5t18 12.5l253 44q12 4 11 14q-2 13 -15 11l-78 -13q-13 -3 -23.5 4t-12.5 20q-2 12 5 22.5t20 12.5zM61 756h369q47 0 88 -23.5t65 -64.5q35 -60 16.5 -129
t-79.5 -109l-354 -228q-29 -17 -15 -41q7 -14 24 -14h369q13 0 22 -8.5t9 -21.5t-9 -22t-22 -9h-370q-50 2 -76 45q-18 37 -6.5 69.5t41.5 52.5l354 228q41 27 53.5 71.5t-10.5 85.5q-33 57 -99 57h-370q-12 0 -21 9t-9 22q0 12 9 21t21 9zM61 670h370q51 -2 77 -45
q18 -37 6.5 -69.5t-41.5 -52.5q-8 -7 -21.5 -4t-20.5 13t-4 22.5t13 19.5q28 18 15 41q-9 14 -24 14h-370q-12 0 -21 8.5t-9 21.5t9 22t21 9zM86 326q10 7 22.5 4t19.5 -13t4 -22.5t-13 -19.5q-42 -27 -54 -72t11 -85q33 -57 99 -57h369q13 0 22 -9t9 -22q0 -12 -9 -21
t-22 -9h-369q-47 0 -88 23.5t-64 64.5q-35 60 -17 129t80 109z" />
    <glyph glyph-name="zacute" unicode="&#x17a;" horiz-adv-x="685" 
d="M339 967l78 14q30 5 55.5 -12.5t30.5 -47.5t-12.5 -55t-47.5 -30l-253 -45q-12 -2 -22 5t-12 20t5 23.5t18 12.5l253 44q12 4 11 14q-2 13 -15 11l-78 -13q-13 -3 -23.5 4t-12.5 20q-2 12 5 22.5t20 12.5zM61 756h367q47 1 88.5 -23t65.5 -65q35 -60 17 -128.5
t-80 -107.5l-356 -232q-21 -14 -16.5 -33.5t29.5 -19.5h325q31 0 52 -21.5t21 -51.5t-21 -52t-51 -22h-328q-47 0 -87.5 23.5t-63.5 64.5q-35 60 -17 129t80 109l354 228q27 17 15 41q-9 14 -24 14q-13 0 -22 9t-9 21q1 13 9.5 22t21.5 9q52 -2 76 -45q19 -37 7.5 -69.5
t-41.5 -52.5l-356 -229q-40 -27 -52.5 -71.5t10.5 -84.5q34 -57 98 -57h328q12 0 12 13q0 12 -13 12h-326q-51 2 -77 45q-18 37 -6.5 69.5t41.5 52.5l354 228q42 27 54 72t-11 85q-33 57 -97 57h-371q-13 0 -22 9t-9 22q0 12 9 21t22 9z" />
    <glyph glyph-name="Zdotaccent" unicode="&#x17b;" horiz-adv-x="685" 
d="M334 953q30 0 51.5 -21.5t21.5 -52.5t-21.5 -52.5t-51.5 -21.5q-31 0 -52.5 21.5t-21.5 52.5t21.5 52.5t52.5 21.5zM333 895q-6 0 -11 -4.5t-5 -11.5t5 -11.5t11 -4.5q16 0 16 16t-16 16zM61 756h369q47 0 88 -23.5t65 -64.5q35 -60 16.5 -129t-79.5 -109l-354 -228
q-29 -17 -15 -41q7 -14 24 -14h369q13 0 22 -8.5t9 -21.5t-9 -22t-22 -9h-370q-50 2 -76 45q-18 37 -6.5 69.5t41.5 52.5l354 228q41 27 53.5 71.5t-10.5 85.5q-33 57 -99 57h-370q-12 0 -21 9t-9 22q0 12 9 21t21 9zM61 670h370q51 -2 77 -45q18 -37 6.5 -69.5t-41.5 -52.5
q-8 -7 -21.5 -4t-20.5 13t-4 22.5t13 19.5q28 18 15 41q-9 14 -24 14h-370q-12 0 -21 8.5t-9 21.5t9 22t21 9zM86 326q10 7 22.5 4t19.5 -13t4 -22.5t-13 -19.5q-42 -27 -54 -72t11 -85q33 -57 99 -57h369q13 0 22 -9t9 -22q0 -12 -9 -21t-22 -9h-369q-47 0 -88 23.5
t-64 64.5q-35 60 -17 129t80 109z" />
    <glyph glyph-name="zdotaccent" unicode="&#x17c;" horiz-adv-x="685" 
d="M303 953q30 0 51.5 -21.5t21.5 -52.5t-21.5 -52.5t-51.5 -21.5q-31 0 -52.5 21.5t-21.5 52.5t21.5 52.5t52.5 21.5zM303 892q-13 0 -13 -13t13 -13q12 0 12 13t-12 13zM61 756h367q47 1 88.5 -23t65.5 -65q35 -60 17 -128.5t-80 -107.5l-356 -232q-21 -14 -16.5 -33.5
t29.5 -19.5h325q31 0 52 -21.5t21 -51.5t-21 -52t-51 -22h-328q-47 0 -87.5 23.5t-63.5 64.5q-35 60 -17 129t80 109l354 228q27 17 15 41q-9 14 -24 14q-13 0 -22 9t-9 21q1 13 9.5 22t21.5 9q52 -2 76 -45q19 -37 7.5 -69.5t-41.5 -52.5l-356 -229q-40 -27 -52.5 -71.5
t10.5 -84.5q34 -57 98 -57h328q12 0 12 13q0 12 -13 12h-326q-51 2 -77 45q-18 37 -6.5 69.5t41.5 52.5l354 228q42 27 54 72t-11 85q-33 57 -97 57h-371q-13 0 -22 9t-9 22q0 12 9 21t22 9z" />
    <glyph glyph-name="Zcaron" unicode="&#x17d;" horiz-adv-x="685" 
d="M320 988l173 -32q30 -5 47.5 -30t12.5 -55t-30.5 -47.5t-55.5 -12.5l-78 14q-13 2 -20 12.5t-5 22.5q2 13 12.5 20t23.5 4l78 -13q13 -2 15 11q1 10 -11 14l-162 29l-162 -29q-12 -4 -11 -14q2 -13 15 -11l78 13q13 3 23.5 -4t12.5 -20q2 -12 -5 -22.5t-20 -12.5l-78 -14
q-30 -5 -55.5 12.5t-30.5 47.5t12.5 55t47.5 30zM61 756h369q47 0 88 -23.5t65 -64.5q35 -60 16.5 -129t-79.5 -109l-354 -228q-29 -17 -15 -41q7 -14 24 -14h369q13 0 22 -8.5t9 -21.5t-9 -22t-22 -9h-370q-50 2 -76 45q-18 37 -6.5 69.5t41.5 52.5l354 228
q41 27 53.5 71.5t-10.5 85.5q-33 57 -99 57h-370q-12 0 -21 9t-9 22q0 12 9 21t21 9zM61 670h370q51 -2 77 -45q18 -37 6.5 -69.5t-41.5 -52.5q-8 -7 -21.5 -4t-20.5 13t-4 22.5t13 19.5q28 18 15 41q-9 14 -24 14h-370q-12 0 -21 8.5t-9 21.5t9 22t21 9zM86 326
q10 7 22.5 4t19.5 -13t4 -22.5t-13 -19.5q-42 -27 -54 -72t11 -85q33 -57 99 -57h369q13 0 22 -9t9 -22q0 -12 -9 -21t-22 -9h-369q-47 0 -88 23.5t-64 64.5q-35 60 -17 129t80 109z" />
    <glyph glyph-name="zcaron" unicode="&#x17e;" horiz-adv-x="685" 
d="M289 988l173 -32q30 -5 47.5 -30t12.5 -55t-30.5 -47.5t-55.5 -12.5l-78 14q-13 2 -20 12.5t-5 22.5q2 13 12.5 20t23.5 4l78 -13q13 -2 15 11q1 10 -11 14l-162 29l-162 -29q-12 -4 -11 -14q2 -13 15 -11l78 13q13 3 23.5 -4t12.5 -20q2 -12 -5 -22.5t-20 -12.5l-78 -14
q-30 -5 -55.5 12.5t-30.5 47.5t12.5 55t47.5 30zM61 756h367q47 1 88.5 -23t65.5 -65q35 -60 17 -128.5t-80 -107.5l-356 -232q-21 -14 -16.5 -33.5t29.5 -19.5h325q31 0 52 -21.5t21 -51.5t-21 -52t-51 -22h-328q-47 0 -87.5 23.5t-63.5 64.5q-35 60 -17 129t80 109
l354 228q27 17 15 41q-9 14 -24 14q-13 0 -22 9t-9 21q1 13 9.5 22t21.5 9q52 -2 76 -45q19 -37 7.5 -69.5t-41.5 -52.5l-356 -229q-40 -27 -52.5 -71.5t10.5 -84.5q34 -57 98 -57h328q12 0 12 13q0 12 -13 12h-326q-51 2 -77 45q-18 37 -6.5 69.5t41.5 52.5l354 228
q42 27 54 72t-11 85q-33 57 -97 57h-371q-13 0 -22 9t-9 22q0 12 9 21t22 9z" />
    <glyph glyph-name="Scommaaccent" unicode="&#x218;" horiz-adv-x="731" 
d="M225 452h200q94 0 160 -66t66 -160q0 -13 -9 -21.5t-21 -8.5q-13 0 -22 8.5t-9 21.5q0 68 -48.5 116.5t-116.5 48.5h-200q-58 0 -98.5 40.5t-40.5 98.5t40.5 99t98.5 41h291q13 0 13 12q0 13 -13 13h-290q-68 0 -116.5 -48.5t-48.5 -116.5q0 -13 -9 -21.5t-22 -8.5
q-12 0 -21 8.5t-9 21.5q0 94 66 160t160 66h290q31 0 52.5 -21.5t21.5 -52.5q0 -30 -21.5 -51.5t-52.5 -21.5h-291q-32 0 -55 -23t-23 -56q0 -32 23 -55t55 -23zM226 365h200q58 0 98.5 -41t40.5 -99t-40.5 -98.5t-98.5 -40.5h-320q-13 0 -13 -13q0 -12 13 -12h319
q13 0 21.5 -9t8.5 -22q0 -12 -8.5 -21t-21.5 -9h-319q-31 0 -52.5 21.5t-21.5 51.5t20.5 52t50.5 22h323q32 0 55 23t23 55q0 33 -23 56t-55 23h-200q-13 0 -21.5 9t-8.5 21q0 13 8.5 22t21.5 9zM257 -72l17 17q22 22 52 22t52 -22t22 -52t-22 -52l-72 -72q-9 -9 -21.5 -9
t-21.5 9t-9 22t9 21l72 72q9 9 0 18t-18 0l-17 -17q-9 -9 -21.5 -8.5t-21.5 9.5q-8 8 -8.5 20.5t8.5 21.5z" />
    <glyph glyph-name="scommaaccent" unicode="&#x219;" horiz-adv-x="731" 
d="M225 452h200q94 0 160 -66t66 -160t-66 -160t-160 -66h-319q-31 0 -52.5 21.5t-21.5 51.5t21 52t50 22h323q32 0 55.5 23t23.5 55q0 33 -23.5 56t-55.5 23h-200q-94 0 -160 66t-66 160q0 93 66 159t158 67h292q13 0 21.5 -9t8.5 -21q0 -13 -8.5 -22t-21.5 -9h-290
q-68 0 -116.5 -48.5t-48.5 -116.5t48.5 -116.5t116.5 -48.5h200q58 0 98.5 -41t40.5 -99t-40.5 -98.5t-98.5 -40.5h-320q-13 0 -13 -13q0 -12 13 -12h319q68 0 116.5 48.5t48.5 116.5t-48.5 116.5t-116.5 48.5h-200q-58 0 -98.5 40.5t-40.5 98.5q0 13 8.5 22t21.5 9t21.5 -9
t8.5 -22q0 -32 23.5 -55t55.5 -23zM257 -72l17 17q22 22 52 22t52 -22t22 -52t-22 -52l-72 -72q-9 -9 -21.5 -9t-21.5 9t-9 22t9 21l72 72q9 9 0 18t-18 0l-17 -17q-9 -9 -21.5 -8.5t-21.5 9.5q-8 8 -8.5 20.5t8.5 21.5z" />
    <glyph glyph-name="uni021A" unicode="&#x21a;" horiz-adv-x="783" 
d="M673 695h-643q-12 0 -21 9t-9 22q0 12 9 21t21 9h643q12 0 21 -9t9 -21q0 -13 -9 -22t-21 -9zM278 30v551q0 11 -8.5 19.5t-19.5 8.5h-220q-12 0 -21 8.5t-9 21.5t9 22t21 9h220q37 0 63 -26t26 -63v-551q0 -12 -9 -21t-22 -9q-12 0 -21 9t-9 21zM453 670h220q12 0 21 -9
t9 -22t-9 -21.5t-21 -8.5h-220q-11 0 -19.5 -8.5t-8.5 -19.5v-551q0 -12 -8.5 -21t-21.5 -9t-22 9t-9 21v551q0 37 26 63t63 26zM284 -72l17 17q22 22 52 22t52 -22t22 -52t-22 -52l-72 -72q-9 -9 -21.5 -9t-21.5 9t-9 22t9 21l72 72q9 9 0 18t-18 0l-17 -17
q-9 -9 -21.5 -8.5t-21.5 9.5q-8 8 -8.5 20.5t8.5 21.5z" />
    <glyph glyph-name="uni021B" unicode="&#x21b;" horiz-adv-x="783" 
d="M453 756h177q30 0 51.5 -21.5t21.5 -52.5q0 -30 -21.5 -51.5t-52.5 -21.5h-204v-579q0 -12 -8.5 -21t-21.5 -9t-22 9t-9 21v579h-25v-579q0 -12 -9 -21t-22 -9q-12 0 -21 9t-9 21v579h-248q-12 0 -21 8.5t-9 21.5t9 22t21 9h248q-1 11 -9 18t-19 7h-220q-12 0 -21 9
t-9 22q0 12 9 21t21 9h220q36 0 62 -25.5t27 -60.5h25q2 36 27.5 61t61.5 25zM425 670h204q13 0 13 12q0 13 -13 13h-176q-11 0 -19 -7t-9 -18zM284 -72l17 17q22 22 52 22t52 -22t22 -52t-22 -52l-72 -72q-9 -9 -21.5 -9t-21.5 9t-9 22t9 21l72 72q9 9 0 18t-18 0l-17 -17
q-9 -9 -21.5 -8.5t-21.5 9.5q-8 8 -8.5 20.5t8.5 21.5z" />
    <glyph glyph-name="circumflex" unicode="&#x2c6;" horiz-adv-x="548" 
d="M303 742l78 14q30 5 55.5 -12.5t30.5 -47.5t-12.5 -55t-47.5 -30l-173 -32l-173 32q-30 5 -47.5 30t-12.5 55t30.5 47.5t55.5 12.5l78 -14q13 -2 20 -12.5t5 -22.5q-2 -13 -12.5 -20t-23.5 -4l-78 13q-13 2 -15 -11q-1 -10 11 -14l162 -29l162 29q12 4 11 14
q-2 13 -15 11l-78 -13q-13 -3 -23.5 4t-12.5 20q-2 12 5 22.5t20 12.5z" />
    <glyph glyph-name="tilde" unicode="&#x2dc;" horiz-adv-x="548" 
d="M314 756h80q31 0 52.5 -21.5t21.5 -52.5q0 -30 -21.5 -51.5t-52.5 -21.5h-320q-13 0 -13 -12q0 -13 13 -13h80q13 0 21.5 -9t8.5 -22q0 -12 -8.5 -21t-21.5 -9h-80q-31 0 -52.5 21.5t-21.5 52.5q0 30 21.5 51.5t52.5 21.5h320q13 0 13 12q0 13 -13 13h-80q-13 0 -21.5 9
t-8.5 22q0 12 8.5 21t21.5 9z" />
    <glyph glyph-name="Etilde" unicode="&#x1ebc;" horiz-adv-x="699" 
d="M389 1038h80q31 0 52.5 -21.5t21.5 -52.5q0 -30 -21.5 -51.5t-52.5 -21.5h-320q-13 0 -13 -12q0 -13 13 -13h80q13 0 21.5 -9t8.5 -22q0 -12 -8.5 -21t-21.5 -9h-80q-31 0 -52.5 21.5t-21.5 52.5q0 30 21.5 51.5t52.5 21.5h320q13 0 13 12q0 13 -13 13h-80q-13 0 -21.5 9
t-8.5 22q0 12 8.5 21t21.5 9zM175 756h371q30 0 51.5 -21.5t21.5 -51.5t-20.5 -52t-50.5 -22h-373q-11 0 -19.5 -8t-8.5 -20q0 -11 8.5 -19.5t19.5 -8.5q13 0 22 -8.5t9 -21.5t-9 -22t-22 -9q-37 0 -62.5 26t-25.5 63t25.5 63t62.5 26h371q12 0 12 13q0 12 -12 12h-371
q-47 0 -80.5 -33.5t-33.5 -80.5t33.5 -80.5t80.5 -33.5h269q37 0 63 -26.5t26 -63.5t-26 -62.5t-63 -25.5h-269q-47 0 -80.5 -33.5t-33.5 -80.5t33.5 -80.5t80.5 -33.5h413q13 0 22 -9t9 -22t-9 -21.5t-22 -8.5h-413q-73 0 -124 51t-51 124q0 72 51 123.5t124 51.5h269
q12 0 20 8t8 19q0 13 -8 21t-20 8h-269q-72 0 -123.5 51.5t-51.5 123.5q0 73 51.5 124t123.5 51zM175 263h269q13 0 22 -8.5t9 -21.5t-9 -22t-22 -9h-269q-11 0 -19.5 -8t-8.5 -19q0 -12 8.5 -20t19.5 -8q13 0 21.5 -9t8.5 -22q0 -12 -8.5 -21t-21.5 -9q-37 0 -63 26t-26 63
t26 62.5t63 25.5z" />
    <glyph glyph-name="etilde" unicode="&#x1ebd;" horiz-adv-x="696" 
d="M388 1038h80q31 0 52.5 -21.5t21.5 -52.5q0 -30 -21.5 -51.5t-52.5 -21.5h-320q-13 0 -13 -12q0 -13 13 -13h80q13 0 21.5 -9t8.5 -22q0 -12 -8.5 -21t-21.5 -9h-80q-31 0 -52.5 21.5t-21.5 52.5q0 30 21.5 51.5t52.5 21.5h320q13 0 13 12q0 13 -13 13h-80q-13 0 -21.5 9
t-8.5 22q0 12 8.5 21t21.5 9zM183 756h361q30 -1 51 -22.5t21 -51.5q0 -29 -21 -51t-50 -22h-367q-15 0 -25 -10.5t-10 -25.5q0 -14 10 -24.5t25 -10.5q13 0 21.5 -9t8.5 -21q0 -13 -8.5 -22t-21.5 -9q-40 0 -68 28t-28 68t28 68.5t68 28.5h365q12 0 12 12q0 13 -12 13h-360
q-50 0 -86 -36t-36 -86t36 -85.5t86 -35.5h276q13 0 21.5 -9t8.5 -22t-8.5 -21.5t-21.5 -8.5h-276q-76 0 -129.5 53.5t-53.5 128.5q0 76 53.5 129.5t129.5 53.5zM183 365h276q13 0 21.5 -8.5t8.5 -21.5t-8.5 -22t-21.5 -9h-276q-50 0 -86 -35.5t-36 -85.5t36 -86t86 -36h360
q12 0 12 13q0 12 -12 12h-365q-40 0 -68 28.5t-28 68.5t28 68t68 28q13 0 21.5 -9t8.5 -22q0 -12 -8.5 -21t-21.5 -9q-15 0 -25 -10.5t-10 -24.5q0 -15 10 -25.5t25 -10.5h367q29 0 50 -22t21 -51q0 -30 -21 -52t-51 -22h-361q-76 0 -129.5 53.5t-53.5 129.5
q0 75 53.5 128.5t129.5 53.5z" />
    <glyph glyph-name="Ygrave" unicode="&#x1ef2;" horiz-adv-x="837" 
d="M291 981l78 -14q13 -2 20 -12.5t5 -22.5q-2 -13 -12.5 -20t-23.5 -4l-78 13q-13 2 -15 -11q-1 -10 11 -14l253 -44q11 -2 18 -12.5t5 -23.5t-12 -20t-22 -5l-253 45q-30 5 -47.5 30t-12.5 55t30.5 47.5t55.5 12.5zM22 735q20 21 51.5 21t51.5 -21l212 -212q9 -9 9 -21.5
t-9 -21.5t-21.5 -9t-21.5 9l-210 210q-10 10 -19 2q-9 -9 0 -18l253 -253l314 314q20 21 51.5 21t52.5 -21q22 -23 21 -53.5t-21 -50.5l-302 -301v-300q0 -12 -8.5 -21t-21.5 -9t-22 9t-9 21v311q0 14 10 24l309 309q9 9 0 18q-8 9 -17 0l-327 -327v-335q0 -12 -9 -21
t-22 -9q-12 0 -21 9t-9 21v336l-265 265q-22 24 -21 54t21 50z" />
    <glyph glyph-name="ygrave" unicode="&#x1ef3;" horiz-adv-x="872" 
d="M310 981l78 -14q13 -2 20 -12.5t5 -22.5q-2 -13 -12.5 -20t-23.5 -4l-78 13q-13 2 -15 -11q-1 -10 11 -14l253 -44q11 -2 18 -12.5t5 -23.5t-12 -20t-22 -5l-253 45q-30 5 -47.5 30t-12.5 55t30.5 47.5t55.5 12.5zM125 734l212 -211q9 -9 9 -22t-9 -21q-9 -9 -21.5 -9
t-21.5 9l-211 210q-9 10 -18 1t-1 -17l212 -212q9 -9 9 -21.5t-9 -21.5q-22 -21 -43 0l-212 212q-21 21 -20.5 51t20.5 52q22 22 52 22t52 -22zM770 734q22 -22 22 -52.5t-22 -51.5l-301 -301v-299q0 -13 -8.5 -21.5t-21.5 -8.5t-22 8.5t-9 21.5v310q0 14 9 23l310 310
q9 9 0 17q-9 9 -18 0l-326 -326v-334q0 -13 -9 -21.5t-21 -8.5q-13 0 -22 8.5t-9 21.5v347q0 13 9 21l335 335q22 21 52 21t52 -20z" />
    <glyph glyph-name="endash" unicode="&#x2013;" horiz-adv-x="602" 
d="M226 345h224q30 0 51 -21.5t21 -51.5t-21 -52t-51 -22h-420q-13 0 -21.5 9t-8.5 22q0 12 8.5 21t21.5 9h418q13 0 13 13q0 12 -13 12h-222q-12 0 -21 9t-9 22t9 21.5t21 8.5z" />
    <glyph glyph-name="emdash" unicode="&#x2014;" horiz-adv-x="814" 
d="M438 345h224q30 0 51 -21.5t21 -51.5t-21 -52t-51 -22h-632q-13 0 -21.5 9t-8.5 22q0 12 8.5 21t21.5 9h630q13 0 13 13q0 12 -13 12h-222q-12 0 -21 9t-9 22t9 21.5t21 8.5z" />
    <glyph glyph-name="quoteleft" unicode="&#x2018;" horiz-adv-x="231" 
d="M21 734q22 22 52.5 22t52.5 -22l17 -17q9 -9 8.5 -22t-9.5 -22t-22 -8.5t-22 9.5l-16 16q-10 10 -18 1q-9 -9 0 -18l72 -72q9 -8 9 -21t-9 -22t-21.5 -8.5t-21.5 9.5l-71 71q-22 22 -22.5 52t21.5 52z" />
    <glyph glyph-name="quoteright" unicode="&#x2019;" horiz-adv-x="231" 
d="M130 734q22 -22 21.5 -52t-22.5 -52l-71 -71q-9 -9 -21.5 -9.5t-21.5 8.5t-9 22t9 21l72 72q9 9 0 18t-18 -1l-16 -16q-9 -9 -22 -9.5t-22 8.5t-9.5 22t8.5 22l17 17q22 22 52.5 22t52.5 -22z" />
    <glyph glyph-name="quotesinglbase" unicode="&#x201a;" horiz-adv-x="231" 
d="M130 126q22 -22 21.5 -52t-22.5 -52l-71 -71q-9 -9 -21.5 -9.5t-21.5 8.5t-9 22t9 21l72 72q9 9 0 18t-18 -1l-16 -16q-9 -9 -22 -9.5t-22 8.5t-9.5 22t8.5 22l17 17q22 22 52.5 22t52.5 -22z" />
    <glyph glyph-name="quotedblleft" unicode="&#x201c;" horiz-adv-x="406" 
d="M21 734q22 22 52.5 22t52.5 -22l17 -17q9 -9 8.5 -22t-9.5 -22t-22 -8.5t-22 9.5l-16 16q-10 10 -18 1q-9 -9 0 -18l72 -72q9 -8 9 -21t-9 -22t-21.5 -8.5t-21.5 9.5l-71 71q-22 22 -22.5 52t21.5 52zM196 734q22 22 52.5 22t52.5 -22l17 -17q9 -9 8.5 -22t-9.5 -22
t-22 -8.5t-22 9.5l-16 16q-9 10 -18 1t0 -18l72 -72q9 -8 9 -21t-9 -22t-21.5 -8.5t-21.5 9.5l-71 71q-22 22 -22.5 52t21.5 52z" />
    <glyph glyph-name="quotedblright" unicode="&#x201d;" horiz-adv-x="406" 
d="M130 734q22 -22 21.5 -52t-22.5 -52l-71 -71q-9 -9 -21.5 -9.5t-21.5 8.5t-9 22t9 21l72 72q9 9 0 18t-18 -1l-16 -16q-9 -9 -22 -9.5t-22 8.5t-9.5 22t8.5 22l17 17q22 22 52.5 22t52.5 -22zM305 734q22 -22 21.5 -52t-22.5 -52l-71 -71q-9 -9 -21.5 -9.5t-21.5 8.5
t-9 22t9 21l72 72q9 9 0 18q-8 9 -18 -1l-16 -16q-9 -9 -22 -9.5t-22 8.5t-9.5 22t8.5 22l17 17q22 22 52.5 22t52.5 -22z" />
    <glyph glyph-name="quotedblbase" unicode="&#x201e;" horiz-adv-x="406" 
d="M130 126q22 -22 21.5 -52t-22.5 -52l-71 -71q-9 -9 -21.5 -9.5t-21.5 8.5t-9 22t9 21l72 72q9 9 0 18t-18 -1l-16 -16q-9 -9 -22 -9.5t-22 8.5t-9.5 22t8.5 22l17 17q22 22 52.5 22t52.5 -22zM305 126q22 -22 21.5 -52t-22.5 -52l-71 -71q-9 -9 -21.5 -9.5t-21.5 8.5
t-9 22t9 21l72 72q9 9 0 18q-8 9 -18 -1l-16 -16q-9 -9 -22 -9.5t-22 8.5t-9.5 22t8.5 22l17 17q22 22 52.5 22t52.5 -22z" />
    <glyph glyph-name="dagger" unicode="&#x2020;" horiz-adv-x="674" 
d="M297 756q30 0 51.5 -21.5t22.5 -51.5l-1 -150h151q31 0 52 -22t21 -51t-22 -51t-51 -22h-236v-414q0 -5 3.5 -8.5t8.5 -3.5t9 3.5t4 8.5v359q0 13 8.5 21.5t21.5 8.5t21.5 -8.5t8.5 -21.5l1 -359q-1 -31 -23 -52t-51 -21t-51 22t-22 51v414h-151q-29 0 -51 22t-22 51
q0 31 22.5 52t50.5 21h92q13 0 22 -8.5t9 -21.5t-9 -22t-22 -9h-92q-12 0 -12 -12t12 -12h151v235q0 29 22 51t51 22zM297 695q-5 0 -8.5 -3.5t-3.5 -8.5v-235l236 -1q12 0 12 13q0 12 -12 12h-181q-13 0 -21.5 9t-8.5 21v181q0 5 -4 8.5t-9 3.5z" />
    <glyph glyph-name="bullet" unicode="&#x2022;" horiz-adv-x="281" 
d="M100 372q42 0 71.5 -29.5t29.5 -70.5q0 -42 -29.5 -71.5t-71.5 -29.5q-41 0 -70.5 29.5t-29.5 71.5q0 41 29.5 70.5t70.5 29.5zM100 322q-21 0 -35.5 -14.5t-14.5 -35.5t14.5 -36t35.5 -15t36 15t15 36t-15 35.5t-36 14.5z" />
    <glyph glyph-name="ellipsis" unicode="&#x2026;" horiz-adv-x="621" 
d="M74 148q30 0 51.5 -21.5t21.5 -52.5t-21.5 -52.5t-51.5 -21.5q-31 0 -52.5 21.5t-21.5 52.5t21.5 52.5t52.5 21.5zM271 148q30 0 51.5 -21.5t21.5 -52.5t-21.5 -52.5t-51.5 -21.5q-31 0 -52.5 21.5t-21.5 52.5t21.5 52.5t52.5 21.5zM468 148q30 0 51.5 -21.5t21.5 -52.5
t-21.5 -52.5t-51.5 -21.5q-31 0 -52.5 21.5t-21.5 52.5t21.5 52.5t52.5 21.5zM73 90q-6 0 -11 -4.5t-5 -11.5t5 -11.5t11 -4.5q16 0 16 16t-16 16zM270 90q-6 0 -11 -4.5t-5 -11.5t5 -11.5t11 -4.5q16 0 16 16t-16 16zM467 90q-6 0 -11 -4.5t-5 -11.5t5 -11.5t11 -4.5
q16 0 16 16t-16 16z" />
    <glyph glyph-name="perthousand" unicode="&#x2030;" horiz-adv-x="695" 
d="M397 752q29 -10 41 -38.5t2 -55.5l-127 -303q-4 -12 -16 -17t-23 0q-12 5 -17 17t0 23l126 300q4 11 -7 16q-12 5 -17 -6l-280 -669q-5 -12 -17 -16.5t-23 0.5q-12 4 -16.5 16t0.5 24l280 667q11 31 40 41t54 1zM100 756q42 0 71.5 -29.5t29.5 -70.5q0 -42 -29.5 -71.5
t-71.5 -29.5q-41 0 -70.5 29.5t-29.5 71.5q0 41 29.5 70.5t70.5 29.5zM100 706q-21 0 -35.5 -14.5t-14.5 -35.5t14.5 -36t35.5 -15t36 15t15 36t-15 35.5t-36 14.5zM284 201q42 0 71.5 -29.5t29.5 -70.5q0 -42 -29.5 -71.5t-71.5 -29.5q-41 0 -70.5 29.5t-29.5 71.5
q0 41 29.5 70.5t70.5 29.5zM514 201q42 0 71.5 -29.5t29.5 -70.5q0 -42 -29.5 -71.5t-71.5 -29.5q-41 0 -70.5 29.5t-29.5 71.5q0 41 29.5 70.5t70.5 29.5zM284 151q-21 0 -35.5 -14.5t-14.5 -35.5t14.5 -36t35.5 -15t36 15t15 36t-15 35.5t-36 14.5zM514 151
q-21 0 -35.5 -14.5t-14.5 -35.5t14.5 -36t35.5 -15t36 15t15 36t-15 35.5t-36 14.5z" />
    <glyph glyph-name="guilsinglleft" unicode="&#x2039;" horiz-adv-x="638" 
d="M458 60l-345 145q-51 22 -82 66t-31 98t31 98.5t82 65.5l403 170q12 6 23.5 1t16.5 -17q10 -27 -17 -40l-407 -172q-32 -14 -51.5 -42.5t-19.5 -63.5t19.5 -63.5t51.5 -42.5l346 -147q8 -3 14 1.5t5 12t-10 11.5l-344 145q-25 10 -39.5 33t-14.5 50t15 49.5t40 33.5
l372 158q11 5 23 0t17 -17q5 -11 0 -23t-17 -17l-371 -157q-20 -7 -20 -27q0 -17 20 -27l341 -144q27 -10 41 -38t3 -57q-10 -28 -38 -41t-57 -2z" />
    <glyph glyph-name="guilsinglright" unicode="&#x203a;" horiz-adv-x="637" 
d="M99 678l345 -145q51 -22 82 -66t31 -98t-31 -98.5t-82 -65.5l-403 -170q-12 -6 -23.5 -1t-16.5 17q-10 27 17 40l407 172q32 14 51.5 42.5t19.5 63.5t-19.5 63.5t-51.5 42.5l-347 146q-8 3 -13.5 -1.5t-4.5 -12t10 -11.5l344 -144q25 -10 39.5 -33t14.5 -50t-15 -49.5
t-40 -33.5l-372 -158q-11 -5 -23 0t-17 17q-5 11 0 23t17 17l371 157q20 7 20 27q0 17 -20 27l-341 144q-27 10 -41 38t-3 57q10 28 38 41t57 2z" />
    <glyph glyph-name="Euro" unicode="&#x20ac;" horiz-adv-x="497" 
d="M386 769q13 0 22 -9t9 -22q0 -12 -9 -21t-22 -9q-112 0 -204.5 -74.5t-116.5 -176.5q-2 -10 -11 -16.5t-19 -6.5q-12 0 -21 8.5t-9 21.5l1 8q33 129 138.5 213t241.5 84zM131 494h256q12 0 21 -8.5t9 -21.5q0 -12 -9 -21t-21 -9h-256q-12 0 -21 9t-9 21q0 13 9 21.5
t21 8.5zM25 408h320q30 -1 51 -22t21 -50q0 -30 -20.5 -51t-49.5 -22h-216q-12 0 -21 8.5t-9 21.5q0 12 9 21t21 9h214q5 0 9 4t4 9q0 4 -4 8.5t-9 4.5h-287q0 -118 99.5 -209t228.5 -91q13 0 22 -9t9 -21q0 -13 -9 -22t-22 -9q-161 0 -276 115t-115 276q0 12 8.5 20.5
t21.5 8.5z" />
    <glyph glyph-name="trademark" unicode="&#x2122;" horiz-adv-x="1138" 
d="M414 716h-394q-8 0 -14 6t-6 14t6 14t14 6h394q8 0 14 -6t6 -14t-6 -14t-14 -6zM1022 720q36 -36 36 -87v-327q0 -8 -6 -14t-14 -6t-14 6t-6 14v327q0 35 -24 59t-59 24t-59 -24t-24 -59v-224q0 -25 -18 -43.5t-44 -18.5t-44.5 18t-18.5 44v224q0 35 -24 59
q-26 24 -59 24q-45 0 -68 -36l-249 -385q-11 -16 -27 -6q-7 4 -9 12.5t3 15.5l249 386q15 24 42.5 38.5t58.5 14.5q51 0 87 -36t36 -87v-224q0 -9 6.5 -15.5t16.5 -6.5q9 0 15.5 6.5t6.5 15.5v224q0 51 36 87t87 36t87 -36zM20 696h125q26 0 44.5 -18.5t18.5 -44.5v-327
q0 -8 -6 -14t-14 -6t-14 6t-6 14v327q0 10 -6.5 16.5t-16.5 6.5h-125q-8 0 -14 6t-6 14t6 14t14 6zM414 656h-125q-10 0 -16.5 -6.5t-6.5 -16.5v-327q0 -8 -6 -14t-14 -6t-14 6t-6 14v327q0 26 18.5 44.5t44.5 18.5h125q8 0 14 -6t6 -14t-6 -14t-14 -6zM935 696
q26 0 44.5 -18.5t18.5 -44.5v-327q0 -8 -6 -14t-14 -6t-14 6t-6 14v327q0 10 -6.5 16.5t-16.5 6.5q-9 0 -15.5 -6.5t-6.5 -16.5v-224q0 -52 -35.5 -87.5t-87.5 -35.5q-51 0 -87 36t-36 87v224q0 10 -6.5 16.5t-16.5 6.5q-12 0 -18 -10l-227 -351q-12 -17 -29 -6
q-16 11 -5 28l228 352q17 27 51 27q26 0 44.5 -18.5t18.5 -44.5v-224q0 -35 24.5 -59t58.5 -24t58.5 24t24.5 59v224q0 26 18 44.5t44 18.5z" />
    <glyph glyph-name="minus" unicode="&#x2212;" horiz-adv-x="752" 
d="M356 345h244q30 0 51 -21.5t21 -51.5t-21 -52t-51 -22h-570q-13 0 -21.5 9t-8.5 22q0 12 8.5 21t21.5 9h568q13 0 13 13q0 12 -13 12h-242q-12 0 -21 9t-9 22t9 21.5t21 8.5z" />
    <glyph glyph-name="lessequal" unicode="&#x2264;" horiz-adv-x="666" 
d="M113 597l368 154q29 11 57 -2t38 -41q11 -29 -3 -57t-41 -38l-364 -153q-19 -8 -19 -27q0 -20 19 -27l399 -168q12 -5 17 -17t0 -23q-5 -12 -17 -17t-23 0l-400 169q-25 10 -40 33t-15 50t14.5 50t39.5 33l367 154q15 5 9 18q-5 11 -17 5l-370 -154q-32 -14 -51.5 -42.5
t-19.5 -63.5t19.5 -64t51.5 -42l435 -183q27 -12 17 -40q-8 -18 -28 -18h-482q-13 0 -13 -13q0 -12 13 -12h242q12 0 21 -9t9 -22t-9 -21.5t-21 -8.5h-244q-30 0 -51 21.5t-21 51.5t21 52t51 22h332l-291 122q-51 20 -82 64.5t-31 99.5q0 54 31 98.5t82 65.5z" />
    <glyph glyph-name="greaterequal" unicode="&#x2265;" horiz-adv-x="670" 
d="M109 751l368 -154q51 -21 82 -65.5t31 -98.5q0 -55 -31 -99.5t-82 -64.5l-291 -122h332q30 0 51 -22t21 -52t-21 -51.5t-51 -21.5h-244q-12 0 -21 8.5t-9 21.5t9 22t21 9h242q13 0 13 12q0 13 -13 13h-482q-20 0 -28 18q-10 28 17 40l435 183q32 13 51.5 42t19.5 64
t-19.5 63.5t-51.5 42.5l-370 154q-12 6 -17 -5q-6 -13 9 -18l367 -154q25 -10 39.5 -33t14.5 -50t-15 -50t-40 -33l-400 -169q-11 -5 -23 0t-17 17q-5 11 0 23t17 17l399 168q19 7 19 27q0 19 -19 27l-364 153q-27 10 -41 38t-3 57q10 28 38 41t57 2z" />
    </font>
</defs>
</svg>
