<?xml version="1.0" encoding="utf-8"?>
<!-- Generator: Adobe Illustrator 19.2.1, SVG Export Plug-In . SVG Version: 6.00 Build 0)  -->
<svg version="1.1" id="mb-btn-bet" xmlns="http://www.w3.org/2000/svg" xmlns:xlink="http://www.w3.org/1999/xlink" x="0px" y="0px"
	 viewBox="0 0 640 224" style="enable-background:new 0 0 640 224;" xml:space="preserve">
<style type="text/css">
	.st0{opacity:0.6;fill:#030303;enable-background:new    ;}
	.st1{fill:#BFBFBF;}
	.st2{fill:#F4F4F4;}
</style>
<title>mb-btn-bet</title>
<g id="mb-btn-bet-up">
	<path class="st0" d="M347.7,121.5c-8.8,0-17.1-1.2-23.4-3.3c-3.5-1-6.8-2.8-9.6-5.2c-6.4,2.2-14.8,3.5-23.9,3.5
		c-8.8,0-17.1-1.2-23.4-3.3c-11.1-3.7-13.4-9.4-13.4-13.5c0-0.2,0-3.3,0-6.8c0-0.2,0-0.7,0-1v-0.1c0.1-8.1,10.5-10.7,13.9-11.5
		c7.5-1.7,15.2-2.5,22.9-2.4c12.9,0,34,1.6,36.5,11.9c4.1,1.6,11.1,3,20.4,3c10.8,0,18.5-2,22.1-3.8c1.4-0.7,3-1.1,4.6-1.1
		c5.5,0,10,4.5,10.1,10c0,3.4,0,6.5,0,6.7c0,4.1-2.3,9.8-13.4,13.5C364.8,120.3,356.5,121.5,347.7,121.5z"/>
	<path class="st1" d="M372.9,95.2c-5.4,2.7-14.6,4.5-25.2,4.5s-19.9-1.8-25.2-4.6c-0.5-0.2-1-0.4-1.6-0.4c0-0.6,0-1.1,0-1.7
		c0-0.3,0-0.9,0-1c0-4-13.5-7.3-30.1-7.3S260.7,88,260.7,92c0,0.1,0,0.7,0,1c0,3.4,0,6.6,0,6.7c0,5.6,13.7,10.1,30.4,10.1
		c11.7,0,22-2.2,27-5.5v0.4c0,5.6,13.4,10.1,30,10.1s30-4.5,30-10.1l0,0c0-0.2-0.1-3.3-0.1-6.6c0-1.9-1.6-3.4-3.4-3.4
		C374,94.8,373.4,94.9,372.9,95.2z"/>
	<path class="st2" d="M347.8,111.4c-17.6,0-26.8-5-26.8-6.7v-6.6l-5.2,3.3c-4.6,3-14.5,4.9-25,4.9c-17.6,0-26.8-5-26.8-6.7
		c0-0.2,0-3.3,0-6.7c0-0.1,0-0.3,0-0.4c1.7-1.6,11-4.5,26.8-4.5s25,2.8,26.7,4.5c0,0.2,0,0.4,0,0.6v5h3.4c6.2,3.1,16.2,4.9,26.9,4.9
		s20.6-1.8,26.7-4.9c0.1,3.3,0.1,6.4,0.1,6.6C374.5,106.4,365.4,111.4,347.8,111.4z"/>
	<path class="st0" d="M347.7,152.8c-8.8,0-17.1-1.2-23.4-3.3c-6.2-2.1-9.6-4.7-11.5-7.4c-7.2,2-14.6,3-22,2.9
		c-8.8,0-17.1-1.2-23.4-3.3c-11.1-3.7-13.4-9.4-13.4-13.5c0-0.2,0-3.3,0-6.8c0-5.5,4.5-9.9,10-9.9c1.6,0,3.2,0.4,4.6,1.1
		c3.6,1.8,11.4,3.8,22.2,3.8s18.5-2,22.1-3.8c1.4-0.7,3-1.1,4.6-1.1c5.4,0,9.9,4.3,10.1,9.8c4.1,1.5,11,2.9,20.1,2.9
		c10.8,0,18.5-2,22.1-3.8c1.4-0.7,3-1.1,4.6-1.1c5.5,0,10,4.5,10.1,10c0,3.4,0,6.5,0,6.7c0,4.1-2.3,9.8-13.4,13.5
		C364.8,151.6,356.5,152.8,347.7,152.8z"/>
	<path class="st1" d="M372.9,126.4c-5.4,2.7-14.6,4.5-25.2,4.5s-19.9-1.8-25.2-4.6c-0.5-0.2-1-0.4-1.6-0.4c0-1.2,0-2.8,0-4.5
		c0-1.9-1.5-3.3-3.4-3.3c-0.5,0-1.1,0.1-1.5,0.4c-5.4,2.7-14.6,4.5-25.2,4.5s-19.9-1.8-25.2-4.6c-1.6-0.9-3.6-0.3-4.5,1.3
		c-0.3,0.5-0.4,1-0.4,1.5c0,3.4,0,6.6,0,6.7c0,5.6,13.5,10.1,30.1,10.1c11.7,0,21.8-2.2,26.8-5.5c0,1.8,0,3.1,0,3.2
		c0,5.6,13.6,10.1,30.2,10.1S378,141.6,378,136l0,0c0-0.2-0.1-3.3-0.1-6.6c0-1.9-1.6-3.4-3.5-3.3
		C373.9,126.1,373.4,126.2,372.9,126.4z"/>
	<path class="st2" d="M347.7,142.7c-17.6,0-26.8-5-26.8-6.7c0-0.1,0-6.6,0-6.6c6.1,3.1,16.1,4.9,26.8,4.9s20.6-1.8,26.7-4.9
		c0.1,3.3,0.1,6.4,0.1,6.6C374.5,137.7,365.3,142.7,347.7,142.7z M290.7,134.9c-17.6,0-26.8-5-26.8-6.7c0-0.2,0-3.3,0-6.7
		c6,3.2,16,5,26.8,5s20.6-1.8,26.7-4.9c0.1,1.6,0.1,3.2,0.1,4.4v2.7l-1.8,1.2C311.1,132.9,301.3,134.9,290.7,134.9L290.7,134.9z"/>
	<path class="st0" d="M347.7,181.1c-8.8,0-17.1-1.2-23.4-3.3s-9.8-4.8-11.6-7.6c-7.1,2-14.5,2.9-21.9,2.8c-8.8,0-17.1-1.2-23.4-3.3
		c-11.1-3.7-13.4-9.4-13.4-13.5c0-0.2,0-3.4,0-6.8c0-5.5,4.5-9.9,10-9.9c1.6,0,3.2,0.4,4.6,1.1c3.6,1.9,11.4,3.8,22.2,3.8
		s18.5-2,22.1-3.8c1.5-0.7,3.1-1.1,4.8-1.1c5.6,0,10.1,4.4,10.3,10l0,0c4,1.5,10.8,2.9,19.9,2.9c10.8,0,18.4-2,22-3.8
		c4.9-2.5,10.9-0.6,13.5,4.3c0.7,1.4,1.1,3,1.1,4.5c0,3.4,0,6.5,0,6.7c0,4.1-2.3,9.8-13.4,13.5C364.8,179.9,356.5,181.1,347.7,181.1
		z"/>
	<path class="st1" d="M372.9,154.8c-5.4,2.7-14.6,4.5-25.2,4.5s-19.9-1.8-25.2-4.6c-0.5-0.2-1-0.4-1.6-0.4c0-1.2,0-2.9,0-4.7
		c0-1.9-1.5-3.3-3.4-3.3c-0.5,0-1.1,0.1-1.5,0.4c-5.4,2.7-14.6,4.5-25.2,4.5s-19.9-1.8-25.2-4.6c-1.6-0.9-3.6-0.3-4.5,1.3
		c-0.3,0.5-0.4,1-0.4,1.5c0,3.4,0,6.6,0,6.7c0,5.6,13.5,10.1,30.1,10.1c11.7,0,21.8-2.2,26.8-5.5c0,1.9,0,3.4,0,3.5
		c0,5.6,13.6,10.1,30.2,10.1s30.1-4.5,30.1-10.1l0,0c0-0.2-0.1-3.3-0.1-6.6c-0.1-1.9-1.6-3.4-3.5-3.3
		C373.9,154.4,373.4,154.5,372.9,154.8z"/>
	<path class="st2" d="M347.7,171c-17.6,0-26.8-5-26.8-6.7c0-0.1,0-6.6,0-6.6c6.1,3.1,16.1,4.9,26.8,4.9s20.6-1.8,26.7-4.9
		c0.1,3.3,0.1,6.4,0.1,6.6C374.5,166.1,365.3,171,347.7,171z M290.7,163c-17.6,0-26.8-5-26.8-6.7c0-0.2,0-3.3,0-6.7
		c6,3.2,16,5,26.8,5s20.6-1.8,26.7-4.9c0.1,1.7,0.1,3.4,0.1,4.7v2.5l-1.8,1.2C311.1,161.1,301.3,163,290.7,163L290.7,163z"/>
	<path class="st0" d="M347.7,91.3c-8.8,0-17.1-1.2-23.4-3.3c-11.1-3.7-13.4-9.4-13.4-13.5c0-0.2,0-3.3,0-6.8c0-0.2,0-0.7,0-1v-0.1
		c0.2-8.1,10.5-10.7,13.9-11.5c15.1-3.1,30.6-3.1,45.7,0c3.4,0.8,13.8,3.3,13.9,11.5V67c0,0.3,0,0.8,0,1c0,3.4,0,6.5,0,6.7
		c0,4.1-2.3,9.8-13.4,13.5C364.8,90.2,356.5,91.3,347.7,91.3z"/>
	<path class="st1" d="M377.9,67.9c0-0.3-0.1-0.9-0.1-1c0-4-13.5-7.3-30.1-7.3s-30.1,3.3-30.1,7.3c0,0.1,0,0.7,0,1c0,3.4,0,6.6,0,6.7
		c0,5.6,13.6,10.1,30.2,10.1S378,80.1,378,74.6l0,0C378,74.4,377.9,71.3,377.9,67.9z"/>
	<path class="st2" d="M347.7,81.3c-17.6,0-26.8-5-26.8-6.7c0-0.2,0-3.3,0-6.7c0-0.1,0-0.3,0-0.4c1.7-1.6,11-4.5,26.8-4.5
		s25,2.8,26.7,4.5c0,0.2,0,0.4,0,0.5c0,3.4,0,6.4,0,6.6C374.5,76.3,365.3,81.3,347.7,81.3z"/>
</g>
</svg>
