<?xml version="1.0" encoding="utf-8"?>
<!-- Generator: Adobe Illustrator 19.2.1, SVG Export Plug-In . SVG Version: 6.00 Build 0)  -->
<svg version="1.1" id="mb-spin" xmlns="http://www.w3.org/2000/svg" xmlns:xlink="http://www.w3.org/1999/xlink" x="0px" y="0px"
	 viewBox="0 0 640 224" style="enable-background:new 0 0 640 224;" xml:space="preserve">
<style type="text/css">
	.st0{opacity:0.6;}
	.st1{fill:#BFBFBF;}
	.st2{fill:#F4F4F4;}
</style>
<title>mb-btn-spin</title>
<g>
	<g class="st0">
		<path d="M318.2,193.9c-6.5,0-11.4-4.8-11.4-11.2v-1.6c-9-1.7-17.4-5.1-25-10.3c-0.3,0.2-0.5,0.5-0.8,0.7c-2.3,2.3-5.3,3.5-8.5,3.5
			c-3.1,0-6.2-1.2-8.5-3.3c-2.3-2.1-3.6-5.1-3.7-8.4c-0.1-3.4,1.2-6.7,3.5-9c0.2-0.2,0.4-0.4,0.6-0.7c-0.6-0.9-1.2-1.8-1.8-2.7
			c-4.2-6.8-7.1-14.3-8.5-22.3h-1.5c-6.4,0-11.2-5.1-11.2-11.9c0-6.8,4.8-11.9,11.2-11.9h1.6c1.6-9,5-17.2,10.2-24.8
			c-0.2-0.2-0.4-0.4-0.6-0.6c-4.6-4.6-4.7-12.1-0.2-17c2.2-2.4,5.3-3.7,8.7-3.7c3.3,0,6.5,1.3,8.7,3.5c0.2,0.2,0.5,0.5,0.7,0.7
			c7.6-5.2,15.9-8.6,25-10.3v-0.9c0-6.4,4.9-11.2,11.4-11.2c6.5,0,11.4,4.8,11.4,11.2v0.8c3.7,0.6,7.2,1.6,10.6,2.8
			c5.5,2,10.7,4.6,15.2,7.6l0.7-0.7c2.3-2.3,5.3-3.5,8.5-3.5c3.1,0,6.2,1.2,8.5,3.3c2.3,2.1,3.6,5.1,3.7,8.4c0.1,3.4-1.2,6.6-3.5,9
			l-0.7,0.7c5.1,7.5,8.5,15.7,10.3,24.6h0.9c6.4,0,11.2,5.1,11.2,11.9c0,6.8-4.8,11.9-11.2,11.9h-1c-1.7,9-5.2,17.3-10.4,24.9
			c0.3,0.3,0.6,0.6,0.8,0.9c4.6,4.6,4.7,12.1,0.1,17c-2.2,2.4-5.3,3.7-8.7,3.7c-3.3,0-6.5-1.3-8.7-3.5c-0.2-0.2-0.5-0.4-0.7-0.7
			c-7.3,5-15.6,8.5-24.4,10.2c-0.4,0.1-0.8,0.1-1.2,0.2v1.4C329.7,189.1,324.8,193.9,318.2,193.9z M318.8,75.7
			c-14.6,0-28.2,7.7-35.6,20.2c-8.9,15-7.3,34.6,4,47.7c7.9,9.2,19.5,14.5,31.7,14.5c4.7,0,9.3-0.8,13.7-2.4
			c15.9-5.7,26.9-21.2,27.2-38.8c-0.4-20-14.7-37.1-33.9-40.6C323.6,75.9,321.2,75.7,318.8,75.7z"/>
	</g>
	<path class="st1" d="M383.8,110.8c-1,0-4,0-6,0c-1.4-12-5.9-22.3-13-31.2c1.4-1.4,2.9-2.9,4.3-4.3c2.3-2.3,2.5-6.5,0-8.8
		c-2.5-2.3-6.3-2.5-8.8,0c-1.4,1.4-2.9,2.9-4.3,4.3c-5-4.1-11.4-7.5-17.8-9.8c-4.5-1.7-9.5-2.7-14.5-3.2c0-2,0-5,0-6c0-7-11-7-11,0
		c0,1,0,4,0,6.1c-12,1.2-22.4,5.7-31.4,12.9c-1.4-1.4-2.9-2.8-4.4-4.3c-2.3-2.3-6.6-2.5-8.8,0c-2.3,2.5-2.5,6.3,0,8.8
		c1.4,1.4,2.8,2.8,4.2,4.3c-7.3,9-11.6,19.2-12.9,31.2c-2,0-4.8,0-6.8,0c-7,0-7,12,0,12c2,0,4.7,0,6.7,0c0.9,9,3.6,17.5,8.4,25.1
		c1.4,2.2,2.9,4.4,4.5,6.4c-1.4,1.4-2.8,2.9-4.2,4.3c-2.3,2.3-2.5,6.6,0,8.8c2.5,2.3,6.3,2.5,8.8,0c1.4-1.4,3-2.8,4.5-4.3
		c8.9,7.2,19.4,11.6,31.4,12.9c0,2,0,4.7,0,6.7c0,7,11,7,11,0c0-2,0-4.6,0-6.6c2-0.2,4.2-0.4,6-0.8c9.8-1.9,18.8-6.2,26-12.2
		c1.4,1.4,3,2.8,4.4,4.3c2.3,2.3,6.6,2.5,8.9,0c2.3-2.5,2.5-6.3,0-8.8c-1.5-1.5-2.9-3.1-4.3-4.6c7-8.8,11.6-19.3,13-31.3
		c2,0,5,0,6,0C390.8,122.8,390.8,110.8,383.8,110.8z M334.5,161.3c-18.4,6.5-39.1,0.9-51.8-13.8c-13-15.1-14.7-37.5-4.6-54.6
		c9.9-16.7,29.7-25.8,48.9-22.3c22.5,4.1,38.3,23.8,38.8,46.4C365.3,136.6,353.3,154.6,334.5,161.3z"/>
	<path class="st2" d="M318.2,185c-0.6,0-2.5-0.2-2.5-2.3v-9.4l-2.7-0.3c-11.1-1.2-21.1-5.3-29.8-12.2l-2.1-1.7l-1.9,1.9
		c-0.7,0.7-1.4,1.4-2.2,2.1c-0.8,0.7-1.6,1.5-2.3,2.2c-0.7,0.7-1.6,0.9-2.2,0.9c-0.9,0-1.8-0.4-2.5-1c-0.7-0.6-0.8-1.6-0.8-2
		c0-1,0.3-1.9,0.9-2.5c0.7-0.7,1.4-1.4,2.1-2.2c0.7-0.7,1.4-1.4,2.1-2.1l1.9-1.9l-1.7-2.1c-1.4-1.7-2.8-3.8-4.3-6.1
		c-4.4-7.2-7.1-15.2-7.9-23.9l-0.3-2.7h-9.4c-2.2,0-2.3-2.7-2.3-3s0.1-3,2.3-3h9.4l0.3-2.7c1.1-11.2,5.1-20.9,12.2-29.7l1.7-2.1
		l-1.9-1.9c-0.7-0.7-1.4-1.4-2.1-2.1c-0.7-0.7-1.4-1.4-2.1-2.2c-1.4-1.4-1-3.5,0.1-4.7c0.5-0.5,1.3-0.8,2.1-0.8
		c0.9,0,1.8,0.3,2.4,0.9c0.7,0.7,1.5,1.4,2.2,2.2c0.7,0.7,1.4,1.4,2.1,2.1l1.9,1.9l2.1-1.7c8.7-7,18.7-11.1,29.9-12.3l2.7-0.3v-8.7
		c0-2.1,1.9-2.3,2.5-2.3s2.5,0.2,2.5,2.3v8.7l2.7,0.3c4.9,0.5,9.5,1.5,13.7,3c6.5,2.4,12.4,5.6,16.9,9.3l2.1,1.7l6.2-6.2
		c0.8-0.8,1.6-0.9,2.2-0.9c0.9,0,1.8,0.4,2.5,1c0.7,0.6,0.8,1.6,0.8,2c0,1-0.3,1.9-0.9,2.5l-6.2,6.2l1.7,2.1
		c6.9,8.7,11.1,18.6,12.3,29.6l0.3,2.6h8.7c2.2,0,2.3,2.7,2.3,3s-0.1,3-2.3,3h-8.7l-0.3,2.6c-1.3,11.1-5.4,21.1-12.4,29.8l-1.6,2.1
		l1.9,1.9c0.7,0.7,1.4,1.5,2.1,2.2c0.7,0.8,1.5,1.6,2.2,2.4c1.4,1.4,1,3.5-0.1,4.7c-0.5,0.5-1.3,0.8-2.1,0.8c-0.9,0-1.9-0.3-2.4-0.9
		c-0.7-0.7-1.5-1.4-2.2-2.2c-0.7-0.7-1.5-1.4-2.2-2.1l-1.9-1.9l-2.1,1.7c-7,5.8-15.6,9.8-24.7,11.5c-1.5,0.3-3.4,0.5-5.7,0.7
		l-2.7,0.2v9.3C320.8,184.9,318.8,185,318.2,185z M318.8,66.8c-17.7,0-34.3,9.4-43.2,24.5c-10.8,18.2-8.8,42.1,4.9,58
		c9.6,11.2,23.6,17.6,38.4,17.6c5.7,0,11.3-1,16.7-2.9c19.4-6.9,32.7-25.8,33.1-47.1v-0.1c-0.5-24.3-17.8-45-41.2-49.3
		C324.6,67.1,321.7,66.8,318.8,66.8z"/>
</g>
</svg>
