<?xml version="1.0" encoding="utf-8"?>
<!-- Generator: Adobe Illustrator 19.2.1, SVG Export Plug-In . SVG Version: 6.00 Build 0)  -->
<svg version="1.1" id="mb-btn-menu-close" xmlns="http://www.w3.org/2000/svg" xmlns:xlink="http://www.w3.org/1999/xlink" x="0px"
	 y="0px" viewBox="0 0 264 264" style="enable-background:new 0 0 264 264;" xml:space="preserve">
<style type="text/css">
	.st0{opacity:0.5;fill:#777777;enable-background:new    ;}
	.st1{opacity:0.6;enable-background:new    ;}
	.st2{fill:#BFBFBF;}
	.st3{fill:#F4F4F4;}
</style>
<title>mb-btn-menu-close</title>
<g id="mb-btn-menu-close-2">
	<rect class="st0" width="264" height="264"/>
	<path class="st1" d="M84.3,191.8c-5-0.1-9.5-3.2-11.5-7.8c-1.9-4.5-1-9.7,2.4-13.1l37.1-39.1L75.2,92.6c-3.4-3.5-4.4-8.7-2.4-13.1
		c2-4.6,6.5-7.7,11.5-7.8c3.2,0,6.3,1.4,8.5,3.8l36.5,38.4L165.2,76c2.2-2.4,5.3-3.8,8.5-3.8c5,0.1,9.5,3.2,11.5,7.8
		c1.9,4.5,1,9.7-2.4,13.1l-36.5,38.5l36.5,38.5c3.4,3.5,4.4,8.7,2.4,13.1c-2,4.6-6.5,7.7-11.5,7.8l0,0c-3.2,0-6.3-1.4-8.5-3.8
		l-35.9-37.7L92.8,188C90.6,190.4,87.5,191.7,84.3,191.8z"/>
	<path class="st2" d="M178.4,174.3L138,131.7l29.2-30.7l11.3-11.9c5.6-5.9-3.3-14.8-8.9-8.9l-40.2,42.3L99.7,91.4L88.4,79.6
		c-5.6-5.9-14.5,3-8.9,8.9l41.1,43.2L90.8,163l-11.3,11.9c-5.6,5.9,3.3,14.8,8.9,8.9l40.8-43l29,30.5l11.3,11.9
		C175.1,189.1,184,180.2,178.4,174.3z"/>
	<path class="st3" d="M84.3,182.8c-1.5-0.1-2.7-1-3.3-2.4c-0.5-1.2-0.3-2.5,0.7-3.4l43-45.3l-43-45.3c-0.9-0.9-1.2-2.2-0.7-3.4
		c0.5-1.3,1.8-2.3,3.2-2.4c0.8,0,1.5,0.4,2,1l43,45.3l42.4-44.7c0.5-0.6,1.2-1,2-1c1.5,0.1,2.8,1,3.4,2.4c0.5,1.2,0.3,2.5-0.7,3.4
		l-42.4,44.7l42.4,44.7c0.9,0.9,1.2,2.2,0.7,3.4c-0.5,1.3-1.8,2.3-3.2,2.4l0,0c-0.8,0-1.5-0.4-2-1l-42.5-44.6l-43,45.3
		C85.8,182.4,85.1,182.7,84.3,182.8z"/>
</g>
</svg>
