<?xml version="1.0" encoding="utf-8"?>
<!-- Generator: Adobe Illustrator 19.2.1, SVG Export Plug-In . SVG Version: 6.00 Build 0)  -->
<svg version="1.1" id="Layer_1" xmlns="http://www.w3.org/2000/svg" xmlns:xlink="http://www.w3.org/1999/xlink" x="0px" y="0px"
	 viewBox="0 0 640 224" style="enable-background:new 0 0 640 224;" xml:space="preserve">
<style type="text/css">
	.st0{opacity:0.6;}
	.st1{fill:#BFBFBF;}
	.st2{fill:#F4F4F4;}
	.st3{opacity:0.6;enable-background:new    ;}
</style>
<title>mb-btn-sound</title>
<g id="mb-btn-sound-up">
	<g class="st0">
		<path d="M311.9,172.5c-9.5,0-14.4-6-18.3-10.9c-0.5-0.6-0.9-1.1-1.4-1.7c-1-1.2-2-2.3-3-3.5c-1.7-1.9-3.4-3.9-5.1-6.1h-29.3
			c-6.6,0-12-5.3-12-11.9c0-0.1,0-0.2,0-0.3V89.8c0-7,5.5-13,12-13h29.3c0.6-0.8,1.3-1.8,2-2.7c6.4-8.5,14.3-19,25.9-19
			c3.4,0,6.8,0.9,9.7,2.6c12.2,6.7,11.6,20.7,11.2,30.9c-0.1,1.8-0.1,3.5-0.1,5v47.2c0,8.6,0.1,19.4-6.7,26.2
			C322.7,170.6,317.9,172.4,311.9,172.5L311.9,172.5L311.9,172.5z M286,125.6c4.4,0,7.6,0.7,10.3,2.2c4.5,2.6,7.9,7.3,10.9,11.4
			c0.6,0.9,1.2,1.7,1.8,2.4c-0.1-1.1-0.1-2.2-0.1-3.3V91.8c0-1.5,0.1-3,0.1-4.5c0-0.5,0-1.1,0.1-1.6l-9.4,11.7
			c-0.1,0.2-0.3,0.5-0.5,0.7c-2.3,2.8-5.9,4.4-9.6,4.2h-22.7v24h7.1c1.2,0,2.8-0.2,4.6-0.3C280.9,125.8,283.5,125.6,286,125.6z"/>
	</g>
	<path class="st1" d="M319,63.1c-14.3-7.9-24.3,10.8-31.9,19.8h-32.2c-3.4,0-6,3.6-6,7v48.4c-0.1,3.3,2.6,6.1,5.9,6.1
		c0,0,0.1,0,0.1,0h32.3c3.2,4.5,6.5,7.9,9.7,11.7c4.3,5.1,7.5,10.4,15,10.4c15.8,0,15-15.9,15-27V93.7
		C326.9,83.5,329.6,68.9,319,63.1z M314.8,150.9c-2,7.3-7.2-1.6-9.4-4.2c-3.4-4.1-7.3-11-12.1-13.7s-14.2-0.6-19.4-0.6h-13.1v-36
		h27.8c1.9,0,4.1,0.2,5.8-2c0,0,0-0.1,0.1-0.2s0.1-0.1,0.1-0.1l11.6-14.4c2.3-2.9,7-9.5,8.4-1.8c0.8,4.4,0.1,9.6,0.1,14.1v46.5
		C314.9,142,315.8,147.3,314.8,150.9L314.8,150.9z"/>
	<path class="st2" d="M311.9,163.5c-5,0-7.4-2.7-11.3-7.5c-0.5-0.6-1-1.2-1.5-1.8c-1-1.2-2.1-2.4-3.1-3.6c-2.2-2.6-4.3-5-6.4-7.9
		l-0.9-1.2h-33.8c-1.7,0-3-1.3-3-3c0,0,0-0.1,0-0.1V89.8c0-2,1.5-4,3-4h33.6l0.9-1.1c1.3-1.5,2.6-3.3,4-5.2
		c5.2-6.9,11.6-15.4,18.7-15.4c1.9,0,3.8,0.6,5.4,1.5c7.3,4,6.9,13.5,6.5,22.6c-0.1,1.9-0.1,3.7-0.1,5.4V141c0,7,0,15.7-4.1,19.8
		C318,162.6,315.4,163.5,311.9,163.5L311.9,163.5L311.9,163.5z M286,134.6c2.7,0,4.6,0.3,5.8,1c2.9,1.6,5.6,5.5,8.1,8.9
		c1.1,1.5,2.1,2.9,3.1,4.2c0.3,0.4,0.7,0.9,1.1,1.5c2.3,3.1,4.9,6.6,8.2,6.6c1.4,0,4-0.6,5.2-5c0.8-3,0.6-6.6,0.4-9.9
		c-0.1-1.3-0.1-2.5-0.1-3.5V91.8c0-1.3,0.1-2.7,0.1-4.1c0.3-3.5,0.2-7-0.3-10.5c-0.9-5-3.4-6.1-5.3-6.1c-3.2,0-5.8,3.3-7.9,5.9
		l-0.5,0.6l-11.7,14.7l-0.1,0.1l-0.1,0.2l0,0c-0.5,0.5-1,0.6-2.4,0.6h-31.8v42H274c1.6,0,3.4-0.2,5.4-0.4
		C281.6,134.8,283.9,134.6,286,134.6z"/>
	<path class="st3" d="M345.2,158.8c-5-0.1-9.5-3.2-11.4-7.8c-2-4.5-1.1-9.7,2.3-13.2c11.3-11.9,11-30.6-0.5-42.2
		c-3.4-3.4-4.4-8.6-2.5-13c1.9-4.7,6.5-7.8,11.5-7.9c3.2,0,6.3,1.4,8.5,3.7c20.9,21.6,21.2,54.5,0.7,76.6
		C351.6,157.4,348.5,158.8,345.2,158.8z"/>
	<path class="st1" d="M348.8,82.5c-5.6-5.8-14.6,3.1-8.9,8.9c13.8,13.9,14.1,36.3,0.6,50.5c-5.5,5.9,3.4,14.9,8.9,8.9
		C367.6,131.2,367.4,101.8,348.8,82.5z"/>
	<path class="st2" d="M345.2,149.8c-1.4-0.1-2.6-1.1-3.2-2.4c-0.6-1.2-0.3-2.6,0.6-3.5c14.6-15.4,14.3-39.6-0.7-54.6
		c-0.9-0.8-1.2-2.2-0.7-3.3c0.6-1.3,1.8-2.3,3.3-2.4c0.8,0,1.5,0.4,2,1c17.5,18.1,17.8,45.7,0.6,64.2
		C346.6,149.4,345.9,149.8,345.2,149.8z"/>
	<path class="st3" d="M363.2,182.9c-5.3-0.1-9.9-3.3-11.9-8.2c-1.8-4.5-0.5-9.6,3.1-12.8c24.7-22.5,26.6-60.8,4-85.6
		c-1.3-1.4-2.6-2.8-4-4c-3.6-3.2-4.9-8.3-3.1-12.8c1.9-4.9,6.6-8.1,11.9-8.2c3.1,0,6,1.2,8.3,3.3c34.5,32,36.6,85.9,4.6,120.4
		c-1.5,1.6-3,3.1-4.6,4.6C369.2,181.6,366.3,182.8,363.2,182.9L363.2,182.9L363.2,182.9z"/>
	<path class="st1" d="M367.4,58.9c-6-5.5-14.9,3.4-8.9,8.9c27.2,24.8,29.1,66.9,4.4,94c-1.4,1.5-2.9,3-4.4,4.4
		c-6,5.5,3,14.4,8.9,8.9c32.1-29.7,34-79.9,4.3-112C370.3,61.7,368.8,60.2,367.4,58.9z"/>
	<path class="st2" d="M363.2,173.9c-1.6-0.1-2.9-1.1-3.5-2.5c-0.4-1-0.1-2.3,0.8-2.9c28.4-25.9,30.4-69.9,4.5-98.3
		c-1.4-1.6-3-3.1-4.5-4.5c-0.9-0.7-1.2-1.9-0.8-2.9c0.6-1.4,2-2.4,3.5-2.5c0.8,0,1.6,0.4,2.2,0.9c30.9,28.6,32.7,76.8,4.1,107.7
		c-1.3,1.4-2.7,2.8-4.1,4.1C364.8,173.5,364,173.8,363.2,173.9L363.2,173.9L363.2,173.9z"/>
</g>
</svg>
