<svg id="mb-btn-menu" xmlns="http://www.w3.org/2000/svg" viewBox="0 0 264 264"><defs><style>.cls-1{opacity:0.4;}.cls-2{opacity:0.6;}.cls-3{fill:#bfbfbf;}.cls-4{fill:#f4f4f4;}</style></defs><title>mb-btn-menu</title><g id="mb-btn-menu-2" data-name="mb-btn-menu"><rect class="cls-1" width="264" height="264"/><path class="cls-2" d="M107.57,103c-6.89,0-12.09-5.49-12.09-12.5S100.68,78,107.57,78h84c6.89,0,12.09,5.49,12.09,12.5s-5.2,12.5-12.09,12.5h-84Z"/><path class="cls-3" d="M108,97h84c8,0,8-13,0-13H108c-9,0-9,13,0,13h0Z"/><path class="cls-4" d="M107.57,94c-2.94,0-3.09-2.95-3.09-3.5s0.15-3.5,3.09-3.5h84c2.94,0,3.09,2.95,3.09,3.5s-0.15,3.5-3.09,3.5h-84Z"/><path class="cls-2" d="M71.57,103c-6.59,0-12-5.51-12.29-12.26A11.92,11.92,0,0,1,62.62,82a12.57,12.57,0,0,1,9-4h6A12.4,12.4,0,0,1,89.87,90a12.2,12.2,0,0,1-3.34,8.88,12.71,12.71,0,0,1-9,4.11h-6Z"/><path class="cls-3" d="M71.57,97h6a6.55,6.55,0,0,0,6.3-6.5c-0.15-3.41-2.77-6.5-6.3-6.5h-6a6.55,6.55,0,0,0-6.3,6.5C65.43,93.91,68,97,71.57,97h0Z"/><path class="cls-4" d="M71.57,94c-2,0-3.23-2-3.3-3.66a3.1,3.1,0,0,1,.86-2.13A3.61,3.61,0,0,1,71.57,87h6a3.4,3.4,0,0,1,3.3,3.41A3.46,3.46,0,0,1,80,92.67,3.78,3.78,0,0,1,77.57,94h-6Z"/><path class="cls-2" d="M71.57,145c-6.59,0-12-5.51-12.29-12.26A11.92,11.92,0,0,1,62.62,124a12.57,12.57,0,0,1,9-4h6a12.4,12.4,0,0,1,12.29,12,12.2,12.2,0,0,1-3.34,8.88,12.71,12.71,0,0,1-9,4.11h-6Z"/><path class="cls-3" d="M71.57,139h6a6.55,6.55,0,0,0,6.3-6.5c-0.15-3.41-2.77-6.5-6.3-6.5h-6a6.55,6.55,0,0,0-6.3,6.5c0.15,3.41,2.77,6.5,6.3,6.5h0Z"/><path class="cls-4" d="M71.57,136c-2,0-3.23-2-3.3-3.66a3.1,3.1,0,0,1,.86-2.13A3.61,3.61,0,0,1,71.57,129h6a3.4,3.4,0,0,1,3.3,3.41,3.46,3.46,0,0,1-.86,2.26A3.78,3.78,0,0,1,77.57,136h-6Z"/><path class="cls-2" d="M107.57,145c-6.89,0-12.09-5.49-12.09-12.5s5.2-12.5,12.09-12.5h84c6.89,0,12.09,5.49,12.09,12.5s-5.2,12.5-12.09,12.5h-84Z"/><path class="cls-3" d="M108,139h84c8,0,8-13,0-13H108c-9,0-9,13,0,13h0Z"/><path class="cls-4" d="M107.57,136c-2.94,0-3.09-2.95-3.09-3.5s0.15-3.5,3.09-3.5h84c2.94,0,3.09,2.95,3.09,3.5s-0.15,3.5-3.09,3.5h-84Z"/><path class="cls-2" d="M107.57,187c-6.89,0-12.09-5.49-12.09-12.5s5.2-12.5,12.09-12.5h84c6.89,0,12.09,5.49,12.09,12.5s-5.2,12.5-12.09,12.5h-84Z"/><path class="cls-3" d="M108,181h84c8,0,8-13,0-13H108c-9,0-9,13,0,13h0Z"/><path class="cls-4" d="M107.57,178c-2.94,0-3.09-2.95-3.09-3.5s0.15-3.5,3.09-3.5h84c2.94,0,3.09,2.95,3.09,3.5s-0.15,3.5-3.09,3.5h-84Z"/><path class="cls-2" d="M71.57,187c-6.59,0-12-5.51-12.29-12.26A11.91,11.91,0,0,1,62.62,166a12.57,12.57,0,0,1,9-4h6a12.4,12.4,0,0,1,12.29,12,12.2,12.2,0,0,1-3.34,8.88,12.71,12.71,0,0,1-9,4.11h-6Z"/><path class="cls-3" d="M71.57,181h6a6.55,6.55,0,0,0,6.3-6.5c-0.15-3.41-2.77-6.5-6.3-6.5h-6a6.55,6.55,0,0,0-6.3,6.5c0.15,3.41,2.77,6.5,6.3,6.5h0Z"/><path class="cls-4" d="M71.57,178c-2,0-3.23-2-3.3-3.66a3.1,3.1,0,0,1,.86-2.13A3.61,3.61,0,0,1,71.57,171h6a3.4,3.4,0,0,1,3.3,3.41,3.46,3.46,0,0,1-.86,2.26A3.78,3.78,0,0,1,77.57,178h-6Z"/></g></svg>