<svg id="Layer_1" data-name="Layer 1" xmlns="http://www.w3.org/2000/svg" viewBox="0 0 264 264"><defs><style>.cls-1{opacity:0.4;}.cls-2{opacity:0.6;}.cls-3{fill:#bfbfbf;}.cls-4{fill:#f4f4f4;}.cls-5{fill:none;stroke:#d9d9d9;stroke-miterlimit:10;stroke-width:1.05px;}</style></defs><title>mb-btn-paytable</title><g id="mb-btn-paytable"><rect class="cls-1" width="264" height="264"/><path class="cls-2" d="M130.5,169c-7,0-12.5-5.2-12.5-12.09V134a12.44,12.44,0,0,1,12.15-12.3,16.38,16.38,0,0,0,13.55-8.21A14.74,14.74,0,0,0,130.94,91.5a16.51,16.51,0,0,0-14.18,8.26,11.65,11.65,0,0,1-10.24,6h0a13.08,13.08,0,0,1-11.16-6.46,11.68,11.68,0,0,1,.15-12A41.21,41.21,0,0,1,131.06,67a39.19,39.19,0,0,1,35.78,55.09A42.76,42.76,0,0,1,143,144v12.9C143,163.78,137.51,169,130.5,169Z"/><path class="cls-3" d="M111.57,96.74c8.3-14.26,29.17-15.54,37.49-.43,7.85,14.26-3.14,30.77-18.7,31.35A6.47,6.47,0,0,0,124,134v23c0,8,13,8,13,0V134c-2,2.1-4.33,4.2-6.43,6.3C155.65,139.33,172.63,112.7,160,90c-13-23.37-46.31-21.86-59.28.43-4.09,7,6.77,13.37,10.85,6.36h0Z"/><path class="cls-4" d="M130.5,160c-0.55,0-3.5-.15-3.5-3.09V134a3.48,3.48,0,0,1,3.48-3.3,25.44,25.44,0,0,0,21-12.77,23.15,23.15,0,0,0,.15-23A23.42,23.42,0,0,0,130.94,82.5a25.54,25.54,0,0,0-22,12.73,2.73,2.73,0,0,1-2.46,1.56h0a4.11,4.11,0,0,1-3.36-1.95,2.76,2.76,0,0,1,.13-3A32.18,32.18,0,0,1,131.06,76a30.06,30.06,0,0,1,27.45,42.38,32,32,0,0,1-22.28,18.12L134,137v19.85C134,159.83,131.05,160,130.5,160Z"/><path class="cls-5" d="M130.07,149.92"/><path class="cls-2" d="M130,197a13.27,13.27,0,1,1,13.27-13.27A13.29,13.29,0,0,1,130,197Z"/><circle class="cls-3" cx="130.02" cy="183.69" r="7.27"/><circle class="cls-4" cx="130.02" cy="183.69" r="4.27"/></g></svg>