<?xml version="1.0" encoding="utf-8"?>
<!-- Generator: Adobe Illustrator 19.2.1, SVG Export Plug-In . SVG Version: 6.00 Build 0)  -->
<svg version="1.1" id="mb-auto-spin" xmlns="http://www.w3.org/2000/svg" xmlns:xlink="http://www.w3.org/1999/xlink" x="0px"
	 y="0px" viewBox="0 0 640 224" style="enable-background:new 0 0 640 224;" xml:space="preserve">
<style type="text/css">
	.st0{opacity:0.6;}
	.st1{fill:#030303;}
	.st2{fill:#BFBFBF;}
	.st3{fill:#F4F4F4;}
</style>
<title>mb-auto-spin</title>
<g id="mb-btn-autospin-up">
	<g class="st0">
		<path class="st1" d="M365.3,180.6c-4.7-0.1-9-2.5-11.4-6.4c-0.9-1-1.7-2.1-2.2-3.3c-1.2-2.4-2.4-4.7-3.5-7
			c-2.2-4.4-4.6-9-6.9-13.9h-24.4c-2.2,4.9-4.3,9.4-6.4,13.8c-1.1,2.3-2.2,4.6-3.3,7c-1.9,4.3-6.1,7.1-10.8,7.1
			c-4.6-0.1-8.9-2.5-11.4-6.4c-2.4-3.8-2.7-8.5-0.8-12.6c-3.9,1.9-8.5,1.8-12.3-0.3l-21.8-12.1c-5.1-2.7-7.6-8.6-6.1-14.1
			c1.4-5.9,6.6-10,12.6-10.1c0.9,0,1.8,0.1,2.6,0.3c0.2-17.4,6.8-34.2,18.6-47.1c26.2-28,70.1-29.5,98.2-3.4
			c0.1,0.1,0.2,0.2,0.3,0.3c14.2,13.6,22,32.5,21.6,52.1c-0.2,20.1-8.8,39.3-23.7,52.8C371.6,179.4,368.6,180.6,365.3,180.6
			L365.3,180.6L365.3,180.6z M328.2,82.1c4.8-0.1,9.3,2.5,11.5,6.8l27.3,54.7c4.9-10.5,5.8-22.3,2.6-33.4
			c-5.2-18.4-21.9-31.1-41-31.2c-12.6,0.2-24.4,5.8-32.5,15.4c-4.6,5.4-8,11.7-9.8,18.6c1.1-0.3,2.3-0.5,3.5-0.5
			c4.8,0.1,9.2,2.6,11.7,6.7c0.2,0.3,0.4,0.7,0.5,1L316.8,89C318.9,84.7,323.4,82,328.2,82.1z"/>
	</g>
	<path class="st2" d="M371.5,77.2c-24.9-23.7-65.5-22.7-88.9,2.8c-13.5,14.8-18.7,34.1-16.2,53.6l-6.8-3.8c-7.1-4-13.4,6.9-6.4,10.9
		l21.8,12.1c3,1.7,6.8,0.7,8.6-2.3l12.1-21.8c4-7.1-6.9-13.4-10.9-6.4l-6,10.9c0-0.3,0-0.6,0-0.9c-5.6-36.9,29.4-69.9,65.8-57.2
		c34.9,12,43.2,55.4,21.7,82.2l-32.7-65.4c-2-4-8.9-4.2-10.9,0c-10.9,23.3-21.8,46.5-32.7,69.8c-3.4,7.3,7.4,13.6,10.9,6.3
		c3.8-8.1,7.6-15.6,11.4-24.6h33.1c4,9,8.1,16.5,12.1,24.6c0.4,0.8,0.9,1.5,1.6,2.1c1.7,3.4,6.5,5.6,10.3,2.2
		C397,147.4,398.6,103,371.5,77.2z M318.3,131.4c3.4-7.5,6.8-14.5,10.2-21.6c3.6,7.1,7.2,14.1,10.8,21.6H318.3L318.3,131.4z"/>
	<path class="st3" d="M365.3,170.6c-1.3-0.1-2.5-0.8-3.1-2l-0.3-0.6l-0.5-0.4c-0.3-0.3-0.6-0.6-0.7-1c-1.2-2.4-2.4-4.7-3.6-7.1
		c-2.8-5.5-5.7-11.1-8.5-17.4l-0.9-2h-37.4l-0.9,2c-2.6,6.3-5.4,11.9-8,17.4c-1.1,2.3-2.2,4.7-3.4,7c-0.2,0.8-0.9,1.3-1.7,1.3
		c-1.2-0.1-2.3-0.7-2.9-1.8c-0.6-0.9-0.6-2-0.1-3l32.7-69.8c0.5-0.8,1.4-1.2,2.3-1.2c1-0.1,2,0.4,2.5,1.2l34.9,70.1l3.3-4.1
		c11.7-14.6,15.5-34,10.3-52c-6.5-22.6-27.1-38.2-50.6-38.3c-15.1,0-29.8,6.9-40.1,18.9c-10.7,12.4-15.4,28.8-13,44.9
		c0,0.1,0,0.2,0,0.3l0.3,12.5l12-21.5c0.4-0.8,1.2-1.4,2.1-1.4c1.2,0.1,2.4,0.7,3,1.8c0.5,0.8,0.5,1.9-0.1,2.7l-12.1,21.8
		c-0.5,0.9-1.5,1.4-2.5,1.4c-0.5,0-1.1-0.1-1.5-0.4l-21.8-12.1c-1.1-0.5-1.6-1.7-1.3-2.8c0.3-1.4,1.5-2.5,2.9-2.6
		c0.5,0,1,0.2,1.5,0.4l12.6,7l-0.8-6.6c-2.4-19.4,3-37.5,15.4-51c22.4-23.9,60-25.2,84-2.7c0,0,0.1,0.1,0.1,0.1
		c12.2,11.6,18.9,27.9,18.5,44.7c-0.2,17.3-7.6,33.8-20.4,45.5C366.7,170.2,366,170.5,365.3,170.6L365.3,170.6L365.3,170.6z
		 M323.3,112.7c-2.7,5.6-5.4,11.3-8.1,17.3l-2.1,4.7h31.5l-2.3-4.8c-2.9-6-5.8-11.8-8.6-17.3l-2.2-4.4l-3.1-6.1L323.3,112.7z"/>
</g>
</svg>
