<?xml version="1.0" encoding="utf-8"?>
<!-- Generator: Adobe Illustrator 19.2.1, SVG Export Plug-In . SVG Version: 6.00 Build 0)  -->
<svg version="1.1" id="Layer_1" xmlns="http://www.w3.org/2000/svg" xmlns:xlink="http://www.w3.org/1999/xlink" x="0px" y="0px"
	 viewBox="0 0 640 224" style="enable-background:new 0 0 640 224;" xml:space="preserve">
<style type="text/css">
	.st0{opacity:0.6;}
	.st1{fill:#232020;}
	.st2{fill:#BFBFBF;}
	.st3{fill:#F4F4F4;}
</style>
<title>mb-btn-home</title>
<g id="mb-btn-home-up">
	<g class="st0">
		<path class="st1" d="M270.8,192c-6.8,0-11.8-4.8-11.8-11.4v-69.7h0.4c1.4-4.8,5.9-8.1,11.6-8.1c6.8,0,12,4.8,12,11.2v54h72v-54
			c0-6.4,5.2-11.2,12-11.2s12,4.8,12,11.2v66.6c0,6.5-5.2,11.4-12.2,11.4H270.8z"/>
		<path class="st1" d="M253.2,120.4c-5.5,0-10.4-3.5-12.3-8.6c-1.6-4.5-0.1-9.6,3.7-12.5l33-27c11-9,22-18,33-27
			c4.7-4.1,11.8-4.1,16.5,0l33,27l33,27c3.8,2.9,5.3,8,3.7,12.5c-1.9,5.1-6.8,8.6-12.3,8.6c-2.9,0-5.7-1-7.9-2.9
			c-11-9-22-18-33-26.9l-24.7-20.2L294,90.6c-11,8.9-21.9,17.9-32.9,26.9C258.9,119.4,256.1,120.4,253.2,120.4L253.2,120.4
			L253.2,120.4z"/>
		<path class="st1" d="M297.7,108v-0.5c-5.1-1.5-8.5-6.3-8.3-11.5c0-6.8,5-12,11.6-12h36c8.3,0,12.8,6.2,12.8,12s-4.5,12-12.8,12
			H297.7z"/>
		<path class="st1" d="M288.8,155c-5.8,0-10.8-4.8-10.8-10.4v-24c0.2-5.9,5-10.5,10.8-10.6h24c5.7,0.1,10.3,4.9,10.2,10.6v20.6
			c1,3,0.6,6.3-1.1,9c-1.9,3.1-5.3,4.9-8.9,4.8H288.8z M302,134v-3h-3v3H302z"/>
	</g>
	<path class="st2" d="M265,114v66.6c0,3.4,2.4,5.4,5.8,5.4h96c3.4,0,6.2-2,6.2-5.4V114c0-7-12-7-12,0v66.6c1.7-2.4,3.7-4.6,5.8-6.6
		h-96c2.2,2,4.3,4.2,6.2,6.6V114C277,107,265,107,265,114L265,114z"/>
	<path class="st2" d="M257.3,112.9c22-18,44-35.9,66-53.9h-8.9c22,18,44,35.9,66,53.9c6.2,5.1,15.2-3.8,8.9-9c-22-18-44-36-66-54
		c-2.5-2.3-6.4-2.3-8.9,0c-22,18-44,36-66,54.1C242.1,109.1,251,118,257.3,112.9L257.3,112.9L257.3,112.9z"/>
	<path class="st2" d="M301,102h36c9,0,9-12,0-12h-36C293.5,90,293.5,102,301,102L301,102z"/>
	<path class="st2" d="M313,140h-24.2c1.6,1.3,3.1,2.9,4.2,4.6v-24c-1,1.5-2.7,2.4-4.2,4.4h24c-1.4-1.7-3-3.2-4.8-4.4V144
		c0,6,9,6,9,0v-23.4c0.1-2.4-1.8-4.5-4.2-4.6c0,0,0,0,0,0h-24c-2.5,0.1-4.6,2.1-4.8,4.6v24c0,2.4,2.4,4.4,4.8,4.4H313
		C319,149,319,140,313,140z"/>
	<path class="st3" d="M270.8,183c-2.8,0-2.8-1.8-2.8-2.4V114c0-2.2,2.7-2.2,3-2.2s3,0.1,3,2.2v63h90v-63c0-2.2,2.7-2.2,3-2.2
		s3,0.1,3,2.2v66.6c0,2.2-2.4,2.4-3.2,2.4H270.8z"/>
	<path class="st3" d="M253.2,111.4c-1.7-0.1-3.2-1.1-3.8-2.6c-0.4-1,0-2,0.9-2.5l33-27c11-9,22-18,33-27c0.7-0.6,1.6-1,2.5-1.1
		c1,0.1,1.9,0.4,2.6,1.1l33,27l33,27c0.9,0.5,1.3,1.6,0.9,2.5c-0.6,1.5-2.1,2.6-3.8,2.6c-0.8,0-1.6-0.3-2.2-0.8c-11-9-22-18-33-26.9
		c-9.5-7.8-19-15.5-28.6-23.3l-1.9-1.5l-1.9,1.5c-9.5,7.8-19.1,15.6-28.6,23.3c-11,9-22,17.9-33,26.9
		C254.7,111.1,253.9,111.4,253.2,111.4L253.2,111.4L253.2,111.4z"/>
	<path class="st3" d="M301,99c-2.5,0-2.6-2.5-2.6-3s0.1-3,2.6-3h36c2.8,0,3.8,1.6,3.8,3s-1,3-3.8,3H301z"/>
	<path class="st3" d="M288.8,146c-0.8,0-1.6-0.6-1.8-1.4v-24c0.2-0.9,0.9-1.6,1.8-1.6h24c0.8,0.2,1.3,0.9,1.2,1.6V143l0.3,0.6
		c0.3,0.6,0.2,1.2-0.1,1.8c-0.3,0.4-0.8,0.7-1.3,0.6H288.8z M290,143h21v-21h-21V143z"/>
</g>
</svg>
