<?xml version="1.0" encoding="utf-8"?>
<!-- Generator: Adobe Illustrator 19.2.1, SVG Export Plug-In . SVG Version: 6.00 Build 0)  -->
<svg version="1.1" id="mb-btn-history" xmlns="http://www.w3.org/2000/svg" xmlns:xlink="http://www.w3.org/1999/xlink" x="0px"
	 y="0px" viewBox="0 0 640 224" style="enable-background:new 0 0 640 224;" xml:space="preserve">
<style type="text/css">
	.st0{opacity:0.6;}
	.st1{fill:#232020;}
	.st2{fill:#BFBFBF;}
	.st3{fill:#F4F4F4;}
</style>
<title>mb-btn-history</title>
<g id="mb-btn-history-up">
	<g class="st0">
		<path class="st1" d="M320,191.4c-36,0.3-65.5-28.7-65.8-64.7c-0.1-15.3,5.1-30.2,14.9-42c6-7.3,13.6-13.2,22.1-17.3
			c2.5-14.9,13.5-24.7,28.3-24.7s25.9,9.8,28.4,24.7c1.5,0.7,2.9,1.5,4.3,2.3c2.1-1.5,4.6-2.3,7.1-2.2c5.5-0.1,10.4,3.6,11.7,9
			c0.8,2.9,0.5,6-0.8,8.8c9.3,11.6,14.5,26,14.7,40.9v0.2c-0.6,31.3-22.6,58.1-52.3,63.9C328.5,191,324.3,191.4,320,191.4L320,191.4
			L320,191.4z M319.5,85.3c-15.6,0-29.6,9.3-36.5,24.4c-6.8,14.8-4.8,30.7,5.5,42.7c7.8,9.2,19.3,14.4,31.4,14.4
			c4.7,0,9.5-0.8,13.9-2.5c15.5-5.7,26.2-21.1,26.6-38.2c-0.4-19.7-14.4-36.6-33.4-40.1C324.5,85.5,322,85.3,319.5,85.3z"/>
		<path class="st1" d="M318.8,138c-7.4,0-12.8-4.7-12.8-11.1V99c0-6.4,5.6-11.2,13-11.2s13,4.8,13,11.2v15h7c8.3,0,12.8,6.2,12.8,12
			c0,5.8-4.5,12-12.8,12H318.8z"/>
	</g>
	<path class="st2" d="M362.4,85.2c4.9-2.7,3.9-11.8-3-11.8c-2.7-0.1-5.1,1.6-5.8,4.2c-3.5-2.5-7.3-4.6-11.2-6.2
		c-1-12.8-9-22.7-22.8-22.7s-21.9,10-22.8,22.8c-9,3.7-16.9,9.5-23,17c-15.6,19.2-17.7,46.1-5.4,67.6c12.8,21.8,38.4,33,63.1,28.2
		c27.7-5.4,47-30.4,47.5-58.2C378.7,110.9,372.8,96.3,362.4,85.2z M319.6,57.7c7.6,0,11.9,4.4,13.3,10.6c-8.8-2-17.9-1.9-26.7,0.1
		C307.7,62.1,312,57.7,319.6,57.7z M335.8,170c-18.5,6.7-39.1,1.2-51.9-13.7c-27.9-32.8,2-84.1,44.2-76.2
		c22.2,4.1,37.8,23.7,38.2,46C366,145.5,354.3,163.2,335.8,170z"/>
	<path class="st2" d="M339,120h-13V99c0-7-14-7-14,0v27.9c0,3.4,3.4,5.1,6.8,5.1H339C348,132,348,120,339,120z"/>
	<path class="st3" d="M320,182.4c-31.1,0.3-56.5-24.6-56.8-55.7c-0.1-13.2,4.4-26.1,12.8-36.3c5.8-7.1,13.4-12.7,21.9-16.2l1.7-0.7
		l0.1-1.8c1.1-14.8,10.9-20,19.8-20c13.6,0,19.2,10.3,19.9,20l0.1,1.8l1.7,0.7c3.8,1.6,7.3,3.6,10.6,5.9l3.4,2.4l1.2-4
		c0.5-1.6,2.2-2.5,3.8-2c1,0.3,1.7,1.1,2,2.1c0.5,1.5-0.1,3.1-1.4,4l-3.4,1.9l2.6,2.8c9.9,10.5,15.5,24.3,15.8,38.8
		c-0.5,27-19.5,50.2-45,55.2C327.4,182,323.7,182.3,320,182.4L320,182.4L320,182.4z M319.5,76.3c-19.1,0-36.2,11.3-44.7,29.6
		c-8.3,18-5.8,37.6,6.8,52.4c9.6,11.2,23.5,17.6,38.2,17.5c5.8,0,11.6-1,17-3c19-7,32.1-25.7,32.5-46.6V126
		c-0.5-24-17.6-44.6-40.7-48.9C325.6,76.6,322.6,76.3,319.5,76.3z M319.6,54.7c-8.4,0-14.4,4.8-16.3,13.1l-1.1,4.7l4.7-1.1
		c4.3-1,8.6-1.5,13-1.5c4.2,0,8.3,0.5,12.4,1.4l4.7,1.1l-1.1-4.7c-1.9-8.2-7.8-13-16.1-13L319.6,54.7L319.6,54.7z"/>
	<path class="st3" d="M318.8,129c-1,0-3.8-0.4-3.8-2.1V99c0-1.8,2.9-2.2,4-2.2s4,0.4,4,2.2v24h16c2.8,0,3.8,1.6,3.8,3s-1,3-3.8,3
		H318.8z"/>
</g>
</svg>
