<svg id="mb-btn-paytable-close" xmlns="http://www.w3.org/2000/svg" viewBox="0 0 264 264"><defs><style>.cls-1{opacity:0.4;}.cls-2{opacity:0.6;}.cls-3{fill:#bfbfbf;}.cls-4{fill:#f4f4f4;}</style></defs><title>mb-btn-paytable-close</title><g id="mb-btn-paytable-close-2" data-name="mb-btn-paytable-close"><rect class="cls-1" width="264" height="264"/><path class="cls-2" d="M84.27,191.76a12.8,12.8,0,0,1-11.49-7.83,12,12,0,0,1,2.42-13.14l37.14-39.1L75.2,92.59a12,12,0,0,1-2.42-13.14,12.8,12.8,0,0,1,11.49-7.84,11.75,11.75,0,0,1,8.54,3.8l36.5,38.42L165.19,76a11.75,11.75,0,0,1,8.54-3.8,12.8,12.8,0,0,1,11.49,7.83,12,12,0,0,1-2.42,13.14l-36.54,38.47,36.54,38.47a12,12,0,0,1,2.42,13.14,12.8,12.8,0,0,1-11.49,7.83h0a11.75,11.75,0,0,1-8.54-3.8L129.3,149.54,92.8,188A11.75,11.75,0,0,1,84.27,191.76Z"/><path class="cls-3" d="M178.45,174.28L138,131.68,167.18,101l11.28-11.87c5.58-5.88-3.31-14.8-8.91-8.91L129.3,122.54,99.73,91.42,88.45,79.55c-5.6-5.89-14.5,3-8.91,8.91l41.07,43.23L90.82,163,79.55,174.91c-5.58,5.88,3.31,14.8,8.91,8.91l40.85-43,29,30.49,11.28,11.87C175.14,189.08,184,180.16,178.45,174.28Z"/><path class="cls-4" d="M84.27,182.76A3.86,3.86,0,0,1,81,180.37a2.92,2.92,0,0,1,.67-3.39l43-45.3-43-45.3A2.92,2.92,0,0,1,81,83a3.86,3.86,0,0,1,3.22-2.39,2.75,2.75,0,0,1,2,1l43,45.28,42.42-44.65a2.75,2.75,0,0,1,2-1A3.86,3.86,0,0,1,177,83.63a2.92,2.92,0,0,1-.67,3.39l-42.43,44.66,42.43,44.66a2.92,2.92,0,0,1,.68,3.39,3.87,3.87,0,0,1-3.22,2.39h0a2.75,2.75,0,0,1-2-1L129.3,136.47l-43,45.28A2.75,2.75,0,0,1,84.27,182.76Z"/></g></svg>