<?xml version="1.0" standalone="no"?>
<!DOCTYPE svg PUBLIC "-//W3C//DTD SVG 1.1//EN" "http://www.w3.org/Graphics/SVG/1.1/DTD/svg11.dtd" >
<svg>
<metadata>
Created by FontForge 20090622 at Thu Feb 27 15:50:35 2020
 By deploy user
Copyright (c) 2017 by PYRS Fontlab Ltd. / Made with FontLab. All rights reserved.
</metadata>
<defs>
<font id="BernhardGothicMedium" horiz-adv-x="442" >
  <font-face 
    font-family="BernhardGothicMedium"
    font-weight="400"
    font-stretch="normal"
    units-per-em="1000"
    panose-1="2 0 0 0 0 0 0 0 0 0"
    ascent="800"
    descent="-200"
    x-height="332"
    cap-height="652"
    bbox="-51 -246 1009 827"
    underline-thickness="50"
    underline-position="-50"
    unicode-range="U+0020-U+FB02"
  />
<missing-glyph horiz-adv-x="136" 
 />
    <glyph glyph-name=".notdef" horiz-adv-x="136" 
 />
    <glyph glyph-name=".null" horiz-adv-x="0" 
 />
    <glyph glyph-name="nonmarkingreturn" horiz-adv-x="333" 
 />
    <glyph glyph-name="space" unicode=" " horiz-adv-x="136" 
 />
    <glyph glyph-name="exclam" unicode="!" horiz-adv-x="186" 
d="M146 98v-98h-106v98h106zM146 652v-512h-106v506z" />
    <glyph glyph-name="quotedbl" unicode="&#x22;" horiz-adv-x="306" 
d="M136 652l-20 -142h-56l-20 142h96zM266 652l-20 -142h-56l-20 142h96z" />
    <glyph glyph-name="numbersign" unicode="#" horiz-adv-x="544" 
d="M100 471h74l36 181h96l-36 -181h64l36 181h96l-36 -181h74l-20 -96h-73l-13 -64h82l-20 -96h-81l-43 -215h-96l43 215h-64l-43 -215h-96l43 215h-83l20 96h82l13 64h-75zM251 375l-13 -64h64l13 64h-64z" />
    <glyph glyph-name="dollar" unicode="$" horiz-adv-x="444" 
d="M312 175q0 44 -43 76v-153q19 6 31 30.5t12 46.5zM183 407v148q-39 -33 -39 -76q0 -54 39 -72zM404 187q0 -63 -34.5 -115.5t-100.5 -64.5v-35h-86v22q-85 19 -143 91l54 78q32 -38 47.5 -49.5t41.5 -19.5v194q-139 77 -139 181q0 71 37 112.5t102 65.5v23h86v-22
q31 -7 71 -32t60 -55l-67 -70q-3 17 -24 40.5t-40 27.5v-192q135 -69 135 -180z" />
    <glyph glyph-name="percent" unicode="%" horiz-adv-x="492" 
d="M404 142q0 39 -14.5 66.5t-34.5 27.5t-35 -27.5t-15 -66.5t15 -66.5t35 -27.5t34.5 27.5t14.5 66.5zM452 143q0 -59 -28.5 -101t-68.5 -42t-68.5 42t-28.5 101t28.5 101t68.5 42t68.5 -42t28.5 -101zM186 509q0 39 -14.5 66.5t-34.5 27.5t-35 -27.5t-15 -66.5t15 -66.5
t35 -27.5t34.5 27.5t14.5 66.5zM234 510q0 -59 -28.5 -101t-68.5 -42t-68.5 42t-28.5 101t28.5 101t68.5 42t68.5 -42t28.5 -101zM377 652l-202 -652h-62l202 652h62z" />
    <glyph glyph-name="ampersand" unicode="&#x26;" horiz-adv-x="524" 
d="M284 161l-70 74q-25 -16 -39 -27t-28.5 -30.5t-14.5 -38.5q0 -21 13 -34.5t34 -13.5q19 0 38 10.5t30.5 21.5t36.5 38zM292 418q0 18 -11 33.5t-31 15.5q-22 0 -34 -16.5t-12 -37.5q0 -36 34 -68q54 52 54 73zM394 160l90 -95l-54 -66q-62 66 -88 96q-28 -32 -49 -51.5
t-54 -36t-67 -16.5q-67 0 -99.5 44t-32.5 108q0 43 36.5 83t88.5 67q-16 15 -24 24.5t-18.5 36.5t-10.5 61q0 59 40 99.5t100 40.5q57 0 92.5 -38t35.5 -88q0 -46 -20.5 -77.5t-70.5 -66.5l53 -62l76 88l46 -70z" />
    <glyph glyph-name="quotesingle" unicode="'" horiz-adv-x="176" 
d="M136 652l-20 -142h-56l-20 142h96z" />
    <glyph glyph-name="parenleft" unicode="(" horiz-adv-x="312" 
d="M205 701l67 -58q-79 -88 -109.5 -154.5t-30.5 -155.5q0 -174 139 -313l-57 -67q-81 71 -127.5 175.5t-46.5 204.5q0 95 42.5 190.5t122.5 177.5z" />
    <glyph glyph-name="parenright" unicode=")" horiz-adv-x="312" 
d="M272 333q0 -100 -46.5 -204.5t-127.5 -175.5l-57 67q139 138 139 313q0 89 -30.5 155.5t-109.5 154.5l67 58q80 -82 122.5 -177.5t42.5 -190.5z" />
    <glyph glyph-name="asterisk" unicode="*" horiz-adv-x="297" 
d="M237 605l20 -54l-60 -26l38 -54l-42 -31l-43 54l-41 -54l-45 31l38 56l-62 25l17 50l63 -19v65h59v-68z" />
    <glyph glyph-name="plus" unicode="+" horiz-adv-x="376" 
d="M140 115v100h-100v96h100v100h96v-100h100v-96h-100v-100h-96z" />
    <glyph glyph-name="comma" unicode="," horiz-adv-x="277" 
d="M146 96h91l-126 -249h-71z" />
    <glyph glyph-name="hyphen" unicode="-" horiz-adv-x="376" 
d="M40 311h296v-96h-296v96z" />
    <glyph glyph-name="period" unicode="." horiz-adv-x="176" 
d="M136 96v-96h-96v96h96z" />
    <glyph glyph-name="slash" unicode="/" horiz-adv-x="576" 
d="M536 646l-400 -646h-96l400 646h96z" />
    <glyph glyph-name="zero" unicode="0" 
d="M319 279q0 78 -28.5 132.5t-69.5 54.5t-70 -54.5t-29 -132.5t29 -133t70 -55t69.5 55t28.5 133zM415 280q0 -118 -57 -202t-137 -84t-137 84t-57 202t57 202t137 84t137 -84t57 -202z" />
    <glyph glyph-name="one" unicode="1" 
d="M289 556v-556h-106v372l-30 -5v107z" />
    <glyph glyph-name="two" unicode="2" 
d="M224 102h170l-25 -102h-320l134 179q56 76 85.5 124.5t29.5 78.5q0 33 -24.5 54.5t-52.5 21.5q-32 0 -53.5 -20.5t-21.5 -47.5t23 -49t57 -28l-45 -71q-53 4 -90 45.5t-37 94.5q0 75 50 124.5t124 49.5q64 0 113 -52t49 -117q0 -47 -34.5 -110.5t-66.5 -102t-65 -72.5z
" />
    <glyph glyph-name="three" unicode="3" 
d="M379 163q0 -72 -52 -120t-122 -48q-31 0 -70 18.5t-72 59.5l58 66q20 -32 39.5 -46t44.5 -14q32 0 57 25.5t25 56.5q0 40 -25.5 58t-64.5 18l-43 -6v84q25 -4 43 -4q37 0 63.5 24.5t26.5 60.5q0 32 -26 52t-52 20q-24 0 -48.5 -16t-34.5 -48l-63 49q22 49 63.5 76
t84.5 27q66 0 115 -45.5t49 -114.5q0 -70 -55 -118q59 -42 59 -115z" />
    <glyph glyph-name="four" unicode="4" 
d="M172 217h80v123zM422 217v-89h-64v-122l-106 -6v128h-232l268 428h70v-339h64z" />
    <glyph glyph-name="five" unicode="5" 
d="M379 184q0 -81 -60 -135.5t-138 -54.5q-61 0 -118 45l33 79q38 -44 87 -44q47 0 75.5 35t28.5 77q0 50 -35.5 77t-80.5 27q-19 0 -44 -10.5t-40 -25.5v275h288l-37 -87h-172v-75q22 7 50 7q72 0 117.5 -54.5t45.5 -135.5z" />
    <glyph glyph-name="six" unicode="6" 
d="M323 189q0 42 -30 72t-72 30t-72 -30t-30 -72t30 -72t72 -30t72 30t30 72zM419 186q0 -80 -60 -136t-140 -56q-92 0 -144 61.5t-52 140.5q0 156 213 374l89 -46q-40 -36 -79.5 -81t-56.5 -72q39 8 56 8q82 0 128 -60.5t46 -132.5z" />
    <glyph glyph-name="seven" unicode="7" 
d="M53 536h335l-136 -530l-107 -6l127 445h-219v91z" />
    <glyph glyph-name="eight" unicode="8" 
d="M299 156q0 20 -14.5 36t-27.5 22.5t-36 15.5q-78 -22 -78 -74q0 -33 22.5 -53.5t55.5 -20.5t55.5 20t22.5 54zM299 396q0 30 -25.5 50t-52.5 20q-31 0 -54.5 -20.5t-23.5 -49.5q0 -58 78 -86q78 39 78 86zM391 154q0 -69 -51 -114.5t-119 -45.5q-72 0 -121 51t-49 109
q0 37 20 68.5t51 50.5q-71 61 -71 121q0 69 52.5 114.5t117.5 45.5q69 0 117.5 -46t48.5 -112q0 -40 -15 -64.5t-52 -58.5q23 -14 36 -24.5t24 -35t11 -59.5z" />
    <glyph glyph-name="nine" unicode="9" 
d="M323 375q0 42 -30 72t-72 30t-72 -30t-30 -72t30 -72t72 -30t72 30t30 72zM419 368q0 -158 -213 -374l-89 46q40 36 79.5 81t56.5 72q-39 -8 -56 -8q-82 0 -128 60.5t-46 132.5q0 80 60 136t140 56q93 0 144.5 -61t51.5 -141z" />
    <glyph glyph-name="colon" unicode=":" horiz-adv-x="176" 
d="M136 96v-96h-96v96h96zM136 256v-96h-96v96h96z" />
    <glyph glyph-name="semicolon" unicode=";" horiz-adv-x="282" 
d="M146 96h91l-126 -249h-71zM242 256v-96h-96v96h96z" />
    <glyph glyph-name="less" unicode="&#x3c;" horiz-adv-x="256" 
d="M136 179l80 -96l-62 -38l-114 130l114 134l62 -38z" />
    <glyph glyph-name="equal" unicode="=" horiz-adv-x="376" 
d="M40 241h296v-96h-296v96zM40 381h296v-96h-296v96z" />
    <glyph glyph-name="greater" unicode="&#x3e;" horiz-adv-x="256" 
d="M40 83l80 96l-80 92l62 38l114 -134l-114 -130z" />
    <glyph glyph-name="question" unicode="?" horiz-adv-x="428" 
d="M264 102v-102h-104v102h104zM388 469q0 -46 -19.5 -86.5t-42.5 -65t-42.5 -55t-19.5 -57.5v-61h-104v80q0 28 13 53.5t32 45.5l38 40.5t32 47.5t13 58q0 41 -22 67.5t-60 26.5q-40 0 -61.5 -38t-21.5 -78l-83 33q0 70 51.5 122.5t122.5 52.5q81 0 127.5 -54t46.5 -132z
" />
    <glyph glyph-name="at" unicode="@" horiz-adv-x="538" 
d="M329 329q0 28 -14 47t-45 19q-41 0 -63 -31.5t-22 -69.5q0 -32 16 -55t50 -23q40 0 59 35.5t19 77.5zM356 174q-37 0 -45 32q-29 -30 -67 -30q-51 0 -76.5 35.5t-25.5 80.5q0 56 34 100t92 44q55 0 79 -42l5 31h38l-33 -175q-3 -14 -3 -24q0 -20 15 -20q37 0 68 45.5
t31 86.5q0 82 -56 130t-131 48q-86 0 -145 -59.5t-59 -143.5q0 -87 61.5 -146t144.5 -59t150 73h41q-67 -105 -192 -105q-101 0 -171.5 65.5t-70.5 169.5q0 103 70 170t169 67q95 0 157 -55t62 -149q0 -64 -42.5 -117t-99.5 -53z" />
    <glyph glyph-name="A" unicode="A" horiz-adv-x="724" 
d="M287 345h132l-69 124zM362 656l347 -631l-97 -25l-144 256h-226l-132 -256l-95 25l321 631h26z" />
    <glyph glyph-name="B" unicode="B" horiz-adv-x="456" 
d="M331 179q0 31 -25 66t-65 35h-85v-192h101q34 0 54 31t20 60zM327 462q0 38 -21.5 70t-60.5 32h-89v-192h91q27 0 53.5 30t26.5 60zM431 178q0 -68 -42.5 -123t-111.5 -55h-227v646h219q75 0 116.5 -49.5t41.5 -120.5q0 -97 -80 -142q52 -39 68 -66.5t16 -89.5z" />
    <glyph glyph-name="C" unicode="C" horiz-adv-x="512" 
d="M487 112l-27 -106q-51 -12 -111 -12q-132 0 -220.5 92t-88.5 237q0 139 87.5 234t221.5 95q30 0 57.5 -3t40.5 -6l13 -3l27 -99q-57 16 -104 16q-107 0 -171 -65.5t-64 -168.5q0 -97 63 -161.5t172 -64.5q21 0 47 3.5t42 7.5z" />
    <glyph glyph-name="D" unicode="D" horiz-adv-x="593" 
d="M449 323q0 98 -54.5 159.5t-155.5 61.5h-83v-442h91q87 0 144.5 68t57.5 153zM553 323q0 -124 -81 -223.5t-213 -99.5h-209v646h189q143 0 228.5 -89.5t85.5 -233.5z" />
    <glyph glyph-name="E" unicode="E" horiz-adv-x="455" 
d="M156 102h274l-37 -102h-343v646h323l26 -102h-243v-158h193v-102h-193v-182z" />
    <glyph glyph-name="F" unicode="F" horiz-adv-x="424" 
d="M373 646l26 -102h-243v-158h193v-102h-193v-278l-106 -6v646h323z" />
    <glyph glyph-name="G" unicode="G" horiz-adv-x="673" 
d="M625 368v-283q-50 -44 -121.5 -67.5t-140.5 -23.5q-143 0 -240.5 94t-97.5 232q0 148 99 240t249 92q83 0 134.5 -18t102.5 -61l-71 -67q-21 18 -36.5 28.5t-49 21t-74.5 10.5q-112 0 -180 -73.5t-68 -184.5q0 -95 72 -156.5t166 -61.5q93 0 160 49v145h-115v84h211z" />
    <glyph glyph-name="H" unicode="H" horiz-adv-x="640" 
d="M590 652v-646l-106 -6v291h-328v-285l-106 -6v646l106 6v-277h328v271z" />
    <glyph glyph-name="I" unicode="I" horiz-adv-x="206" 
d="M156 652v-646l-106 -6v646z" />
    <glyph glyph-name="J" unicode="J" horiz-adv-x="336" 
d="M286 652v-462q0 -61 -35.5 -106.5t-82 -64.5t-94.5 -19h-54v102h63q45 0 71 36.5t26 76.5v431z" />
    <glyph glyph-name="K" unicode="K" horiz-adv-x="524" 
d="M273 333l236 -290l-94 -47l-259 329v-319l-106 -6v646l106 6v-312l242 312l90 -49z" />
    <glyph glyph-name="L" unicode="L" horiz-adv-x="464" 
d="M156 102h293l-33 -102h-366v646l106 6v-550z" />
    <glyph glyph-name="M" unicode="M" horiz-adv-x="826" 
d="M696 646l80 -640l-106 -6l-38 360l-219 -362l-220 346l-39 -338l-106 -6l62 646h18l288 -441l262 441h18z" />
    <glyph glyph-name="N" unicode="N" horiz-adv-x="622" 
d="M574 652v-654h-14l-406 409v-401l-106 -6v646h18l402 -411v411z" />
    <glyph glyph-name="O" unicode="O" horiz-adv-x="772" 
d="M628 323q0 97 -71 165t-171 68t-171 -68t-71 -165t71 -165t171 -68t171 68t71 165zM732 323q0 -138 -101.5 -235.5t-244.5 -97.5t-244.5 97.5t-101.5 235.5t101.5 235.5t244.5 97.5t244.5 -97.5t101.5 -235.5z" />
    <glyph glyph-name="P" unicode="P" horiz-adv-x="473" 
d="M333 442q0 45 -31 73.5t-86 28.5h-60v-200h60q53 0 85 25.5t32 72.5zM433 447q0 -92 -59 -148.5t-145 -56.5h-73v-236l-106 -6v646h173q98 0 154 -58.5t56 -140.5z" />
    <glyph glyph-name="Q" unicode="Q" horiz-adv-x="772" 
d="M628 323q0 97 -71 165t-171 68t-171 -68t-71 -165t71 -165t171 -68q71 0 129 36l-48 56l80 59l40 -48q41 58 41 130zM732 323q0 -119 -78 -210l66 -77l-78 -61l-61 72q-89 -57 -195 -57q-143 0 -244.5 97.5t-101.5 235.5t101.5 235.5t244.5 97.5t244.5 -97.5
t101.5 -235.5z" />
    <glyph glyph-name="R" unicode="R" horiz-adv-x="474" 
d="M318 453q0 38 -28.5 64.5t-77.5 26.5h-56v-177h56q39 0 72.5 24t33.5 62zM287 280l172 -244l-101 -49l-202 290v-271l-106 -6v646h177q86 0 140.5 -49.5t54.5 -137.5q0 -140 -135 -179z" />
    <glyph glyph-name="S" unicode="S" horiz-adv-x="460" 
d="M420 554l-66 -70q-28 43 -53.5 61.5t-58.5 18.5q-40 0 -67 -27t-27 -65q0 -21 8.5 -37.5t28.5 -29.5t34.5 -20t44.5 -19q28 -11 44 -18.5t39.5 -23t36.5 -31.5t22.5 -42t9.5 -57q0 -88 -57 -145t-145 -57q-60 0 -110 28.5t-64 75.5l75 68q15 -38 41.5 -59t55.5 -21
q42 0 71 27t29 67q0 14 -3 25.5t-11.5 21.5l-13.5 16t-21.5 14.5t-22 11t-26.5 11l-26 10.5q-34 14 -52 24t-42 29.5t-35 49t-11 69.5q0 93 59.5 145t150.5 52q45 0 92 -30.5t70 -72.5z" />
    <glyph glyph-name="T" unicode="T" horiz-adv-x="464" 
d="M449 646v-102h-164v-538l-106 -6v544h-164l6 102h428z" />
    <glyph glyph-name="U" unicode="U" horiz-adv-x="564" 
d="M516 652v-458q0 -89 -73 -150t-160 -61q-90 0 -161.5 60.5t-71.5 150.5v452l106 6v-448q0 -51 40 -86t87 -35q51 0 89 33.5t38 87.5v442z" />
    <glyph glyph-name="V" unicode="V" horiz-adv-x="677" 
d="M540 646h122l-302 -652h-30l-315 652h122l209 -435z" />
    <glyph glyph-name="W" unicode="W" horiz-adv-x="972" 
d="M847 646h110l-308 -652h-33l-124 255l-123 -255h-29l-325 652h114l228 -451l85 162l-143 289h114l83 -167l83 167h107l-136 -285l84 -173z" />
    <glyph glyph-name="X" unicode="X" horiz-adv-x="568" 
d="M343 333l210 -293l-93 -49l-179 240l-167 -240l-90 49l186 282l-195 271l95 62l168 -233l155 233l93 -62z" />
    <glyph glyph-name="Y" unicode="Y" horiz-adv-x="542" 
d="M428 651l99 -36l-271 -624l-100 22l111 262l-252 311l99 66l203 -264z" />
    <glyph glyph-name="Z" unicode="Z" horiz-adv-x="591" 
d="M200 102h366l-26 -102h-515l342 544h-342l26 102h499z" />
    <glyph glyph-name="bracketleft" unicode="[" horiz-adv-x="239" 
d="M199 -32v-65h-159v840h159v-65h-94v-710h94z" />
    <glyph glyph-name="backslash" unicode="\" horiz-adv-x="576" 
d="M440 0l-400 646h96l400 -646h-96z" />
    <glyph glyph-name="bracketright" unicode="]" horiz-adv-x="239" 
d="M199 743v-840h-159v65h94v710h-94v65h159z" />
    <glyph glyph-name="asciicircum" unicode="^" horiz-adv-x="228" 
d="M156 827l32 -116h-40l-34 52l-34 -52h-40l32 116h84z" />
    <glyph glyph-name="underscore" unicode="_" horiz-adv-x="396" 
d="M40 -69h316v-96h-316v96z" />
    <glyph glyph-name="grave" unicode="`" horiz-adv-x="196" 
d="M124 827l32 -116h-40l-76 116h84z" />
    <glyph glyph-name="a" unicode="a" horiz-adv-x="354" 
d="M236 123q0 17 -16.5 28.5t-39.5 11.5t-39.5 -11.5t-16.5 -28.5t16.5 -29t39.5 -12t39.5 12t16.5 29zM319 279v-279h-75l-8 20q-36 -26 -90 -26q-53 0 -85.5 39t-32.5 93q0 59 39 90.5t97 31.5q13 0 31 -4t29 -8l12 -4q0 28 -14 41t-46 13q-13 0 -35 -4t-37 -8l-16 -3
l18 68q66 17 103 17q48 0 79 -23.5t31 -53.5z" />
    <glyph glyph-name="b" unicode="b" horiz-adv-x="439" 
d="M323 179q0 40 -28 68.5t-68 28.5t-68 -28.5t-28 -68.5q0 -41 28 -69.5t68 -28.5t68 28.5t28 69.5zM411 195q0 -84 -54.5 -142.5t-139.5 -58.5q-72 0 -127 47t-55 115v490l96 7v-335q48 38 110 38q71 0 120.5 -48t49.5 -113z" />
    <glyph glyph-name="c" unicode="c" horiz-adv-x="366" 
d="M307 118l33 -66q-58 -58 -140 -58q-74 0 -121 55t-47 121q0 81 53 133.5t131 52.5q57 0 108 -31l-37 -75q-37 24 -77 24q-36 0 -65 -27t-29 -63q0 -46 30 -74t72 -28q21 0 48 11t41 25z" />
    <glyph glyph-name="d" unicode="d" horiz-adv-x="443" 
d="M316 179q0 40 -28 68.5t-68 28.5t-68 -28.5t-28 -68.5q0 -41 28 -69.5t68 -28.5t68 28.5t28 69.5zM408 652v-652h-96v37q-4 -5 -12.5 -12t-34 -19t-51.5 -12q-80 0 -133 46t-53 123q0 95 52.5 144t133.5 49q24 0 48.5 -9.5t37.5 -18.5l12 -10v328z" />
    <glyph glyph-name="e" unicode="e" horiz-adv-x="386" 
d="M118 174l130 94q-18 13 -46 13q-36 0 -60 -30t-24 -77zM360 259l-212 -148q30 -29 72 -29q26 1 45 9.5t49 34.5l38 -62q-24 -35 -65 -52.5t-79 -17.5q-79 0 -129.5 56t-50.5 128q0 77 52.5 127.5t127.5 50.5q51 0 91.5 -26t60.5 -71z" />
    <glyph glyph-name="f" unicode="f" horiz-adv-x="240" 
d="M215 646v-95q-17 -5 -28.5 -9.5t-26 -13t-22 -21.5t-7.5 -29v-144h83v-92h-83v-236l-96 -6v514q0 56 61 94t119 38z" />
    <glyph glyph-name="g" unicode="g" horiz-adv-x="381" 
d="M258 206q0 28 -19 47t-47 19t-47.5 -19t-19.5 -47t19.5 -47.5t47.5 -19.5t47 19.5t19 47.5zM261 333l92 12l-7 -68l-19 -3q20 -36 20 -69q0 -57 -52 -106q1 -2 11 -13t13 -16.5t9 -17.5t8.5 -25t2.5 -30q0 -66 -48.5 -103t-103.5 -37q-90 0 -148 74l45 61l11 -11.5
t12 -11.5t11 -9.5t13 -9.5t13.5 -6t16.5 -5.5t18 -1.5q31 0 49.5 19.5t18.5 46.5q0 35 -23 50.5t-56 15.5q-20 0 -41.5 -8.5t-33.5 -16.5l-12 -9l14 59q-60 53 -60 111q0 65 44 104.5t110 39.5q29 0 72 -16z" />
    <glyph glyph-name="h" unicode="h" horiz-adv-x="366" 
d="M334 238v-232l-96 -6v225q0 18 -12 28t-29 10q-13 0 -28.5 -6.5t-24.5 -13.5l-10 -7v-230l-96 -6v646l96 6v-334q41 37 80 37q49 0 84.5 -34t35.5 -83z" />
    <glyph glyph-name="i" unicode="i" horiz-adv-x="176" 
d="M136 344v-338l-96 -6v338zM136 519v-92h-96v92h96z" />
    <glyph glyph-name="j" unicode="j" horiz-adv-x="199" 
d="M164 344v-329q0 -53 -39 -95t-90 -42v93q33 23 33 57v310zM164 519v-92h-96v92h96z" />
    <glyph glyph-name="k" unicode="k" horiz-adv-x="384" 
d="M236 181l133 -144l-74 -50l-161 173v-154l-96 -6v646l96 6v-458l167 166l60 -51z" />
    <glyph glyph-name="l" unicode="l" horiz-adv-x="169" 
d="M134 654v-648l-96 -6v646z" />
    <glyph glyph-name="m" unicode="m" horiz-adv-x="531" 
d="M499 252v-242l-96 -10v215q0 18 -8.5 33t-24.5 15q-31 0 -55 -29v-228l-96 -6v215q0 18 -11.5 33t-26.5 15q-27 0 -50 -29v-228l-96 -6v356l96 6v-35q43 30 77 30q42 0 82 -37q51 37 94 37q49 0 82 -26t33 -79z" />
    <glyph glyph-name="n" unicode="n" horiz-adv-x="347" 
d="M315 252v-246l-96 -6v215q0 21 -10 34.5t-28 13.5q-29 0 -50 -29v-228l-96 -6v356l96 6v-35q42 30 77 30q33 0 70 -26.5t37 -78.5z" />
    <glyph glyph-name="o" unicode="o" horiz-adv-x="432" 
d="M312 176q0 39 -28 66.5t-68 27.5t-68 -27.5t-28 -66.5t28 -66.5t68 -27.5t68 27.5t28 66.5zM404 175q0 -75 -55 -128t-133 -53t-133 53t-55 128t55 128t133 53t133 -53t55 -128z" />
    <glyph glyph-name="p" unicode="p" 
d="M326 176q0 39 -28 66.5t-68 27.5t-68 -27.5t-28 -66.5t28 -66.5t68 -27.5t68 27.5t28 66.5zM414 176q0 -78 -56 -130t-124 -52q-24 0 -49 8t-38 16l-13 7v-138l-96 -6v475l96 6v-41q44 35 94 35q78 0 132 -54.5t54 -125.5z" />
    <glyph glyph-name="q" unicode="q" horiz-adv-x="455" 
d="M316 176q0 39 -28 66.5t-68 27.5t-68 -27.5t-28 -66.5t28 -66.5t68 -27.5t68 27.5t28 66.5zM420 362v-475l-96 -6v144q-36 -31 -106 -31q-81 0 -135.5 53.5t-54.5 128.5q0 78 56.5 129t131.5 51q24 0 51 -9t42 -17l15 -9v35z" />
    <glyph glyph-name="r" unicode="r" horiz-adv-x="234" 
d="M219 356v-74q-45 0 -88 -45v-231l-96 -6v356l96 6v-41q41 32 88 35z" />
    <glyph glyph-name="s" unicode="s" horiz-adv-x="302" 
d="M267 120q0 -56 -34 -91t-86 -35q-57 0 -112 55l48 62q36 -41 60 -41q17 0 26.5 11t9.5 25q0 9 -4 15.5t-13 12t-16.5 9t-21.5 9t-22 9.5q-59 29 -59 85q0 47 34 78.5t84 31.5q61 0 106 -63l-52 -49q-25 42 -56 42q-13 0 -20.5 -7.5t-7.5 -18.5q0 -10 7 -17.5t15 -11.5
t25 -10.5t26 -10.5q63 -30 63 -90z" />
    <glyph glyph-name="t" unicode="t" horiz-adv-x="266" 
d="M234 92v-92h-63q-37 0 -73 30.5t-36 63.5v159h-27v87h27v111l96 45v-156h76v-87h-76v-124q0 -15 12.5 -26t32.5 -11h31z" />
    <glyph glyph-name="u" unicode="u" horiz-adv-x="357" 
d="M325 362v-362h-96v26q-52 -32 -103 -32q-40 0 -67 29.5t-27 64.5v268l96 6v-251q0 -29 40 -29q23 0 42 15t19 35v224z" />
    <glyph glyph-name="v" unicode="v" horiz-adv-x="358" 
d="M249 362l94 -18l-153 -344h-35l-140 344l87 18l77 -179z" />
    <glyph glyph-name="w" unicode="w" horiz-adv-x="516" 
d="M409 359l92 -15l-127 -344h-34l-79 192l-88 -192h-37l-121 344l91 18l63 -172l69 172h41l73 -172z" />
    <glyph glyph-name="x" unicode="x" horiz-adv-x="358" 
d="M261 372l82 -50l-103 -145l99 -135l-74 -42l-84 104l-83 -104l-83 42l108 140l-104 145l86 37l76 -104z" />
    <glyph glyph-name="y" unicode="y" horiz-adv-x="414" 
d="M302 362l97 -18l-209 -457h-109l74 162l-140 295l102 18l88 -189z" />
    <glyph glyph-name="z" unicode="z" horiz-adv-x="347" 
d="M317 80v-80h-287l139 250h-122l16 82h254l-144 -252h144z" />
    <glyph glyph-name="braceleft" unicode="{" horiz-adv-x="334" 
d="M176 743h118l-19 -65h-72q-14 0 -21 -17.5t-7 -26.5v-255q0 -5 -15.5 -28.5t-21.5 -27.5q11 -7 24 -27.5t13 -29.5v-232q0 -67 28 -67h72l19 -64h-131q-23 0 -40 25.5t-22.5 48.5t-5.5 34v241q0 18 -55 73q12 7 33.5 33t21.5 37v238q0 35 21 72.5t60 37.5z" />
    <glyph glyph-name="bar" unicode="|" horiz-adv-x="176" 
d="M136 646v-646h-96v646h96z" />
    <glyph glyph-name="braceright" unicode="}" horiz-adv-x="334" 
d="M294 325q-55 -55 -55 -73v-241q0 -11 -5.5 -34t-22.5 -48.5t-40 -25.5h-131l19 64h72q28 0 28 67v232q0 9 13 29.5t24 27.5q-6 4 -21.5 27.5t-15.5 28.5v255q0 9 -6.5 26.5t-21.5 17.5h-72l-19 65h118q39 0 60 -37.5t21 -72.5v-238q0 -11 21.5 -37t33.5 -33z" />
    <glyph glyph-name="asciitilde" unicode="~" horiz-adv-x="331" 
d="M262 782l29 -11q-28 -83 -81 -83q-24 0 -59 18.5t-46 18.5q-7 0 -15 -7.5t-13 -14.5l-5 -7l-32 8q5 23 27 52t45 29q20 0 56 -15.5t53 -15.5q25 0 41 28z" />
    <glyph glyph-name="exclamdown" unicode="&#xa1;" horiz-adv-x="186" 
d="M40 554v98h106v-98h-106zM40 0v512h106v-506z" />
    <glyph glyph-name="cent" unicode="&#xa2;" horiz-adv-x="388" 
d="M184 -59v55q-64 9 -104 61t-40 113q0 70 40.5 119.5t103.5 62.5v67h62v-65q46 -5 86 -29l-37 -75q-28 18 -49 21v-187q44 9 69 34l33 -66q-44 -44 -102 -54v-57h-62zM124 184q0 -68 60 -94v177q-26 -11 -43 -34t-17 -49z" />
    <glyph glyph-name="sterling" unicode="&#xa3;" horiz-adv-x="527" 
d="M487 460l-73 -51q-18 55 -53.5 88.5t-77.5 33.5q-43 0 -66.5 -29.5t-23.5 -69.5q0 -68 26 -111h119v-77h-108q0 -105 -53 -162h302v-82h-429v76q31 9 50.5 25t28.5 41t11.5 46.5t2.5 54.5h-103v78h74l-6 18.5t-5.5 19t-3.5 17t-3 20.5t-1 22q0 85 50 145t136 60
q72 0 128 -46t78 -117z" />
    <glyph glyph-name="yen" unicode="&#xa5;" horiz-adv-x="657" 
d="M221 183v53h38v67l-219 349h140l151 -240l150 240h136l-218 -349v-67h38v-53h-38v-17h38v-53h-38v-113h-140v113h-38v53h38v17h-38z" />
    <glyph glyph-name="brokenbar" unicode="&#xa6;" horiz-adv-x="176" 
d="M136 652v-294h-96v294h96zM40 294h96v-294h-96v294z" />
    <glyph glyph-name="dieresis" unicode="&#xa8;" horiz-adv-x="275" 
d="M40 739q0 16 10.5 27t26.5 11t27 -11t11 -27t-11 -26.5t-27 -10.5t-26.5 10.5t-10.5 26.5zM160 739q0 16 10.5 27t26.5 11t27 -11t11 -27t-11 -26.5t-27 -10.5t-26.5 10.5t-10.5 26.5z" />
    <glyph glyph-name="copyright" unicode="&#xa9;" horiz-adv-x="648" 
d="M87 284q0 -98 69.5 -167.5t167.5 -69.5t167.5 69.5t69.5 167.5t-69.5 167.5t-167.5 69.5t-167.5 -69.5t-69.5 -167.5zM40 284q0 118 83 201t201 83t201 -83t83 -201t-83 -201t-201 -83t-201 83t-83 201zM407 181l-13 -53q-26 -6 -56 -6q-66 0 -110 46t-44 119
q0 70 43.5 117t110.5 47q15 0 29 -1.5t21 -3.5l6 -1l13 -49q-28 8 -52 8q-53 0 -85 -33t-32 -84q0 -48 31.5 -80.5t85.5 -32.5z" />
    <glyph glyph-name="guillemotleft" unicode="&#xab;" horiz-adv-x="388" 
d="M136 179l80 -96l-62 -38l-114 130l114 134l62 -38zM282 309l66 -38l-84 -92l80 -105l-66 -29l-108 135z" />
    <glyph glyph-name="registered" unicode="&#xae;" horiz-adv-x="648" 
d="M370 351q0 19 -14 32t-39 13h-28v-88h28q20 0 36.5 12t16.5 31zM355 264l86 -122l-51 -24l-101 145v-136l-53 -3v323h89q43 0 70 -24.5t27 -68.5q0 -70 -67 -90zM87 284q0 -98 69.5 -167.5t167.5 -69.5t167.5 69.5t69.5 167.5t-69.5 167.5t-167.5 69.5t-167.5 -69.5
t-69.5 -167.5zM40 284q0 118 83 201t201 83t201 -83t83 -201t-83 -201t-201 -83t-201 83t-83 201z" />
    <glyph glyph-name="macron" unicode="&#xaf;" horiz-adv-x="396" 
d="M40 491h316v-96h-316v96z" />
    <glyph glyph-name="degree" unicode="&#xb0;" horiz-adv-x="197" 
d="M61 753q0 -16 10.5 -26.5t26.5 -10.5t27 10.5t11 26.5t-11 27t-27 11t-26.5 -11t-10.5 -27zM40 753q0 24 17 41.5t41 17.5t41.5 -17.5t17.5 -41.5t-17.5 -41t-41.5 -17q-25 0 -41.5 16.5t-16.5 41.5z" />
    <glyph glyph-name="twosuperior" unicode="&#xb2;" horiz-adv-x="253" 
d="M128 425h85l-13 -51h-160l67 89q58 80 58 102q0 16 -12 27t-27 11q-16 0 -26.5 -10.5t-10.5 -23.5q0 -14 11.5 -25t28.5 -14l-23 -35q-27 2 -45 22.5t-18 47.5q0 37 25 62t62 25q32 0 56.5 -26t24.5 -59q0 -55 -83 -142z" />
    <glyph glyph-name="threesuperior" unicode="&#xb3;" horiz-adv-x="238" 
d="M198 455q0 -36 -26 -60t-61 -24q-40 0 -71 39l29 33q19 -30 42 -30q16 0 28.5 13t12.5 28q0 38 -45 38l-22 -3v42q13 -2 22 -2q18 0 31.5 12.5t13.5 30.5q0 16 -13 26t-26 10q-31 0 -42 -32l-31 24q11 25 31.5 38.5t42.5 13.5q33 0 57.5 -23t24.5 -57q0 -35 -28 -59
q30 -22 30 -58z" />
    <glyph glyph-name="acute" unicode="&#xb4;" horiz-adv-x="196" 
d="M40 711l32 116h84l-76 -116h-40z" />
    <glyph glyph-name="mu" unicode="&#xb5;" horiz-adv-x="357" 
d="M32 -124v480l96 6v-251q0 -29 40 -29q23 0 42 15t19 35v224l96 6v-362h-96v26q-50 -31 -101 -32v-118h-96z" />
    <glyph glyph-name="paragraph" unicode="&#xb6;" horiz-adv-x="572" 
d="M316 232v407q-28 0 -28 -23v-367q0 -6 10 -11.5t18 -5.5zM397 228h21v418h-21v-418zM532 228v-22h-81v-206h-32v206h-21v-206h-82v206q-129 0 -202.5 62.5t-73.5 166.5q0 116 72.5 175.5t203.5 59.5v87h81v-89h21v89h33v-89h81v-22h-82v-418h82z" />
    <glyph glyph-name="periodcentered" unicode="&#xb7;" horiz-adv-x="197" 
d="M40 303q0 24 17 41.5t41 17.5t41.5 -17.5t17.5 -41.5t-17.5 -41t-41.5 -17q-25 0 -41.5 16.5t-16.5 41.5z" />
    <glyph glyph-name="cedilla" unicode="&#xb8;" horiz-adv-x="226" 
d="M102 14l33 -9q-19 -40 -19 -60q0 -9 17.5 -22t35 -30t17.5 -37q0 -21 -20.5 -46.5t-41.5 -40.5l-20 -15l-41 27q40 29 40 55q0 17 -31.5 39t-31.5 37q0 23 15.5 48.5t30.5 39.5z" />
    <glyph glyph-name="onesuperior" unicode="&#xb9;" horiz-adv-x="148" 
d="M108 652v-278h-53v186l-15 -3v54z" />
    <glyph glyph-name="guillemotright" unicode="&#xbb;" horiz-adv-x="388" 
d="M172 83l80 96l-80 92l62 38l114 -134l-114 -130zM40 271l66 38l112 -129l-108 -135l-66 29l80 105z" />
    <glyph glyph-name="onequarter" unicode="&#xbc;" horiz-adv-x="409" 
d="M108 652v-278h-53v186l-15 -3v54zM304 652l-202 -652h-62l202 652h62zM244 108h40v62zM369 108v-44h-32v-61l-53 -3v64h-116l134 214h35v-170h32z" />
    <glyph glyph-name="onehalf" unicode="&#xbd;" horiz-adv-x="420" 
d="M108 652v-278h-53v186l-15 -3v54zM304 652l-202 -652h-62l202 652h62zM295 51h85l-13 -51h-160q12 15 67 89q58 80 58 102q0 16 -12 27t-27 11q-16 0 -26.5 -10.5t-10.5 -23.5q0 -14 11.5 -25t28.5 -14l-23 -35q-27 2 -45 22.5t-18 47.5q0 37 25 62t62 25q32 0 56.5 -26
t24.5 -59q0 -55 -83 -142z" />
    <glyph glyph-name="threequarters" unicode="&#xbe;" horiz-adv-x="461" 
d="M356 652l-202 -652h-62l202 652h62zM296 108h40v62zM421 108v-44h-32v-61l-53 -3v64h-116l134 214h35v-170h32zM198 455q0 -36 -26 -60t-61 -24q-40 0 -71 39l29 33q19 -30 42 -30q16 0 28.5 13t12.5 28q0 38 -45 38l-22 -3v42q13 -2 22 -2q18 0 31.5 12.5t13.5 30.5
q0 16 -13 26t-26 10q-31 0 -42 -32l-31 24q11 25 31.5 38.5t42.5 13.5q33 0 57.5 -23t24.5 -57q0 -35 -28 -59q30 -22 30 -58z" />
    <glyph glyph-name="questiondown" unicode="&#xbf;" horiz-adv-x="428" 
d="M164 553v102h104v-102h-104zM40 186q0 46 19.5 86.5t42.5 65t42.5 55t19.5 57.5v61h104v-80q0 -28 -13 -53.5t-32 -45.5l-38 -40.5t-32 -47.5t-13 -58q0 -41 22 -67.5t60 -26.5q40 0 61.5 38t21.5 78l83 -33q0 -70 -51.5 -122.5t-122.5 -52.5q-81 0 -127.5 54t-46.5 132z
" />
    <glyph glyph-name="Agrave" unicode="&#xc0;" horiz-adv-x="724" 
d="M287 345h132l-69 124zM362 656l347 -631l-97 -25l-144 256h-226l-132 -256l-95 25l321 631h26zM364 827l32 -116h-40l-76 116h84z" />
    <glyph glyph-name="Aacute" unicode="&#xc1;" horiz-adv-x="724" 
d="M287 345h132l-69 124zM362 656l347 -631l-97 -25l-144 256h-226l-132 -256l-95 25l321 631h26zM324 711l32 116h84l-76 -116h-40z" />
    <glyph glyph-name="Acircumflex" unicode="&#xc2;" horiz-adv-x="724" 
d="M287 345h132l-69 124zM362 656l347 -631l-97 -25l-144 256h-226l-132 -256l-95 25l321 631h26zM392 827l32 -116h-40l-34 52l-34 -52h-40l32 116h84z" />
    <glyph glyph-name="Atilde" unicode="&#xc3;" horiz-adv-x="724" 
d="M287 345h132l-69 124zM362 656l347 -631l-97 -25l-144 256h-226l-132 -256l-95 25l321 631h26zM462 782l29 -11q-28 -83 -81 -83q-24 0 -59 18.5t-46 18.5q-7 0 -15 -7.5t-13 -14.5l-5 -7l-32 8q5 23 27 52t45 29q20 0 56 -15.5t53 -15.5q25 0 41 28z" />
    <glyph glyph-name="Adieresis" unicode="&#xc4;" horiz-adv-x="724" 
d="M287 345h132l-69 124zM362 656l347 -631l-97 -25l-144 256h-226l-132 -256l-95 25l321 631h26zM256 739q0 16 10.5 27t26.5 11t27 -11t11 -27t-11 -26.5t-27 -10.5t-26.5 10.5t-10.5 26.5zM376 739q0 16 10.5 27t26.5 11t27 -11t11 -27t-11 -26.5t-27 -10.5t-26.5 10.5
t-10.5 26.5z" />
    <glyph glyph-name="Aring" unicode="&#xc5;" horiz-adv-x="724" 
d="M287 345h132l-69 124zM362 656l347 -631l-97 -25l-144 256h-226l-132 -256l-95 25l321 631h26zM315 753q0 -16 10.5 -26.5t26.5 -10.5t27 10.5t11 26.5t-11 27t-27 11t-26.5 -11t-10.5 -27zM294 753q0 24 17 41.5t41 17.5t41.5 -17.5t17.5 -41.5t-17.5 -41t-41.5 -17
q-25 0 -41.5 16.5t-16.5 41.5z" />
    <glyph glyph-name="AE" unicode="&#xc6;" horiz-adv-x="783" 
d="M701 646l26 -102h-243v-158h193v-102h-193v-182h274l-37 -102h-343v186h-179l-87 -186h-97l302 646h384zM242 278h136v290z" />
    <glyph glyph-name="Ccedilla" unicode="&#xc7;" horiz-adv-x="487" 
d="M447 112l-27 -106q-40 -9 -90 -11q-6 -22 -6 -30q0 -9 17.5 -22t35 -30t17.5 -37q0 -21 -20.5 -46.5t-41.5 -40.5l-20 -15l-41 27l3 3q4 3 8 6.5t9.5 9.5t9.5 11.5t7 12t3 12.5q0 17 -31.5 39t-31.5 37q0 31 26 64q-119 12 -196.5 102t-77.5 225q0 139 87.5 234t221.5 95
q30 0 57.5 -3t40.5 -6l13 -3l27 -99q-57 16 -104 16q-107 0 -171 -65.5t-64 -168.5q0 -97 63 -161.5t172 -64.5q21 0 47 3.5t42 7.5z" />
    <glyph glyph-name="Egrave" unicode="&#xc8;" horiz-adv-x="420" 
d="M106 102h274l-37 -102h-343v646h323l26 -102h-243v-158h193v-102h-193v-182zM184 827l32 -116h-40l-76 116h84z" />
    <glyph glyph-name="Eacute" unicode="&#xc9;" horiz-adv-x="420" 
d="M106 102h274l-37 -102h-343v646h323l26 -102h-243v-158h193v-102h-193v-182zM150 711l32 116h84l-76 -116h-40z" />
    <glyph glyph-name="Ecircumflex" unicode="&#xca;" horiz-adv-x="420" 
d="M106 102h274l-37 -102h-343v646h323l26 -102h-243v-158h193v-102h-193v-182zM222 827l32 -116h-40l-34 52l-34 -52h-40l32 116h84z" />
    <glyph glyph-name="Edieresis" unicode="&#xcb;" horiz-adv-x="420" 
d="M106 102h274l-37 -102h-343v646h323l26 -102h-243v-158h193v-102h-193v-182zM74 739q0 16 10.5 27t26.5 11t27 -11t11 -27t-11 -26.5t-27 -10.5t-26.5 10.5t-10.5 26.5zM194 739q0 16 10.5 27t26.5 11t27 -11t11 -27t-11 -26.5t-27 -10.5t-26.5 10.5t-10.5 26.5z" />
    <glyph glyph-name="Igrave" unicode="&#xcc;" horiz-adv-x="146" 
d="M106 652v-646l-106 -6v646zM81 827l32 -116h-40l-76 116h84z" />
    <glyph glyph-name="Iacute" unicode="&#xcd;" horiz-adv-x="146" 
d="M106 652v-646l-106 -6v646zM-6 711l32 116h84l-76 -116h-40z" />
    <glyph glyph-name="Icircumflex" unicode="&#xce;" horiz-adv-x="146" 
d="M106 652v-646l-106 -6v646zM96 827l32 -116h-40l-34 52l-34 -52h-40l32 116h84z" />
    <glyph glyph-name="Idieresis" unicode="&#xcf;" horiz-adv-x="146" 
d="M106 652v-646l-106 -6v646zM-46 739q0 16 10.5 27t26.5 11t27 -11t11 -27t-11 -26.5t-27 -10.5t-26.5 10.5t-10.5 26.5zM74 739q0 16 10.5 27t26.5 11t27 -11t11 -27t-11 -26.5t-27 -10.5t-26.5 10.5t-10.5 26.5z" />
    <glyph glyph-name="Eth" unicode="&#xd0;" horiz-adv-x="654" 
d="M50 323v64h61v259h189q143 0 228.5 -89.5t85.5 -233.5q0 -124 -81 -223.5t-213 -99.5h-209v323h-61zM510 323q0 98 -54.5 159.5t-155.5 61.5h-83v-157h116v-64h-116v-221h91q87 0 144.5 68t57.5 153z" />
    <glyph glyph-name="Ntilde" unicode="&#xd1;" horiz-adv-x="566" 
d="M526 652v-654h-14l-406 409v-401l-106 -6v646h18l402 -411v411zM362 782l29 -11q-28 -83 -81 -83q-24 0 -59 18.5t-46 18.5q-7 0 -15 -7.5t-13 -14.5l-5 -7l-32 8q5 23 27 52t45 29q20 0 56 -15.5t53 -15.5q25 0 41 28z" />
    <glyph glyph-name="Ograve" unicode="&#xd2;" horiz-adv-x="732" 
d="M588 323q0 97 -71 165t-171 68t-171 -68t-71 -165t71 -165t171 -68t171 68t71 165zM692 323q0 -138 -101.5 -235.5t-244.5 -97.5t-244.5 97.5t-101.5 235.5t101.5 235.5t244.5 97.5t244.5 -97.5t101.5 -235.5zM361 827l32 -116h-40l-76 116h84z" />
    <glyph glyph-name="Oacute" unicode="&#xd3;" horiz-adv-x="732" 
d="M588 323q0 97 -71 165t-171 68t-171 -68t-71 -165t71 -165t171 -68t171 68t71 165zM692 323q0 -138 -101.5 -235.5t-244.5 -97.5t-244.5 97.5t-101.5 235.5t101.5 235.5t244.5 97.5t244.5 -97.5t101.5 -235.5zM314 711l32 116h84l-76 -116h-40z" />
    <glyph glyph-name="Ocircumflex" unicode="&#xd4;" horiz-adv-x="732" 
d="M588 323q0 97 -71 165t-171 68t-171 -68t-71 -165t71 -165t171 -68t171 68t71 165zM692 323q0 -138 -101.5 -235.5t-244.5 -97.5t-244.5 97.5t-101.5 235.5t101.5 235.5t244.5 97.5t244.5 -97.5t101.5 -235.5zM388 827l32 -116h-40l-34 52l-34 -52h-40l32 116h84z" />
    <glyph glyph-name="Otilde" unicode="&#xd5;" horiz-adv-x="732" 
d="M588 323q0 97 -71 165t-171 68t-171 -68t-71 -165t71 -165t171 -68t171 68t71 165zM692 323q0 -138 -101.5 -235.5t-244.5 -97.5t-244.5 97.5t-101.5 235.5t101.5 235.5t244.5 97.5t244.5 -97.5t101.5 -235.5zM462 782l29 -11q-28 -83 -81 -83q-24 0 -59 18.5t-46 18.5
q-7 0 -15 -7.5t-13 -14.5l-5 -7l-32 8q5 23 27 52t45 29q20 0 56 -15.5t53 -15.5q25 0 41 28z" />
    <glyph glyph-name="Odieresis" unicode="&#xd6;" horiz-adv-x="732" 
d="M588 323q0 97 -71 165t-171 68t-171 -68t-71 -165t71 -165t171 -68t171 68t71 165zM692 323q0 -138 -101.5 -235.5t-244.5 -97.5t-244.5 97.5t-101.5 235.5t101.5 235.5t244.5 97.5t244.5 -97.5t101.5 -235.5zM248 739q0 16 10.5 27t26.5 11t27 -11t11 -27t-11 -26.5
t-27 -10.5t-26.5 10.5t-10.5 26.5zM368 739q0 16 10.5 27t26.5 11t27 -11t11 -27t-11 -26.5t-27 -10.5t-26.5 10.5t-10.5 26.5z" />
    <glyph glyph-name="multiply" unicode="&#xd7;" horiz-adv-x="358" 
d="M250 124l-71 71l-71 -71l-68 68l71 71l-71 71l68 68l71 -71l71 71l68 -68l-71 -71l71 -71z" />
    <glyph glyph-name="Oslash" unicode="&#xd8;" horiz-adv-x="772" 
d="M634 652l-39 -64q64 -47 100.5 -116.5t36.5 -148.5q0 -138 -101.5 -235.5t-244.5 -97.5q-74 0 -141 28l-11 -18h-96l36 59q-63 47 -98.5 115.5t-35.5 148.5q0 138 101.5 235.5t244.5 97.5q72 0 137 -28l15 24h96zM628 323q0 109 -87 178l-242 -396q41 -15 87 -15
q100 0 171 68t71 165zM144 323q0 -108 84 -177l242 395q-39 15 -84 15q-100 0 -171 -68t-71 -165z" />
    <glyph glyph-name="Ugrave" unicode="&#xd9;" horiz-adv-x="506" 
d="M466 652v-458q0 -89 -73 -150t-160 -61q-90 0 -161.5 60.5t-71.5 150.5v452l106 6v-448q0 -51 40 -86t87 -35q51 0 89 33.5t38 87.5v442zM259 827l32 -116h-40l-76 116h84z" />
    <glyph glyph-name="Uacute" unicode="&#xda;" horiz-adv-x="506" 
d="M466 652v-458q0 -89 -73 -150t-160 -61q-90 0 -161.5 60.5t-71.5 150.5v452l106 6v-448q0 -51 40 -86t87 -35q51 0 89 33.5t38 87.5v442zM202 711l32 116h84l-76 -116h-40z" />
    <glyph glyph-name="Ucircumflex" unicode="&#xdb;" horiz-adv-x="506" 
d="M466 652v-458q0 -89 -73 -150t-160 -61q-90 0 -161.5 60.5t-71.5 150.5v452l106 6v-448q0 -51 40 -86t87 -35q51 0 89 33.5t38 87.5v442zM276 827l32 -116h-40l-34 52l-34 -52h-40l32 116h84z" />
    <glyph glyph-name="Udieresis" unicode="&#xdc;" horiz-adv-x="506" 
d="M466 652v-458q0 -89 -73 -150t-160 -61q-90 0 -161.5 60.5t-71.5 150.5v452l106 6v-448q0 -51 40 -86t87 -35q51 0 89 33.5t38 87.5v442zM137 739q0 16 10.5 27t26.5 11t27 -11t11 -27t-11 -26.5t-27 -10.5t-26.5 10.5t-10.5 26.5zM257 739q0 16 10.5 27t26.5 11t27 -11
t11 -27t-11 -26.5t-27 -10.5t-26.5 10.5t-10.5 26.5z" />
    <glyph glyph-name="Yacute" unicode="&#xdd;" horiz-adv-x="542" 
d="M428 651l99 -36l-271 -624l-100 22l111 262l-252 311l99 66l203 -264zM260 711l32 116h84l-76 -116h-40z" />
    <glyph glyph-name="Thorn" unicode="&#xde;" horiz-adv-x="473" 
d="M333 352q0 45 -31 73.5t-86 28.5h-60v-200h60q53 0 85 25.5t32 72.5zM433 357q0 -92 -59 -148.5t-145 -56.5h-73v-146l-106 -6v646h106v-90h67q98 0 154 -58.5t56 -140.5z" />
    <glyph glyph-name="germandbls" unicode="&#xdf;" horiz-adv-x="485" 
d="M460 207q0 -100 -73 -153.5t-174 -53.5v92q152 0 152 108q0 48 -35 80.5t-98 47.5q46 22 73.5 63t27.5 79t-22.5 65.5t-59.5 27.5q-38 0 -69 -35t-31 -69v-459h-101v454q0 83 59.5 138t144.5 55q72 0 120.5 -48t48.5 -116q0 -75 -53 -123q53 -37 71.5 -72t18.5 -81z" />
    <glyph glyph-name="agrave" unicode="&#xe0;" horiz-adv-x="331" 
d="M181 507l32 -116h-40l-76 116h84zM208 123q0 17 -16.5 28.5t-39.5 11.5t-39.5 -11.5t-16.5 -28.5t16.5 -29t39.5 -12t39.5 12t16.5 29zM291 279v-279h-75l-8 20q-36 -26 -90 -26q-53 0 -85.5 39t-32.5 93q0 59 39 90.5t97 31.5q13 0 31 -4t29 -8l12 -4q0 28 -14 41
t-46 13q-13 0 -35 -4t-37 -8l-16 -3l18 68q66 17 103 17q48 0 79 -23.5t31 -53.5z" />
    <glyph glyph-name="aacute" unicode="&#xe1;" horiz-adv-x="331" 
d="M137 391l32 116h84l-76 -116h-40zM208 123q0 17 -16.5 28.5t-39.5 11.5t-39.5 -11.5t-16.5 -28.5t16.5 -29t39.5 -12t39.5 12t16.5 29zM291 279v-279h-75l-8 20q-36 -26 -90 -26q-53 0 -85.5 39t-32.5 93q0 59 39 90.5t97 31.5q13 0 31 -4t29 -8l12 -4q0 28 -14 41
t-46 13q-13 0 -35 -4t-37 -8l-16 -3l18 68q66 17 103 17q48 0 79 -23.5t31 -53.5z" />
    <glyph glyph-name="acircumflex" unicode="&#xe2;" horiz-adv-x="331" 
d="M216 507l32 -116h-40l-34 52l-34 -52h-40l32 116h84zM208 123q0 17 -16.5 28.5t-39.5 11.5t-39.5 -11.5t-16.5 -28.5t16.5 -29t39.5 -12t39.5 12t16.5 29zM291 279v-279h-75l-8 20q-36 -26 -90 -26q-53 0 -85.5 39t-32.5 93q0 59 39 90.5t97 31.5q13 0 31 -4t29 -8l12 -4
q0 28 -14 41t-46 13q-13 0 -35 -4t-37 -8l-16 -3l18 68q66 17 103 17q48 0 79 -23.5t31 -53.5z" />
    <glyph glyph-name="atilde" unicode="&#xe3;" horiz-adv-x="331" 
d="M247 492l29 -11q-28 -83 -81 -83q-24 0 -59 18.5t-46 18.5q-7 0 -15 -7.5t-13 -14.5l-5 -7l-32 8q5 23 27 52t45 29q20 0 56 -15.5t53 -15.5q25 0 41 28zM208 123q0 17 -16.5 28.5t-39.5 11.5t-39.5 -11.5t-16.5 -28.5t16.5 -29t39.5 -12t39.5 12t16.5 29zM291 279v-279
h-75l-8 20q-36 -26 -90 -26q-53 0 -85.5 39t-32.5 93q0 59 39 90.5t97 31.5q13 0 31 -4t29 -8l12 -4q0 28 -14 41t-46 13q-13 0 -35 -4t-37 -8l-16 -3l18 68q66 17 103 17q48 0 79 -23.5t31 -53.5z" />
    <glyph glyph-name="adieresis" unicode="&#xe4;" horiz-adv-x="331" 
d="M70 439q0 16 10.5 27t26.5 11t27 -11t11 -27t-11 -26.5t-27 -10.5t-26.5 10.5t-10.5 26.5zM190 439q0 16 10.5 27t26.5 11t27 -11t11 -27t-11 -26.5t-27 -10.5t-26.5 10.5t-10.5 26.5zM208 123q0 17 -16.5 28.5t-39.5 11.5t-39.5 -11.5t-16.5 -28.5t16.5 -29t39.5 -12
t39.5 12t16.5 29zM291 279v-279h-75l-8 20q-36 -26 -90 -26q-53 0 -85.5 39t-32.5 93q0 59 39 90.5t97 31.5q13 0 31 -4t29 -8l12 -4q0 28 -14 41t-46 13q-13 0 -35 -4t-37 -8l-16 -3l18 68q66 17 103 17q48 0 79 -23.5t31 -53.5z" />
    <glyph glyph-name="aring" unicode="&#xe5;" horiz-adv-x="331" 
d="M141 460q0 -16 10.5 -26.5t26.5 -10.5t27 10.5t11 26.5t-11 27t-27 11t-26.5 -11t-10.5 -27zM120 460q0 24 17 41.5t41 17.5t41.5 -17.5t17.5 -41.5t-17.5 -41t-41.5 -17q-25 0 -41.5 16.5t-16.5 41.5zM208 123q0 17 -16.5 28.5t-39.5 11.5t-39.5 -11.5t-16.5 -28.5
t16.5 -29t39.5 -12t39.5 12t16.5 29zM291 279v-279h-75l-8 20q-36 -26 -90 -26q-53 0 -85.5 39t-32.5 93q0 59 39 90.5t97 31.5q13 0 31 -4t29 -8l12 -4q0 28 -14 41t-46 13q-13 0 -35 -4t-37 -8l-16 -3l18 68q66 17 103 17q48 0 79 -23.5t31 -53.5z" />
    <glyph glyph-name="ae" unicode="&#xe6;" horiz-adv-x="591" 
d="M565 259l-212 -148q30 -29 72 -29q26 1 45 9.5t49 34.5l38 -62q-24 -35 -65 -52.5t-79 -17.5q-79 0 -131 57q-51 -57 -136 -57q-51 0 -84.5 39.5t-33.5 92.5q0 59 39 90.5t97 31.5q13 0 31 -4t29 -8l12 -4q0 28 -14 41t-46 13q-13 0 -35 -4t-37 -8l-16 -3l18 68
q66 17 103 17q60 0 93 -37q48 37 111 37q51 0 91.5 -26t60.5 -71zM236 123q0 17 -16.5 28.5t-39.5 11.5t-39.5 -11.5t-16.5 -28.5t16.5 -29t39.5 -12t39.5 12t16.5 29zM323 174l130 94q-18 13 -46 13q-36 0 -60 -30t-24 -77z" />
    <glyph glyph-name="ccedilla" unicode="&#xe7;" horiz-adv-x="348" 
d="M275 118l33 -66q-49 -49 -117 -56q-6 -16 -6 -31q0 -9 17.5 -22t35 -30t17.5 -37q0 -21 -20.5 -46.5t-40.5 -40.5l-21 -15l-41 27l4 3q3 3 7 6.5t9.5 9.5t9.5 11.5t7 12t3 12.5q0 17 -31.5 39t-31.5 37q0 30 27 65q-61 12 -98.5 63.5t-37.5 109.5q0 81 53 133.5t131 52.5
q57 0 108 -31l-37 -75q-37 24 -77 24q-36 0 -65 -27t-29 -63q0 -46 30 -74t72 -28q21 0 48 11t41 25z" />
    <glyph glyph-name="egrave" unicode="&#xe8;" horiz-adv-x="372" 
d="M90 174l130 94q-18 13 -46 13q-36 0 -60 -30t-24 -77zM332 259l-212 -148q30 -29 72 -29q26 1 45 9.5t49 34.5l38 -62q-24 -35 -65 -52.5t-79 -17.5q-79 0 -129.5 56t-50.5 128q0 77 52.5 127.5t127.5 50.5q51 0 91.5 -26t60.5 -71zM191 507l32 -116h-40l-76 116h84z" />
    <glyph glyph-name="eacute" unicode="&#xe9;" horiz-adv-x="372" 
d="M90 174l130 94q-18 13 -46 13q-36 0 -60 -30t-24 -77zM332 259l-212 -148q30 -29 72 -29q26 1 45 9.5t49 34.5l38 -62q-24 -35 -65 -52.5t-79 -17.5q-79 0 -129.5 56t-50.5 128q0 77 52.5 127.5t127.5 50.5q51 0 91.5 -26t60.5 -71zM147 391l32 116h84l-76 -116h-40z" />
    <glyph glyph-name="ecircumflex" unicode="&#xea;" horiz-adv-x="372" 
d="M90 174l130 94q-18 13 -46 13q-36 0 -60 -30t-24 -77zM332 259l-212 -148q30 -29 72 -29q26 1 45 9.5t49 34.5l38 -62q-24 -35 -65 -52.5t-79 -17.5q-79 0 -129.5 56t-50.5 128q0 77 52.5 127.5t127.5 50.5q51 0 91.5 -26t60.5 -71zM222 507l32 -116h-40l-34 52l-34 -52
h-40l32 116h84z" />
    <glyph glyph-name="edieresis" unicode="&#xeb;" horiz-adv-x="372" 
d="M90 174l130 94q-18 13 -46 13q-36 0 -60 -30t-24 -77zM332 259l-212 -148q30 -29 72 -29q26 1 45 9.5t49 34.5l38 -62q-24 -35 -65 -52.5t-79 -17.5q-79 0 -129.5 56t-50.5 128q0 77 52.5 127.5t127.5 50.5q51 0 91.5 -26t60.5 -71zM86 439q0 16 10.5 27t26.5 11t27 -11
t11 -27t-11 -26.5t-27 -10.5t-26.5 10.5t-10.5 26.5zM206 439q0 16 10.5 27t26.5 11t27 -11t11 -27t-11 -26.5t-27 -10.5t-26.5 10.5t-10.5 26.5z" />
    <glyph glyph-name="igrave" unicode="&#xec;" horiz-adv-x="136" 
d="M96 344v-338l-96 -6v338zM74 507l32 -116h-40l-76 116h84z" />
    <glyph glyph-name="iacute" unicode="&#xed;" horiz-adv-x="136" 
d="M96 344v-338l-96 -6v338zM-8 391l32 116h84l-76 -116h-40z" />
    <glyph glyph-name="icircumflex" unicode="&#xee;" horiz-adv-x="136" 
d="M96 344v-338l-96 -6v338zM89 507l32 -116h-40l-34 52l-34 -52h-40l32 116h84z" />
    <glyph glyph-name="idieresis" unicode="&#xef;" horiz-adv-x="136" 
d="M96 344v-338l-96 -6v338zM-51 439q0 16 10.5 27t26.5 11t27 -11t11 -27t-11 -26.5t-27 -10.5t-26.5 10.5t-10.5 26.5zM69 439q0 16 10.5 27t26.5 11t27 -11t11 -27t-11 -26.5t-27 -10.5t-26.5 10.5t-10.5 26.5z" />
    <glyph glyph-name="eth" unicode="&#xf0;" horiz-adv-x="506" 
d="M386 222q0 57 -39 97.5t-94 40.5t-94 -40.5t-39 -97.5q0 -58 39 -98.5t94 -40.5t94 40.5t39 98.5zM481 234q0 -99 -63.5 -171t-165.5 -72q-97 0 -160.5 69.5t-63.5 160.5q0 94 65 163.5t149 69.5l53 -5q-28 38 -51 57l-100 -49l-30 56l69 37q-34 19 -97 33l34 59
q25 -3 76.5 -20.5t67.5 -28.5l90 50l35 -57l-63 -34q76 -68 115.5 -153.5t39.5 -164.5z" />
    <glyph glyph-name="ntilde" unicode="&#xf1;" horiz-adv-x="320" 
d="M280 252v-246l-96 -6v215q0 21 -10 34.5t-28 13.5q-29 0 -50 -29v-228l-96 -6v356l96 6v-35q42 30 77 30q33 0 70 -26.5t37 -78.5zM241 492l29 -11q-28 -83 -81 -83q-24 0 -59 18.5t-46 18.5q-7 0 -15 -7.5t-13 -14.5l-5 -7l-32 8q5 23 27 52t45 29q20 0 56 -15.5
t53 -15.5q25 0 41 28z" />
    <glyph glyph-name="ograve" unicode="&#xf2;" horiz-adv-x="416" 
d="M284 176q0 39 -28 66.5t-68 27.5t-68 -27.5t-28 -66.5t28 -66.5t68 -27.5t68 27.5t28 66.5zM376 175q0 -75 -55 -128t-133 -53t-133 53t-55 128t55 128t133 53t133 -53t55 -128zM214 507l32 -116h-40l-76 116h84z" />
    <glyph glyph-name="oacute" unicode="&#xf3;" horiz-adv-x="416" 
d="M284 176q0 39 -28 66.5t-68 27.5t-68 -27.5t-28 -66.5t28 -66.5t68 -27.5t68 27.5t28 66.5zM376 175q0 -75 -55 -128t-133 -53t-133 53t-55 128t55 128t133 53t133 -53t55 -128zM162 391l32 116h84l-76 -116h-40z" />
    <glyph glyph-name="ocircumflex" unicode="&#xf4;" horiz-adv-x="416" 
d="M284 176q0 39 -28 66.5t-68 27.5t-68 -27.5t-28 -66.5t28 -66.5t68 -27.5t68 27.5t28 66.5zM376 175q0 -75 -55 -128t-133 -53t-133 53t-55 128t55 128t133 53t133 -53t55 -128zM230 507l32 -116h-40l-34 52l-34 -52h-40l32 116h84z" />
    <glyph glyph-name="otilde" unicode="&#xf5;" horiz-adv-x="416" 
d="M284 176q0 39 -28 66.5t-68 27.5t-68 -27.5t-28 -66.5t28 -66.5t68 -27.5t68 27.5t28 66.5zM376 175q0 -75 -55 -128t-133 -53t-133 53t-55 128t55 128t133 53t133 -53t55 -128zM283 492l29 -11q-28 -83 -81 -83q-24 0 -59 18.5t-46 18.5q-7 0 -15 -7.5t-13 -14.5l-5 -7
l-32 8q5 23 27 52t45 29q20 0 56 -15.5t53 -15.5q25 0 41 28z" />
    <glyph glyph-name="odieresis" unicode="&#xf6;" horiz-adv-x="416" 
d="M284 176q0 39 -28 66.5t-68 27.5t-68 -27.5t-28 -66.5t28 -66.5t68 -27.5t68 27.5t28 66.5zM376 175q0 -75 -55 -128t-133 -53t-133 53t-55 128t55 128t133 53t133 -53t55 -128zM90 439q0 16 10.5 27t26.5 11t27 -11t11 -27t-11 -26.5t-27 -10.5t-26.5 10.5t-10.5 26.5z
M210 439q0 16 10.5 27t26.5 11t27 -11t11 -27t-11 -26.5t-27 -10.5t-26.5 10.5t-10.5 26.5z" />
    <glyph glyph-name="divide" unicode="&#xf7;" horiz-adv-x="376" 
d="M40 311h296v-96h-296v96zM140 451h96v-96h-96v96zM140 171h96v-96h-96v96z" />
    <glyph glyph-name="oslash" unicode="&#xf8;" horiz-adv-x="432" 
d="M384 350l-35 -47q55 -53 55 -128t-55 -128t-133 -53q-46 0 -83 18l-9 -12h-76l35 47q-55 52 -55 128q0 75 55 128t133 53q43 0 83 -19l9 13h76zM120 176q0 -32 18 -55l107 144q-15 5 -29 5q-40 0 -68 -27.5t-28 -66.5zM312 176q0 28 -18 54l-107 -144q12 -4 29 -4
q40 0 68 27.5t28 66.5z" />
    <glyph glyph-name="ugrave" unicode="&#xf9;" horiz-adv-x="333" 
d="M293 362v-362h-96v26q-52 -32 -103 -32q-40 0 -67 29.5t-27 64.5v268l96 6v-251q0 -29 40 -29q23 0 42 15t19 35v224zM164 507l32 -116h-40l-76 116h84z" />
    <glyph glyph-name="uacute" unicode="&#xfa;" horiz-adv-x="333" 
d="M293 362v-362h-96v26q-52 -32 -103 -32q-40 0 -67 29.5t-27 64.5v268l96 6v-251q0 -29 40 -29q23 0 42 15t19 35v224zM102 391l32 116h84l-76 -116h-40z" />
    <glyph glyph-name="ucircumflex" unicode="&#xfb;" horiz-adv-x="333" 
d="M293 362v-362h-96v26q-52 -32 -103 -32q-40 0 -67 29.5t-27 64.5v268l96 6v-251q0 -29 40 -29q23 0 42 15t19 35v224zM190 507l32 -116h-40l-34 52l-34 -52h-40l32 116h84z" />
    <glyph glyph-name="udieresis" unicode="&#xfc;" horiz-adv-x="333" 
d="M293 362v-362h-96v26q-52 -32 -103 -32q-40 0 -67 29.5t-27 64.5v268l96 6v-251q0 -29 40 -29q23 0 42 15t19 35v224zM51 439q0 16 10.5 27t26.5 11t27 -11t11 -27t-11 -26.5t-27 -10.5t-26.5 10.5t-10.5 26.5zM171 439q0 16 10.5 27t26.5 11t27 -11t11 -27t-11 -26.5
t-27 -10.5t-26.5 10.5t-10.5 26.5z" />
    <glyph glyph-name="yacute" unicode="&#xfd;" horiz-adv-x="414" 
d="M302 362l97 -18l-209 -457h-109l74 162l-140 295l102 18l88 -189zM181 391l32 116h84l-76 -116h-40z" />
    <glyph glyph-name="thorn" unicode="&#xfe;" 
d="M326 176q0 39 -28 66.5t-68 27.5t-68 -27.5t-28 -66.5t28 -66.5t68 -27.5t68 27.5t28 66.5zM414 176q0 -78 -56 -130t-124 -52q-24 0 -49 8t-38 16l-13 7v-138l-96 -6v725l96 6v-291q44 35 94 35q78 0 132 -54.5t54 -125.5z" />
    <glyph glyph-name="ydieresis" unicode="&#xff;" horiz-adv-x="414" 
d="M302 362l97 -18l-209 -457h-109l74 162l-140 295l102 18l88 -189zM115 439q0 16 10.5 27t26.5 11t27 -11t11 -27t-11 -26.5t-27 -10.5t-26.5 10.5t-10.5 26.5zM235 439q0 16 10.5 27t26.5 11t27 -11t11 -27t-11 -26.5t-27 -10.5t-26.5 10.5t-10.5 26.5z" />
    <glyph glyph-name="dotlessi" unicode="&#x131;" horiz-adv-x="176" 
d="M136 344v-338l-96 -6v338z" />
    <glyph glyph-name="Lslash" unicode="&#x141;" horiz-adv-x="534" 
d="M226 102h293l-33 -102h-366v347l-70 -24v64l70 24v235l106 6v-203l107 38v-64l-107 -38v-283z" />
    <glyph glyph-name="lslash" unicode="&#x142;" horiz-adv-x="356" 
d="M321 423l-117 -42v-375l-96 -6v347l-70 -24v64l70 24v235l96 8v-209l117 42v-64z" />
    <glyph glyph-name="OE" unicode="&#x152;" horiz-adv-x="1034" 
d="M735 102h274l-37 -102h-343v86q-101 -96 -243 -96q-143 0 -244.5 97.5t-101.5 235.5t101.5 235.5t244.5 97.5q140 0 243 -96v86h323l26 -102h-243v-158h193v-102h-193v-182zM628 323q0 97 -71 165t-171 68t-171 -68t-71 -165t71 -165t171 -68t171 68t71 165z" />
    <glyph glyph-name="oe" unicode="&#x153;" horiz-adv-x="674" 
d="M648 259l-212 -148q30 -29 72 -29q26 1 45 9.5t49 34.5l38 -62q-24 -35 -65 -52.5t-79 -17.5q-83 0 -137 64q-56 -64 -143 -64q-78 0 -133 53t-55 128t55 128t133 53q85 0 142 -62q54 62 138 62q51 0 91.5 -26t60.5 -71zM312 176q0 39 -28 66.5t-68 27.5t-68 -27.5
t-28 -66.5t28 -66.5t68 -27.5t68 27.5t28 66.5zM406 174l130 94q-18 13 -46 13q-36 0 -60 -30t-24 -77z" />
    <glyph glyph-name="Scaron" unicode="&#x160;" horiz-adv-x="460" 
d="M420 554l-66 -70q-28 43 -53.5 61.5t-58.5 18.5q-40 0 -67 -27t-27 -65q0 -21 8.5 -37.5t28.5 -29.5t34.5 -20t44.5 -19q28 -11 44 -18.5t39.5 -23t36.5 -31.5t22.5 -42t9.5 -57q0 -88 -57 -145t-145 -57q-60 0 -110 28.5t-64 75.5l75 68q15 -38 41.5 -59t55.5 -21
q42 0 71 27t29 67q0 14 -3 25.5t-11.5 21.5l-13.5 16t-21.5 14.5t-22 11t-26.5 11l-26 10.5q-34 14 -52 24t-42 29.5t-35 49t-11 69.5q0 93 59.5 145t150.5 52q45 0 92 -30.5t70 -72.5zM328 827l-32 -116h-84l-32 116h40l34 -52l34 52h40z" />
    <glyph glyph-name="scaron" unicode="&#x161;" horiz-adv-x="302" 
d="M267 120q0 -56 -34 -91t-86 -35q-57 0 -112 55l48 62q36 -41 60 -41q17 0 26.5 11t9.5 25q0 9 -4 15.5t-13 12t-16.5 9t-21.5 9t-22 9.5q-59 29 -59 85q0 47 34 78.5t84 31.5q61 0 106 -63l-52 -49q-25 42 -56 42q-13 0 -20.5 -7.5t-7.5 -18.5q0 -10 7 -17.5t15 -11.5
t25 -10.5t26 -10.5q63 -30 63 -90zM243 507l-32 -116h-84l-32 116h40l34 -52l34 52h40z" />
    <glyph glyph-name="Ydieresis" unicode="&#x178;" horiz-adv-x="542" 
d="M428 651l99 -36l-271 -624l-100 22l111 262l-252 311l99 66l203 -264zM185 739q0 16 10.5 27t26.5 11t27 -11t11 -27t-11 -26.5t-27 -10.5t-26.5 10.5t-10.5 26.5zM305 739q0 16 10.5 27t26.5 11t27 -11t11 -27t-11 -26.5t-27 -10.5t-26.5 10.5t-10.5 26.5z" />
    <glyph glyph-name="Zcaron" unicode="&#x17d;" horiz-adv-x="591" 
d="M200 102h366l-26 -102h-515l342 544h-342l26 102h499zM383 827l-32 -116h-84l-32 116h40l34 -52l34 52h40z" />
    <glyph glyph-name="zcaron" unicode="&#x17e;" horiz-adv-x="347" 
d="M317 80v-80h-287l139 250h-122l16 82h254l-144 -252h144zM268 507l-32 -116h-84l-32 116h40l34 -52l34 52h40z" />
    <glyph glyph-name="florin" unicode="&#x192;" horiz-adv-x="555" 
d="M40 -150l25 92l25 7.5t42 21t32 34.5l63 237h-82l24 92h83l48 180q10 38 50 69.5t85 47t80 15.5l-25 -95q-91 -25 -104 -73l-38 -144h83l-25 -92h-83l-72 -269q-8 -29 -32.5 -52.5t-54 -36t-58 -21t-47.5 -11.5z" />
    <glyph glyph-name="circumflex" unicode="&#x2c6;" horiz-adv-x="228" 
d="M156 827l32 -116h-40l-34 52l-34 -52h-40l32 116h84z" />
    <glyph glyph-name="caron" unicode="&#x2c7;" horiz-adv-x="228" 
d="M188 827l-32 -116h-84l-32 116h40l34 -52l34 52h40z" />
    <glyph glyph-name="breve" unicode="&#x2d8;" horiz-adv-x="228" 
d="M148 827h40q-1 -5 -2 -12.5t-6.5 -27.5t-13 -35.5t-21.5 -28t-31 -12.5q-27 0 -45.5 29t-23.5 58l-5 29h40q10 -52 34 -52q11 0 19.5 13t11.5 26z" />
    <glyph glyph-name="dotaccent" unicode="&#x2d9;" horiz-adv-x="197" 
d="M40 753q0 24 17 41.5t41 17.5t41.5 -17.5t17.5 -41.5t-17.5 -41t-41.5 -17q-25 0 -41.5 16.5t-16.5 41.5z" />
    <glyph glyph-name="ring" unicode="&#x2da;" horiz-adv-x="197" 
d="M61 753q0 -16 10.5 -26.5t26.5 -10.5t27 10.5t11 26.5t-11 27t-27 11t-26.5 -11t-10.5 -27zM40 753q0 24 17 41.5t41 17.5t41.5 -17.5t17.5 -41.5t-17.5 -41t-41.5 -17q-25 0 -41.5 16.5t-16.5 41.5z" />
    <glyph glyph-name="ogonek" unicode="&#x2db;" horiz-adv-x="266" 
d="M122 15l22 -10q-47 -76 -47 -113q0 -69 68 -69q12 0 23.5 3.5t16.5 7.5l5 3l16 -11q-3 -5 -9 -12.5t-25.5 -19.5t-39.5 -12q-44 0 -78 26.5t-34 76.5q0 32 20.5 64.5t41.5 48.5z" />
    <glyph glyph-name="tilde" unicode="&#x2dc;" horiz-adv-x="331" 
d="M262 782l29 -11q-28 -83 -81 -83q-24 0 -59 18.5t-46 18.5q-7 0 -15 -7.5t-13 -14.5l-5 -7l-32 8q5 23 27 52t45 29q20 0 56 -15.5t53 -15.5q25 0 41 28z" />
    <glyph glyph-name="hungarumlaut" unicode="&#x2dd;" horiz-adv-x="316" 
d="M40 711l32 116h84l-76 -116h-40zM160 711l32 116h84l-76 -116h-40z" />
    <glyph glyph-name="endash" unicode="&#x2013;" horiz-adv-x="396" 
d="M40 311h316v-96h-316v96z" />
    <glyph glyph-name="emdash" unicode="&#x2014;" horiz-adv-x="416" 
d="M40 311h336v-96h-336v96z" />
    <glyph glyph-name="quoteleft" unicode="&#x2018;" horiz-adv-x="208" 
d="M168 425l-48 -43q-80 83 -80 162q0 51 41 113l87 -59q-31 -35 -31 -93q0 -47 31 -80z" />
    <glyph glyph-name="quoteright" unicode="&#x2019;" horiz-adv-x="209" 
d="M169 542q0 -84 -80 -160l-49 40q35 42 35 83q0 9 -1 17.5t-3 17t-4 14t-6 13.5t-5.5 11.5t-6.5 12t-6 10.5l85 56q41 -56 41 -115z" />
    <glyph glyph-name="quotesinglbase" unicode="&#x201a;" horiz-adv-x="209" 
d="M169 -28q0 -84 -80 -160l-49 40q35 42 35 83q0 9 -1 17.5t-3 17t-4 14t-6 13.5t-5.5 11.5t-6.5 12t-6 10.5l85 56q41 -56 41 -115z" />
    <glyph glyph-name="quotedblleft" unicode="&#x201c;" horiz-adv-x="387" 
d="M168 425l-48 -43q-80 83 -80 162q0 51 41 113l87 -59q-31 -35 -31 -93q0 -47 31 -80zM347 422l-49 -40q-80 76 -80 160q0 59 41 115l85 -56q-1 -2 -6 -10.5t-6.5 -12t-5.5 -11.5t-6 -13.5t-4 -14t-3 -17t-1 -17.5q0 -41 35 -83z" />
    <glyph glyph-name="quotedblright" unicode="&#x201d;" horiz-adv-x="387" 
d="M169 542q0 -84 -80 -160l-49 40q35 42 35 83q0 9 -1 17.5t-3 17t-4 14t-6 13.5t-5.5 11.5t-6.5 12t-6 10.5l85 56q41 -56 41 -115zM347 544q0 -79 -80 -162l-48 43q31 33 31 80q0 58 -31 93l87 59q41 -62 41 -113z" />
    <glyph glyph-name="quotedblbase" unicode="&#x201e;" horiz-adv-x="369" 
d="M169 -28q0 -84 -80 -160l-49 40q35 42 35 83q0 9 -1 17.5t-3 17t-4 14t-6 13.5t-5.5 11.5t-6.5 12t-6 10.5l85 56q41 -56 41 -115zM329 -28q0 -84 -80 -160l-49 40q35 42 35 83q0 9 -1 17.5t-3 17t-4 14t-6 13.5t-5.5 11.5t-6.5 12t-6 10.5l85 56q41 -56 41 -115z" />
    <glyph glyph-name="dagger" unicode="&#x2020;" horiz-adv-x="498" 
d="M458 344v-52h-180v-511h-57v511h-181v52h181v204h57v-204h180z" />
    <glyph glyph-name="daggerdbl" unicode="&#x2021;" horiz-adv-x="498" 
d="M278 152v-371h-57v371h-181v52h181v88h-181v52h181v204h57v-204h180v-52h-180v-88h180v-52h-180z" />
    <glyph glyph-name="bullet" unicode="&#x2022;" horiz-adv-x="197" 
d="M40 303q0 24 17 41.5t41 17.5t41.5 -17.5t17.5 -41.5t-17.5 -41t-41.5 -17q-25 0 -41.5 16.5t-16.5 41.5z" />
    <glyph glyph-name="ellipsis" unicode="&#x2026;" horiz-adv-x="456" 
d="M136 96v-96h-96v96h96zM276 96v-96h-96v96h96zM416 96v-96h-96v96h96z" />
    <glyph glyph-name="perthousand" unicode="&#x2030;" horiz-adv-x="722" 
d="M404 142q0 39 -14.5 66.5t-34.5 27.5t-35 -27.5t-15 -66.5t15 -66.5t35 -27.5t34.5 27.5t14.5 66.5zM452 143q0 -59 -28.5 -101t-68.5 -42t-68.5 42t-28.5 101t28.5 101t68.5 42t68.5 -42t28.5 -101zM186 509q0 39 -14.5 66.5t-34.5 27.5t-35 -27.5t-15 -66.5t15 -66.5
t35 -27.5t34.5 27.5t14.5 66.5zM234 510q0 -59 -28.5 -101t-68.5 -42t-68.5 42t-28.5 101t28.5 101t68.5 42t68.5 -42t28.5 -101zM377 652l-202 -652h-62l202 652h62zM634 142q0 39 -14.5 66.5t-34.5 27.5t-35 -27.5t-15 -66.5t15 -66.5t35 -27.5t34.5 27.5t14.5 66.5z
M682 143q0 -59 -28.5 -101t-68.5 -42t-68.5 42t-28.5 101t28.5 101t68.5 42t68.5 -42t28.5 -101z" />
    <glyph glyph-name="guilsinglleft" unicode="&#x2039;" horiz-adv-x="256" 
d="M136 179l80 -96l-62 -38l-114 130l114 134l62 -38z" />
    <glyph glyph-name="guilsinglright" unicode="&#x203a;" horiz-adv-x="256" 
d="M40 83l80 96l-80 92l62 38l114 -134l-114 -130z" />
    <glyph glyph-name="fraction" unicode="&#x2044;" horiz-adv-x="344" 
d="M304 652l-202 -652h-62l202 652h62z" />
    <glyph glyph-name="Euro" unicode="&#x20ac;" horiz-adv-x="598" 
d="M68 344l20 73h35q27 105 107.5 170t189.5 65q30 0 57.5 -3t40.5 -6l13 -3l27 -99q-57 16 -104 16q-79 0 -136.5 -37.5t-82.5 -102.5h171l-20 -73h-167v-21q0 -14 1 -21h158l-20 -73h-121q25 -61 81 -96.5t136 -35.5q21 0 47 3.5t41 7.5l16 4l-27 -106q-51 -12 -111 -12
q-109 0 -190 64t-108 171h-82l20 73h51v42h-43z" />
    <glyph glyph-name="trademark" unicode="&#x2122;" horiz-adv-x="678" 
d="M598 652l40 -320l-53 -3l-19 180l-110 -181l-110 173l-19 -169l-53 -3l31 323h9l144 -221l131 221h9zM257 652v-51h-82v-269l-53 -3v272h-82l3 51h214z" />
    <glyph glyph-name="minus" unicode="&#x2212;" horiz-adv-x="376" 
d="M40 311h296v-96h-296v96z" />
    <glyph glyph-name="fi" unicode="&#xfb01;" horiz-adv-x="361" 
d="M321 334v-328l-96 -6v242h-94v-236l-96 -6v514q0 56 61 94t119 38v-95q-17 -5 -28.5 -9.5t-26 -13t-22 -21.5t-7.5 -29v-144h190z" />
    <glyph glyph-name="fl" unicode="&#xfb02;" horiz-adv-x="356" 
d="M225 0v549q-43 -6 -68.5 -20.5t-25.5 -50.5v-144h64v-92h-64v-236l-96 -6v514q0 71 67 101.5t219 30.5v-640z" />
    </font>
</defs>
</svg>
