<?xml version="1.0" standalone="no"?>
<!DOCTYPE svg PUBLIC "-//W3C//DTD SVG 1.1//EN" "http://www.w3.org/Graphics/SVG/1.1/DTD/svg11.dtd" >
<svg>
<metadata>
Created by FontForge 20090622 at Tue Feb 11 13:13:03 2020
 By deploy user
Elementary Gothic Bookhand&#194;&#169; Bill Roach / W.K. Roach. 2012. OFL / SIL 1.1
</metadata>
<defs>
<font id="ElementaryGothicBookhandJ&H-Normal" horiz-adv-x="1013" >
  <font-face 
    font-family="Elementary Gothic Bookhand J&H Normal"
    font-weight="400"
    font-stretch="normal"
    units-per-em="1024"
    panose-1="0 0 5 0 0 0 0 0 0 0"
    ascent="819"
    descent="-205"
    x-height="747"
    cap-height="1423"
    bbox="-375 -450 2094 1768"
    underline-thickness="150"
    underline-position="-67"
    unicode-range="U+0020-U+F002"
  />
<missing-glyph horiz-adv-x="1023" 
 />
    <glyph glyph-name=".notdef" horiz-adv-x="1023" 
 />
    <glyph glyph-name="space" unicode=" " horiz-adv-x="507" 
 />
    <glyph glyph-name="exclam" unicode="!" horiz-adv-x="671" 
d="M232 1166q0 -352 60 -694l-5 -174v-6l10 -10h51l5 5q110 681 110 990q-16 196 -90 196h-15l-51 -5q-75 -84 -75 -302zM267 49q0 -30 60 -53q46 27 46 53q-13 63 -51 63q-55 -27 -55 -63z" />
    <glyph glyph-name="quotedbl" unicode="&#x22;" horiz-adv-x="671" 
d="M404 1468q17 -69 17 -256v-71q0 -26 29 -40h5q59 0 74 336q-18 121 -62 121q-63 -45 -63 -90zM143 1483q20 -387 57 -387q22 9 45 80q12 235 40 312q-24 65 -68 65q-74 -26 -74 -70z" />
    <glyph glyph-name="numbersign" unicode="#" horiz-adv-x="1335" 
d="M923 1402q-42 -247 -63 -305q0 -63 -282 -63l-21 8v16q0 45 58 321q-12 78 -47 78l-26 -8l-73 -329q0 -101 -79 -101h-162q-41 0 -62 -55v-24q0 -39 125 -39h52l79 8v-31l-37 -259q0 -47 -193 -47q-85 0 -115 -172l16 -16q50 39 172 39h78v-31l-57 -376l16 -16h26
q55 0 109 407q0 47 298 47q0 -92 -47 -368q0 -86 52 -86q19 0 37 24q66 403 88 438l246 -15l16 7v16q-36 141 -126 141h-115l-5 8q27 217 47 274q0 47 235 47q79 0 115 86v8q0 18 -47 47l-172 -8q-94 0 -94 24v31l52 314q0 31 -16 31q-28 0 -78 -71zM516 870q0 47 276 47h42
q-9 -106 -47 -282q0 -47 -120 -47h-198q0 79 47 282z" />
    <glyph glyph-name="dollar" unicode="$" horiz-adv-x="1060" 
d="M36 1343v-5l10 -21h5q47 57 118 57h10q0 -26 -35 -57q-113 -188 -113 -332v-21q29 -226 174 -226q50 0 230 84h10l6 -78v-100q0 -359 -11 -552h-20q-154 124 -154 247v37q0 59 52 157v16q0 10 -26 16l-92 -16q-108 -70 -108 -194v-16q9 -76 118 -210q181 -137 297 -137
h25q106 0 200 42q307 171 307 541q0 105 -46 237q-93 215 -246 215h-5q-32 0 -158 -42h-6v32l6 142l5 5l61 -5h15q32 0 67 26q132 96 174 247v5q-87 -84 -138 -84l-56 6q-337 110 -492 110h-5q-179 -32 -179 -126zM282 1359h30q26 0 98 -53q41 -20 41 -137v-115
q0 -147 -21 -147h-51q-67 0 -169 99q-46 0 -46 127q0 147 118 226zM681 933h82q82 -91 82 -268q0 -327 -231 -573h-15q-26 66 -26 452v142l5 210q68 37 103 37z" />
    <glyph glyph-name="percent" unicode="%" horiz-adv-x="1609" 
d="M1172 1405q-249 -10 -249 -26v-5q74 -51 74 -63v-31q-78 -233 -553 -982q-156 -285 -298 -285v-21l112 -11h81l298 -10l19 10l-7 16q-80 15 -80 26v31q0 66 136 291l498 790q99 211 242 285q0 9 -25 16l-6 -5q-206 -12 -242 -26zM165 953q0 -96 68 -161q0 -49 218 -88
q167 0 242 285q0 77 -12 104q0 133 -199 187q-248 0 -317 -327zM469 1213q60 -19 75 -234q0 -129 -106 -234q-48 0 -87 88q0 380 118 380zM1085 610q-181 -148 -181 -286l19 -135q77 -192 249 -192q55 14 124 52q149 185 149 338q-42 265 -236 265q-28 0 -124 -42zM1203 584
h6q47 -18 56 -187v-52q0 -191 -137 -286h-19q-24 41 -24 167v10q0 230 118 348z" />
    <glyph glyph-name="ampersand" unicode="&#x26;" horiz-adv-x="1682" 
d="M633 1427q-148 -65 -148 -217v-16q0 -104 60 -298v-6q-230 0 -357 -244q-29 0 -71 -266q35 -187 126 -276q167 -120 269 -120q154 0 434 234q249 -228 346 -239q69 0 192 60q88 78 88 130v5q-43 130 -88 130l-5 -5q-46 -222 -99 -222q-58 0 -242 173q-93 65 -93 92v11
q132 185 132 299q0 115 -105 157h-11q-98 -75 -98 -119v-6q65 -43 65 -130v-76q0 -33 -27 -81q-20 0 -44 21q-136 136 -247 310q-104 66 -104 374q0 77 44 174q0 92 159 135h159q63 -4 126 -54q55 -34 55 -168h22q29 98 137 206v5l-11 17l-54 -22h-116q-133 65 -241 65h-116
q-99 0 -137 -33zM342 722q68 125 176 125q62 0 99 -60q77 -245 291 -515v-22l-44 -54q-75 -76 -264 -109q-103 0 -176 55q-62 0 -137 244v81q0 145 55 255z" />
    <glyph glyph-name="parenleft" unicode="(" horiz-adv-x="757" 
d="M537 1575h-16q0 -35 -87 -164q-247 -461 -247 -774v-41q0 -424 239 -815q148 -157 222 -157l24 21h8q-294 288 -294 835q0 395 111 896l80 137q-15 62 -40 62z" />
    <glyph glyph-name="parenright" unicode=")" horiz-adv-x="757" 
d="M229 1517l80 -137q111 -501 111 -896q0 -547 -294 -835h8l24 -21q76 0 222 157q239 388 239 815v41q0 315 -246 774q-88 130 -88 164h-16q-24 0 -40 -62z" />
    <glyph glyph-name="asterisk" unicode="*" horiz-adv-x="1023" 
d="M456 1432v-130l-4 -4q-44 0 -216 122q-28 -16 -28 -40v-4q0 -16 23 -41q126 -53 193 -122q-123 -94 -202 -138q33 -41 46 -41h4l28 4q132 90 156 90h5q0 -220 55 -220q41 0 41 61v114q0 45 14 45h5l156 -61h14q41 21 41 28v8q-193 110 -202 122l69 49q128 71 128 114
l-9 36h-9q-113 -77 -179 -109l-14 4q0 272 -51 272h-4l-23 -20q-37 0 -37 -139z" />
    <glyph glyph-name="plus" unicode="+" 
d="M418 1149v-6l5 -6q51 0 63 -369l-32 -6h-221q-100 0 -162 80h-9l-5 -6q19 -122 32 -301h9l36 73q0 68 338 68q-15 -523 -45 -523l5 -18l122 25l36 -7q27 8 27 19v6l-9 12q-68 26 -68 203v19l5 246q15 18 257 18h36q36 0 104 -104h4l5 6l-5 203l5 73l-14 19h-4l-14 -31
q-33 -74 -280 -74h-94l-5 74v209q18 98 63 98v19l-22 6h-104q-59 -3 -59 -25z" />
    <glyph glyph-name="comma" unicode="," horiz-adv-x="556" 
d="M158 104v-17l73 -79v-97q0 -64 -32 -157q27 -53 40 -53q17 0 17 26q93 129 162 412v27q-58 96 -122 96q-87 0 -138 -158z" />
    <glyph glyph-name="hyphen" unicode="-" horiz-adv-x="669" 
d="M496 540h-82q-80 0 -163 -10l-131 17h-7q-21 0 -24 -13l9 -93l-3 -20l6 -7h3q24 27 37 27h52l132 7h128q95 -6 120 -17h6l3 10l-3 14v3q0 103 -15 103q-18 -21 -68 -21z" />
    <glyph glyph-name="period" unicode="." horiz-adv-x="556" 
d="M167 78q0 -54 90 -78q149 45 149 134q-66 120 -119 120h-6q-114 -67 -114 -176z" />
    <glyph glyph-name="slash" unicode="/" horiz-adv-x="568" 
d="M471 1424v-16l27 -41v-20q0 -77 -129 -449q-68 -209 -142 -387q-83 -252 -148 -392q0 -12 -79 -98v-11l56 -10h66q69 0 69 21v5l-23 41q0 20 23 77q252 688 369 1125q18 92 109 176l-10 15h-6q-46 -21 -182 -36z" />
    <glyph glyph-name="zero" unicode="0" 
d="M400 1425q-319 -184 -319 -862q0 -291 184 -501q72 -81 183 -99h11q197 0 335 188q140 290 140 616v42q0 257 -70 443q-75 204 -308 204h-22q-72 0 -134 -31zM383 1252q60 147 168 147h70q26 0 59 -110q60 -84 60 -527l-17 -204q-30 -332 -102 -470q0 -68 -178 -78
q-22 9 -22 21q-135 150 -135 793q0 246 97 428z" />
    <glyph glyph-name="one" unicode="1" 
d="M219 1251q-160 -26 -160 -37v-6q54 -60 166 -90l135 26h12l7 -16l-7 -995q0 -59 -116 -117v-5q0 -10 31 -16l56 5q30 0 36 -16l49 11h160l56 10l54 -5l19 5v11l-37 32q-67 0 -67 1054q0 211 19 319q-39 48 -87 48h-124l-12 -11q-102 -180 -190 -207z" />
    <glyph glyph-name="two" unicode="2" horiz-adv-x="1110" 
d="M197 1233l6 -32q63 -135 152 -135q62 11 79 31q0 31 -22 57l-29 -26q-28 0 -28 32v15q0 78 164 78h96q191 -55 191 -187v-11q0 -83 -141 -349q-168 -278 -253 -376h-6q-128 47 -181 47h-17q-144 0 -180 -208v-16q23 -151 158 -151q45 0 130 62q81 105 96 105l22 -11
q261 -219 406 -219l96 16q141 78 141 130q0 104 -237 183q-28 -3 -28 -16v-10l6 -6q95 -36 95 -99q0 -57 -101 -57q-168 0 -333 198q0 14 158 250q149 192 276 564q0 65 -16 114q-103 230 -412 230l-152 -37q-136 -65 -136 -166zM242 231h40q42 0 45 -16v-5
q-40 -61 -119 -115h-33q-42 0 -45 16v11q48 109 112 109z" />
    <glyph glyph-name="three" unicode="3" 
d="M73 1283q0 -106 173 -142q41 0 83 47v16l-128 -6q-33 0 -45 21v16q23 105 122 105h109q198 -82 198 -205q0 -185 -147 -226q-205 -26 -205 -47v-16q314 -133 416 -194q160 -150 160 -279q0 -92 -25 -136q-39 -184 -231 -184l-70 5q-147 0 -244 121q0 68 26 126
q70 39 70 47v11l-38 10l-38 -10l-64 10l-39 -5q-77 -24 -77 -100l7 -42q69 -226 506 -226l64 11q294 158 294 436l-19 63q-48 182 -237 315q-166 66 -166 74q243 164 243 268l-7 58q-67 231 -409 231h-71q-211 -78 -211 -173z" />
    <glyph glyph-name="four" unicode="4" 
d="M456 1426v-10q49 -37 49 -126l-18 -521q0 -35 -212 -78h-13q119 323 119 485v62q-57 225 -206 225q-107 0 -131 -146q0 -37 112 -79q13 0 19 32l-13 31q0 41 63 47h50q31 0 37 -84q0 -74 -87 -349q-156 -433 -156 -469q0 -20 31 -32l19 6q284 213 337 213h6l6 -5
q0 -589 -56 -589q-112 -6 -112 -26v-11l50 -10l380 5q31 0 37 16q-81 42 -81 229v230l7 219h6l6 5h137l50 -10h13l37 10q0 26 -31 42q-182 28 -225 41l44 527q24 112 75 146l-19 21q-63 -29 -330 -47z" />
    <glyph glyph-name="five" unicode="5" 
d="M100 1415h-7q42 -210 42 -291l-14 -185l-7 -16l7 -15h14q55 36 55 52q105 72 230 90h70l62 -10q139 -102 139 -407q0 -196 -76 -375q-102 -222 -216 -222h-14q-95 0 -125 111v31q0 31 28 53q139 96 139 122q0 37 -181 74h-14q-118 0 -160 -185q0 -36 28 -95
q135 -159 313 -159h28q64 0 146 32q356 168 362 681q-14 113 -42 164q-106 233 -438 233l-98 -6l-7 27v227l7 37l140 5h69q32 0 105 -58q65 -100 90 -100q21 5 21 32v84l14 69q0 17 -28 21l-42 -5l-216 5q-424 -5 -424 -21z" />
    <glyph glyph-name="six" unicode="6" 
d="M245 1195q-164 -343 -164 -616v-73q0 -288 216 -458q66 -68 190 -68l72 5q379 78 379 431l-7 32q-84 289 -300 289h-14q-186 0 -320 -110h-13v21q0 105 19 194q160 563 393 563h33q61 0 104 -47v-42l-6 -27q-120 -47 -151 -94v-21q45 -48 79 -48h19q138 0 157 147l-13 43
q-72 152 -235 152q-270 0 -438 -273zM480 669h39q52 0 131 -53q51 0 105 -210l-7 -105q-72 -274 -222 -274h-20l-39 6q-203 105 -203 452l7 21q108 163 209 163z" />
    <glyph glyph-name="seven" unicode="7" 
d="M107 1197l6 -36q96 -144 208 -144l55 5q80 25 80 82v10l-6 6l-43 -6q-141 27 -141 155v10q0 23 37 52q68 62 348 62l25 -11q-18 -207 -239 -535q-318 -429 -318 -798q-52 -21 -55 -31v-11l6 -5q18 0 18 -10l92 10h147q123 0 123 21q-104 84 -104 139v41q17 74 67 185
l373 608q87 161 147 391q0 28 -18 57l-533 -15q-221 0 -275 -232z" />
    <glyph glyph-name="eight" unicode="8" 
d="M359 1307q-139 -172 -139 -320q0 -54 52 -225v-21q-203 -226 -203 -372v-11q0 -53 255 -256q147 -108 313 -126l98 5q175 0 232 210q-32 142 -191 356q-209 220 -209 241v16l6 5q365 341 365 487v21q-70 131 -243 131q-159 0 -336 -141zM631 1401h87q104 -34 104 -84v-16
q0 -100 -347 -387h-18q-82 106 -104 209v42l6 37q153 199 272 199zM341 636q67 -34 134 -136q330 -313 330 -388q-21 -73 -215 -73q-133 0 -249 99q-139 77 -139 241q0 151 139 257z" />
    <glyph glyph-name="nine" unicode="9" 
d="M103 998q0 -170 112 -262q174 -105 261 -105l143 16h19q0 -186 -118 -404q-141 -200 -255 -200h-31q-81 17 -81 84v16q0 60 124 173l-37 32h-6q-119 0 -193 -153l31 -115q105 -84 199 -84h25q281 0 479 378q104 209 143 572l-6 26v42l-13 142q-117 304 -373 304l-43 -5
q-380 -93 -380 -457zM321 1250q112 152 211 152h44l19 -15q53 0 80 -478v-10l-6 -105q0 -83 -130 -111h-112q-150 69 -150 347q0 62 44 220z" />
    <glyph glyph-name="colon" unicode=":" horiz-adv-x="556" 
d="M268 997q-48 -21 -69 -84q21 -59 69 -101q98 0 128 51v35q5 11 5 27q-13 68 -68 68q-9 -5 -11 3l-24 1h-30zM256 167q-48 -21 -69 -84q21 -59 69 -101q98 0 128 51v35q5 11 5 27q-13 68 -68 68q-9 -5 -11 3l-24 1h-30z" />
    <glyph glyph-name="semicolon" unicode=";" horiz-adv-x="556" 
d="M179 865q21 -59 69 -101q98 0 128 51v50l-98 84h-30q-48 -21 -69 -84zM177 139q0 -22 118 -143q0 -46 -98 -159v-17h10l29 17q93 67 138 269q-45 100 -118 100h-20q-59 -35 -59 -67z" />
    <glyph glyph-name="less" unicode="&#x3c;" 
d="M48 697l20 -25q268 -235 835 -558q21 0 47 38v38l-326 190q-161 88 -318 254q0 17 34 51q134 131 318 247q251 148 265 215v58l20 114v6l-196 -101q-300 -175 -699 -527z" />
    <glyph glyph-name="equal" unicode="=" 
d="M786 950h-143q-136 0 -281 -16l-228 27h-11q-39 0 -42 -22l16 -144l-5 -32l10 -11h5q42 43 64 43h90l228 10h222q164 -9 207 -26h11l5 16l-5 21v6q0 160 -27 160q-30 -32 -116 -32zM786 639h-143q-136 0 -281 -16l-228 27h-11q-39 0 -42 -22l16 -144l-5 -32l10 -11h5
q42 43 64 43h90l228 10h222q164 -9 207 -26h11l5 16l-5 21v6q0 160 -27 160q-30 -32 -116 -32z" />
    <glyph glyph-name="greater" unicode="&#x3e;" 
d="M946 701l-20 25q-266 235 -835 558q-21 0 -47 -38v-38l326 -190q161 -86 318 -254q0 -17 -34 -51q-133 -129 -318 -247q-250 -147 -265 -215v-58l-20 -114v-6l196 101q306 179 699 527z" />
    <glyph glyph-name="question" unicode="?" horiz-adv-x="799" 
d="M19 1195q0 -47 91 -71q56 0 158 61l-11 52l-35 -21h-25q-36 0 -36 36v5q0 87 193 123h66l51 -5q121 -39 121 -369q0 -247 -116 -247h-46q-115 36 -178 108h-15q-25 -136 -25 -262v-205l-31 -133l11 -16q187 19 187 41v11q-66 78 -66 149q9 292 31 292h10q120 -46 157 -46
q50 0 102 20q157 79 157 365q0 161 -122 277q-116 92 -274 92h-15q-340 -57 -340 -257zM202 36q18 -36 40 -36q43 0 76 72q-4 41 -35 41q-60 0 -81 -77z" />
    <glyph glyph-name="at" unicode="@" horiz-adv-x="2018" 
d="M596 1380q-534 -415 -534 -908v-81q0 -81 57 -230q123 -232 335 -324q119 -69 385 -99q505 0 812 274q299 323 299 684v49q-93 409 -264 523q-246 267 -534 267q-344 0 -556 -155zM561 1286q154 116 313 131h57q294 0 513 -212q321 -310 321 -609l-22 -267
q-17 -156 -178 -311q-109 -125 -384 -181h-157q-246 0 -428 112q-356 243 -356 666q0 383 321 671zM832 1171v-30l4 -27h18q81 72 116 72h8q0 -20 -128 -371q-199 -558 -249 -636q-70 -23 -85 -34v-8l9 -15l76 4h257l14 7l-5 12q-80 21 -80 57l9 60q100 364 142 364l254 7
q84 -312 84 -401v-4l-4 -30q0 -8 -58 -50v-3q3 -12 36 -12h84l58 -3l49 3h35v12l-13 15q-58 0 -111 125q-28 135 -80 310q0 26 -76 285q-49 321 -111 378l-187 -26q-66 0 -66 -61zM1076 1031h5q45 -93 93 -333v-8l-89 -4h-138l-9 8q102 316 138 337z" />
    <glyph glyph-name="A" unicode="A" horiz-adv-x="1265" 
d="M408 1344v-40l6 -34h22q104 93 148 93h12q0 -21 -165 -482q-254 -724 -319 -827q-94 -31 -108 -44v-10l11 -20l97 5h330l17 10l-6 15q-102 28 -102 73l11 79q129 473 183 473l324 10q108 -405 108 -522v-5l-6 -40q0 -11 -74 -64v-4q5 -15 46 -15h108l74 -5l62 5h46v15
l-17 19q-74 0 -142 163q-36 172 -103 403q0 31 -96 370q-63 418 -143 492l-239 -34q-85 0 -85 -79zM721 1162h6q58 -126 119 -434v-9l-114 -5h-176l-11 9q130 410 176 439z" />
    <glyph glyph-name="B" unicode="B" horiz-adv-x="1163" 
d="M-20 1347v-21q0 -37 18 -42h17q68 116 119 116h17l6 -5l7 -100l-7 -473l13 -740v-5h-13q-70 0 -100 32q-19 73 -36 73h-6q-24 0 -24 -142v-26l78 -26q633 9 633 26q421 105 421 373v79q0 74 -65 183q-67 137 -249 221v5q113 125 113 247q0 192 -184 288q-101 58 -699 58
h-5q-54 0 -54 -121zM561 1389q171 -48 171 -304q0 -94 -76 -189q-55 -47 -267 -47q-36 0 -36 115l12 420v5l6 6v5zM844 466v-42q-47 -289 -118 -289q0 -54 -361 -63v131l6 577l266 11q159 0 207 -325z" />
    <glyph glyph-name="C" unicode="C" horiz-adv-x="983" 
d="M218 1368q-218 -150 -218 -742v-53q0 -68 42 -212q158 -361 430 -361q95 0 230 21q236 105 236 175l-37 37h-11q-195 -148 -388 -148h-18q-24 0 -96 48q-74 94 -85 191q-55 115 -91 620q51 446 296 446h54q122 0 254 -117h7q156 136 157 148v16l-6 6l-158 -32h-90
l-260 37q-127 -7 -248 -80z" />
    <glyph glyph-name="D" unicode="D" horiz-adv-x="1183" 
d="M0 1435v-10l5 -5q96 0 159 -224l-5 -166l10 -650l-5 -26h-67l-5 6l-31 -32v-15q26 -44 93 -94l5 -192v-5q0 -37 143 -37q46 9 46 42l-5 5v68h15q229 -125 338 -125q123 0 226 78q225 272 225 691q0 354 -184 577q-140 119 -261 119q-69 0 -159 -57q-187 -145 -205 -145
h-10v156q0 62 -77 62h-215q-27 0 -36 -21zM650 1368h36q87 0 195 -187q71 -192 71 -302v-78q0 -98 -25 -270q-111 -483 -277 -483h-20q-76 0 -210 73q-103 36 -103 161l11 540v5l-5 312q217 217 327 229z" />
    <glyph glyph-name="E" unicode="E" horiz-adv-x="1179" 
d="M0 1318v-16l17 -5q93 62 115 62h17l6 -88l-6 -672l-17 -284q0 -273 -98 -300q0 -21 138 -21l579 6l172 -16l29 5q183 0 183 124q-3 73 -29 73h-5q-131 -109 -235 -119h-121q-249 0 -407 10q-17 0 -17 134v31q0 243 17 538q0 67 58 67h240l23 -5l40 -57h12l11 73v72
q0 27 -17 31q-24 0 -92 -52l-229 5l-29 6q-16 0 -28 413v10l11 11h12l51 -11q284 -201 338 -201l29 5q173 156 218 274v10h-23q-80 -119 -149 -119h-63l-34 6q-286 134 -448 134h-86q-183 -78 -183 -134z" />
    <glyph glyph-name="F" unicode="F" horiz-adv-x="942" 
d="M-86 1322l6 -5q165 111 244 111q36 0 36 -153l-12 -350l18 -508v-148q0 -191 -137 -265v-11l6 -5l71 5h185q179 0 179 27q0 11 -47 21q-55 0 -55 143v95l-11 482l6 143q64 26 132 26h47q65 0 185 -26q20 0 23 32q-9 61 -23 79l-95 -32h-114q-114 0 -167 32l12 286l12 11
h12q222 -180 256 -180q62 0 126 47q220 244 220 281h-12l-36 -11q-95 -137 -172 -137h-66l-101 26q-352 143 -412 143h-72q-136 0 -244 -159z" />
    <glyph glyph-name="G" unicode="G" horiz-adv-x="1144" 
d="M398 1453q-186 0 -322 -151l11 -9h16q150 98 172 98h5l-113 -187q-107 -291 -107 -521q0 -149 43 -306q12 -99 150 -240q177 -115 322 -115q197 0 343 157h11v-57l11 -224v-47q0 -181 -59 -208l-156 -52v-5l43 -11l38 5q311 72 311 333l-11 656l16 177q0 23 -91 26h-43
q-208 -31 -327 -31h-11q-31 0 -64 21q-36 71 -49 73h-10l-11 -84l5 -62q0 -55 75 -73l49 10q228 93 305 93h6l-22 -431q0 -49 -64 -89q-70 -109 -204 -109h-107l-70 21q-257 144 -257 806q0 189 59 313q52 161 69 161h16q88 0 231 -125q137 -166 199 -166q34 0 101 26
q172 173 199 306v11h-11l-5 -5q-79 -151 -166 -151h-33l-32 6q-324 171 -407 171q0 -6 -54 -11z" />
    <glyph glyph-name="H" unicode="H" horiz-adv-x="1101" 
d="M809 1368q35 -29 35 -115q0 -388 -25 -388h-414q-25 336 -25 448v25q0 20 29 51v10l-34 5h-64l-59 5q-138 -111 -178 -111h-74v-16l5 -5q0 -34 158 -34h5l5 -429l-5 -328q0 -458 -84 -458q-35 -3 -35 -15v-5q0 -23 158 -31l252 36v5q-54 48 -54 96l14 433l-10 221l405 11
h5l-15 -359v-247q0 -86 35 -241q62 -122 177 -227l15 5v5q-74 172 -74 257v15q0 1152 40 1286l-5 30l5 30q0 13 44 46v10q0 14 -79 30q-153 -27 -153 -51z" />
    <glyph glyph-name="I" unicode="I" horiz-adv-x="467" 
d="M80 1378q15 -26 36 -35q48 0 48 -491q-21 -647 -37 -771q0 -18 -58 -75q13 -25 26 -25q63 25 116 25h100q23 0 111 -55h5q0 26 -68 100q-32 0 -32 436v155l11 521v15q0 97 10 130l68 90q-12 20 -42 25l-36 -5q-258 0 -258 -40z" />
    <glyph glyph-name="J" unicode="J" horiz-adv-x="516" 
d="M142 1397l55 -35q32 0 32 -256v-160q0 -755 -87 -943l-142 -291v-15h9q156 152 271 311q76 112 101 321q25 0 36 998q0 45 60 85l-14 20q-321 0 -321 -35z" />
    <glyph glyph-name="K" unicode="K" horiz-adv-x="1122" 
d="M709 1428l22 -21q83 0 83 -138q0 -183 -121 -323q-285 -189 -341 -189h-6v486q0 155 -16 174v6l-77 -11l-110 16q-143 -5 -143 -31q165 -138 165 -194v-159q0 -736 -17 -855q0 -119 -110 -173v-16l11 -9h44l72 -5l77 5h126q29 0 33 15v5q-10 20 -27 20q-44 27 -44 128
v143q12 338 33 338q191 136 286 169h5q259 -132 259 -327v-88q-63 -241 -226 -394q9 -25 39 -25h11q357 9 357 41v5q-94 43 -121 102q94 243 94 343q-16 131 -50 189q-84 157 -280 246l5 20q259 174 259 333q-30 127 -55 127q0 37 -198 67q-39 -12 -39 -20z" />
    <glyph glyph-name="L" unicode="L" horiz-adv-x="1020" 
d="M25 1422l-29 -5v-10q11 -20 24 -20q67 -48 67 -181l-14 -1078q0 -37 -72 -100q0 -27 48 -30l216 -10l561 15q158 0 158 96v20q0 43 -14 65h-5q-161 -110 -461 -110q-161 0 -230 15q-33 0 -33 704q18 564 38 564q52 29 67 55v10l-9 10h-15l-24 -15z" />
    <glyph glyph-name="M" unicode="M" horiz-adv-x="1224" 
d="M11 1441h3q0 -59 62 -59q51 0 51 -181q-15 -1030 -36 -1030q0 -100 -91 -155v-11l4 -5q54 -6 61 -16l58 5h55l130 -5q33 10 33 21q-15 40 -66 86q-12 0 -21 459v26q0 208 14 491l15 -5q88 -110 221 -358q39 -69 112 -245h4q50 133 166 384q129 241 225 347h11l-4 -91v-32
l8 -469v-272l-8 -107q-29 -115 -65 -219v-5l65 16l149 -6l7 11q0 10 -36 43q-54 0 -54 747v475l7 16q65 49 134 128v16l-80 21q-66 -16 -87 -42q-86 -32 -268 -358q-174 -341 -188 -347q-213 354 -243 390q-200 368 -305 368q-43 0 -43 -32z" />
    <glyph glyph-name="N" unicode="N" horiz-adv-x="1118" 
d="M0 1360l10 -11h4q16 0 34 16h5q116 -36 116 -79l24 -809q-10 -417 -29 -417l-48 -32v-11l24 -42l39 21l173 -5h82q38 0 49 26q0 10 -53 32q-33 0 -54 624l5 52v265l5 21v5q15 0 126 -132q189 -278 313 -608q93 -296 126 -296h10q31 0 43 32l10 1163q21 69 101 259l-10 10
h-164q-63 -3 -63 -21v-5q68 -30 68 -175l-10 -465l15 -386h-10l-5 6q-49 147 -135 322l-367 497q-141 243 -347 243h-10q-77 -60 -77 -100z" />
    <glyph glyph-name="O" unicode="O" horiz-adv-x="1024" 
d="M83 1082q-96 -252 -96 -516l48 -250q22 -139 149 -260q0 -31 230 -72h26q109 0 208 26q159 82 245 235q91 273 91 439q0 136 -32 296q-46 245 -176 373q-60 63 -208 87l-59 -20q-230 0 -426 -338zM243 1011q60 208 96 245q0 51 181 92h43q38 0 58 -20q63 0 96 -118
q28 0 64 -455l-5 -183q0 -368 -96 -440q-27 -82 -234 -82h-27q-144 36 -144 77q-59 0 -59 393v46q0 381 27 445z" />
    <glyph glyph-name="P" unicode="P" horiz-adv-x="983" 
d="M191 1343h-55q-38 0 -119 70h-13l-4 -5l21 -116q27 -60 98 -60h55l13 -20q-9 -815 -17 -890q0 -240 -43 -282q-46 -25 -46 -35v-5q3 -10 21 -20q5 16 123 20h144l22 5v10l-5 5q-80 38 -80 106l12 563l5 15h4q123 -30 191 -30h81l34 5q165 45 220 110q98 154 98 267v15
q0 144 -102 246q-118 106 -216 106q-155 0 -442 -80zM569 1368h51l42 -5q136 -78 136 -317q0 -66 -21 -126q-41 -191 -301 -191h-17q-30 0 -136 71l12 457q0 63 234 111z" />
    <glyph glyph-name="Q" unicode="Q" horiz-adv-x="1085" 
d="M131 1155q-125 -248 -125 -504v-61q0 -357 288 -530q67 -62 217 -62q109 0 245 78h10l6 -36v-62q0 -193 92 -293q0 -47 250 -98q106 0 125 87q0 83 -65 139h-11l-5 -5l5 -62v-20q-11 -72 -65 -72h-33q-121 0 -184 494q0 28 70 128q103 248 103 401v124q0 200 -125 396
q-87 128 -331 231q-279 0 -467 -273zM283 1104q57 247 206 247h82q55 0 141 -67q114 -190 114 -602v-113q-11 -193 -38 -205h-11q-122 149 -217 149q-102 0 -130 -149v-11q68 -133 146 -133h6l16 15q-43 46 -43 82q0 44 32 62h11l33 -5q130 -61 130 -124v-5
q-64 -159 -163 -159h-141q-75 0 -109 31q-114 204 -114 360v180q0 254 49 447z" />
    <glyph glyph-name="R" unicode="R" horiz-adv-x="1015" 
d="M-45 1336h5q0 -83 67 -117l107 5q27 0 33 -286l-19 -581v-189q0 -17 -29 -66q-65 -40 -111 -92q0 -9 29 -20l323 10l53 -16q23 0 29 26h-4v10q-114 111 -126 163v454q0 26 101 26h49l72 -31q193 -69 193 -341v-113l-19 -285v-41q33 -245 222 -245l43 5q121 57 121 128
q0 107 -87 107l-34 -10q34 -52 34 -72v-15q0 -64 -48 -77h-19q-33 0 -78 138q-33 388 -53 485q0 232 -130 372v10q98 31 130 51q164 122 164 260v82q0 58 -14 107q-112 235 -304 235q-71 0 -188 -21q-236 -61 -285 -61h-121q-36 24 -82 92q-12 0 -24 -87zM549 1352h106
l29 -6q145 -75 145 -275l-10 -92q-89 -250 -217 -250h-97q-133 0 -183 26l-5 117l14 429q75 51 218 51z" />
    <glyph glyph-name="S" unicode="S" horiz-adv-x="1101" 
d="M809 1278h-29l-47 5q-304 140 -452 140q-106 -15 -140 -30q-91 -53 -118 -125v-5h12q90 90 170 90h59q0 -9 -135 -125q-80 -77 -117 -274l17 -80q77 -140 188 -140l94 20q239 130 346 130h35q140 -66 140 -215v-75l-11 -110q-42 -187 -94 -249q-81 -180 -293 -180h-12
q-57 0 -111 20q-93 0 -135 235q0 105 35 184q0 15 -12 15h-11l-36 -15q-92 -41 -152 -164q32 -133 88 -190q0 -50 287 -140q227 0 381 45q305 135 305 539l-6 90q-72 275 -305 275h-29q-195 -45 -340 -45h-100q-47 8 -47 20q-82 0 -82 145l6 69q74 180 200 180h5l41 -10
q305 -200 399 -200q88 0 158 85q40 0 82 225q0 55 -17 55l-29 -35q0 -124 -188 -160z" />
    <glyph glyph-name="T" unicode="T" horiz-adv-x="1118" 
d="M36 1399q-36 0 -36 -176q12 -141 32 -141h9q21 83 54 131q48 131 189 131h99q37 0 67 -71l-9 -342l5 -111v-161l-5 -493q0 -66 -67 -166v-5q0 -20 144 -20h13q185 0 185 20q0 13 -36 61q-36 0 -41 467q9 585 18 675q0 126 54 156h86q121 -21 171 -76q71 -126 103 -161h5
l18 15l-5 176l9 91l-31 15l-288 5h-32q-711 -12 -711 -20z" />
    <glyph glyph-name="U" unicode="U" horiz-adv-x="999" 
d="M801 1393v-5q10 -17 32 -25q43 0 43 -270q0 -601 -48 -739q-96 -270 -355 -270h-21l-38 5q-124 42 -124 305q12 493 33 879l5 35q70 52 70 65q-10 35 -38 35l-16 -5q-344 -15 -344 -30q91 -81 91 -230v-335l-16 -519q0 -26 38 -90q137 -215 328 -215h54q298 0 424 355
q36 0 43 969q18 26 108 85q-39 30 -65 30v-5q-204 0 -204 -25z" />
    <glyph glyph-name="V" unicode="V" horiz-adv-x="1069" 
d="M11 1409h-11v-5l100 -81q110 -435 249 -791q191 -532 222 -532q36 35 153 274q317 622 317 887q0 105 -63 192q-23 66 -180 66q-41 0 -48 -20v-10q6 -13 69 -46q90 -75 90 -334q0 -125 -53 -269q-113 -290 -190 -355h-11l-137 360q-148 488 -148 568v25l5 25q64 25 64 36
q-9 20 -37 20h-143l-248 -5v-5z" />
    <glyph glyph-name="W" unicode="W" horiz-adv-x="1224" 
d="M0 1390q60 -27 72 -51v-31l-41 -1293l26 -10q101 0 360 349q168 257 191 277l268 -380q207 -251 288 -251l26 10v21l-41 1292l5 26q63 30 67 41v20l-289 21q-30 -10 -30 -21l61 -51q32 0 47 -897v-139l-5 -5h-6q-149 131 -211 246q-134 185 -134 210q14 124 150 385v15
q-12 31 -72 31h-6l-30 -10l5 -77v-15q-17 -89 -88 -221q-39 41 -93 226v15l5 77l-30 10h-6q-60 0 -72 -30v-16q135 -264 150 -374v-5q0 -33 -108 -180q-96 -159 -237 -282l-11 10v134q0 285 26 810q0 86 82 138q0 12 -30 21l-289 -21v-25z" />
    <glyph glyph-name="X" unicode="X" horiz-adv-x="1220" 
d="M83 1384v-20q100 -27 173 -111q120 -188 216 -458q34 -46 34 -61v-10l-56 -100q-131 -295 -305 -559q0 -12 -145 -111v-5l44 -10l317 40v10q-78 66 -78 96q0 24 51 136q202 403 222 403h11l6 -5q233 -426 233 -554l-6 -20q-55 -29 -61 -41v-10l6 -5l250 5h28l150 -5v5h11
v15q0 17 -61 26q-108 58 -139 166q-73 90 -150 297q-161 287 -161 337v5l5 30l211 353q52 70 173 141v10l-11 15q-323 -15 -323 -40l17 -20q72 -13 72 -26v-15q-9 -45 -22 -45q-153 -294 -172 -297q-19 9 -156 302l11 40q0 15 111 96v5l-72 10q-434 -6 -434 -15z" />
    <glyph glyph-name="Y" unicode="Y" horiz-adv-x="758" 
d="M609 1341v-5q0 -13 58 -25q39 -3 39 -35q0 -52 -82 -168q-157 -252 -199 -252h-5q-8 3 -121 198q-170 262 -170 277v15q63 6 63 19t-43 25v-5l-39 -5q-281 -3 -281 -25v-9l5 -5q64 -18 169 -104q164 -265 286 -520l-5 -104l-4 -400q0 -178 -49 -203q0 -25 92 -25h10
l126 5l24 -10l24 25v5q-77 51 -77 193q15 384 29 529q102 153 242 406q83 161 189 232v10q0 9 -19 15v-5q-262 -30 -262 -49z" />
    <glyph glyph-name="Z" unicode="Z" horiz-adv-x="1216" 
d="M97 1148v-5q10 -15 176 -78l10 15q-50 61 -50 155q0 45 61 48h60q113 0 187 -29q151 -24 151 -34q-71 -57 -187 -174q-193 -211 -322 -446q-125 -232 -187 -547v-24q0 -35 45 -44l71 25q70 155 222 155h111q50 -12 50 -25q32 0 298 -266q173 -189 297 -189l91 24
q106 84 106 155q0 119 -106 194h-5q-70 0 -126 -111q21 -73 45 -73l91 48h20q23 -11 26 -24q-33 -68 -101 -68h-51q-25 0 -65 20q-121 27 -379 290q-120 199 -221 199q-57 0 -132 -53h-15v9q72 315 333 630q272 228 404 324q169 90 181 117q0 20 -55 29l-51 -10
q-228 -73 -333 -73h-116q-28 0 -121 30q-163 77 -181 77l-46 -15q-186 -150 -186 -256z" />
    <glyph glyph-name="bracketleft" unicode="[" horiz-adv-x="757" 
d="M535 1448h-155q-74 0 -74 -37l-5 -134v-359q0 -935 50 -952l154 -11h49q60 0 60 59v11q-13 32 -35 32l-89 -6q-45 0 -45 305q-10 0 -10 332v112q3 578 25 578l129 -5l15 5v6q0 57 -69 64z" />
    <glyph glyph-name="backslash" unicode="\" horiz-adv-x="568" 
d="M-82 1460h-6l-10 -15q91 -82 109 -176q117 -436 369 -1125q23 -53 23 -77l-23 -41v-5q0 -21 69 -21h66l56 10v11q-79 88 -79 98q-64 140 -148 392q-80 195 -142 387q-129 372 -129 449v20l27 41v16q-134 15 -182 36z" />
    <glyph glyph-name="bracketright" unicode="]" horiz-adv-x="757" 
d="M164 1388v-6l15 -5l129 5q22 0 25 -578v-112q0 -332 -10 -332q0 -305 -45 -305l-89 6q-20 0 -35 -32v-11q0 -59 60 -59h49l154 11q50 16 50 952v359l-5 134q0 37 -74 37h-155q-69 -7 -69 -64z" />
    <glyph glyph-name="asciicircum" unicode="^" 
d="M78 376q0 -9 27 -20l5 5q148 6 148 24q169 443 275 608h14l153 -289q120 -292 148 -299h23q23 0 27 15v5q-333 738 -401 794l-14 -10q-170 -291 -405 -833z" />
    <glyph glyph-name="underscore" unicode="_" horiz-adv-x="1023" 
d="M1024 -160v60h-1024v-60h1024z" />
    <glyph glyph-name="a" unicode="a" horiz-adv-x="781" 
d="M331 658v-63q-333 -300 -333 -560v-32l117 -16q205 0 401 137h13q25 -6 55 -68l-43 -43v-10l25 -5l24 5h25l148 10v11q-125 99 -167 211q0 25 62 37l86 -5v5q-50 106 -123 164h-6q-30 -105 -62 -105q-40 36 -129 295v64l43 37v5q0 16 -68 16t-68 -90zM473 241v-6l-6 -21
q-167 -158 -265 -158h-19l-12 10v43l6 26q0 38 197 280h25q74 -145 74 -174z" />
    <glyph glyph-name="b" unicode="b" horiz-adv-x="860" 
d="M0 1423v-5l32 -36q33 0 33 -1197q0 -76 -39 -187q5 -16 51 -16h175l77 10v11q-39 39 -39 57v5h13q159 -62 368 -62q92 0 194 88v5l-13 11h-13l-97 -21h-19v10q77 154 77 245v36q-72 307 -296 307h-52q-58 0 -168 -72h-19l-7 166v42l20 551l51 52v5l-148 11h-58l-65 5
q-58 -12 -58 -21zM374 591q201 0 201 -182v-89q0 -237 -104 -270h-32q-168 84 -168 135v338q0 68 103 68z" />
    <glyph glyph-name="c" unicode="c" horiz-adv-x="710" 
d="M0 363v-103l7 -49q112 -211 323 -211h80q51 0 81 11q205 60 205 119h-7q-96 -54 -213 -54h-36q-40 0 -125 32q-81 47 -81 233q0 275 162 341q89 0 95 -81h15q183 120 183 135l-22 11l-418 -27q-249 -88 -249 -357z" />
    <glyph glyph-name="d" unicode="d" horiz-adv-x="805" 
d="M463 1390v-10q0 -6 46 -31l-23 -692v-5h-5q-80 61 -143 61q-61 0 -121 -15q-194 -58 -217 -395l6 -77q75 -205 274 -205h17q51 0 189 56h6v-5l-6 -26q-57 -27 -57 -35q5 -16 46 -16h149l97 -5q0 15 11 15h29l6 -5l5 5q-7 22 -28 31q-46 25 -46 144v77l6 477l-6 138
l23 231q0 222 57 297q-21 21 -92 21h-154q-45 0 -69 -31zM366 616l86 -16q57 0 57 -277l-6 -123q0 -92 -143 -128h-22q-161 0 -161 277v62l6 51q55 154 183 154z" />
    <glyph glyph-name="e" unicode="e" horiz-adv-x="766" 
d="M586 731l-264 5q-79 -9 -102 -22q-220 -87 -220 -370v-28q0 -45 51 -174q76 -142 337 -142q212 0 315 142l-37 22q-157 -104 -241 -104h-37q-22 0 -95 38q-51 36 -51 175v54q0 14 44 17h29q53 0 110 -17l14 17v38q0 41 -22 76q-96 -38 -131 -38h-22l-30 22v38
q52 212 169 212h29q69 0 154 -87q161 100 161 120v17l-22 5q-31 -10 -139 -16z" />
    <glyph glyph-name="f" unicode="f" horiz-adv-x="533" 
d="M59 1105q77 -277 77 -626v-148l-24 -132q-32 -142 -112 -184q0 -7 29 -15l183 5h71q46 0 100 15v21l-29 35q-32 0 -47 576l82 20h59l35 -20h6l12 10v82l-12 61h-6q-76 -56 -165 -56q-29 0 -47 249v112q0 69 41 102h12l136 -97h12q90 18 200 179v25h-6q-122 -86 -177 -86
h-17l-53 15q-121 61 -160 173h-17q-72 -57 -183 -316z" />
    <glyph glyph-name="g" unicode="g" horiz-adv-x="726" 
d="M470 734q23 -26 23 -59v-48h-17q-92 80 -177 80l-39 -5q-257 -66 -257 -342v-16l6 -69q78 -288 290 -288q134 0 223 102h11l6 -27v-171q0 -120 -69 -213l-216 43q-82 0 -131 -59v-5q58 -4 182 -107l6 5q376 88 376 272v160l-51 688l34 53v11q0 13 -34 16h-63l-103 -11
v-10zM345 627h46q45 0 102 -48q0 -124 34 -421v-5q0 -36 -148 -75h-57q-116 0 -142 197v59l11 128q44 165 154 165z" />
    <glyph glyph-name="h" unicode="h" horiz-adv-x="624" 
d="M0 1371l38 -52l53 -1279l-32 -36q3 -11 27 -21l64 10h113q40 0 43 16l-32 31q-27 0 -27 536v21h27l32 -5q161 -113 161 -294l-38 -274q0 -46 75 -46h33q41 0 53 26v31q-3 15 -43 15h-26v21q80 194 80 304v93q-36 222 -182 222q-47 0 -172 -31q-11 49 -11 124v77
q0 186 27 438q0 78 86 78v5q0 15 -113 36h-123q-113 0 -113 -46z" />
    <glyph glyph-name="i" unicode="i" horiz-adv-x="399" 
d="M142 924q33 -69 81 -69q46 0 69 85q-32 59 -69 59q-49 0 -81 -75zM74 694l37 -42l-6 -155v-428q0 -20 -31 -48v-10q79 -11 205 -11h56l13 11l-32 26q-31 0 -31 193v213q0 235 38 235q37 0 37 11q0 16 -87 22h-131q-68 0 -68 -17z" />
    <glyph glyph-name="j" unicode="j" horiz-adv-x="397" 
d="M140 905v-15q3 -14 57 -35q68 38 68 65q0 34 -52 55q-52 0 -73 -70zM265 725l-104 -5q-88 0 -88 -30q27 0 31 -549v-175q-21 -225 -104 -225h-26q-34 0 -89 55h-15q-11 -2 -21 -25v-15q73 -130 172 -130q54 12 93 50q182 252 182 360l-15 299l5 210q0 128 57 155
q0 12 -68 30h-5z" />
    <glyph glyph-name="k" unicode="k" horiz-adv-x="710" 
d="M79 1286v-181l-28 -907v-139q0 -19 -51 -64q0 -12 74 -21q215 9 215 27q-57 30 -57 96v245q0 41 142 80l68 -43q91 -94 91 -170v-54q0 -58 -46 -144q0 -21 34 -21q159 0 159 27l-17 16h-40l-28 5q51 132 51 165q0 133 -147 283q113 116 113 208q0 48 -210 48
q-22 0 -34 -21v-5l102 -43v-22q0 -115 -215 -202h-17l-6 5l29 928l34 32q0 16 -63 16h-34q-106 0 -164 11l-11 -11q56 -102 56 -144z" />
    <glyph glyph-name="l" unicode="l" horiz-adv-x="360" 
d="M0 1379q50 0 50 -518v-325l11 -293v-68q0 -140 -39 -204l17 -5q0 7 44 16l105 -6l115 16h6q0 23 -28 32q-55 0 -55 1240v37q0 34 33 73v16q-22 31 -44 31l-215 -26v-16z" />
    <glyph glyph-name="m" unicode="m" horiz-adv-x="1073" 
d="M216 648l-18 15q-21 58 -134 58h-32l-32 -5v-16q83 -43 83 -261v-131l4 -209q-15 -37 -55 -73q86 -16 226 -16l13 6l-36 47v256q0 262 18 292q24 68 207 68q55 -34 55 -157q0 -238 -101 -491q0 -21 41 -21q253 0 253 27v5q-72 33 -96 83v6q37 212 37 256v135
q0 51 -23 126v5q0 21 82 26h56q82 -63 82 -225q0 -196 -78 -417q15 -32 65 -32h50l23 -5l14 5l5 5q133 36 133 47v6l-5 5q-96 48 -96 83q32 179 32 314q0 83 -55 162q-103 110 -221 110q-71 0 -110 -32h-19q-63 42 -156 42h-5q-120 0 -207 -99z" />
    <glyph glyph-name="n" unicode="n" horiz-adv-x="821" 
d="M237 697h-8l-174 40q-71 -21 -114 -62v-6q0 -21 144 -39q35 0 38 -270l-8 -101v-147q0 -47 -113 -90v-5q6 -17 45 -17h53l273 11v11q-68 27 -68 175l8 399q15 84 106 84h30q122 0 144 -118v-67q0 -155 -129 -473q0 -22 137 -22h159l38 6q0 19 -23 39q-82 33 -91 45v11
q99 255 99 377v17l-8 73q0 137 -258 191q-107 0 -280 -62z" />
    <glyph glyph-name="o" unicode="o" horiz-adv-x="762" 
d="M215 729q-215 -135 -215 -372q0 -40 54 -166q135 -191 322 -191q307 0 355 362v26q0 202 -150 320q-68 26 -232 47h-37q-51 0 -97 -26zM220 615q36 88 140 88h38q172 -81 172 -243v-165q-48 -238 -145 -238h-22q-90 0 -123 21q-97 59 -97 243v103q0 148 37 191z" />
    <glyph glyph-name="p" unicode="p" horiz-adv-x="742" 
d="M-28 664v-6l41 -26q71 0 71 -62l-10 -489q0 -311 -71 -344v-5h20q51 12 51 21q72 0 127 93q26 0 41 375q-12 0 -26 266v41q96 156 173 156h36q71 0 92 -291v-68q0 -135 -102 -135h-66q-32 0 -92 42l-10 -11v-10q150 -120 264 -120q33 3 72 37q132 135 132 270v26
q0 92 -15 135q-69 214 -224 214q-100 0 -250 -156h-10l-5 26v26l5 83l-10 26q-183 -114 -234 -114z" />
    <glyph glyph-name="q" unicode="q" horiz-adv-x="884" 
d="M539 721h-11q-103 45 -223 72q-31 0 -106 -39q-150 -141 -150 -293v-11l6 -111q87 -276 256 -276q30 0 195 72h17l5 -6q18 -154 34 -188q136 -160 289 -160q17 0 17 11l-33 33q-106 59 -106 161v259l5 360l6 5q110 47 128 72v11q0 19 -67 22q-137 24 -212 111h-11
q-19 0 -39 -105zM350 721h44q87 0 145 -89v-16l-11 -393q-71 -77 -122 -77h-67q-84 72 -84 199v61q18 303 95 315z" />
    <glyph glyph-name="r" unicode="r" horiz-adv-x="537" 
d="M15 746l29 -82v-464q0 -118 -44 -212v-6l5 -5l59 16h63q113 0 113 17v5q-34 60 -34 120v38l-5 131l29 164q125 179 211 179h53l5 -5l15 5v11l-5 6q-92 54 -108 82h-4l-157 -148h-20l-10 11v28q0 27 40 98l-10 11l-157 5h-63z" />
    <glyph glyph-name="s" unicode="s" horiz-adv-x="580" 
d="M5 583q0 -40 42 -112q6 -40 178 -107q149 -57 149 -252l-66 -16h-35q-80 16 -113 48q-12 118 -42 118h-6l-214 -203v-6l6 -5l125 32h18q190 -80 232 -80q51 0 124 21q131 49 131 166v22q0 57 -18 112q-57 133 -226 133q-124 0 -172 118v16q8 20 54 32q50 0 166 -26
q220 51 220 117q0 75 -119 75v-11l42 -37v-16l-18 -16h-36q-170 80 -196 80q-189 0 -226 -203z" />
    <glyph glyph-name="t" unicode="t" horiz-adv-x="466" 
d="M0 978q0 -7 17 -7q25 0 25 -72v-36q0 -137 -30 -590v-3q0 -71 59 -141q66 -129 216 -129h16q121 24 121 54q0 11 -8 11h-4l-42 -29h-25q-56 0 -112 29q-50 41 -50 251v116l4 122q0 79 37 79h46q38 0 125 -29h4l4 11l-4 119v3h-12q0 -39 -146 -39h-37l-4 43v147
q0 78 54 105v3q0 11 -46 11h-121q-58 0 -87 -29z" />
    <glyph glyph-name="u" unicode="u" horiz-adv-x="675" 
d="M39 675v-364l12 -113q72 -198 254 -198h5q93 0 169 64q101 -59 158 -59l23 6v5q-12 21 -34 21q-68 39 -68 274v5l6 262q0 107 73 150q0 19 -73 22l-118 -16v-11q45 -44 45 -220v-257l-6 -69q-105 -123 -152 -123q-102 0 -102 219v214l6 123q0 83 68 124v10l-23 6l-62 -6
h-56l-153 11l-11 -11q39 -33 39 -69z" />
    <glyph glyph-name="v" unicode="v" horiz-adv-x="706" 
d="M485 726v-10q135 -34 135 -116v-63q0 -47 -11 -69q-80 -243 -172 -347h-6q-51 57 -198 458v26q0 54 86 116v10l-167 21q-115 0 -199 -57q0 -10 48 -21q106 -80 253 -569q0 -105 134 -105h6q49 0 70 21q220 346 220 521v47q0 105 -59 174q-140 -15 -140 -37z" />
    <glyph glyph-name="w" unicode="w" horiz-adv-x="1097" 
d="M0 719v-16l5 -6q97 -48 97 -86q-32 -187 -32 -321q0 -105 88 -204q108 -75 191 -75q71 0 112 32h18q0 -22 144 -43h19q124 0 209 102l19 -16q21 -59 135 -59h32l33 5v16q-84 45 -84 268v124l-4 225q25 58 55 70q0 18 -228 21l-13 -5l37 -48v-252q0 -188 -10 -274
q0 -107 -218 -107q-56 36 -56 161q0 243 102 504q0 21 -32 21q-265 0 -265 -27v-5q74 -33 97 -86v-5q-37 -227 -37 -263v-139q0 -46 23 -129v-5q0 -21 -83 -27h-56q-84 66 -84 230q0 201 79 429q-14 33 -65 33h-51l-23 5q-38 -21 -154 -48z" />
    <glyph glyph-name="x" unicode="x" horiz-adv-x="730" 
d="M24 613v-22q0 -25 19 -31h6l6 5q64 106 103 106h13l18 -11q97 -64 134 -206v-10l-12 -69q-99 -214 -201 -280h-19l13 69l-13 10q-36 -23 -91 -137v-11q0 -18 85 -26q115 0 201 143q82 188 92 190h6q128 -333 250 -333q73 16 73 42q-35 74 -91 148l-165 354v26
q24 95 104 95h42l61 -15l25 5v16q-83 68 -141 68h-97q-8 -58 -49 -105h-12q-162 137 -244 137l-36 -5q-80 0 -80 -153z" />
    <glyph glyph-name="y" unicode="y" horiz-adv-x="750" 
d="M-11 720v-5l12 -11h55q47 0 50 -16v-11l-50 -264l13 -103q66 -205 264 -205l147 11l12 -11v-43l-12 -97q-95 -161 -178 -161h-61l-43 32q-18 92 -37 92q-16 0 -25 -38l12 -65q54 -140 203 -140h67q43 0 68 11q166 87 166 205v5l-19 264q0 278 19 512q0 43 67 43v17l-31 5
q-282 -6 -282 -38v-5q25 0 25 -11q67 0 67 -485v-11q-26 -38 -86 -38l-67 17q-98 59 -98 226q0 165 67 323l-6 17l-147 5q-172 -3 -172 -27z" />
    <glyph glyph-name="z" unicode="z" horiz-adv-x="632" 
d="M35 623q0 -28 15 -34q78 136 210 136h20q79 0 79 -17q-18 -61 -229 -463l-130 -237h5l5 -6h5l70 23h75l60 -6l244 -96l30 6q55 77 55 163q0 30 -15 34q-42 -68 -120 -68l-65 6l-35 -6l-89 23v11q90 263 384 672v11q-2 13 -25 23l-80 -11l-100 5l-309 -17l-50 23l-10 -11
v-164z" />
    <glyph glyph-name="braceleft" unicode="{" 
d="M527 1611q-121 0 -148 -211q0 -67 89 -514v-27q0 -51 -79 -158v-13q79 -95 79 -172l-59 -461q0 -248 127 -284q86 -33 128 -33l20 20v13q0 12 -84 59q-39 46 -39 132q0 84 25 284v99q0 137 -109 316l-34 40v6q148 226 148 343l-55 304v39q12 165 79 165h5l34 -13v7l10 46
l-14 13h-123z" />
    <glyph glyph-name="bar" unicode="|" 
d="M586 -418v1995h-160v-1995h160z" />
    <glyph glyph-name="braceright" unicode="}" 
d="M360 1552v-7l34 13h5q67 0 79 -165v-39l-55 -304q0 -115 148 -343v-6l-34 -40q-109 -182 -109 -316v-99q25 -188 25 -284q0 -86 -39 -132q-84 -47 -84 -59v-13l20 -20q44 0 128 33q127 36 127 284l-59 461q0 75 79 172v13q-79 109 -79 158v27q89 439 89 514
q-27 211 -148 211h-123l-14 -13z" />
    <glyph glyph-name="asciitilde" unicode="~" 
d="M893 901q-33 -176 -122 -176l-36 4q-404 184 -449 184q-107 0 -172 -110l-41 -196l23 -16q18 0 18 28q76 176 199 176h46q44 0 140 -66q190 -167 245 -167q31 7 72 41q109 173 109 298l-18 45q-14 0 -14 -45z" />
    <glyph glyph-name="exclamdown" unicode="&#xa1;" horiz-adv-x="671" 
d="M322 1357q38 0 51 63q0 26 -46 53q-60 -21 -60 -53q0 -35 55 -63zM373 -4q73 0 90 196q0 311 -110 990l-5 5h-51l-10 -10v-6l5 -174q-60 -342 -60 -694q0 -218 75 -302l51 -5h15z" />
    <glyph glyph-name="cent" unicode="&#xa2;" horiz-adv-x="1138" 
d="M733 1436q0 -110 -123 -368q0 -74 -124 -74q-320 -126 -320 -379q0 -150 197 -245q-79 -284 -135 -394v-5q0 -9 30 -16q92 16 111 32q0 186 93 378q134 0 302 85q271 181 271 229l-6 32h-12q-35 0 -130 -85q-245 -178 -394 -197h-7v11q0 36 37 170q97 304 118 304h12
q33 -12 80 -80q26 0 62 101v5h-7l-49 -37q-28 0 -80 64v21l31 80q109 336 203 384v10l-31 27q-129 -19 -129 -53zM388 658q66 261 154 261h6q0 -43 -68 -197q-63 -216 -86 -229q-18 0 -18 59v21q0 63 12 85z" />
    <glyph glyph-name="sterling" unicode="&#xa3;" 
d="M85 1289q0 -64 99 -144q118 -58 132 -78q81 -202 81 -284v-5q-90 -9 -132 -25l-30 30h-9q-55 -63 -55 -98v-10l8 -10h9l60 26h158q31 0 107 -320q73 -153 73 -176v-5q-253 -119 -330 -119h-60q-47 0 -47 42v10l5 5q128 28 128 41l-17 16q-231 -9 -231 -31
q63 -165 184 -165h30q72 0 158 26q179 103 197 103h17q68 -75 179 -155q78 27 86 41q64 0 81 155q0 126 -141 145q-25 0 -111 -52h-9l-21 26q-98 332 -98 397v16h145q20 0 38 -31h5q40 0 90 134l-18 15h-4l-4 -5q-55 -41 -222 -41h-60l-60 258v20l4 6q228 0 355 139
q72 40 124 196q-9 26 -30 26l-197 10l-17 -15v-5q124 -57 124 -93l-4 -31q-122 -165 -325 -165h-43l-21 5q-66 212 -120 263q0 34 -132 67v-5q-129 -24 -129 -150zM205 1341q80 -106 86 -160v-21l-5 -5q-111 42 -111 114v10q7 62 30 62zM846 221h22q51 -12 51 -77
q0 -78 -38 -78h-5q-68 0 -141 103v11q12 32 111 41z" />
    <glyph glyph-name="currency" unicode="&#xa4;" 
d="M81 1089v-25q136 -72 136 -134v-5q-89 -78 -89 -173q15 -96 36 -114q0 -41 106 -158l-5 -30q-89 -110 -89 -124q0 -32 89 -64l23 10q52 138 101 178l136 -20l160 45h24l17 -10q112 -178 142 -178q43 0 107 49v10q-129 129 -166 203v10q65 89 65 168q0 91 -88 233v5l41 40
q65 0 65 54q-89 79 -124 79l-30 -20q-38 -101 -71 -128q-123 39 -189 39l-136 -15q-27 0 -42 15q-75 124 -101 124q-111 -48 -118 -64zM383 906h18q65 0 148 -40q112 -16 112 -124v-64q0 -104 -89 -154h-47q-166 118 -166 258v59q6 65 24 65z" />
    <glyph glyph-name="yen" unicode="&#xa5;" horiz-adv-x="1261" 
d="M58 1200l114 -102q236 -221 351 -389q36 -21 36 -145l-26 -5h-82q-154 0 -212 -106q0 -32 15 -35h6q200 88 263 88h21l10 -9v-181h-145l-31 22h-5q-134 -92 -134 -132l21 -18h5l20 4q80 58 233 58h36v-128q0 -105 -52 -124v-4q0 -12 166 -27h36q122 5 134 27v13
q-31 11 -31 17q-57 0 -57 226v4h93l37 -26h5q20 11 134 154v14l-5 4h-5q-96 -54 -253 -84l-11 9v164q0 10 31 13h98l73 -9h15l93 102v8l-15 14h-11q-73 -49 -258 -49h-15q-11 0 -16 40q0 59 181 327q113 183 181 216l98 53v14l-62 9h-140l-98 -9v-18q65 -24 93 -53
q0 -32 -62 -110q-112 -191 -212 -297q-38 0 -217 274q-103 124 -113 155v13q72 27 72 36v4l-88 9h-160q-155 0 -155 -31z" />
    <glyph glyph-name="brokenbar" unicode="&#xa6;" 
d="M586 789v789h-160v-789h160zM586 -418v789h-160v-789h160z" />
    <glyph glyph-name="section" unicode="&#xa7;" 
d="M555 1428q-227 -93 -227 -230q0 -94 138 -309v-7q-39 -88 -244 -263q-89 -36 -89 -66q17 -60 81 -138q140 -155 179 -236q235 -272 235 -388q-12 -66 -113 -66h-49q-32 13 -49 39v79l-16 13h-8q-57 -44 -57 -105v-20q41 -164 292 -164h49q243 120 243 224q0 129 -259 328
q-155 99 -155 132v6q256 212 431 270v26q-157 112 -244 191q-162 87 -162 375l8 92q73 158 211 158h8q57 0 114 -73v-59l-98 -98v-7h25q162 78 162 138l-16 33q-137 138 -301 138q-57 0 -89 -13zM409 593q132 144 154 144q43 0 154 -118q-105 -63 -300 -237h-16l-114 106v19
q104 86 122 86z" />
    <glyph glyph-name="dieresis" unicode="&#xa8;" horiz-adv-x="1023" 
d="M602 1274q0 -112 118 -129h21l62 68v8q0 65 -111 137q-90 -58 -90 -84zM200 1270q29 -121 90 -121q42 0 90 68v8q0 58 -118 121q-62 -42 -62 -76z" />
    <glyph glyph-name="copyright" unicode="&#xa9;" horiz-adv-x="1673" 
d="M526 1325q-421 -341 -421 -746v-66q0 -67 45 -189q96 -191 264 -266q95 -58 303 -82q399 0 639 225q236 266 236 562v41q-72 335 -208 429q-193 220 -420 220q-273 0 -438 -128zM498 1249q121 95 247 107h45q230 0 404 -174q252 -255 252 -501l-17 -219
q-13 -126 -140 -256q-86 -103 -303 -148h-123q-195 0 -337 92q-281 198 -281 547q0 314 253 552zM762 993q-141 -126 -141 -286q0 -85 23 -143q72 -179 224 -179q193 0 376 230l-22 -5q-157 -143 -287 -143h-50l-22 5q-113 57 -113 230v5q0 225 84 225h12l112 -51
q17 3 17 40v6q0 61 -23 61h-5l-45 -10h-23l-78 25q0 -10 -39 -10z" />
    <glyph glyph-name="ordfeminine" unicode="&#xaa;" horiz-adv-x="647" 
d="M217 1341v-19l4 -16h11q50 44 74 44h6q0 -13 -83 -229q-129 -349 -160 -394q-47 -15 -54 -21v-4l6 -10l48 2h166l8 5l-3 7q-51 15 -51 35l5 38q66 225 92 225l163 5q54 -193 54 -249v-2l-3 -19q0 -6 -37 -31v-2q4 -7 23 -7h54l37 -2l31 2h23v7l-9 9q-36 0 -71 78
q-19 88 -51 192q0 14 -48 176q-33 199 -72 234l-120 -16q-43 0 -43 -38zM374 1255h3q30 -58 60 -207v-4l-57 -3h-88l-6 5q66 196 88 209z" />
    <glyph glyph-name="guillemotleft" unicode="&#xab;" horiz-adv-x="943" 
d="M674 801l-192 -303v-6q51 -65 288 -246q24 0 29 17v11l-29 40q-173 178 -173 189l14 46q178 224 178 252v6l-57 11q-41 0 -58 -17zM313 755q0 -41 -216 -269v-6q11 -19 115 -80l246 -200l14 6v5q0 39 -226 281v6q197 251 197 303v6l-14 5v-5q-116 -17 -116 -52z" />
    <glyph glyph-name="logicalnot" unicode="&#xac;" 
d="M81 567l18 -7q0 10 49 21q0 36 632 84h6v-140q0 -46 -73 -168v-14l18 -7l85 49q146 28 146 42v7q-31 63 -43 63l7 259q0 29 -25 35l-85 -7h-480q-187 0 -212 63h-19v-203z" />
    <glyph glyph-name="registered" unicode="&#xae;" horiz-adv-x="1673" 
d="M341 1217q-281 -171 -281 -680v-11q0 -51 22 -111q0 -108 116 -239q217 -197 364 -197h260q403 63 403 106q139 63 270 245q138 263 138 483l-11 96q-99 340 -166 340q-89 119 -430 207h-122q-316 -45 -563 -239zM441 1196q241 202 458 202h66q68 0 293 -144
q182 -194 182 -398v-75q0 -353 -177 -536q-149 -208 -408 -208h-116q-175 15 -342 165q-160 193 -160 415v21q0 264 204 558zM640 1015h-28q-68 58 -88 58l-17 -21q0 -87 99 -138q39 -9 39 -53v-175l-5 -239l-56 -27v-11q3 -10 28 -21l61 5h27l72 -10q28 4 28 16l-50 133
v175l105 -11q77 0 77 -64v-10l-28 -170l11 -64q69 -104 177 -149q41 0 44 16q-33 40 -60 43q-50 27 -50 154l5 101q0 45 -38 143q0 10 55 22q94 72 94 154q-17 76 -39 101q-109 111 -193 111q-51 0 -270 -69zM744 903q0 96 50 96h17q149 -36 149 -127v-16q0 -86 -78 -107
h-77l-61 16h-5z" />
    <glyph glyph-name="macron" unicode="&#xaf;" horiz-adv-x="669" 
d="M537 1470h-108q-98 0 -212 -12l-172 20h-8q-29 0 -32 -16l12 -108l-4 -24l8 -8h4q31 32 48 32h68l172 8h168q123 -7 156 -20h8l4 12l-4 16v4q0 120 -20 120q-22 -24 -88 -24z" />
    <glyph glyph-name="degree" unicode="&#xb0;" horiz-adv-x="673" 
d="M28 1179l16 -94q96 -211 225 -211h55l93 8q226 141 226 320q0 213 -319 282l-117 -31q-121 -71 -179 -274zM441 1171l-8 -39q0 -195 -164 -195q-54 35 -54 109v86q0 54 54 243h109q48 -10 63 -204z" />
    <glyph glyph-name="plusminus" unicode="&#xb1;" 
d="M407 1198l-37 -5v-15q0 -10 16 -10q79 -21 79 -79v-243q0 -35 -127 -35q-202 0 -249 25h-5l5 -64l-5 -100l5 -29h11q15 0 21 34q0 35 344 35h6q0 -180 26 -278l-10 -29l-302 -50h-85l-5 -15l5 -30l-5 -64q3 -25 15 -25h6q9 0 32 35q442 64 588 64h100q27 0 75 -44h15
l6 14l-6 5v65l11 69l-16 15h-10q-36 -44 -239 -44h-111v327l106 5h159l32 -10q40 -79 47 -79h6l5 5l-5 54l5 75v54l-5 25q-67 -35 -191 -35h-170q-16 128 -16 293q0 42 59 84v20l-16 5l-43 -25h-127z" />
    <glyph glyph-name="twosuperior" unicode="&#xb2;" 
d="M320 1390l3 -16q32 -69 75 -69q32 6 40 16q0 17 -11 29l-15 -13q-14 0 -14 16v7q0 40 82 40h48q94 -27 94 -95v-5q0 -44 -70 -178q-82 -139 -125 -190h-3q-62 23 -90 23h-9q-71 0 -89 -105v-8q12 -77 78 -77q22 0 65 31q41 54 48 54l11 -6q129 -111 201 -111l48 8
q70 40 70 66q0 53 -118 93q-14 -2 -14 -8v-5l3 -3q48 -18 48 -50q0 -29 -51 -29q-83 0 -165 100q0 7 78 127q75 98 138 286q0 35 -8 58q-51 117 -205 117l-76 -19q-67 -33 -67 -84zM342 881h20q22 0 23 -8v-2q-20 -31 -60 -59h-16q-20 0 -22 8v6q24 55 55 55z" />
    <glyph glyph-name="threesuperior" unicode="&#xb3;" 
d="M298 1405q0 -50 94 -68q21 0 45 22v8l-69 -3q-18 0 -25 10v8q12 50 66 50h60q108 -39 108 -98q0 -88 -81 -108q-111 -12 -111 -23v-8q168 -62 226 -93q87 -72 87 -134q0 -44 -14 -65q-21 -89 -125 -89l-38 3q-80 0 -132 58q0 31 13 60q39 20 39 23v5l-21 5l-21 -5l-35 5
l-21 -2q-42 -12 -42 -48l4 -20q38 -109 275 -109l35 5q160 76 160 209l-10 31q-27 88 -129 151q-91 32 -91 36q133 78 133 128l-4 28q-36 111 -223 111h-38q-115 -36 -115 -83z" />
    <glyph glyph-name="acute" unicode="&#xb4;" horiz-adv-x="1023" 
d="M579 1416l-100 -134q-177 -189 -177 -231l14 -8h13q128 114 250 187q126 113 150 181q-28 30 -45 33q-37 0 -105 -28z" />
    <glyph glyph-name="mu" unicode="&#xb5;" horiz-adv-x="950" 
d="M696 1177v-13l12 -21q38 0 66 -178l-8 -364v-270q0 -125 -29 -174q-35 -88 -155 -88q-89 0 -140 42q-73 62 -73 101q-29 0 -46 491q0 129 21 300q0 125 70 174q0 14 -33 21q0 -13 -189 -21l-69 8q-61 -3 -74 -13v-4l57 -72q14 -86 50 -643q28 -283 28 -562v-140
q0 -97 -16 -139v-4l8 -13l49 21l78 -4q98 3 98 17v4q-57 12 -57 17q-46 0 -57 431v5l4 4h4q85 -85 180 -85q202 0 262 102h8v-17q0 -28 -28 -59v-9q3 -13 24 -13h107l12 9q-41 61 -41 76v943q0 67 45 106q37 9 37 25q0 27 -57 34q-148 0 -148 -25z" />
    <glyph glyph-name="paragraph" unicode="&#xb6;" horiz-adv-x="1097" 
d="M140 1384q-112 -118 -112 -213v-45q0 -132 120 -213q0 -24 248 -36q24 0 24 -76l8 -588h-4q-39 -172 -56 -172q-48 -12 -48 -26v-10q0 -22 112 -25q38 15 84 15h24l64 -15l24 15q0 34 -48 46q-32 0 -32 826q6 451 16 451q0 31 128 31l148 -5l12 -5l12 -999v-5
q0 -215 -36 -269q-57 -27 -60 -35v-10q3 -16 32 -16h96q104 0 104 21q-71 68 -80 147v1090l4 86q37 0 76 -26q33 -78 44 -86l16 15l-8 66l8 92q-2 16 -24 25l-116 -5h-152l-288 10q-244 0 -340 -56zM204 1288q33 86 208 86l8 -10v-137l-4 -279l-148 26q-91 0 -108 136v16
q0 83 44 162z" />
    <glyph glyph-name="periodcentered" unicode="&#xb7;" horiz-adv-x="507" 
d="M118 641q0 -58 98 -85q162 50 162 147q-71 131 -130 131h-6q-124 -76 -124 -193z" />
    <glyph glyph-name="cedilla" unicode="&#xb8;" horiz-adv-x="1023" 
d="M443 1l-39 -188l11 -17q98 67 184 67h11q73 0 73 -72v-61q-77 -100 -140 -100h-44q-39 0 -101 50h-5l-6 -5q9 -70 151 -100q223 45 223 89q41 0 67 160q-51 155 -167 155l-84 -11h-17v17q0 41 -22 44q-61 -3 -95 -28z" />
    <glyph glyph-name="onesuperior" unicode="&#xb9;" 
d="M390 1390q-76 -12 -76 -17v-3q26 -27 79 -42l64 12h6l3 -7l-3 -469q0 -27 -55 -55v-2q0 -5 14 -8l27 3q14 0 17 -8l24 5h76l26 5l26 -2l9 2v5l-18 15q-32 0 -32 496q0 102 9 150q-17 23 -41 23h-58l-6 -5q-48 -84 -91 -98z" />
    <glyph glyph-name="ordmasculine" unicode="&#xba;" horiz-adv-x="717" 
d="M61 1191l16 -94q96 -211 225 -211h55l93 8q226 141 226 320q0 213 -319 282l-117 -31q-121 -71 -179 -274zM474 1183l-8 -39q0 -195 -164 -195q-54 35 -54 109v86q0 54 54 243h109q48 -10 63 -204z" />
    <glyph glyph-name="guillemotright" unicode="&#xbb;" horiz-adv-x="943" 
d="M184 822l-57 -11v-6q0 -26 178 -252l14 -46q0 -13 -173 -189l-29 -40v-11q6 -17 29 -17q237 182 288 246v6l-192 303q-16 17 -58 17zM473 811v-6q1 -52 197 -303v-6q-226 -244 -226 -281v-5l14 -6l246 200q106 62 115 80v6q-216 228 -216 269q0 36 -116 52v5z" />
    <glyph glyph-name="onequarter" unicode="&#xbc;" horiz-adv-x="1498" 
d="M929 1405h-10l-68 10l-10 -10l24 -36v-11q0 -30 -68 -191q-236 -465 -416 -866l-112 -212q0 -50 -103 -83q6 -31 83 -31l20 5q254 15 254 26l-39 47v77q0 36 64 213l220 487l264 492q24 56 122 83q-9 26 -29 26q-135 -26 -196 -26zM176 1276v-11l10 -10h9q19 0 64 31h15
l4 -93l5 -451v-5l-5 -6q-48 -12 -48 -25v-6q3 -15 39 -15h34l39 10h44l93 11v20q-49 0 -49 244v238l-10 145q0 73 -49 73h-53l-25 5l-15 -16q0 -82 -102 -139zM1242 716l-93 15l-15 -5l15 -46v-52l-5 -218q-84 -52 -98 -52h-4v32l14 139v94q-27 103 -98 103q-78 -18 -78 -72
q12 -78 64 -78l39 21v10l-34 31v5q12 32 39 32h5l9 -11v-31q0 -18 -14 -36v-16q0 -52 -59 -362q0 -29 24 -37l15 5q126 151 162 151h9v-166q0 -143 -53 -171v-5q0 -21 58 -21h162q25 0 44 16l-5 15l-15 5q-63 0 -63 37v25q0 138 14 280h15l39 -20q31 0 44 36l-10 21
q-88 30 -88 36v21q0 65 15 129q0 108 63 145v16l-14 5l-59 -26h-44z" />
    <glyph glyph-name="onehalf" unicode="&#xbd;" horiz-adv-x="1498" 
d="M917 1387l4 -51q0 -33 -27 -77q-122 -339 -190 -450q-153 -297 -404 -738q0 -9 -62 -56v-10q0 -9 27 -21q24 11 115 15q116 -4 164 -20l22 5v21q-49 18 -49 46q0 109 129 379q295 621 355 727q34 130 159 240v11q-1 15 -35 15h-44q-116 0 -164 -36zM234 1254
q-18 0 -18 -10v-16l22 -5l49 5h4l-8 -476q-63 -33 -67 -46v-10q0 -9 44 -21l76 11h9q93 0 141 -16l14 5v6l-14 20q-75 0 -75 56l13 584l5 15q-6 57 -31 57l-102 -16q-18 -100 -62 -143zM912 563q18 -87 62 -87q58 0 76 36v5l-9 10h-40v20q0 57 71 72h35q111 -31 111 -87v-36
q-66 -245 -111 -266l-146 56l-58 -15q-80 -60 -80 -138q0 -36 14 -67q0 -46 75 -46q46 0 138 77h22q75 -77 133 -77h31q91 0 115 82q0 51 -75 138h-14v-20q27 -49 27 -82v-5h-9q-21 0 -120 87q101 167 107 276v5q-66 205 -209 205q-125 0 -146 -143zM921 168h44
q40 -9 40 -25q-13 -25 -93 -31h-31v15q0 41 40 41z" />
    <glyph glyph-name="threequarters" unicode="&#xbe;" horiz-adv-x="1498" 
d="M868 1417l-33 -6v-15q47 -22 47 -31v-30q0 -58 -205 -467q-273 -564 -327 -630q-101 -236 -191 -236v-16q0 -7 23 -15q0 15 126 21l159 -11q23 7 23 16v15q-56 15 -56 26v10l65 133q319 587 471 943q86 190 154 246q112 30 112 47h-5l-9 10l-5 5l-98 -21zM229 1237
q0 -65 65 -92q56 22 56 61l-37 -10v31q0 56 42 56h23q61 -6 61 -51v-31q0 -24 -38 -61v-16q70 -92 70 -123q0 -138 -65 -138h-70l-18 20v16q0 38 65 92v5l-24 5h-4q-47 0 -75 -112q0 -53 103 -88l56 16q121 54 121 184v26q0 75 -79 138v11q23 31 32 92q-27 128 -112 128h-28
q-108 0 -144 -159zM1129 694l-51 5l-19 -5l19 -77l-10 -190q-3 -92 -74 -92h-5q0 43 28 220q-15 129 -70 129h-5q-53 0 -60 -67l14 -21h14l14 41l4 6h19q28 -15 28 -77q0 -104 -84 -328l23 -26h19q78 51 103 51h18v-36l-9 -92q-18 -101 -51 -128v-15l14 -6q0 8 65 16
l112 -10l23 20l-23 31v159l4 138l5 5q36 0 107 -46l5 5v5q0 74 -107 87q0 166 60 313l-9 10h-9q-75 -25 -112 -25z" />
    <glyph glyph-name="questiondown" unicode="&#xbf;" horiz-adv-x="747" 
d="M587 1416q-16 36 -40 36q-43 0 -76 -72q6 -41 35 -41q60 0 81 77zM770 257q0 47 -91 71q-57 0 -158 -61l11 -52l35 21h25q36 0 36 -36v-5q0 -86 -193 -123h-66l-51 5q-121 41 -121 369q0 247 116 247h46q115 -36 178 -108h15q25 129 25 262v205l31 133l-11 16
q-187 -18 -187 -41v-11q66 -76 66 -149q-8 -292 -31 -292h-10q-114 46 -157 46q-53 0 -102 -20q-157 -78 -157 -365q0 -158 122 -277q118 -92 274 -92h15q340 57 340 257z" />
    <glyph glyph-name="Agrave" unicode="&#xc0;" horiz-adv-x="1257" 
d="M444 1694q-5 0 -17 -28q0 -28 251 -189h3l4 3v7q-41 31 -191 187q-31 20 -50 20zM408 1344v-40l6 -34h22q104 93 148 93h12q0 -21 -165 -482q-254 -724 -319 -827q-94 -31 -108 -44v-10l11 -20l97 5h330l17 10l-6 15q-102 28 -102 73l11 79q129 473 183 473l324 10
q108 -405 108 -522v-5l-6 -40q0 -11 -74 -64v-4q5 -15 46 -15h108l74 -5l62 5h46v15l-17 19q-74 0 -142 163q-36 172 -103 403q0 31 -96 370q-63 418 -143 492l-239 -34q-85 0 -85 -79zM721 1162h6q58 -126 119 -434v-9l-114 -5h-176l-11 9q130 410 176 439z" />
    <glyph glyph-name="Aacute" unicode="&#xc1;" horiz-adv-x="1261" 
d="M876 1665q-145 -152 -191 -187v-7l4 -3h3q251 160 251 189q-10 28 -17 28q-17 0 -50 -20zM408 1344v-40l6 -34h22q104 93 148 93h12q0 -21 -165 -482q-254 -724 -319 -827q-94 -31 -108 -44v-10l11 -20l97 5h330l17 10l-6 15q-102 28 -102 73l11 79q129 473 183 473
l324 10q108 -405 108 -522v-5l-6 -40q0 -11 -74 -64v-4q5 -15 46 -15h108l74 -5l62 5h46v15l-17 19q-74 0 -142 163q-36 172 -103 403q0 31 -96 370q-63 418 -143 492l-239 -34q-85 0 -85 -79zM721 1162h6q58 -126 119 -434v-9l-114 -5h-176l-11 9q130 410 176 439z" />
    <glyph glyph-name="Acircumflex" unicode="&#xc2;" horiz-adv-x="1269" 
d="M633 1678q-55 -130 -94 -166v-3q16 -28 28 -28q50 11 58 22q58 108 83 135h3q62 -169 89 -169l19 22v3q-27 40 -64 141q-34 132 -44 132h-6q-63 -63 -72 -89zM405 1353v-40l6 -34h22q104 93 148 93h12q0 -21 -165 -482q-254 -724 -319 -827q-94 -31 -108 -44v-10l11 -20
l97 5h330l17 10l-6 15q-102 29 -102 73l11 79q129 473 183 473l324 10q108 -405 108 -522v-5l-6 -40q0 -11 -74 -64v-4q5 -15 46 -15h108l74 -5l62 5h46v15l-17 19q-74 0 -142 163q-36 172 -103 403q0 31 -96 370q-63 418 -143 492l-239 -34q-85 0 -85 -79zM718 1171h6
q58 -126 119 -434v-9l-114 -5h-176l-11 9q130 410 176 439z" />
    <glyph glyph-name="Atilde" unicode="&#xc3;" horiz-adv-x="1261" 
d="M874 1690q-17 -110 -61 -110l-18 2q-202 115 -225 115q-53 0 -86 -68l-21 -123l12 -10q9 0 9 18q39 110 99 110h23q23 0 71 -42q95 -104 122 -104q16 4 36 26q55 107 55 186l-9 28q-7 0 -7 -28zM408 1344v-40l6 -34h22q104 93 148 93h12q0 -21 -165 -482
q-254 -724 -319 -827q-94 -31 -108 -44v-10l11 -20l97 5h330l17 10l-6 15q-102 28 -102 73l11 79q129 473 183 473l324 10q108 -405 108 -522v-5l-6 -40q0 -11 -74 -64v-4q5 -15 46 -15h108l74 -5l62 5h46v15l-17 19q-74 0 -142 163q-36 172 -103 403q0 31 -96 370
q-63 418 -143 492l-239 -34q-85 0 -85 -79zM721 1162h6q58 -126 119 -434v-9l-114 -5h-176l-11 9q130 410 176 439z" />
    <glyph glyph-name="Adieresis" unicode="&#xc4;" horiz-adv-x="1261" 
d="M719 1616q0 -98 113 -113h21l59 60v7q0 56 -106 119q-87 -51 -87 -73zM493 1605q27 -105 86 -105q40 0 87 59v7q0 52 -114 106q-59 -38 -59 -67zM408 1344v-40l6 -34h22q104 93 148 93h12q0 -21 -165 -482q-254 -724 -319 -827q-94 -31 -108 -44v-10l11 -20l97 5h330
l17 10l-6 15q-102 28 -102 73l11 79q129 473 183 473l324 10q108 -405 108 -522v-5l-6 -40q0 -11 -74 -64v-4q5 -15 46 -15h108l74 -5l62 5h46v15l-17 19q-74 0 -142 163q-36 172 -103 403q0 31 -96 370q-63 418 -143 492l-239 -34q-85 0 -85 -79zM721 1162h6
q58 -126 119 -434v-9l-114 -5h-176l-11 9q130 410 176 439z" />
    <glyph glyph-name="Aring" unicode="&#xc5;" horiz-adv-x="1265" 
d="M553 1624l8 -44q48 -100 115 -100h28l47 4q115 66 115 151q0 100 -162 133l-60 -15q-61 -34 -91 -129zM763 1620l-4 -18q0 -92 -83 -92q-28 17 -28 51v41q0 22 28 115h55q25 -6 32 -97zM408 1348v-40l6 -34h22q104 93 148 93h12q0 -21 -165 -482q-254 -724 -319 -827
q-94 -31 -108 -44v-10l11 -20l97 5h330l17 10l-6 15q-102 28 -102 73l11 79q129 473 183 473l324 10q108 -405 108 -522v-5l-6 -40q0 -11 -74 -64v-4q5 -15 46 -15h108l74 -5l62 5h46v15l-17 19q-74 0 -142 163q-36 172 -103 403q0 31 -96 370q-63 418 -143 492l-239 -34
q-85 0 -85 -79zM721 1166h6q58 -126 119 -434v-9l-114 -5h-176l-11 9q130 410 176 439z" />
    <glyph glyph-name="AE" unicode="&#xc6;" horiz-adv-x="1613" 
d="M305 1422q-55 0 -67 -153l6 -15h16q128 127 144 127h22l-182 -830q-63 -242 -117 -337q-17 -96 -127 -183v-11q6 -15 33 -15h172l177 5v5l6 5v11q-78 36 -78 71q0 60 28 138q78 397 111 397h11l133 -5l33 10q40 0 61 -15l-6 -530l-11 -87l39 -5h521l288 -5q55 67 55 133
v25q0 27 -22 36l-67 -56q-69 -72 -398 -72q-112 0 -194 31l-17 642v15l11 31l249 5h111l6 -5l44 -56q12 3 22 25l-11 62l6 81l-6 15l-88 -30l-311 5l-22 5q-27 0 -27 372l5 51h17q190 -178 266 -178h27q183 57 183 316l-6 15h-11q-76 -112 -149 -112h-67l-77 10l-288 102
q-454 -15 -454 -46zM687 749q0 -9 -189 -15l-33 15q0 52 39 163q78 464 122 464l44 -5z" />
    <glyph glyph-name="Ccedilla" unicode="&#xc7;" horiz-adv-x="1052" 
d="M0 613q6 -91 30 -191q30 -154 159 -269q136 -116 353 -155q9 -150 24 -150q113 52 201 52q73 0 79 -67v-57q-12 -67 -115 -67h-67l-110 26q-30 0 -55 -26v-10h6l6 -6q84 -31 268 -41h6l86 5q146 0 146 119q-25 181 -134 181l-201 -16q-25 0 -25 31v42q112 14 140 36
q226 150 226 191q0 29 -25 36q-33 -21 -48 -46q-212 -150 -402 -150l-61 16q-93 33 -140 134q-97 252 -97 460v295l6 62q27 149 48 186q75 175 220 175h36q130 0 280 -160h12q132 116 189 150l-24 21h-19q-126 -62 -176 -62l-37 5q-165 93 -213 93h-73q-499 0 -499 -843z
" />
    <glyph glyph-name="Egrave" unicode="&#xc8;" horiz-adv-x="1150" 
d="M309 1672q-5 0 -17 -28q0 -28 251 -189h3l4 3v7q-41 31 -191 187q-31 20 -50 20zM0 1318v-16l17 -5q93 62 115 62h17l6 -88l-6 -672l-17 -284q0 -273 -98 -300q0 -21 138 -21l579 6l172 -16l29 5q183 0 183 124q-3 73 -29 73h-5q-131 -109 -235 -119h-121q-249 0 -407 10
q-17 0 -17 134v31q0 243 17 538q0 67 58 67h240l23 -5l40 -57h12l11 73v72q0 27 -17 31q-24 0 -92 -52l-229 5l-29 6q-16 0 -28 413v10l11 11h12l51 -11q284 -201 338 -201l29 5q173 156 218 274v10h-23q-80 -119 -149 -119h-63l-34 6q-286 134 -448 134h-86
q-183 -78 -183 -134z" />
    <glyph glyph-name="Eacute" unicode="&#xc9;" horiz-adv-x="1150" 
d="M618 1674q-145 -152 -191 -187v-7l4 -3h3q251 160 251 189q-10 28 -17 28q-17 0 -50 -20zM0 1318v-16l17 -5q93 62 115 62h17l6 -88l-6 -672l-17 -284q0 -273 -98 -300q0 -21 138 -21l579 6l172 -16l29 5q183 0 183 124q-3 73 -29 73h-5q-131 -109 -235 -119h-121
q-249 0 -407 10q-17 0 -17 134v31q0 243 17 538q0 67 58 67h240l23 -5l40 -57h12l11 73v72q0 27 -17 31q-24 0 -92 -52l-229 5l-29 6q-16 0 -28 413v10l11 11h12l51 -11q284 -201 338 -201l29 5q173 156 218 274v10h-23q-80 -119 -149 -119h-63l-34 6q-286 134 -448 134h-86
q-183 -78 -183 -134z" />
    <glyph glyph-name="Ecircumflex" unicode="&#xca;" horiz-adv-x="1150" 
d="M452 1663q-55 -130 -94 -166v-3q16 -28 28 -28q50 11 58 22q58 108 83 135h3q62 -169 89 -169l19 22v3q-27 40 -64 141q-34 132 -44 132h-6q-63 -63 -72 -89zM0 1318v-16l17 -5q93 62 115 62h17l6 -88l-6 -672l-17 -284q0 -273 -98 -300q0 -21 138 -21l579 6l172 -16
l29 5q183 0 183 124q-3 73 -29 73h-5q-131 -109 -235 -119h-121q-249 0 -407 10q-17 0 -17 134v31q0 243 17 538q0 67 58 67h240l23 -5l40 -57h12l11 73v72q0 27 -17 31q-24 0 -92 -52l-229 5l-29 6q-16 0 -28 413v10l11 11h12l51 -11q284 -201 338 -201l29 5
q173 156 218 274v10h-23q-80 -119 -149 -119h-63l-34 6q-286 134 -448 134h-86q-183 -78 -183 -134z" />
    <glyph glyph-name="Edieresis" unicode="&#xcb;" horiz-adv-x="1150" 
d="M568 1586q0 -98 113 -113h21l59 60v7q0 56 -106 119q-87 -51 -87 -73zM342 1575q27 -105 86 -105q40 0 87 59v7q0 52 -114 106q-59 -38 -59 -67zM0 1318v-16l17 -5q93 62 115 62h17l6 -88l-6 -672l-17 -284q0 -273 -98 -300q0 -21 138 -21l579 6l172 -16l29 5
q183 0 183 124q-3 73 -29 73h-5q-131 -109 -235 -119h-121q-249 0 -407 10q-17 0 -17 134v31q0 243 17 538q0 67 58 67h240l23 -5l40 -57h12l11 73v72q0 27 -17 31q-24 0 -92 -52l-229 5l-29 6q-16 0 -28 413v10l11 11h12l51 -11q284 -201 338 -201l29 5q173 156 218 274v10
h-23q-80 -119 -149 -119h-63l-34 6q-286 134 -448 134h-86q-183 -78 -183 -134z" />
    <glyph glyph-name="Igrave" unicode="&#xcc;" horiz-adv-x="496" 
d="M23 1695q-5 0 -17 -28q0 -28 251 -189h3l4 3v7q-41 31 -191 187q-31 20 -50 20zM81 1378q15 -26 36 -35q48 0 48 -491q-21 -647 -37 -771q0 -18 -58 -75q13 -25 26 -25q63 25 116 25h100q23 0 111 -55h5q0 26 -68 100q-32 0 -32 436v155l11 521v15q0 97 10 130l68 90
q-12 20 -42 25l-36 -5q-258 0 -258 -40z" />
    <glyph glyph-name="Iacute" unicode="&#xcd;" horiz-adv-x="489" 
d="M408 1675q-145 -152 -191 -187v-7l4 -3h3q251 160 251 189q-10 28 -17 28q-17 0 -50 -20zM80 1378q15 -26 36 -35q48 0 48 -491q-21 -647 -37 -771q0 -18 -58 -75q13 -25 26 -25q63 25 116 25h100q23 0 111 -55h5q0 26 -68 100q-32 0 -32 436v155l11 521v15q0 97 10 130
l68 90q-12 20 -42 25l-36 -5q-258 0 -258 -40z" />
    <glyph glyph-name="Icircumflex" unicode="&#xce;" horiz-adv-x="489" 
d="M203 1670q-55 -130 -94 -166v-3q16 -28 28 -28q50 11 58 22q58 108 83 135h3q62 -169 89 -169l19 22v3q-27 40 -64 141q-34 132 -44 132h-6q-63 -63 -72 -89zM80 1378q15 -26 36 -35q48 0 48 -491q-21 -647 -37 -771q0 -18 -58 -75q13 -25 26 -25q63 25 116 25h100
q23 0 111 -55h5q0 26 -68 100q-32 0 -32 436v155l11 521v15q0 97 10 130l68 90q-12 20 -42 25l-36 -5q-258 0 -258 -40z" />
    <glyph glyph-name="Idieresis" unicode="&#xcf;" horiz-adv-x="504" 
d="M258 1593q0 -98 113 -113h21l59 60v7q0 56 -106 119q-87 -51 -87 -73zM32 1582q27 -105 86 -105q40 0 87 59v7q0 52 -114 106q-59 -38 -59 -67zM80 1378q15 -26 36 -35q48 0 48 -491q-21 -647 -37 -771q0 -18 -58 -75q13 -25 26 -25q63 25 116 25h100q23 0 111 -55h5
q0 26 -68 100q-32 0 -32 436v155l11 521v15q0 97 10 130l68 90q-12 20 -42 25l-36 -5q-258 0 -258 -40z" />
    <glyph glyph-name="Eth" unicode="&#xd0;" horiz-adv-x="1367" 
d="M181 1407q0 -10 93 -16q88 -51 88 -135v-47l-11 -411q0 -36 -237 -36q-54 0 -114 -140v-11l15 -5l321 26l10 -10l10 -255h-10l-46 16q-39 -12 -47 -32l98 -83q-4 -170 -20 -260q0 -17 72 -26l31 5q93 0 93 73l-5 52v26l5 5l15 -5q247 -187 393 -187h20q125 0 243 114
q150 206 150 411v193q0 391 -114 571q-133 188 -294 188q-95 0 -165 -32q-221 -130 -238 -130l-10 11v88l-5 52q0 47 -171 47h-72q-83 0 -98 -57zM795 1308q352 0 352 -546q0 -345 -68 -525q-100 -192 -185 -192h-68q-23 0 -41 20q-185 81 -284 172l5 78v250l5 62h26
l114 -16q84 93 150 135v6l-11 15q-172 16 -201 26q0 -10 -52 -10q-12 0 -15 31v385q127 109 273 109z" />
    <glyph glyph-name="Ntilde" unicode="&#xd1;" horiz-adv-x="1081" 
d="M812 1616q-17 -110 -61 -110l-18 2q-202 115 -225 115q-53 0 -86 -68l-21 -123l12 -10q9 0 9 18q39 110 99 110h23q23 0 71 -42q95 -104 122 -104q16 4 36 26q55 107 55 186l-9 28q-7 0 -7 -28zM0 1360l10 -11h4q16 0 34 16h5q116 -36 116 -79l24 -809q-10 -417 -29 -417
l-48 -32v-11l24 -42l39 21l173 -5h82q38 0 49 26q0 10 -53 32q-33 0 -54 624l5 52v265l5 21v5q15 0 126 -132q189 -278 313 -608q93 -296 126 -296h10q31 0 43 32l10 1163q21 69 101 259l-10 10h-164q-63 -3 -63 -21v-5q68 -30 68 -175l-10 -465l15 -386h-10l-5 6
q-49 147 -135 322l-367 497q-141 243 -347 243h-10q-77 -60 -77 -100z" />
    <glyph glyph-name="Ograve" unicode="&#xd2;" horiz-adv-x="1040" 
d="M313 1681q-5 0 -17 -28q0 -28 251 -189h3l4 3v7q-41 31 -191 187q-31 20 -50 20zM83 1082q-96 -252 -96 -516l48 -250q22 -139 149 -260q0 -31 230 -72h26q109 0 208 26q159 82 245 235q91 273 91 439q0 136 -32 296q-46 245 -176 373q-60 63 -208 87l-59 -20
q-230 0 -426 -338zM243 1011q60 208 96 245q0 51 181 92h43q38 0 58 -20q63 0 96 -118q28 0 64 -455l-5 -183q0 -368 -96 -440q-27 -82 -234 -82h-27q-144 36 -144 77q-59 0 -59 393v46q0 381 27 445z" />
    <glyph glyph-name="Oacute" unicode="&#xd3;" horiz-adv-x="1044" 
d="M728 1652q-145 -152 -191 -187v-7l4 -3h3q251 160 251 189q-10 28 -17 28q-17 0 -50 -20zM83 1082q-96 -252 -96 -516l48 -250q22 -139 149 -260q0 -31 230 -72h26q109 0 208 26q159 82 245 235q91 273 91 439q0 136 -32 296q-46 245 -176 373q-60 63 -208 87l-59 -20
q-230 0 -426 -338zM243 1011q60 208 96 245q0 51 181 92h43q38 0 58 -20q63 0 96 -118q28 0 64 -455l-5 -183q0 -368 -96 -440q-27 -82 -234 -82h-27q-144 36 -144 77q-59 0 -59 393v46q0 381 27 445z" />
    <glyph glyph-name="Ocircumflex" unicode="&#xd4;" horiz-adv-x="1040" 
d="M482 1656q-55 -130 -94 -166v-3q16 -28 28 -28q50 11 58 22q58 108 83 135h3q62 -169 89 -169l19 22v3q-27 40 -64 141q-34 132 -44 132h-6q-63 -63 -72 -89zM83 1082q-96 -252 -96 -516l48 -250q22 -139 149 -260q0 -31 230 -72h26q109 0 208 26q159 82 245 235
q91 273 91 439q0 136 -32 296q-46 245 -176 373q-60 63 -208 87l-59 -20q-230 0 -426 -338zM243 1011q60 208 96 245q0 51 181 92h43q38 0 58 -20q63 0 96 -118q28 0 64 -455l-5 -183q0 -368 -96 -440q-27 -82 -234 -82h-27q-144 36 -144 77q-59 0 -59 393v46q0 381 27 445z
" />
    <glyph glyph-name="Otilde" unicode="&#xd5;" horiz-adv-x="1044" 
d="M739 1662q-17 -110 -61 -110l-18 2q-202 115 -225 115q-53 0 -86 -68l-21 -123l12 -10q9 0 9 18q39 110 99 110h23q23 0 71 -42q95 -104 122 -104q16 4 36 26q55 107 55 186l-9 28q-7 0 -7 -28zM83 1082q-96 -252 -96 -516l48 -250q22 -139 149 -260q0 -31 230 -72h26
q109 0 208 26q159 82 245 235q91 273 91 439q0 136 -32 296q-46 245 -176 373q-60 63 -208 87l-59 -20q-230 0 -426 -338zM243 1011q60 208 96 245q0 51 181 92h43q38 0 58 -20q63 0 96 -118q28 0 64 -455l-5 -183q0 -368 -96 -440q-27 -82 -234 -82h-27q-144 36 -144 77
q-59 0 -59 393v46q0 381 27 445z" />
    <glyph glyph-name="Odieresis" unicode="&#xd6;" horiz-adv-x="1036" 
d="M572 1579q0 -98 113 -113h21l59 60v7q0 56 -106 119q-87 -51 -87 -73zM346 1568q27 -105 86 -105q40 0 87 59v7q0 52 -114 106q-59 -38 -59 -67zM83 1082q-96 -252 -96 -516l48 -250q22 -139 149 -260q0 -31 230 -72h26q109 0 208 26q159 82 245 235q91 273 91 439
q0 136 -32 296q-46 245 -176 373q-60 63 -208 87l-59 -20q-230 0 -426 -338zM243 1011q60 208 96 245q0 51 181 92h43q38 0 58 -20q63 0 96 -118q28 0 64 -455l-5 -183q0 -368 -96 -440q-27 -82 -234 -82h-27q-144 36 -144 77q-59 0 -59 393v46q0 381 27 445z" />
    <glyph glyph-name="multiply" unicode="&#xd7;" 
d="M693 951q-173 -171 -192 -170q-24 3 -166 172q-78 65 -78 133q0 9 1 14l-10 1q-20 -7 -89 -86l-2 -13l15 -6l6 4l30 -4q171 -174 220 -268q-6 -43 -162 -178q-61 -83 -138 -83q-11 0 -17 1l-1 -9q75 -102 93 -105l72 111q90 129 185 202l21 -3q95 -80 199 -194
q50 -30 62 -105l5 -1l6 4q59 17 93 81l1 9q-95 37 -190 148q-113 115 -110 134l1 4l197 174l114 47l-111 86l-15 1q-15 -71 -40 -101z" />
    <glyph glyph-name="Oslash" unicode="&#xd8;" horiz-adv-x="1060" 
d="M315 1376q-179 -129 -231 -298q-84 -139 -84 -570l26 -142q149 -371 473 -371h21q222 0 373 235q115 300 115 612q0 103 -73 335q-156 267 -352 267h-16q-125 0 -252 -68zM305 1245q78 105 241 147h47q126 -33 126 -63q-22 -74 -47 -110l-383 -622q-42 -89 -74 -89l-5 94
q0 474 95 643zM278 335l336 565q96 188 147 230q18 0 21 -288q-26 -779 -210 -779h-110q-178 0 -210 178q0 24 26 94z" />
    <glyph glyph-name="Ugrave" unicode="&#xd9;" horiz-adv-x="999" 
d="M354 1674q-5 0 -17 -28q0 -28 251 -189h3l4 3v7q-41 31 -191 187q-31 20 -50 20zM801 1393v-5q10 -17 32 -25q43 0 43 -270q0 -601 -48 -739q-96 -270 -355 -270h-21l-38 5q-124 42 -124 305q12 493 33 879l5 35q70 52 70 65q-10 35 -38 35l-16 -5q-344 -15 -344 -30
q91 -81 91 -230v-335l-16 -519q0 -26 38 -90q137 -215 328 -215h54q298 0 424 355q36 0 43 969q18 26 108 85q-39 30 -65 30v-5q-204 0 -204 -25z" />
    <glyph glyph-name="Uacute" unicode="&#xda;" horiz-adv-x="999" 
d="M745 1621q-145 -152 -191 -187v-7l4 -3h3q251 160 251 189q-10 28 -17 28q-17 0 -50 -20zM801 1393v-5q10 -17 32 -25q43 0 43 -270q0 -601 -48 -739q-96 -270 -355 -270h-21l-38 5q-124 42 -124 305q12 493 33 879l5 35q70 52 70 65q-10 35 -38 35l-16 -5
q-344 -15 -344 -30q91 -81 91 -230v-335l-16 -519q0 -26 38 -90q137 -215 328 -215h54q298 0 424 355q36 0 43 969q18 26 108 85q-39 30 -65 30v-5q-204 0 -204 -25z" />
    <glyph glyph-name="Ucircumflex" unicode="&#xdb;" horiz-adv-x="999" 
d="M518 1645q-55 -130 -94 -166v-3q16 -28 28 -28q50 11 58 22q58 108 83 135h3q62 -169 89 -169l19 22v3q-27 40 -64 141q-34 132 -44 132h-6q-63 -63 -72 -89zM801 1393v-5q10 -17 32 -25q43 0 43 -270q0 -601 -48 -739q-96 -270 -355 -270h-21l-38 5q-124 42 -124 305
q12 493 33 879l5 35q70 52 70 65q-10 35 -38 35l-16 -5q-344 -15 -344 -30q91 -81 91 -230v-335l-16 -519q0 -26 38 -90q137 -215 328 -215h54q298 0 424 355q36 0 43 969q18 26 108 85q-39 30 -65 30v-5q-204 0 -204 -25z" />
    <glyph glyph-name="Udieresis" unicode="&#xdc;" horiz-adv-x="999" 
d="M568 1586q0 -98 113 -113h21l59 60v7q0 56 -106 119q-87 -51 -87 -73zM342 1575q27 -105 86 -105q40 0 87 59v7q0 52 -114 106q-59 -38 -59 -67zM801 1393v-5q10 -17 32 -25q43 0 43 -270q0 -601 -48 -739q-96 -270 -355 -270h-21l-38 5q-124 42 -124 305q12 493 33 879
l5 35q70 52 70 65q-10 35 -38 35l-16 -5q-344 -15 -344 -30q91 -81 91 -230v-335l-16 -519q0 -26 38 -90q137 -215 328 -215h54q298 0 424 355q36 0 43 969q18 26 108 85q-39 30 -65 30v-5q-204 0 -204 -25z" />
    <glyph glyph-name="Yacute" unicode="&#xdd;" horiz-adv-x="1085" 
d="M713 1577q-145 -152 -191 -187v-7l4 -3h3q251 160 251 189q-10 28 -17 28q-17 0 -50 -20zM782 1345v-5q0 -13 58 -25q39 -3 39 -35q0 -52 -82 -168q-157 -252 -199 -252h-5q-8 3 -121 198q-170 262 -170 277v15q63 6 63 19t-43 25v-5l-39 -5q-281 -3 -281 -25v-9l5 -5
q64 -18 169 -104q164 -265 286 -520l-5 -104l-4 -400q0 -178 -49 -203q0 -25 92 -25h10l126 5l24 -10l24 25v5q-77 51 -77 193q15 384 29 529q102 153 242 406q83 161 189 232v10q0 9 -19 15v-5q-262 -30 -262 -49z" />
    <glyph glyph-name="Thorn" unicode="&#xde;" horiz-adv-x="1318" 
d="M28 1380l64 -46q57 0 57 -279l-14 -410l7 -441v-10q0 -138 -142 -213l14 -10l85 20h270l71 -5v5q71 0 71 15v6q-113 47 -113 258v101q0 56 21 56h14q227 -56 454 -56q73 0 142 21q270 107 270 309q0 230 -206 364q-70 37 -270 71q-142 -3 -397 -81h-14l21 137
q19 182 114 182v11q-15 12 -93 30l-113 -15h-85l-114 15q-114 -13 -114 -35zM774 1065h21l36 -5q156 -66 156 -273v-132l-36 -86q-87 -122 -163 -122h-21q-206 0 -362 61l14 466q167 91 355 91z" />
    <glyph glyph-name="germandbls" unicode="&#xdf;" horiz-adv-x="860" 
d="M133 1204q-46 0 -64 -708l5 -278l-5 -95q0 -95 -69 -122q0 -6 20 -14l280 4q18 0 40 14l-5 15q-89 17 -89 94q25 288 25 939v19q30 151 113 151h34q74 -12 74 -66v-5q-6 -38 -19 -38q-97 -163 -109 -307v-4l5 -5q0 -148 173 -231q221 -90 221 -217q0 -119 -29 -170
q-109 -184 -197 -184h-15l-15 9q-12 95 -25 95q-98 -109 -98 -161q0 -58 108 -94q103 0 217 99q123 135 123 297q0 72 -49 241q-30 82 -192 226q-84 45 -84 194q0 33 84 207l-20 71q-95 137 -182 137q-211 -17 -256 -113z" />
    <glyph glyph-name="agrave" unicode="&#xe0;" horiz-adv-x="773" 
d="M161 1003q-5 0 -17 -28q0 -28 251 -189h3l4 3v7q-41 31 -191 187q-31 20 -50 20zM331 658v-63q-333 -300 -333 -560v-32l117 -16q205 0 401 137h13q25 -6 55 -68l-43 -43v-10l25 -5l24 5h25l148 10v11q-125 99 -167 211q0 25 62 37l86 -5v5q-50 106 -123 164h-6
q-30 -105 -62 -105q-40 36 -129 295v64l43 37v5q0 16 -68 16t-68 -90zM473 241v-6l-6 -21q-167 -158 -265 -158h-19l-12 10v43l6 26q0 38 197 280h25q74 -145 74 -174z" />
    <glyph glyph-name="aacute" unicode="&#xe1;" horiz-adv-x="770" 
d="M585 972q-145 -152 -191 -187v-7l4 -3h3q251 160 251 189q-10 28 -17 28q-17 0 -50 -20zM331 658v-63q-333 -300 -333 -560v-32l117 -16q205 0 401 137h13q25 -6 55 -68l-43 -43v-10l25 -5l24 5h25l148 10v11q-125 99 -167 211q0 25 62 37l86 -5v5q-50 106 -123 164h-6
q-30 -105 -62 -105q-40 36 -129 295v64l43 37v5q0 16 -68 16t-68 -90zM473 241v-6l-6 -21q-167 -158 -265 -158h-19l-12 10v43l6 26q0 38 197 280h25q74 -145 74 -174z" />
    <glyph glyph-name="acircumflex" unicode="&#xe2;" horiz-adv-x="773" 
d="M354 1003q-55 -130 -94 -166v-3q16 -28 28 -28q50 11 58 22q58 108 83 135h3q62 -169 89 -169l19 22v3q-27 40 -64 141q-34 132 -44 132h-6q-63 -63 -72 -89zM331 658v-63q-333 -300 -333 -560v-32l117 -16q205 0 401 137h13q25 -6 55 -68l-43 -43v-10l25 -5l24 5h25
l148 10v11q-125 99 -167 211q0 25 62 37l86 -5v5q-50 106 -123 164h-6q-30 -105 -62 -105q-40 36 -129 295v64l43 37v5q0 16 -68 16t-68 -90zM473 241v-6l-6 -21q-167 -158 -265 -158h-19l-12 10v43l6 26q0 38 197 280h25q74 -145 74 -174z" />
    <glyph glyph-name="atilde" unicode="&#xe3;" horiz-adv-x="893" 
d="M611 966q-17 -110 -61 -110l-18 2q-202 115 -225 115q-53 0 -86 -68l-21 -123l12 -10q9 0 9 18q39 110 99 110h23q23 0 71 -42q95 -104 122 -104q16 4 36 26q55 107 55 186l-9 28q-7 0 -7 -28zM331 658v-63q-333 -300 -333 -560v-32l117 -16q205 0 401 137h13
q25 -6 55 -68l-43 -43v-10l25 -5l24 5h25l148 10v11q-125 99 -167 211q0 25 62 37l86 -5v5q-50 106 -123 164h-6q-30 -105 -62 -105q-40 36 -129 295v64l43 37v5q0 16 -68 16t-68 -90zM473 241v-6l-6 -21q-167 -158 -265 -158h-19l-12 10v43l6 26q0 38 197 280h25
q74 -145 74 -174z" />
    <glyph glyph-name="adieresis" unicode="&#xe4;" horiz-adv-x="773" 
d="M428 934q0 -98 113 -113h21l59 60v7q0 56 -106 119q-87 -51 -87 -73zM202 923q27 -105 86 -105q40 0 87 59v7q0 52 -114 106q-59 -38 -59 -67zM331 658v-63q-333 -300 -333 -560v-32l117 -16q205 0 401 137h13q25 -6 55 -68l-43 -43v-10l25 -5l24 5h25l148 10v11
q-125 99 -167 211q0 25 62 37l86 -5v5q-50 106 -123 164h-6q-30 -105 -62 -105q-40 36 -129 295v64l43 37v5q0 16 -68 16t-68 -90zM473 241v-6l-6 -21q-167 -158 -265 -158h-19l-12 10v43l6 26q0 38 197 280h25q74 -145 74 -174z" />
    <glyph glyph-name="aring" unicode="&#xe5;" horiz-adv-x="777" 
d="M242 930l8 -44q48 -100 115 -100h28l47 4q115 66 115 151q0 100 -162 133l-60 -15q-61 -34 -91 -129zM452 926l-4 -18q0 -92 -83 -92q-28 17 -28 51v41q0 22 28 115h55q25 -6 32 -97zM331 658v-63q-333 -300 -333 -560v-32l117 -16q205 0 401 137h13q25 -6 55 -68
l-43 -43v-10l25 -5l24 5h25l148 10v11q-125 99 -167 211q0 25 62 37l86 -5v5q-50 106 -123 164h-6q-30 -105 -62 -105q-40 36 -129 295v64l43 37v5q0 16 -68 16t-68 -90zM473 241v-6l-6 -21q-167 -158 -265 -158h-19l-12 10v43l6 26q0 38 197 280h25q74 -145 74 -174z" />
    <glyph glyph-name="ae" unicode="&#xe6;" horiz-adv-x="1235" 
d="M901 0q212 0 315 142l-37 22q-157 -104 -241 -104h-37q-22 0 -95 38q-51 36 -51 175v54q0 14 44 17h29q53 0 110 -17l14 17v38q0 41 -22 76q-96 -38 -131 -38h-22l-30 22v38q52 212 169 212h29q69 0 154 -87q161 100 161 120v17l-22 5q-31 -10 -139 -16l-264 5
q-79 -9 -102 -22q-200 -79 -218 -323q-38 80 -91 235v64l43 37v5q0 16 -68 16t-68 -90v-63q-333 -300 -333 -560v-32l117 -16q205 0 401 137h13q25 -6 55 -68l-43 -43v-10l25 -5l24 5h25l145 10q68 -13 141 -13zM473 241v-6l-6 -21q-167 -158 -265 -158h-19l-12 10v43l6 26
q0 38 197 280h25q74 -145 74 -174z" />
    <glyph glyph-name="ccedilla" unicode="&#xe7;" horiz-adv-x="679" 
d="M7 363v-103q0 -125 173 -227q90 -27 90 -43l-7 -38q14 -27 55 -27h14l35 16q20 0 20 -10v-17l-7 -5q-27 0 -27 -11q-62 0 -173 33q-35 -12 -35 -71v-11l7 -5q28 0 62 32h21l145 -32v5q111 0 111 60t-76 81l-48 -5h-7v16h34q48 0 76 11q194 60 194 119h-7
q-90 -54 -200 -54h-35q-36 0 -118 32q-76 46 -76 232q0 275 152 341q84 0 90 -81h14q173 119 173 135l-21 11l-394 -27q-235 -89 -235 -357z" />
    <glyph glyph-name="egrave" unicode="&#xe8;" horiz-adv-x="722" 
d="M198 1042q-5 0 -17 -28q0 -28 251 -189h3l4 3v7q-41 31 -191 187q-31 20 -50 20zM586 731l-264 5q-79 -9 -102 -22q-220 -87 -220 -370v-28q0 -45 51 -174q76 -142 337 -142q212 0 315 142l-37 22q-157 -104 -241 -104h-37q-22 0 -95 38q-51 36 -51 175v54q0 14 44 17h29
q53 0 110 -17l14 17v38q0 41 -22 76q-96 -38 -131 -38h-22l-30 22v38q52 212 169 212h29q69 0 154 -87q161 100 161 120v17l-22 5q-31 -10 -139 -16z" />
    <glyph glyph-name="eacute" unicode="&#xe9;" horiz-adv-x="722" 
d="M602 1006q-145 -152 -191 -187v-7l4 -3h3q251 160 251 189q-10 28 -17 28q-17 0 -50 -20zM586 731l-264 5q-79 -9 -102 -22q-220 -87 -220 -370v-28q0 -45 51 -174q76 -142 337 -142q212 0 315 142l-37 22q-157 -104 -241 -104h-37q-22 0 -95 38q-51 36 -51 175v54
q0 14 44 17h29q53 0 110 -17l14 17v38q0 41 -22 76q-96 -38 -131 -38h-22l-30 22v38q52 212 169 212h29q69 0 154 -87q161 100 161 120v17l-22 5q-31 -10 -139 -16z" />
    <glyph glyph-name="ecircumflex" unicode="&#xea;" horiz-adv-x="827" 
d="M377 1014q-55 -130 -94 -166v-3q16 -28 28 -28q50 11 58 22q58 108 83 135h3q62 -169 89 -169l19 22v3q-27 40 -64 141q-34 132 -44 132h-6q-63 -63 -72 -89zM586 731l-264 5q-79 -9 -102 -22q-220 -87 -220 -370v-28q0 -45 51 -174q76 -142 337 -142q212 0 315 142
l-37 22q-157 -104 -241 -104h-37q-22 0 -95 38q-51 36 -51 175v54q0 14 44 17h29q53 0 110 -17l14 17v38q0 41 -22 76q-96 -38 -131 -38h-22l-30 22v38q52 212 169 212h29q69 0 154 -87q161 100 161 120v17l-22 5q-31 -10 -139 -16z" />
    <glyph glyph-name="edieresis" unicode="&#xeb;" horiz-adv-x="823" 
d="M393 906q0 -98 113 -113h21l59 60v7q0 56 -106 119q-87 -51 -87 -73zM167 895q27 -105 86 -105q40 0 87 59v7q0 52 -114 106q-59 -38 -59 -67zM586 731l-264 5q-79 -9 -102 -22q-220 -87 -220 -370v-28q0 -45 51 -174q76 -142 337 -142q212 0 315 142l-37 22
q-157 -104 -241 -104h-37q-22 0 -95 38q-51 36 -51 175v54q0 14 44 17h29q53 0 110 -17l14 17v38q0 41 -22 76q-96 -38 -131 -38h-22l-30 22v38q52 212 169 212h29q69 0 154 -87q161 100 161 120v17l-22 5q-31 -10 -139 -16z" />
    <glyph glyph-name="igrave" unicode="&#xec;" horiz-adv-x="398" 
d="M8 1287q-5 0 -17 -28q0 -28 251 -189h3l4 3v7q-41 31 -191 187q-31 20 -50 20zM158 916q33 -69 81 -69q46 0 69 85q-32 59 -69 59q-50 0 -81 -75zM90 686l37 -42l-6 -155v-428q0 -20 -31 -48v-10q79 -11 205 -11h56l13 11l-32 26q-31 0 -31 193v213q0 235 38 235
q37 0 37 11q0 16 -87 22h-131q-68 0 -68 -17z" />
    <glyph glyph-name="iacute" unicode="&#xed;" horiz-adv-x="406" 
d="M360 1253q-145 -152 -191 -187v-7l4 -3h3q251 160 251 189q-10 28 -17 28q-17 0 -50 -20zM142 931q33 -69 81 -69q46 0 69 85q-32 59 -69 59q-49 0 -81 -75zM74 701l37 -42l-6 -155v-428q0 -20 -31 -48v-10q79 -11 205 -11h56l13 11l-32 26q-31 0 -31 193v213
q0 235 38 235q37 0 37 11q0 16 -87 22h-131q-68 0 -68 -17z" />
    <glyph glyph-name="icircumflex" unicode="&#xee;" horiz-adv-x="394" 
d="M170 1241q-55 -130 -94 -166v-3q16 -28 28 -28q50 11 58 22q58 108 83 135h3q62 -169 89 -169l19 22v3q-27 40 -64 141q-34 132 -44 132h-6q-63 -63 -72 -89zM142 924q33 -69 81 -69q46 0 69 85q-32 59 -69 59q-49 0 -81 -75zM74 694l37 -42l-6 -155v-428q0 -20 -31 -48
v-10q79 -11 205 -11h56l13 11l-32 26q-31 0 -31 193v213q0 235 38 235q37 0 37 11q0 16 -87 22h-131q-68 0 -68 -17z" />
    <glyph glyph-name="idieresis" unicode="&#xef;" horiz-adv-x="390" 
d="M216 1194q0 -98 113 -113h21l59 60v7q0 56 -106 119q-87 -51 -87 -73zM-10 1183q27 -105 86 -105q40 0 87 59v7q0 52 -114 106q-59 -38 -59 -67zM143 924q33 -69 81 -69q46 0 69 85q-32 59 -69 59q-49 0 -81 -75zM75 694l37 -42l-6 -155v-428q0 -20 -31 -48v-10
q79 -11 205 -11h56l13 11l-32 26q-31 0 -31 193v213q0 235 38 235q37 0 37 11q0 16 -87 22h-131q-68 0 -68 -17z" />
    <glyph glyph-name="eth" unicode="&#xf0;" horiz-adv-x="738" 
d="M52 1116v-5l5 -6l58 6q56 0 109 -66q-74 -98 -156 -179v-6q125 -97 125 -114v-6q-193 -161 -193 -370v-16q0 -92 73 -218q79 -97 255 -136q111 0 198 33q193 108 193 343v76q0 42 -26 103q-65 178 -333 485q49 98 151 98v5l-110 109h-5l-42 -27q-56 -98 -88 -98h-11
l-73 65l-36 71h-5q-46 -50 -89 -147zM307 980h6l15 -11q122 -141 125 -196l-245 -22v93q51 136 99 136zM198 588q51 131 255 131h21q42 -48 42 -158v-202q-50 -299 -99 -299h-68q-30 0 -88 22q-94 52 -94 277v22q0 136 31 207z" />
    <glyph glyph-name="ntilde" unicode="&#xf1;" horiz-adv-x="805" 
d="M636 1048q-17 -110 -61 -110l-18 2q-202 115 -225 115q-53 0 -86 -68l-21 -123l12 -10q9 0 9 18q39 110 99 110h23q23 0 71 -42q95 -104 122 -104q16 4 36 26q55 107 55 186l-9 28q-7 0 -7 -28zM237 697h-8l-174 40q-71 -21 -114 -62v-6q0 -21 144 -39q35 0 38 -270
l-8 -101v-147q0 -47 -113 -90v-5q6 -17 45 -17h53l273 11v11q-68 27 -68 175l8 399q15 84 106 84h30q122 0 144 -118v-67q0 -155 -129 -473q0 -22 137 -22h159l38 6q0 19 -23 39q-82 33 -91 45v11q99 255 99 377v17l-8 73q0 137 -258 191q-107 0 -280 -62z" />
    <glyph glyph-name="ograve" unicode="&#xf2;" horiz-adv-x="758" 
d="M128 1022q-5 0 -17 -28q0 -28 251 -189h3l4 3v7q-41 31 -191 187q-31 20 -50 20zM215 729q-215 -135 -215 -372q0 -40 54 -166q135 -191 322 -191q307 0 355 362v26q0 202 -150 320q-68 26 -232 47h-37q-51 0 -97 -26zM220 615q36 88 140 88h38q172 -81 172 -243v-165
q-48 -238 -145 -238h-22q-90 0 -123 21q-97 59 -97 243v103q0 148 37 191z" />
    <glyph glyph-name="oacute" unicode="&#xf3;" horiz-adv-x="758" 
d="M556 1001q-145 -152 -191 -187v-7l4 -3h3q251 160 251 189q-10 28 -17 28q-17 0 -50 -20zM215 729q-215 -135 -215 -372q0 -40 54 -166q135 -191 322 -191q307 0 355 362v26q0 202 -150 320q-68 26 -232 47h-37q-51 0 -97 -26zM220 615q36 88 140 88h38q172 -81 172 -243
v-165q-48 -238 -145 -238h-22q-90 0 -123 21q-97 59 -97 243v103q0 148 37 191z" />
    <glyph glyph-name="ocircumflex" unicode="&#xf4;" horiz-adv-x="758" 
d="M309 1028q-55 -130 -94 -166v-3q16 -28 28 -28q50 11 58 22q58 108 83 135h3q62 -169 89 -169l19 22v3q-27 40 -64 141q-34 132 -44 132h-6q-63 -63 -72 -89zM215 729q-215 -135 -215 -372q0 -40 54 -166q135 -191 322 -191q307 0 355 362v26q0 202 -150 320
q-68 26 -232 47h-37q-51 0 -97 -26zM220 615q36 88 140 88h38q172 -81 172 -243v-165q-48 -238 -145 -238h-22q-90 0 -123 21q-97 59 -97 243v103q0 148 37 191z" />
    <glyph glyph-name="otilde" unicode="&#xf5;" horiz-adv-x="758" 
d="M565 1014q-17 -110 -61 -110l-18 2q-202 115 -225 115q-53 0 -86 -68l-21 -123l12 -10q9 0 9 18q39 110 99 110h23q23 0 71 -42q95 -104 122 -104q16 4 36 26q55 107 55 186l-9 28q-7 0 -7 -28zM215 729q-215 -135 -215 -372q0 -40 54 -166q135 -191 322 -191
q307 0 355 362v26q0 202 -150 320q-68 26 -232 47h-37q-51 0 -97 -26zM220 615q36 88 140 88h38q172 -81 172 -243v-165q-48 -238 -145 -238h-22q-90 0 -123 21q-97 59 -97 243v103q0 148 37 191z" />
    <glyph glyph-name="odieresis" unicode="&#xf6;" horiz-adv-x="758" 
d="M375 926q0 -98 113 -113h21l59 60v7q0 56 -106 119q-87 -51 -87 -73zM149 915q27 -105 86 -105q40 0 87 59v7q0 52 -114 106q-59 -38 -59 -67zM215 729q-215 -135 -215 -372q0 -40 54 -166q135 -191 322 -191q307 0 355 362v26q0 202 -150 320q-68 26 -232 47h-37
q-51 0 -97 -26zM220 615q36 88 140 88h38q172 -81 172 -243v-165q-48 -238 -145 -238h-22q-90 0 -123 21q-97 59 -97 243v103q0 148 37 191z" />
    <glyph glyph-name="divide" unicode="&#xf7;" 
d="M442 1047q9 -102 76 -102q57 32 57 87q0 57 -63 73q-70 0 -70 -58zM703 770h-401q-132 0 -210 80h-6l-13 -254q6 -51 19 -51h13l32 22q0 56 566 116h82q47 0 128 -80q19 0 25 131q-7 131 -32 131h-6q-101 -95 -197 -95zM416 458v-22q0 -60 64 -80q54 0 83 109
q0 27 -45 66h-12q-42 0 -90 -73z" />
    <glyph glyph-name="oslash" unicode="&#xf8;" horiz-adv-x="746" 
d="M118 652q-83 -80 -118 -258l11 -68q73 -308 312 -326h54q86 0 140 17q210 105 210 365v23q0 88 -54 202q-140 152 -210 152q-272 0 -345 -107zM366 703h49q59 -6 59 -34v-17q0 -19 -259 -410h-10l-6 28v163q24 270 167 270zM312 219q155 260 200 304h5q16 0 16 -101v-236
l-11 -34q-42 -130 -161 -130h-11q-39 0 -102 90q0 37 64 107z" />
    <glyph glyph-name="ugrave" unicode="&#xf9;" horiz-adv-x="667" 
d="M152 1031q-5 0 -17 -28q0 -28 251 -189h3l4 3v7q-41 31 -191 187q-31 20 -50 20zM39 675v-364l12 -113q72 -198 254 -198h5q93 0 169 64q101 -59 158 -59l23 6v5q-12 21 -34 21q-68 39 -68 274v5l6 262q0 107 73 150q0 19 -73 22l-118 -16v-11q45 -44 45 -220v-257
l-6 -69q-105 -123 -152 -123q-102 0 -102 219v214l6 123q0 83 68 124v10l-23 6l-62 -6h-56l-153 11l-11 -11q39 -33 39 -69z" />
    <glyph glyph-name="uacute" unicode="&#xfa;" horiz-adv-x="663" 
d="M550 1011q-145 -152 -191 -187v-7l4 -3h3q251 160 251 189q-10 28 -17 28q-17 0 -50 -20zM39 675v-364l12 -113q72 -198 254 -198h5q93 0 169 64q101 -59 158 -59l23 6v5q-12 21 -34 21q-68 39 -68 274v5l6 262q0 107 73 150q0 19 -73 22l-118 -16v-11q45 -44 45 -220
v-257l-6 -69q-105 -123 -152 -123q-102 0 -102 219v214l6 123q0 83 68 124v10l-23 6l-62 -6h-56l-153 11l-11 -11q39 -33 39 -69z" />
    <glyph glyph-name="ucircumflex" unicode="&#xfb;" horiz-adv-x="659" 
d="M311 1044q-55 -130 -94 -166v-3q16 -28 28 -28q50 11 58 22q58 108 83 135h3q62 -169 89 -169l19 22v3q-27 40 -64 141q-34 132 -44 132h-6q-63 -63 -72 -89zM39 675v-364l12 -113q72 -198 254 -198h5q93 0 169 64q101 -59 158 -59l23 6v5q-12 21 -34 21q-68 39 -68 274
v5l6 262q0 107 73 150q0 19 -73 22l-118 -16v-11q45 -44 45 -220v-257l-6 -69q-105 -123 -152 -123q-102 0 -102 219v214l6 123q0 83 68 124v10l-23 6l-62 -6h-56l-153 11l-11 -11q39 -33 39 -69z" />
    <glyph glyph-name="udieresis" unicode="&#xfc;" horiz-adv-x="659" 
d="M370 965q0 -98 113 -113h21l59 60v7q0 56 -106 119q-87 -51 -87 -73zM144 954q27 -105 86 -105q40 0 87 59v7q0 52 -114 106q-59 -38 -59 -67zM39 675v-364l12 -113q72 -198 254 -198h5q93 0 169 64q101 -59 158 -59l23 6v5q-12 21 -34 21q-68 39 -68 274v5l6 262
q0 107 73 150q0 19 -73 22l-118 -16v-11q45 -44 45 -220v-257l-6 -69q-105 -123 -152 -123q-102 0 -102 219v214l6 123q0 83 68 124v10l-23 6l-62 -6h-56l-153 11l-11 -11q39 -33 39 -69z" />
    <glyph glyph-name="yacute" unicode="&#xfd;" horiz-adv-x="713" 
d="M550 992q-145 -152 -191 -187v-7l4 -3h3q251 160 251 189q-10 28 -17 28q-17 0 -50 -20zM-11 720v-5l12 -11h55q47 0 50 -16v-11l-50 -264l13 -103q66 -205 264 -205l147 11l12 -11v-43l-12 -97q-95 -161 -178 -161h-61l-43 32q-18 92 -37 92q-16 0 -25 -38l12 -65
q54 -140 203 -140h67q43 0 68 11q166 87 166 205v5l-19 264q0 278 19 512q0 43 67 43v17l-31 5q-282 -6 -282 -38v-5q25 0 25 -11q67 0 67 -485v-11q-26 -38 -86 -38l-67 17q-98 59 -98 226q0 165 67 323l-6 17l-147 5q-172 -3 -172 -27z" />
    <glyph glyph-name="thorn" unicode="&#xfe;" horiz-adv-x="717" 
d="M16 1412l34 -47q31 0 31 -285l-7 -420l4 -451v-10q0 -141 -78 -218l8 -10l46 21h148l39 -5v5q38 0 38 15v5q-62 48 -62 265v103q0 57 12 57h8q123 -57 248 -57q39 0 78 21q147 110 147 316q0 236 -113 373q-37 37 -147 73q-77 -3 -217 -83h-8l12 140q10 187 62 187v10
q-8 13 -51 31l-62 -16h-46l-62 16q-62 -14 -62 -36zM423 1090h12l19 -5q85 -67 85 -280v-134l-19 -88q-48 -125 -89 -125h-12q-113 0 -198 62l8 477q93 93 194 93z" />
    <glyph glyph-name="Ydieresis" unicode="&#xff;" horiz-adv-x="717" 
d="M389 938q0 -98 113 -113h21l59 60v7q0 56 -106 119q-87 -51 -87 -73zM163 927q27 -105 86 -105q40 0 87 59v7q0 52 -114 106q-59 -38 -59 -67zM-11 720v-5l12 -11h55q47 0 50 -16v-11l-50 -264l13 -103q66 -205 264 -205l147 11l12 -11v-43l-12 -97q-95 -161 -178 -161
h-61l-43 32q-18 92 -37 92q-16 0 -25 -38l12 -65q54 -140 203 -140h67q43 0 68 11q166 87 166 205v5l-19 264q0 278 19 512q0 43 67 43v17l-31 5q-282 -6 -282 -38v-5q25 0 25 -11q67 0 67 -485v-11q-26 -38 -86 -38l-67 17q-98 59 -98 226q0 165 67 323l-6 17l-147 5
q-172 -3 -172 -27z" />
    <glyph glyph-name="dotlessi" unicode="&#x131;" horiz-adv-x="500" 
d="M56 834q-108 -16 -108 -24v-5q35 -38 112 -59l90 17h9l4 -10l-4 -661q0 -37 -78 -78v-3q0 -6 20 -11l38 4q21 0 24 -11l34 7h108l36 7l37 -3l13 3v7l-25 21q-46 0 -46 700q0 139 13 212q-25 32 -58 32h-82l-9 -7q-69 -120 -128 -138z" />
    <glyph glyph-name="circumflex" unicode="&#x2c6;" horiz-adv-x="1023" 
d="M395 1341q-116 -163 -199 -207v-4q32 -35 59 -35q101 12 122 27q123 136 176 169h6q130 -211 187 -211l41 27v4q-61 52 -135 176q-73 165 -93 165h-12q-134 -80 -152 -111z" />
    <glyph glyph-name="caron" unicode="&#x2c7;" horiz-adv-x="1023" 
d="M547 1080h12q20 0 93 165q74 125 135 176v4l-41 27q-58 0 -187 -211h-6q-53 35 -176 169q-21 15 -122 27q-28 0 -59 -35v-4q83 -43 199 -207q18 -30 152 -111z" />
    <glyph glyph-name="firsttonechinese" unicode="&#x2c9;" horiz-adv-x="1023" 
d="M663 1312h-87q-78 0 -170 -9l-138 15h-6q-23 0 -26 -12l10 -83l-4 -18l7 -6h3q26 24 39 24h54l138 6h135q101 -6 125 -15h7l3 9l-3 13v3q0 91 -16 91q-18 -18 -71 -18z" />
    <glyph glyph-name="breve" unicode="&#x2d8;" horiz-adv-x="1023" 
d="M474 1078q165 0 272 143q66 65 66 114q-7 26 -30 37q-49 0 -49 -65q-42 -15 -60 -74q-99 -37 -139 -37q-189 0 -241 111q-16 69 -61 69q-25 -6 -36 -20v-9q51 -153 175 -240l97 -29h6z" />
    <glyph glyph-name="dotaccent" unicode="&#x2d9;" horiz-adv-x="1023" 
d="M397 1213q0 -48 75 -69q124 40 124 119q-53 107 -99 107h-5q-95 -60 -95 -157z" />
    <glyph glyph-name="ring" unicode="&#x2da;" horiz-adv-x="1023" 
d="M308 1261l10 -58q59 -129 137 -129h33l57 5q138 87 138 196q0 131 -195 173l-71 -19q-73 -43 -109 -168zM560 1256l-5 -24q0 -119 -100 -119q-33 21 -33 66v53q0 34 33 149h66q30 -6 39 -125z" />
    <glyph glyph-name="ogonek" unicode="&#x2db;" horiz-adv-x="1023" 
d="M503 22q-15 0 -52 -28q-74 -110 -74 -204q0 -73 46 -137l3 -4q38 -53 115 -75q111 -5 195 85q7 14 7 26q0 13 -7 21q-8 14 -25 14q-12 0 -25 -6q-113 -6 -158 56l-3 4q-39 55 -39 120q0 19 3 39q36 67 28 77l-5 7q-3 5 -9 5z" />
    <glyph glyph-name="tilde" unicode="&#x2dc;" horiz-adv-x="1023" 
d="M753 1386q-20 -121 -75 -121l-22 3q-247 126 -275 126q-64 0 -106 -75l-25 -135l14 -11q11 0 11 19q48 121 122 121h29q28 0 86 -45q117 -115 150 -115q21 6 44 28q67 119 67 205l-11 31q-9 0 -9 -31z" />
    <glyph glyph-name="hungarumlaut" unicode="&#x2dd;" horiz-adv-x="1023" 
d="M467 1430l-85 -131q-151 -184 -151 -224l12 -8h11q109 111 213 182q106 108 127 176q-23 29 -38 32q-30 0 -89 -27zM685 1426l-85 -130q-150 -183 -150 -225l12 -8h11q108 110 212 182q106 108 128 176q-23 29 -38 32q-30 0 -90 -27z" />
    <glyph glyph-name="endash" unicode="&#x2013;" horiz-adv-x="1107" 
d="M1051 539h-996v-120h996v120z" />
    <glyph glyph-name="emdash" unicode="&#x2014;" horiz-adv-x="2047" 
d="M2048 539h-2048v-120h2048v120z" />
    <glyph glyph-name="quoteleft" unicode="&#x2018;" horiz-adv-x="1023" 
d="M171 1175v17l-65 76v93q0 59 29 152q-24 51 -36 51q-15 0 -15 -25q-82 -123 -144 -398v-25q54 -93 108 -93q78 0 123 152z" />
    <glyph glyph-name="quoteright" unicode="'" horiz-adv-x="345" 
d="M106 1412v-17l65 -76v-93q0 -62 -29 -152q24 -51 36 -51q15 0 15 25q84 124 144 398v25q-52 93 -108 93q-78 0 -123 -152z" />
    <glyph glyph-name="quotesinglbase" unicode="&#x201a;" horiz-adv-x="556" 
d="M169 115v-17l65 -76v-93q0 -62 -29 -152q24 -51 36 -51q15 0 15 25q84 124 144 398v25q-52 93 -108 93q-78 0 -123 -152z" />
    <glyph glyph-name="quotedblleft" unicode="&#x201c;" horiz-adv-x="909" 
d="M383 1175v17l-65 76v93q0 59 29 152q-24 51 -36 51q-15 0 -15 -25q-82 -123 -144 -398v-25q54 -93 108 -93q78 0 123 152zM706 1175v17l-65 76v93q0 59 29 152q-24 51 -36 51q-15 0 -15 -25q-82 -123 -144 -398v-25q54 -93 108 -93q78 0 123 152z" />
    <glyph glyph-name="quotedblright" unicode="&#x201d;" horiz-adv-x="909" 
d="M152 1412v-17l65 -76v-93q0 -62 -29 -152q24 -51 36 -51q15 0 15 25q84 124 144 398v25q-53 93 -108 93q-78 0 -123 -152zM475 1412v-17l65 -76v-93q0 -62 -29 -152q24 -51 36 -51q15 0 15 25q84 124 144 398v25q-53 93 -108 93q-78 0 -123 -152z" />
    <glyph glyph-name="quotedblbase" unicode="&#x201e;" horiz-adv-x="909" 
d="M187 103v-17l65 -76v-93q0 -62 -29 -152q24 -51 36 -51q15 0 15 25q84 124 144 398v25q-52 93 -108 93q-78 0 -123 -152zM510 103v-17l65 -76v-93q0 -62 -29 -152q24 -51 36 -51q15 0 15 25q84 124 144 398v25q-52 93 -108 93q-78 0 -123 -152z" />
    <glyph glyph-name="dagger" unicode="&#x2020;" 
d="M328 1118q91 -212 91 -246v-6l-129 6q-212 -42 -212 -66v-11q58 -60 182 -104l30 6h68l76 5v-22q0 -61 -91 -361l106 -219q62 -219 83 -219h16l128 438q-83 273 -83 317v28l8 5l98 -16q97 24 197 93v5q-100 88 -159 88l-144 -16h-38v5q0 45 91 263q-117 372 -151 372
q-47 -19 -167 -345z" />
    <glyph glyph-name="daggerdbl" unicode="&#x2021;" 
d="M334 1139l-248 -134v-20q125 -39 233 -98h7l38 15l15 -15l-45 -93q120 -132 120 -159v-15q0 -27 -82 -134l97 -165v-5l-30 5q-113 52 -135 52q-60 -26 -226 -129v-5q0 -21 248 -93h15l76 36h37v-5q-60 -73 -60 -98v-36l-7 -5l60 -113q51 -149 68 -149h15l7 5l113 262v6
q-60 77 -60 92v10h22l61 -20q278 76 278 103v5l-248 93h-8q-26 0 -75 -26h-8v26l45 133v5q-120 123 -120 144q0 83 98 196l-45 103v10h15l75 -21q154 70 203 119q-153 92 -180 92l-83 -20h-8v5q0 19 61 129l-53 51q-66 102 -98 108h-15q-133 -130 -173 -247zM379 1119v-11
h-15l-15 11v10h15z" />
    <glyph glyph-name="bullet" unicode="&#x2022;" horiz-adv-x="1023" 
d="M204 596q0 -125 231 -182q386 105 386 315q-171 282 -308 282h-16q-293 -159 -293 -415z" />
    <glyph glyph-name="ellipsis" unicode="&#x2026;" horiz-adv-x="2047" 
d="M881 84q0 -53 121 -85q103 30 103 102q0 95 -65 136h-28q-104 0 -131 -153zM1655 118q0 -78 121 -102q121 0 121 77q-26 144 -103 144q-139 -15 -139 -119zM145 84v-8q53 -68 130 -68h38l56 51q-9 140 -84 170q-140 -56 -140 -145z" />
    <glyph glyph-name="guilsinglleft" unicode="&#x2039;" horiz-adv-x="630" 
d="M417 734q-128 -79 -304 -249v-9q81 -78 195 -159l186 -124q15 0 27 25q0 26 -52 53q-127 63 -240 180v3l70 75q180 129 207 162v27q0 39 12 72h-3q-18 0 -98 -56z" />
    <glyph glyph-name="guilsinglright" unicode="&#x203a;" horiz-adv-x="630" 
d="M119 790h-3q12 -33 12 -72v-27q29 -33 207 -162l70 -75v-3q-111 -117 -240 -180q-52 -28 -52 -53q14 -25 27 -25l186 124q114 81 195 159v9q-172 168 -304 249q-80 56 -98 56z" />
    <glyph glyph-name="fraction" unicode="&#x2044;" horiz-adv-x="341" 
d="M428 1389v-16l46 -40v-20q0 -77 -220 -445q-109 -200 -242 -384q-142 -251 -252 -389q0 -10 -135 -97v-11l96 -10h112q118 0 118 21v5l-39 40q0 21 39 77q432 685 629 1116q32 93 186 174l-17 15h-10q-79 -21 -311 -36z" />
    <glyph glyph-name="franc" unicode="&#x20a3;" horiz-adv-x="1290" 
d="M251 1291l10 -10h5q121 59 143 59h5v-49q16 0 41 -785q0 -34 -357 -34h-5q-13 0 -31 -148l5 -15h10l26 29q0 41 352 79l10 -237q0 -86 -92 -157v-10q0 -19 87 -25l76 10h143l26 5v10l-36 29q-46 0 -46 356q0 24 36 24h71q152 0 189 -49h15l26 138h-5v10h-11l-51 -20
l-275 -5l-5 25v49l5 153q0 79 41 79l173 5l102 -10q17 0 26 74h-5l-6 30q0 15 -10 15h-5q-58 -35 -81 -35h-220q-7 12 -30 439v5l5 5q33 0 92 -44q230 -230 300 -262q169 0 286 360l-25 25h-11q-115 -163 -219 -163h-46l-46 10q-297 153 -377 153h-41q-153 0 -270 -118z" />
    <glyph glyph-name="afii08941" unicode="&#x20a4;" 
d="M407 549l-172 13h-8q-29 0 -32 -11l12 -72l-4 -17l8 -5h4q31 22 48 22h68l161 5q17 -63 25 -101q73 -153 73 -176v-5q-253 -119 -330 -119h-60q-47 0 -47 42v10l5 5q128 28 128 41l-17 16q-231 -9 -231 -31q63 -165 184 -165h30q72 0 158 26q179 103 197 103h17
q68 -75 179 -155q78 27 86 41q64 0 81 155q0 126 -141 145q-25 0 -111 -52h-9l-21 26l-55 194h38q122 -4 156 -14h8l4 9l-4 10v3q0 81 -20 81q-24 -16 -88 -16h-113q-24 98 -24 130v16h145q20 0 38 -31h5q40 0 90 134l-18 15h-4l-4 -5q-55 -41 -222 -41h-60l-60 258v20l4 6
q228 0 355 139q72 40 124 196q-9 26 -30 26l-197 10l-17 -15v-5q124 -57 124 -93l-4 -31q-122 -165 -325 -165h-43l-21 5q-66 212 -120 263q0 34 -132 67v-5q-129 -24 -129 -150q0 -64 99 -144q119 -59 132 -78q81 -202 81 -284v-5q-90 -9 -132 -25l-30 30h-9
q-55 -63 -55 -98v-10l8 -10h9l60 26h158q21 0 63 -150q-44 -2 -66 -4zM209 1353q80 -106 86 -160v-21l-5 -5q-111 42 -111 114v10q7 62 30 62zM850 233h22q51 -12 51 -77q0 -78 -38 -78h-5q-68 0 -141 103v11q12 32 111 41z" />
    <glyph glyph-name="peseta" unicode="&#x20a7;" horiz-adv-x="2027" 
d="M186 1231q23 0 23 -67l5 -384q-21 -687 -37 -687q0 -48 -52 -67v-10q0 -36 127 -36h23q73 0 117 25v16q-42 44 -42 61v621q134 -32 230 -41l75 10q19 0 19 -113v-51l9 -16q29 13 29 31q84 118 164 118h37v-620l-32 -41l4 -16l14 6q212 18 212 30v5q0 15 -33 21
q-28 0 -28 159v348l9 113h52q93 0 211 -82l37 -56h10q20 0 23 184l-42 11l-563 -5l-14 5v10q117 136 117 256q0 64 -33 190q-100 220 -253 220q-96 0 -291 -30h-47q-57 0 -160 92h-9l-19 -103q0 -75 108 -107zM571 1338h14q136 0 136 -328l-14 -159q-84 -123 -150 -123h-66
q-59 0 -145 36l14 544q75 30 211 30zM1397 569q9 -31 23 -36h10q27 93 75 93h37l14 -10v-11q-112 -83 -112 -195q0 -73 80 -102l46 5q135 87 151 87h23q52 -21 52 -113v-61q0 -51 -28 -128q-54 -98 -137 -98h-42q-16 8 -28 46q0 129 -70 129q-43 0 -61 -77l4 -26
q48 -123 174 -123h136q216 77 216 246l-14 82q-54 169 -178 169l-183 -25q-57 3 -57 25v11q0 66 89 107h24l159 -41h10q114 0 141 77q0 36 -71 108h-14l-5 -5q-21 -128 -93 -128l-29 5q-155 143 -234 143l-5 -5q-70 0 -103 -149z" />
    <glyph glyph-name="Euro" unicode="&#x20ac;" 
d="M0 687v-34q0 -54 74 -312q0 -38 83 -168q173 -173 315 -173q74 0 222 64q116 70 202 70h9l79 -30v5l15 15q0 30 -123 133q-94 -128 -276 -193l-59 10q-79 0 -197 74q-152 221 -152 381v5q0 30 172 30h89l182 5q74 0 103 94l-20 20h-14l-10 -10l-148 -5h-142l-212 -15v30
q0 89 20 158q0 23 428 29q75 0 128 99v20l-15 5l-35 -15q0 -29 -452 -29l-35 -5v24q0 23 50 149q152 272 314 272h50q51 0 118 -35q72 -69 93 -69h10q79 66 128 129v4l-10 10h-10l-137 -69l-20 10q0 37 -330 94l-152 -49q-335 -174 -335 -728z" />
    <glyph glyph-name="uni2116" unicode="&#x2116;" horiz-adv-x="2270" 
d="M212 1338l11 -11h5q17 0 38 16h5q130 -36 130 -78l27 -790q-12 -408 -32 -408l-54 -31v-11l27 -41l43 21l195 -5h92q42 0 54 25q0 10 -60 31q-38 0 -59 610l5 52v258l6 21v5q17 0 140 -129q213 -273 352 -594q105 -290 140 -290h11q35 0 49 31l11 1137q24 68 113 253
l-11 10h-183q-71 -3 -71 -20v-5q76 -28 76 -171l-11 -455l16 -377h-10l-6 5q-56 147 -151 316l-411 485q-159 238 -390 238h-10q-87 -60 -87 -98zM1737 1405q-141 0 -265 -176q-28 0 -70 -248q0 -127 86 -243q124 -103 249 -103h5q87 9 87 21q222 81 222 330q0 196 -76 285
q-111 123 -205 144q-33 -3 -33 -10zM1710 1317l87 -15q108 -82 108 -290q0 -90 -22 -181q-39 -108 -195 -108h-27q-97 30 -97 176v196q38 222 146 222zM1391 480v-5l5 -5q12 -83 49 -83h11q35 26 92 26h357q97 0 178 -21h6l5 26v26q0 72 -22 72h-578q-65 0 -103 -36z" />
    <glyph glyph-name="trademark" unicode="&#x2122;" horiz-adv-x="1562" 
d="M1308 1217q-81 -143 -96 -152h-12l-4 4q-142 240 -276 240q-57 0 -80 -32v-8l12 -4l40 8h16q28 -227 28 -452q0 -47 -16 -64q-28 -3 -28 -12q0 -6 20 -12l96 4l36 -4l28 8v8l-20 16q-13 0 -28 400l4 24q29 0 80 -104q61 -178 92 -200l40 56q116 252 132 252h12l8 -56
v-176q0 -150 -36 -168q-28 -28 -28 -44t100 -16h4q100 0 100 16v4l-32 32q-15 472 -28 472l8 16q48 8 48 16v16q0 22 -64 40q-63 -15 -156 -128zM0 1277q14 -152 28 -152q83 116 232 116h16q24 0 24 -192v-136q0 -84 -12 -144q-36 -13 -36 -20q0 -18 104 -24l56 8l92 -4v20
q-52 0 -52 444v72l4 4q40 -6 40 -12q215 -60 244 -112q9 0 16 24l-8 112q0 11 -36 20l-696 -8q-13 -3 -16 -16z" />
    <glyph glyph-name="partialdiff" unicode="&#x2202;" 
d="M486 1475h-15l-5 -15q223 -356 223 -418v-20q-118 0 -282 -72q-224 -134 -302 -310q-40 -111 -40 -168q0 -260 119 -337q140 -132 253 -132h59q194 0 312 163q53 0 119 336v26q0 346 -292 789q-149 138 -149 158zM759 716q0 -513 -253 -652q-20 -10 -55 -10h-59
q-93 0 -134 163l-5 97v66q0 172 139 412q114 138 282 138h50q23 0 35 -214z" />
    <glyph glyph-name="Delta" unicode="&#x2206;" horiz-adv-x="1080" 
d="M503 1413q-15 0 -58 -217l-157 -602q-112 -381 -134 -424q-80 -139 -80 -162v-5q0 -15 18 -15l531 51h210l147 -21q54 8 54 21v5q0 13 -71 131q-219 540 -282 753l-152 470q-3 15 -26 15zM623 155l-393 -51h-4q0 18 62 177q166 656 192 718h5q8 0 71 -208
q58 -224 223 -636v-10z" />
    <glyph glyph-name="product" unicode="&#x220f;" horiz-adv-x="1514" 
d="M207 1342q0 -352 33 -910l-13 -491q0 -283 -181 -328q0 -27 32 -39q3 19 220 26l232 -6q39 6 39 19v13l-45 66q-46 0 -78 753v137l26 616l-7 131v7l717 -7l26 -7l-20 -1132l7 -341l-7 -79q0 -83 -97 -131v-6q0 -14 33 -20l122 13l226 -6l26 19l-13 20q-86 0 -116 79
q-58 0 -58 1047l6 459l-19 170q0 46 -904 46l-148 -7q-39 0 -39 -111z" />
    <glyph glyph-name="summation" unicode="&#x2211;" horiz-adv-x="1205" 
d="M121 1374q57 -126 612 -834v-13q-81 -113 -107 -131q-348 -495 -572 -775v-7q0 -19 93 -26h293q552 36 552 52q140 43 140 170v6q-3 20 -53 20h-34q-37 0 -126 -92q0 -58 -632 -58v13q0 29 46 78q180 288 333 495q198 222 213 268l-20 45l-166 176q-319 406 -379 548
l13 13h60q349 0 466 -59q36 -85 186 -85h13q22 0 33 98v20q0 117 -259 117h-13l-666 -13q-21 -6 -26 -26z" />
    <glyph glyph-name="minus" unicode="&#x2212;" 
d="M796 766h-149q-136 0 -292 -12l-238 20h-11q-41 0 -44 -16l17 -108l-6 -24l11 -8h6q41 32 66 32h94l237 8h232q171 -7 215 -20h11l6 12l-6 16v4q0 120 -27 120q-30 -24 -122 -24z" />
    <glyph glyph-name="radical" unicode="&#x221a;" horiz-adv-x="1061" 
d="M798 1576q-151 -448 -429 -1413h-13q-22 29 -79 368q-48 228 -191 228q-86 -11 -86 -70q18 -123 46 -123l66 18q83 0 119 -333q39 -205 112 -251h13q94 0 145 53q253 944 343 1208q0 137 99 233l79 -6l20 128q0 46 -86 53q-125 0 -158 -93z" />
    <glyph glyph-name="infinity" unicode="&#x221e;" horiz-adv-x="1274" 
d="M201 1029q-127 -92 -127 -217q0 -23 16 -81q123 -274 315 -274q67 0 181 69q65 57 79 57l48 -27q143 -78 238 -87h35q32 8 111 66q102 165 102 256v9q0 95 -92 175q0 30 -156 51q-96 0 -248 -136q-88 -96 -98 -96h-7l-133 139q-45 73 -188 117q-47 -8 -76 -21zM122 878
q0 46 73 61h12q115 0 325 -244v-6q-58 -85 -175 -85h-19q-48 0 -143 40q-80 75 -80 156v45q0 21 7 33zM1069 884h19q64 0 73 -48q0 -79 -48 -153q-97 -88 -152 -88h-80q-114 32 -143 73v6q174 210 331 210z" />
    <glyph glyph-name="integral" unicode="&#x222b;" horiz-adv-x="664" 
d="M533 1633q-107 -104 -170 -313q-40 0 -149 -1168q-42 -264 -74 -264h-5l-74 28q-42 0 -61 -77q21 -125 70 -125q85 0 184 361q48 239 174 1050q81 403 114 410l35 -14q83 42 83 125v7q0 47 -35 56q-92 -56 -92 -76z" />
    <glyph glyph-name="approxequal" unicode="&#x2248;" 
d="M58 823l11 -61l63 13q174 108 210 108h47q29 0 199 -115l153 -114q130 100 194 278v6l-16 18l-31 -18q-77 -133 -142 -133l-42 6q-368 169 -483 169h-42q-80 -47 -121 -157zM121 454v-12q3 -13 26 -24q103 14 231 145h32l31 -6q242 -127 268 -127q100 0 221 145v6l-16 24
q-151 -90 -231 -90l-63 12q-208 175 -263 175l-52 -12q-150 -135 -184 -236z" />
    <glyph glyph-name="lessequal" unicode="&#x2264;" horiz-adv-x="1136" 
d="M322 790l-252 -97v-11q6 -14 260 -59q287 -30 637 -296h8q47 19 47 48q0 27 -134 113q-114 70 -362 167v6q43 38 158 86q330 234 330 328h-8q0 76 -181 86q-236 -212 -503 -371zM78 -12q6 -27 23 -27h16l47 11q0 32 551 32h173q52 0 142 -27q15 0 55 70v5l-8 6
q-63 23 -63 32l-881 -16q-39 0 -55 -86z" />
    <glyph glyph-name="greaterequal" unicode="&#x2265;" horiz-adv-x="1148" 
d="M833 698l252 97v11q-6 14 -260 59q-285 30 -637 296h-8q-47 -18 -47 -48q0 -26 134 -113q112 -69 362 -167v-6q-44 -38 -158 -86q-330 -234 -330 -328h8q0 -74 181 -86q241 215 503 371zM78 58l-8 -6v-5q40 -70 55 -70q90 27 142 27h173q551 0 551 -32l47 -11h16
q17 0 23 27q-15 86 -55 86l-881 16q0 -9 -63 -32z" />
    <glyph glyph-name="uniF001" unicode="&#xf001;" horiz-adv-x="1072" 
 />
    <glyph glyph-name="uniF002" unicode="&#xf002;" horiz-adv-x="1080" 
 />
    <glyph glyph-name="uni20BA" unicode="&#x20ba;" horiz-adv-x="1020" 
d="M958 479q0 -202 -75.5 -308t-222 -144.5t-395.5 -38.5l-216 10q-48 3 -48 30q72 63 72 100l4 318l-48 -33q-61 -43 -78 -77q-18 -12 -33 96v4l-5 12l2 13l7 5q34 10 146 81l11 7l1 123l-79 -54q-58 -39 -77 -76q-19 -13 -33 95l-1 4l-5 12l2 13l8 6q29 7 146 80l41 28
l5 421q0 133 -67 181q-13 0 -24 20v10l29 5l273 -5l24 15h15l9 -10v-10q-15 -26 -67 -55q-17 0 -34 -459l107 79l63 43q15 11 40 59l4 3l8 -3l-1 -24l24 -90q0 -16 -27 -35l-8 -5l-161 -90l-53 -42v0v-127l139 101l62 42q15 10 41 60l3 2l8 -3v-24l24 -90q0 -15 -28 -34
l-7 -6l-161 -89l-80 -63q5 -473 32 -473q15 -4 40 -4q84 0 204 43.5t218 122t124 179.5l97 94q1 -15 1 -45z" />
    <glyph glyph-name="uni20A6" unicode="&#x20a6;" horiz-adv-x="1118" 
d="M1052 719v-120h-43l-5 -587q-12 -32 -43 -32h-10q-33 0 -126 296q-60 160 -143 323h-303q19 -550 51 -550q53 -22 53 -32q-11 -26 -49 -26h-82l-173 5l-39 -21l-24 42v11l48 32q18 0 29 417l-4 122h-133v120h130l-17 567q0 43 -116 79h-5q-18 -16 -34 -16h-4l-10 11
q0 40 77 100h10q206 0 347 -243l367 -497v-1h137l-2 59l10 465q0 145 -68 175v5q0 18 63 21h164l10 -10q-80 -190 -101 -259l-4 -456h42zM512 884q-111 132 -126 132v-5l-5 -21v-265l-1 -6h235q-42 74 -103 165zM858 599q47 -105 78 -201l5 -6h10l-8 207h-85z" />
  </font>
</defs>
</svg>
