<?xml version="1.0" encoding="utf-8"?>
<!-- Generator: Adobe Illustrator 19.2.1, SVG Export Plug-In . SVG Version: 6.00 Build 0)  -->
<svg version="1.1" id="Layer_1" xmlns="http://www.w3.org/2000/svg" xmlns:xlink="http://www.w3.org/1999/xlink" x="0px" y="0px"
	 viewBox="0 0 352 176" style="enable-background:new 0 0 352 176;" xml:space="preserve">
<style type="text/css">
	.st0{opacity:0.6;}
	.st1{fill:#232020;}
	.st2{fill:#BFBFBF;}
	.st3{fill:#F4F4F4;}
</style>
<title>menu-home-btn</title>
<g id="home-btn-up">
	<g class="st0">
		<path class="st1" d="M144.5,138c-4.6,0.1-8.4-3.4-8.5-8V83.8h0.3c1.4-4.2,5.9-6.5,10.2-5.1c3.2,1.1,5.4,4,5.5,7.3v36h48V86
			c0-4.4,3.6-8,8-8s8,3.6,8,8v44c0,4.6-3.1,8-7.5,8H144.5z"/>
		<path class="st1" d="M132.7,90c-3.6,0-6.9-2.3-8.2-5.7c-1.1-3-0.1-6.3,2.4-8.3l44-36c3.1-2.8,7.9-2.8,11,0l44,36
			c2.5,1.9,3.5,5.3,2.4,8.3c-1.3,3.4-4.5,5.7-8.2,5.7c-1.9,0-3.8-0.7-5.3-1.9l-38.5-31.5L138,88.1C136.5,89.3,134.6,90,132.7,90
			L132.7,90z"/>
		<path class="st1" d="M161.8,82v-0.3c-3.4-1-5.6-4.2-5.5-7.7c0-1.9,0.6-3.8,1.9-5.3c1.5-1.7,3.6-2.7,5.9-2.7h24
			c4.5-0.2,8.3,3.2,8.5,7.6c0,0.1,0,0.2,0,0.4c0,2.1-0.8,4.1-2.3,5.6c-1.7,1.6-3.9,2.5-6.2,2.4H161.8z"/>
		<path class="st1" d="M156.5,113c-3.6,0-7.5-2.9-7.5-7V90c0-4.1,4-7,7.5-7h16c3.7,0,6.5,3,6.5,7v16c0.1,3.8-2.9,6.9-6.7,7
			c-0.1,0-0.2,0-0.3,0H156.5z M165,99v-2h-2v2H165z"/>
	</g>
	<path class="st2" d="M140,86v44c0,2.3,2.2,4,4.5,4h64c2.3,0,3.5-1.7,3.5-4V86c0-5-8-5-8,0v44c1.3-1.5,2.8-2.9,4.5-4h-64
		c1.4,1.1,2.6,2.5,3.5,4V86C148,81,140,81,140,86L140,86z"/>
	<path class="st2" d="M135.5,85l44-36h-5.9l44,36c4.1,3.4,10.1-2.5,5.9-5.9l-44-36c-1.7-1.6-4.3-1.6-5.9,0l-44,36
		C125.3,82.5,131.3,88.4,135.5,85L135.5,85z"/>
	<path class="st2" d="M164,78h24c6,0,6-8,0-8h-24C159,70,159,78,164,78L164,78z"/>
	<path class="st2" d="M172,103h-15.5c1,1,1.5,2,2.5,3V90c-1,1-1.5,2-2.5,3h16c-1-1-2.5-2-3.5-3v16c0,4,6,4,6,0V90c0-1.6-0.9-3-2.5-3
		h-16c-1.6,0-3.5,1.4-3.5,3v16c0,1.6,1.9,3,3.5,3H172C176,109,176,103,172,103z"/>
	<path class="st3" d="M144.5,132c-1.2,0-2.5-0.8-2.5-2V86c0-1.1,0.9-2,2-2s2,0.9,2,2v42h60V86c0-1.1,0.9-2,2-2s2,0.9,2,2v44
		c0,2-1.1,2-1.5,2H144.5z"/>
	<path class="st3" d="M132.7,84c-1.1,0-2.1-0.7-2.5-1.7c-0.2-0.6,0-1.3,0.6-1.7l44-36c0.9-0.9,2.4-1,3.4,0c0,0,0,0,0,0l44,36
		c0.6,0.3,0.8,1,0.6,1.7c-0.4,1-1.4,1.7-2.5,1.7c-0.5,0-1.1-0.2-1.5-0.6l-42.3-34.6l-42.3,34.6C133.8,83.8,133.3,84,132.7,84
		L132.7,84L132.7,84z"/>
	<path class="st3" d="M164,76c-1.1,0-2-0.9-2-2s0.9-2,2-2h24c1.8,0,2.5,1,2.5,2s-0.7,2-2.5,2H164z"/>
	<path class="st3" d="M156.5,107c-0.6,0-1.2-0.4-1.5-1V90c0.3-0.6,0.9-1,1.5-1h16c0.5,0,0.5,1,0.5,1v16c0,0.3-0.1,0.5-0.2,0.7
		c-0.2,0.2-0.5,0.3-0.8,0.3H156.5z M157,105h14V91h-14V105z"/>
</g>
</svg>
