<?xml version="1.0" encoding="utf-8"?>
<!-- Generator: Adobe Illustrator 19.2.1, SVG Export Plug-In . SVG Version: 6.00 Build 0)  -->
<svg version="1.1" id="Layer_1" xmlns="http://www.w3.org/2000/svg" xmlns:xlink="http://www.w3.org/1999/xlink" x="0px" y="0px"
	 viewBox="0 0 352 176" style="enable-background:new 0 0 352 176;" xml:space="preserve">
<style type="text/css">
	.st0{opacity:0.6;}
	.st1{fill:#BFBFBF;}
	.st2{fill:#F4F4F4;}
</style>
<title>menu-settings-btn</title>
<g id="settings-btn-up">
	<g class="st0">
		<path d="M175.8,139.9c-4.3,0.2-7.8-3.2-8-7.4c0-0.1,0-0.2,0-0.3v-0.6c-6-1.1-11.7-3.5-16.8-6.9l-0.5,0.5c-1.5,1.5-3.6,2.4-5.7,2.4
			c-2.1,0-4.2-0.8-5.8-2.3c-1.6-1.5-2.5-3.5-2.5-5.7c-0.1-2.3,0.8-4.4,2.4-6.1l0.4-0.4c-0.4-0.6-0.8-1.2-1.2-1.8
			c-2.8-4.6-4.8-9.7-5.7-15.1h-0.7c-4.4,0-8-3.6-8-8s3.6-8,8-8h0.7c1.1-6,3.4-11.8,6.9-16.8l-0.4-0.5c-3.1-3.2-3.2-8.2-0.1-11.5
			c1.5-1.6,3.6-2.5,5.9-2.5c2.2,0,4.3,0.8,5.9,2.4l0.5,0.5c5-3.5,10.8-5.8,16.8-6.9v-0.7c0-4.4,3.6-8,8-8s8,3.6,8,8v0.6
			c2.4,0.4,4.7,1,6.9,1.8c3.5,1.3,6.9,3,10,5.1l0.4-0.5c1.5-1.5,3.6-2.4,5.7-2.4c2.1,0,4.2,0.8,5.8,2.3c1.6,1.5,2.5,3.5,2.5,5.7
			c0.1,2.3-0.8,4.4-2.4,6.1l-0.5,0.5c3.4,5,5.8,10.7,6.9,16.7h0.6c4.4,0,8,3.6,8,8s-3.6,8-8,8h-0.6c-1.2,6-3.6,11.7-7,16.8l0.6,0.6
			c3.1,3.2,3.2,8.2,0.1,11.5c-1.5,1.6-3.6,2.5-5.9,2.5c-2.2,0-4.3-0.8-5.9-2.4l-0.4-0.4c-4.9,3.4-10.5,5.7-16.4,6.9l-0.6,0.1v0.5
			c0,4.3-3.4,7.7-7.7,7.8C176,139.9,175.9,139.9,175.8,139.9z M175.9,60.4c-15.4,0-27.8,12.5-27.8,27.8S160.6,116,176,116
			c3.2,0,6.3-0.5,9.2-1.6c10.8-3.9,18.1-14.4,18.4-26.2c-0.2-13.4-9.7-24.8-22.9-27.4C179.2,60.5,177.5,60.4,175.9,60.4z"/>
	</g>
	<path class="st1" d="M219.8,84.1h-4c-0.8-7.7-3.9-15.1-8.8-21.1c1-1,2-2,2.9-3c1.7-1.6,1.7-4.3,0-6s-4.3-1.7-6,0l0,0l-2.9,3
		c-3.5-2.9-7.5-5.1-11.8-6.6c-3.1-1.1-6.3-1.8-9.5-2.1v-4.1c0-5-8-5-8,0v4.1c-7.7,0.8-15.1,3.8-21.1,8.7c-1-1-2-1.9-2.9-2.9
		c-1.6-1.7-4.3-1.7-6,0c-1.7,1.6-1.7,4.3,0,6c1,1,1.9,2,2.9,2.9c-4.9,6-7.9,13.4-8.7,21.1h-4.2c-5,0-5,8,0,8h4.1
		c0.5,6,2.5,11.8,5.6,17c0.9,1.5,1.9,2.9,3,4.3c-1,1-1.9,1.9-2.9,2.9c-1.7,1.6-1.7,4.3,0,6s4.3,1.7,6,0c1-1,2-1.9,3-2.9
		c6.1,4.9,13.4,7.9,21.1,8.7v4.1c0,5,8,5,8,0v-4c1-0.1,2.6-0.3,3.8-0.5c6.4-1.3,12.4-4.1,17.5-8.3c1,1,2,1.9,2.9,2.9
		c1.6,1.7,4.3,1.7,6,0s1.7-4.3,0-6c-1-1-2-2.1-2.9-3.1c4.8-6.1,7.9-13.4,8.8-21.1h4C224.8,92.1,224.8,84.1,219.8,84.1z M186.6,118.1
		c-16.5,5.9-34.8-2.6-40.7-19.2s2.6-34.8,19.2-40.7c5.3-1.9,10.9-2.4,16.4-1.4c15.2,2.8,25.9,16.1,26.1,31.3
		C207.4,101.5,199.2,113.6,186.6,118.1z"/>
	<path class="st2" d="M175.8,133.9c-1,0.1-1.9-0.6-2-1.6c0,0,0-0.1,0-0.1v-5.9l-1.8-0.2c-7.4-0.7-14.3-3.6-20.1-8.3l-1.4-1.1
		l-1.3,1.3c-0.5,0.5-1,0.9-1.4,1.4s-1,1-1.5,1.5c-0.4,0.4-0.9,0.6-1.5,0.6c-0.6,0-1.2-0.3-1.7-0.7c-0.4-0.4-0.6-0.9-0.6-1.4
		c0-0.6,0.2-1.2,0.6-1.7l1.4-1.5l1.4-1.4l1.3-1.3l-1.1-1.4c-1.1-1.3-2-2.7-2.9-4.1c-3-4.9-4.8-10.4-5.4-16.1l-0.2-1.8h-6
		c-1.1,0-2-0.9-2-2s0.9-2,2-2h6l0.2-1.8c0.7-7.4,3.6-14.4,8.2-20.1l1.1-1.4l-1.3-1.3c-0.5-0.5-0.9-1-1.4-1.5s-1-1-1.4-1.5
		c-0.8-0.9-0.8-2.3,0.1-3.2c0.4-0.4,0.9-0.6,1.4-0.6c0.6,0,1.2,0.2,1.6,0.6l1.5,1.5l1.4,1.4l1.3,1.3l1.4-1.1
		c5.8-4.7,12.8-7.6,20.1-8.3l1.8-0.2v-5.9c0-1.1,0.9-2,2-2s2,0.9,2,2V50l1.8,0.2c3.1,0.3,6.1,1,9.1,2c4.1,1.5,7.8,3.6,11.2,6.3
		l1.4,1.2l4.2-4.2c0.4-0.4,0.9-0.6,1.5-0.6c0.6,0,1.2,0.3,1.7,0.7c0.4,0.4,0.6,0.9,0.5,1.5c0,0.6-0.2,1.2-0.6,1.7l-1.5,1.5l-1.4,1.5
		l-1.3,1.3l1.1,1.4c4.6,5.8,7.5,12.7,8.3,20.1l0.2,1.8h5.8c1.1,0,2,0.9,2,2s-0.9,2-2,2h-5.8l-0.2,1.8c-0.9,7.3-3.8,14.3-8.3,20.1
		l-1.1,1.4l1.3,1.3c0.5,0.5,0.9,1,1.4,1.5s1,1.1,1.5,1.6c0.8,0.9,0.8,2.3-0.1,3.2c-0.4,0.4-0.9,0.6-1.4,0.6c-0.6,0-1.2-0.2-1.6-0.6
		l-1.5-1.4l-1.4-1.4l-1.3-1.3l-1.4,1.2c-4.8,3.9-10.5,6.6-16.5,7.8c-1,0.2-2.2,0.3-3.2,0.4l-2.3,0.3v5.8c0,1-0.9,1.8-1.9,1.7
		C175.8,133.9,175.8,133.9,175.8,133.9z M175.9,54.4c-18.7,0-33.8,15.2-33.8,33.9S157.3,122,176,122c3.8,0,7.6-0.7,11.2-2
		c13.1-4.7,22.1-17.4,22.4-31.8c-0.3-16.5-12-30.5-27.8-33.3C179.9,54.5,177.9,54.4,175.9,54.4z"/>
</g>
</svg>
