<?xml version="1.0" encoding="utf-8"?>
<!-- Generator: Adobe Illustrator 19.2.1, SVG Export Plug-In . SVG Version: 6.00 Build 0)  -->
<svg version="1.1" id="sound" xmlns="http://www.w3.org/2000/svg" xmlns:xlink="http://www.w3.org/1999/xlink" x="0px" y="0px"
	 viewBox="0 0 176 176" style="enable-background:new 0 0 176 176;" xml:space="preserve">
<style type="text/css">
	.st0{opacity:0.6;}
	.st1{fill:#BFBFBF;}
	.st2{fill:#F4F4F4;}
	.st3{opacity:0.6;enable-background:new    ;}
</style>
<title>menu-sound-close-btn</title>
<g id="sound-btn-off-up">
	<g class="st0">
		<path d="M81,122.8c-6.4,0-9.6-4-12.2-7.2l-0.9-1.1c-0.7-0.8-1.3-1.6-2-2.3c-1.1-1.3-2.2-2.6-3.4-4.1H43c-4.4,0-8-3.6-8-8
			c0,0,0,0,0-0.1V67.7c0-4.2,3.2-8.7,8-8.7h19.5l1.3-1.8c4.2-5.6,9.5-12.7,17.3-12.7c2.3,0,4.5,0.6,6.5,1.8
			c8.1,4.5,7.8,13.8,7.5,20.6c0,1.2-0.1,2.3-0.1,3.3v31.5c0,5.8,0,12.9-4.5,17.4C88,121.6,84.5,122.9,81,122.8L81,122.8z M63.7,91.5
			c2.4-0.1,4.8,0.4,6.9,1.5c3,1.7,5.3,4.8,7.3,7.6c0.4,0.6,0.8,1.1,1.2,1.6c0-0.8-0.1-1.5-0.1-2.2V69c0-1,0-2,0.1-3
			c0-0.4,0-0.7,0-1.1l-6.2,7.9c-0.1,0.1-0.2,0.3-0.3,0.4c-1.6,1.9-3.9,2.9-6.4,2.8H51v16h4.7c0.8,0,1.9-0.1,3-0.2
			C60.3,91.7,62,91.5,63.7,91.5z"/>
	</g>
	<path class="st1" d="M85.7,49.8C76.2,44.6,69.5,57,64.4,63H43c-2.3,0-4,2.4-4,4.7v32.3c0,2.2,1.7,4,3.9,4.1c0,0,0,0,0.1,0h21.5
		c2.2,3,4.3,5.2,6.4,7.8c2.8,3.4,5,6.9,10,6.9c10.5,0,10-10.6,10-18V70.3C91,63.5,92.8,53.7,85.7,49.8z M82.9,108.4
		c-1.4,4.9-4.8-1-6.2-2.8c-2.3-2.8-4.9-7.3-8-9.2s-9.5-0.4-13-0.4H47V72h18.6c1.3,0,2.7,0.1,3.9-1.3c0,0,0-0.1,0-0.1l0.1-0.1
		l7.7-9.7c1.6-1.9,4.7-6.4,5.6-1.2c0.5,2.9,0.1,6.4,0.1,9.4v31C83,102.5,83.6,106,82.9,108.4z"/>
	<path class="st2" d="M81,116.8c-3.3,0-4.9-1.8-7.5-5l-1-1.2c-0.7-0.8-1.4-1.6-2-2.4c-1.5-1.7-2.9-3.3-4.3-5.3l-0.6-0.8H43
		c-1.1,0-2-0.9-2-2c0,0,0,0,0-0.1V67.7c0-1.3,1-2.7,2-2.7h22.4l0.6-0.7c0.9-1,1.8-2.2,2.7-3.5c3.4-4.6,7.7-10.3,12.5-10.3
		c1.3,0,2.5,0.4,3.6,1c4.9,2.7,4.6,9,4.4,15.1C89,67.9,89,69.1,89,70.3v31.5c0,4.7,0,10.4-2.7,13.2C84.9,116.3,82.9,116.9,81,116.8
		L81,116.8L81,116.8z M63.7,97.5c1.3-0.1,2.7,0.1,3.9,0.7c1.9,1.1,3.8,3.7,5.4,5.9c0.7,1,1.4,2,2.1,2.8c0.2,0.2,0.5,0.6,0.7,1
		c1.5,2.1,3.2,4.4,5.5,4.4c0.9,0,2.7-0.4,3.5-3.3c0.4-2.2,0.5-4.4,0.3-6.6c-0.1-0.9-0.1-1.7-0.1-2.4V69c0-0.9,0-1.8,0.1-2.7
		c0.2-2.3,0.1-4.7-0.2-7c-0.6-3.3-2.3-4.1-3.6-4.1c-2.2,0-3.9,2.2-5.3,4l-8.2,10.2v0.1l-0.1,0.1l0,0c-0.4,0.4-1,0.5-1.5,0.4H45v28
		h10.7c1,0,2.3-0.1,3.6-0.2C60.8,97.6,62.3,97.5,63.7,97.5z"/>
	<path class="st3" d="M104.2,106.2c-3.4-0.1-6.5-2.2-7.8-5.3c-1.2-3-0.5-6.4,1.8-8.7l8.2-8.2l-8.2-8.2c-2.3-2.2-3-5.7-1.8-8.7
		c1.3-3.2,4.3-5.3,7.8-5.3c2.1,0,4.1,0.9,5.6,2.4l8.2,8.2l8.2-8.2c1.5-1.5,3.5-2.4,5.6-2.4c3.4,0.1,6.5,2.2,7.8,5.3
		c1.2,3,0.5,6.4-1.8,8.7l-8.2,8.2l8.2,8.2c2.3,2.2,3,5.7,1.8,8.7c-1.3,3.2-4.3,5.3-7.8,5.3l0,0c-2.1,0-4.2-0.9-5.6-2.4l-8.2-8.2
		l-8.2,8.2C108.3,105.3,106.3,106.2,104.2,106.2z"/>
	<path class="st1" d="M135,95.1l-11-11l11-11c3.8-3.8-2.1-9.8-5.9-5.9l-11,11l-11-11c-3.9-3.9-9.9,2.1-6.1,5.9l11,11l-11,11
		c-3.8,3.8,2.1,9.8,5.9,5.9l11-11l11,11C132.9,104.8,138.8,98.9,135,95.1z"/>
	<path class="st2" d="M104.2,100.2c-1-0.1-1.8-0.7-2.2-1.6c-0.3-0.7-0.1-1.6,0.5-2.1L114.9,84l-12.4-12.4c-0.6-0.5-0.8-1.4-0.5-2.1
		c0.4-0.9,1.2-1.5,2.2-1.6c0.5,0,1,0.3,1.4,0.7L118,80.9l12.4-12.4c0.4-0.4,0.9-0.6,1.4-0.7c1,0.1,1.8,0.7,2.2,1.6
		c0.3,0.7,0.1,1.6-0.5,2.1L121.1,84l12.4,12.4c0.6,0.5,0.8,1.4,0.5,2.1c-0.4,0.9-1.2,1.5-2.2,1.6l0,0c-0.5,0-1-0.3-1.4-0.7L118,87.1
		l-12.4,12.5C105.2,100,104.7,100.2,104.2,100.2z"/>
</g>
</svg>
