<?xml version="1.0" encoding="utf-8"?>
<!-- Generator: Adobe Illustrator 19.2.1, SVG Export Plug-In . SVG Version: 6.00 Build 0)  -->
<svg version="1.1" id="Layer_1" xmlns="http://www.w3.org/2000/svg" xmlns:xlink="http://www.w3.org/1999/xlink" x="0px" y="0px"
	 viewBox="0 0 176 176" style="enable-background:new 0 0 176 176;" xml:space="preserve">
<style type="text/css">
	.st0{opacity:0.6;enable-background:new    ;}
	.st1{fill:#BFBFBF;}
	.st2{fill:#F4F4F4;}
</style>
<title>settings-menu-up</title>
<g id="settings-btn-up">
	<path class="st0" d="M68.2,68c-4.4,0-8-3.6-8-8s3.6-8,8-8h56c4.4,0,8,3.6,8,8s-3.6,8-8,8H68.2z"/>
	<path class="st1" d="M68,64h56c6,0,6-8,0-8H68C63,56,63,64,68,64L68,64z"/>
	<path class="st2" d="M68.2,62c-1.1,0-2-0.9-2-2s0.9-2,2-2h56c1.1,0,2,0.9,2,2s-0.9,2-2,2H68.2z"/>
	<path class="st0" d="M44.2,68c-4.4,0.1-8-3.4-8.2-7.8c-0.1-2.1,0.7-4.2,2.2-5.7c1.6-1.6,3.7-2.5,6-2.5h4c4.4,0,8.1,3.6,8.2,8
		c0.1,2.1-0.7,4.1-2.2,5.6c-1.6,1.6-3.8,2.5-6,2.4L44.2,68L44.2,68z"/>
	<path class="st1" d="M44.2,64h4c2.2,0,4-1.8,4-4s-1.8-4-4-4h-4c-2.2,0-4,1.8-4,4S42,64,44.2,64L44.2,64z"/>
	<path class="st2" d="M44.2,62c-1.2,0-2.1-0.9-2.2-2c0,0,0,0,0-0.1c0-0.5,0.2-0.9,0.6-1.3c0.4-0.4,1-0.7,1.6-0.7h4
		c1.2,0,2.2,1.1,2.2,2.3c0,0.5-0.2,0.9-0.6,1.2c-0.4,0.4-1,0.6-1.6,0.5H44.2z"/>
	<path class="st0" d="M44.2,96c-4.4,0.1-8-3.4-8.2-7.8c-0.1-2.1,0.7-4.2,2.2-5.7c1.6-1.6,3.7-2.5,6-2.5h4c4.4,0,8.1,3.6,8.2,8
		c0.1,2.1-0.7,4.1-2.2,5.6c-1.6,1.6-3.8,2.5-6,2.4L44.2,96L44.2,96z"/>
	<path class="st1" d="M44.2,92h4c2.2,0,4-1.8,4-4s-1.8-4-4-4h-4c-2.2,0-4,1.8-4,4S42,92,44.2,92L44.2,92z"/>
	<path class="st2" d="M44.2,90c-1.2,0-2.1-0.9-2.2-2c0,0,0,0,0-0.1c0-0.5,0.2-0.9,0.6-1.3c0.4-0.4,1-0.7,1.6-0.7h4
		c1.2,0,2.2,1.1,2.2,2.3c0,0.5-0.2,0.9-0.6,1.2c-0.4,0.4-1,0.6-1.6,0.5H44.2z"/>
	<path class="st0" d="M68.2,96c-4.4,0-8-3.6-8-8s3.6-8,8-8h56c4.4,0,8,3.6,8,8s-3.6,8-8,8H68.2z"/>
	<path class="st1" d="M68,92h56c6,0,6-8,0-8H68C63,84,63,92,68,92L68,92z"/>
	<path class="st2" d="M68.2,90c-1.1,0-2-0.9-2-2s0.9-2,2-2h56c1.1,0,2,0.9,2,2s-0.9,2-2,2H68.2z"/>
	<path class="st0" d="M68.2,124c-4.4,0-8-3.6-8-8s3.6-8,8-8h56c4.4,0,8,3.6,8,8s-3.6,8-8,8H68.2z"/>
	<path class="st1" d="M68,120h56c6,0,6-8,0-8H68C63,112,63,120,68,120L68,120z"/>
	<path class="st2" d="M68.2,118c-1.1,0-2-0.9-2-2s0.9-2,2-2h56c1.1,0,2,0.9,2,2s-0.9,2-2,2H68.2z"/>
	<path class="st0" d="M44.2,124c-4.4,0.1-8-3.4-8.2-7.8c-0.1-2.1,0.7-4.2,2.2-5.7c1.6-1.6,3.7-2.5,6-2.5h4c4.4,0,8.1,3.6,8.2,8
		c0.1,2.1-0.7,4.1-2.2,5.6c-1.6,1.6-3.8,2.5-6,2.4L44.2,124L44.2,124z"/>
	<path class="st1" d="M44.2,120h4c2.2,0,4-1.8,4-4s-1.8-4-4-4h-4c-2.2,0-4,1.8-4,4S42,120,44.2,120L44.2,120z"/>
	<path class="st2" d="M44.2,118c-1.2,0-2.1-0.9-2.2-2c0,0,0,0,0-0.1c0-0.5,0.2-0.9,0.6-1.3c0.4-0.4,1-0.7,1.6-0.7h4
		c1.2,0,2.2,1.1,2.2,2.3c0,0.5-0.2,0.9-0.6,1.2c-0.4,0.4-1,0.6-1.6,0.6C48.2,118,44.2,118,44.2,118z"/>
</g>
</svg>
